G04 #@! TF.FileFunction,Copper,L2,Bot,Signal*
%FSLAX46Y46*%
G04 Gerber Fmt 4.6, Leading zero omitted, Abs format (unit mm)*
G04 Created by KiCad (PCBNEW 4.0.5+dfsg1-4) date Sun Sep 22 15:40:00 2019*
%MOMM*%
%LPD*%
G01*
G04 APERTURE LIST*
%ADD10C,0.100000*%
%ADD11R,0.797560X0.797560*%
%ADD12R,2.200000X0.600000*%
%ADD13R,1.727200X1.727200*%
%ADD14O,1.727200X1.727200*%
%ADD15R,1.200000X0.900000*%
%ADD16C,0.787400*%
%ADD17C,0.800000*%
%ADD18C,0.250000*%
G04 APERTURE END LIST*
D10*
D11*
X59750700Y-39300000D03*
X61249300Y-39300000D03*
X58400700Y-53850000D03*
X59899300Y-53850000D03*
X51275700Y-47175000D03*
X52774300Y-47175000D03*
X42950700Y-55575000D03*
X44449300Y-55575000D03*
X37150700Y-49975000D03*
X38649300Y-49975000D03*
X43375700Y-41700000D03*
X44874300Y-41700000D03*
X37924300Y-24450000D03*
X36425700Y-24450000D03*
D10*
G36*
X47222165Y-24969795D02*
X46658205Y-24405835D01*
X47222165Y-23841875D01*
X47786125Y-24405835D01*
X47222165Y-24969795D01*
X47222165Y-24969795D01*
G37*
G36*
X48281835Y-23910125D02*
X47717875Y-23346165D01*
X48281835Y-22782205D01*
X48845795Y-23346165D01*
X48281835Y-23910125D01*
X48281835Y-23910125D01*
G37*
G36*
X60219835Y-33704205D02*
X60783795Y-34268165D01*
X60219835Y-34832125D01*
X59655875Y-34268165D01*
X60219835Y-33704205D01*
X60219835Y-33704205D01*
G37*
G36*
X59160165Y-34763875D02*
X59724125Y-35327835D01*
X59160165Y-35891795D01*
X58596205Y-35327835D01*
X59160165Y-34763875D01*
X59160165Y-34763875D01*
G37*
D12*
X38625000Y-40105000D03*
X34625000Y-40105000D03*
X38625000Y-38835000D03*
X34625000Y-38835000D03*
X38625000Y-37565000D03*
X34625000Y-37565000D03*
X38625000Y-36295000D03*
X34625000Y-36295000D03*
X38625000Y-35025000D03*
X34625000Y-35025000D03*
X38625000Y-33755000D03*
X34625000Y-33755000D03*
X38625000Y-32485000D03*
X34625000Y-32485000D03*
D13*
X29025000Y-64200000D03*
D14*
X29025000Y-61660000D03*
X31565000Y-64200000D03*
X31565000Y-61660000D03*
X34105000Y-64200000D03*
X34105000Y-61660000D03*
D15*
X36235001Y-26520000D03*
X38435001Y-26520000D03*
X44788000Y-26416000D03*
X42588000Y-26416000D03*
X56726000Y-38862000D03*
X54526000Y-38862000D03*
D16*
X28305000Y-57615000D03*
X28305000Y-56345000D03*
X28305000Y-55075000D03*
X28305000Y-53805000D03*
X28305000Y-52535000D03*
X29575000Y-52535000D03*
X29575000Y-53805000D03*
X29575000Y-55075000D03*
X29575000Y-56345000D03*
X29575000Y-57615000D03*
D17*
X38611506Y-40197347D03*
X45350000Y-35670000D03*
X45260000Y-38560000D03*
X28305000Y-56345000D03*
X29575000Y-52535000D03*
X27845084Y-48395084D03*
X34390000Y-57980000D03*
X32410000Y-42070000D03*
X32470000Y-58261134D03*
X31989617Y-43609617D03*
D18*
X44339065Y-63390000D02*
X44442275Y-63286790D01*
X42950700Y-55575000D02*
X41665000Y-55575000D01*
X41665000Y-55575000D02*
X40650000Y-56590000D01*
X40650000Y-56590000D02*
X39260000Y-56590000D01*
X39260000Y-56590000D02*
X36780000Y-59070000D01*
X56981920Y-54620000D02*
X57751920Y-53850000D01*
X36780000Y-59070000D02*
X36780000Y-60850000D01*
X36780000Y-60850000D02*
X39320000Y-63390000D01*
X53440000Y-58430000D02*
X53440000Y-56110000D01*
X47693210Y-63286790D02*
X50960000Y-60020000D01*
X50960000Y-60020000D02*
X51850000Y-60020000D01*
X39320000Y-63390000D02*
X44339065Y-63390000D01*
X44442275Y-63286790D02*
X47693210Y-63286790D01*
X51850000Y-60020000D02*
X53440000Y-58430000D01*
X53440000Y-56110000D02*
X54930000Y-54620000D01*
X54930000Y-54620000D02*
X56981920Y-54620000D01*
X57751920Y-53850000D02*
X58400700Y-53850000D01*
X38625000Y-38835000D02*
X38625000Y-39385000D01*
X38716799Y-39476799D02*
X39987561Y-39476799D01*
X38625000Y-39385000D02*
X38716799Y-39476799D01*
X39987561Y-39476799D02*
X40053201Y-39542439D01*
X40053201Y-39542439D02*
X40053201Y-41725865D01*
X38571099Y-50701981D02*
X38649300Y-50623780D01*
X40053201Y-41725865D02*
X36423719Y-45355347D01*
X36423719Y-45355347D02*
X36423719Y-50636341D01*
X36423719Y-50636341D02*
X36489359Y-50701981D01*
X36489359Y-50701981D02*
X38571099Y-50701981D01*
X38649300Y-50623780D02*
X38649300Y-49975000D01*
X44840000Y-51800000D02*
X43015000Y-49975000D01*
X43015000Y-49975000D02*
X38649300Y-49975000D01*
X44840000Y-52770000D02*
X44840000Y-51800000D01*
X44286920Y-53590000D02*
X44286920Y-53323080D01*
X44286920Y-53323080D02*
X44840000Y-52770000D01*
X42950700Y-55575000D02*
X42950700Y-54926220D01*
X42950700Y-54926220D02*
X44286920Y-53590000D01*
X52774300Y-47175000D02*
X54695000Y-47175000D01*
X54695000Y-47175000D02*
X55860000Y-48340000D01*
X60410000Y-48340000D02*
X60830000Y-48760000D01*
X55860000Y-48340000D02*
X60410000Y-48340000D01*
X60830000Y-48760000D02*
X60830000Y-50750000D01*
X60830000Y-50750000D02*
X60311920Y-51268080D01*
X60311920Y-51268080D02*
X60311920Y-51290000D01*
X60311920Y-51290000D02*
X58400700Y-53201220D01*
X58400700Y-53201220D02*
X58400700Y-53850000D01*
X56480000Y-41080000D02*
X55940000Y-41620000D01*
X55940000Y-41620000D02*
X55580000Y-41620000D01*
X56480934Y-41080000D02*
X56480000Y-41080000D01*
X45222310Y-40703210D02*
X56104144Y-40703210D01*
X56104144Y-40703210D02*
X56480934Y-41080000D01*
X44874300Y-41700000D02*
X44874300Y-41051220D01*
X44874300Y-41051220D02*
X45222310Y-40703210D01*
X38625000Y-37565000D02*
X45705935Y-37565000D01*
X45705935Y-37565000D02*
X50457724Y-32813210D01*
X50457724Y-32813210D02*
X57673662Y-32813210D01*
X57673662Y-32813210D02*
X60052335Y-35191883D01*
X60052335Y-35191883D02*
X60052335Y-36713320D01*
X61888842Y-40048780D02*
X59950700Y-40048780D01*
X60052335Y-36713320D02*
X62176281Y-38837266D01*
X62176281Y-38837266D02*
X62176281Y-39761341D01*
X62176281Y-39761341D02*
X61888842Y-40048780D01*
X58391920Y-40310000D02*
X57250934Y-40310000D01*
X59950700Y-40048780D02*
X59950700Y-39400000D01*
X57250934Y-40310000D02*
X56480934Y-41080000D01*
X59950700Y-39400000D02*
X59301920Y-39400000D01*
X59301920Y-39400000D02*
X58391920Y-40310000D01*
X53631920Y-43568080D02*
X55580000Y-41620000D01*
X59899300Y-53850000D02*
X59899300Y-53201220D01*
X59899300Y-53201220D02*
X61283210Y-51817310D01*
X61283210Y-51817310D02*
X61283210Y-48572275D01*
X61283210Y-48572275D02*
X60597725Y-47886790D01*
X56047724Y-47886790D02*
X53631920Y-45470986D01*
X60597725Y-47886790D02*
X56047724Y-47886790D01*
X53631920Y-45470986D02*
X53631920Y-44170000D01*
X51275700Y-47175000D02*
X51275700Y-46526220D01*
X51275700Y-46526220D02*
X53631920Y-44170000D01*
X53631920Y-44170000D02*
X53631920Y-43568080D01*
X61449300Y-39400000D02*
X61449300Y-38751220D01*
X61449300Y-38751220D02*
X60928080Y-38230000D01*
X60928080Y-38230000D02*
X58998762Y-38230000D01*
X58998762Y-38230000D02*
X57558762Y-39670000D01*
X57558762Y-39670000D02*
X57250000Y-39670000D01*
X57250000Y-39670000D02*
X56670000Y-40250000D01*
X56670000Y-40250000D02*
X44935978Y-40250000D01*
X38625000Y-36295000D02*
X37904238Y-36295000D01*
X37904238Y-36295000D02*
X37196799Y-37002439D01*
X37196799Y-37002439D02*
X37196799Y-38127561D01*
X37196799Y-38127561D02*
X37262439Y-38193201D01*
X37262439Y-38193201D02*
X42879179Y-38193201D01*
X42879179Y-38193201D02*
X44935978Y-40250000D01*
X44449300Y-55575000D02*
X44449300Y-54926220D01*
X43838019Y-49248019D02*
X37951099Y-49248019D01*
X44449300Y-54926220D02*
X45340000Y-54035520D01*
X45340000Y-54035520D02*
X45340000Y-50750000D01*
X45340000Y-50750000D02*
X43838019Y-49248019D01*
X37951099Y-49248019D02*
X37590000Y-48886920D01*
X43375700Y-41700000D02*
X43485978Y-41700000D01*
X43485978Y-41700000D02*
X44935978Y-40250000D01*
X37590000Y-44830000D02*
X40720000Y-41700000D01*
X40720000Y-41700000D02*
X43375700Y-41700000D01*
X37590000Y-48886920D02*
X37590000Y-44830000D01*
X37150700Y-49975000D02*
X37150700Y-49326220D01*
X37150700Y-49326220D02*
X37590000Y-48886920D01*
X40140000Y-30420000D02*
X40140000Y-26016920D01*
X40140000Y-26016920D02*
X38573080Y-24450000D01*
X38573080Y-24450000D02*
X37924300Y-24450000D01*
X38625000Y-32485000D02*
X38625000Y-31935000D01*
X38625000Y-31935000D02*
X40140000Y-30420000D01*
X36235001Y-26520000D02*
X36235001Y-24640699D01*
X36235001Y-24640699D02*
X36425700Y-24450000D01*
X40030000Y-33810000D02*
X47222165Y-26617835D01*
X47222165Y-26617835D02*
X47222165Y-24405835D01*
X38625000Y-33755000D02*
X39975000Y-33755000D01*
X39975000Y-33755000D02*
X40030000Y-33810000D01*
X44788000Y-26416000D02*
X44788000Y-25716000D01*
X44788000Y-25716000D02*
X47157835Y-23346165D01*
X47157835Y-23346165D02*
X47617875Y-23346165D01*
X47617875Y-23346165D02*
X48281835Y-23346165D01*
X50270000Y-32360000D02*
X58311670Y-32360000D01*
X58311670Y-32360000D02*
X60219835Y-34268165D01*
X45518210Y-37111790D02*
X50270000Y-32360000D01*
X42061790Y-37111790D02*
X45518210Y-37111790D01*
X38625000Y-35025000D02*
X39975000Y-35025000D01*
X39975000Y-35025000D02*
X42061790Y-37111790D01*
X56726000Y-38862000D02*
X56726000Y-37762000D01*
X56726000Y-37762000D02*
X59160165Y-35327835D01*
X42588000Y-26416000D02*
X42738000Y-26416000D01*
X42738000Y-26416000D02*
X44292000Y-27970000D01*
X44292000Y-27970000D02*
X44292000Y-28822360D01*
X39987561Y-33126799D02*
X37262439Y-33126799D01*
X37262439Y-33126799D02*
X37196799Y-33192439D01*
X44292000Y-28822360D02*
X39987561Y-33126799D01*
X37196799Y-33192439D02*
X37196799Y-34317561D01*
X37196799Y-34317561D02*
X37262439Y-34383201D01*
X37262439Y-34383201D02*
X44063201Y-34383201D01*
X44063201Y-34383201D02*
X44950001Y-35270001D01*
X44950001Y-35270001D02*
X45350000Y-35670000D01*
X38435001Y-26520000D02*
X38435001Y-27220000D01*
X35306800Y-24180578D02*
X35764359Y-23723019D01*
X35764359Y-23723019D02*
X39045019Y-23723019D01*
X38435001Y-27220000D02*
X38356800Y-27298201D01*
X35372440Y-27298201D02*
X35306800Y-27232561D01*
X38356800Y-27298201D02*
X35372440Y-27298201D01*
X35306800Y-27232561D02*
X35306800Y-24180578D01*
X39045019Y-23723019D02*
X41738000Y-26416000D01*
X41738000Y-26416000D02*
X42588000Y-26416000D01*
X59580000Y-30780000D02*
X50240000Y-30780000D01*
X50240000Y-30780000D02*
X45350000Y-35670000D01*
X61410000Y-32610000D02*
X59580000Y-30780000D01*
X61410000Y-34810000D02*
X61410000Y-32610000D01*
X61340000Y-34880000D02*
X61410000Y-34810000D01*
X61340000Y-36550000D02*
X61340000Y-34880000D01*
X64710000Y-39920000D02*
X61340000Y-36550000D01*
X70190000Y-39920000D02*
X64710000Y-39920000D01*
X70670000Y-40400000D02*
X70190000Y-39920000D01*
X70670000Y-42540000D02*
X70670000Y-40400000D01*
X69890000Y-43320000D02*
X70670000Y-42540000D01*
X69890000Y-44210000D02*
X69890000Y-43320000D01*
X64320000Y-49780000D02*
X69890000Y-44210000D01*
X64320000Y-51370000D02*
X64320000Y-49780000D01*
X66380000Y-53430000D02*
X64320000Y-51370000D01*
X68090000Y-53430000D02*
X66380000Y-53430000D01*
X69660000Y-55000000D02*
X68090000Y-53430000D01*
X69660000Y-58140000D02*
X69660000Y-55000000D01*
X65540000Y-62260000D02*
X69660000Y-58140000D01*
X50330000Y-62260000D02*
X65540000Y-62260000D01*
X48850000Y-63740000D02*
X50330000Y-62260000D01*
X44630000Y-63740000D02*
X48850000Y-63740000D01*
X42160000Y-66210000D02*
X44630000Y-63740000D01*
X29921400Y-66210000D02*
X42160000Y-66210000D01*
X29025000Y-64200000D02*
X29025000Y-65313600D01*
X29025000Y-65313600D02*
X29921400Y-66210000D01*
X38625000Y-40105000D02*
X38625000Y-40183853D01*
X38625000Y-40183853D02*
X38611506Y-40197347D01*
X54526000Y-38862000D02*
X45562000Y-38862000D01*
X45562000Y-38862000D02*
X45260000Y-38560000D01*
X54526000Y-38862000D02*
X53258000Y-38862000D01*
X29025000Y-61660000D02*
X27803686Y-61660000D01*
X27803686Y-61660000D02*
X27004881Y-60861195D01*
X27004881Y-60861195D02*
X27004881Y-55105119D01*
X27911301Y-54198699D02*
X28305000Y-53805000D01*
X27004881Y-55105119D02*
X27911301Y-54198699D01*
X26970000Y-50300000D02*
X26970000Y-52470000D01*
X26970000Y-52470000D02*
X28305000Y-53805000D01*
X34625000Y-42645000D02*
X26970000Y-50300000D01*
X34625000Y-40105000D02*
X34625000Y-42645000D01*
X28305000Y-57615000D02*
X27911301Y-58008699D01*
X27911301Y-58008699D02*
X27911301Y-59075083D01*
X27911301Y-59075083D02*
X28544719Y-59708501D01*
X30420000Y-58623782D02*
X30420000Y-52019782D01*
X36053201Y-41857733D02*
X36053201Y-39463201D01*
X28544719Y-59708501D02*
X29335281Y-59708501D01*
X29335281Y-59708501D02*
X30420000Y-58623782D01*
X30420000Y-52019782D02*
X31150000Y-51289782D01*
X31150000Y-51289782D02*
X31150000Y-46760934D01*
X31150000Y-46760934D02*
X36053201Y-41857733D01*
X36053201Y-39463201D02*
X35425000Y-38835000D01*
X35425000Y-38835000D02*
X34625000Y-38835000D01*
X29523006Y-60161711D02*
X30873210Y-58811507D01*
X30873210Y-52207506D02*
X31603210Y-51477506D01*
X30873210Y-58811507D02*
X30873210Y-52207506D01*
X35425000Y-37565000D02*
X34625000Y-37565000D01*
X31603210Y-51477506D02*
X31603210Y-46948658D01*
X36100000Y-38869066D02*
X36100000Y-38240000D01*
X31603210Y-46948658D02*
X36506411Y-42045457D01*
X36506411Y-42045457D02*
X36506411Y-39275477D01*
X36506411Y-39275477D02*
X36100000Y-38869066D01*
X36100000Y-38240000D02*
X35425000Y-37565000D01*
X31565000Y-61660000D02*
X30066711Y-60161711D01*
X30066711Y-60161711D02*
X29523006Y-60161711D01*
X27458091Y-59262808D02*
X27458091Y-55921909D01*
X27911301Y-55468699D02*
X28305000Y-55075000D01*
X29523006Y-60161711D02*
X28356994Y-60161711D01*
X28356994Y-60161711D02*
X27458091Y-59262808D01*
X27458091Y-55921909D02*
X27911301Y-55468699D01*
X28324533Y-48304533D02*
X28233982Y-48395084D01*
X28233982Y-48395084D02*
X27845084Y-48395084D01*
X33196799Y-43432267D02*
X28324533Y-48304533D01*
X34625000Y-36295000D02*
X33825000Y-36295000D01*
X33196799Y-36923201D02*
X33196799Y-43432267D01*
X33825000Y-36295000D02*
X33196799Y-36923201D01*
X34105000Y-61660000D02*
X31326420Y-58881420D01*
X32056420Y-47276420D02*
X32056420Y-47136382D01*
X36553210Y-36153210D02*
X35425000Y-35025000D01*
X31326420Y-58881420D02*
X31326420Y-52395230D01*
X31326420Y-52395230D02*
X32080000Y-51641650D01*
X32080000Y-51641650D02*
X32080000Y-47300000D01*
X32080000Y-47300000D02*
X32056420Y-47276420D01*
X32056420Y-47136382D02*
X36959621Y-42233182D01*
X36553210Y-38681341D02*
X36553210Y-36153210D01*
X35425000Y-35025000D02*
X34625000Y-35025000D01*
X36959621Y-42233182D02*
X36959621Y-39087752D01*
X36959621Y-39087752D02*
X36553210Y-38681341D01*
X34410000Y-59171302D02*
X35750011Y-60511313D01*
X34390000Y-57980000D02*
X34390000Y-58545685D01*
X34390000Y-58545685D02*
X34410000Y-58565685D01*
X34410000Y-58565685D02*
X34410000Y-59171302D01*
X32410000Y-42070000D02*
X32410000Y-35170000D01*
X32410000Y-35170000D02*
X33825000Y-33755000D01*
X33825000Y-33755000D02*
X34625000Y-33755000D01*
X35750011Y-60511313D02*
X35750011Y-64318855D01*
X35750011Y-64318855D02*
X34677065Y-65391801D01*
X34677065Y-65391801D02*
X32756801Y-65391801D01*
X32428599Y-65063599D02*
X31565000Y-64200000D01*
X32756801Y-65391801D02*
X32428599Y-65063599D01*
X35296801Y-61087935D02*
X32470000Y-58261134D01*
X34625000Y-32485000D02*
X33825000Y-32485000D01*
X33825000Y-32485000D02*
X31589618Y-34720382D01*
X31589618Y-34720382D02*
X31589618Y-43209618D01*
X31589618Y-43209618D02*
X31989617Y-43609617D01*
X34105000Y-64200000D02*
X35296801Y-63008199D01*
X35296801Y-63008199D02*
X35296801Y-61087935D01*
M02*
