G04 #@! TF.FileFunction,Copper,L1,Top,Signal*
%FSLAX46Y46*%
G04 Gerber Fmt 4.6, Leading zero omitted, Abs format (unit mm)*
G04 Created by KiCad (PCBNEW 4.0.5+dfsg1-4) date Sun Sep 22 15:40:00 2019*
%MOMM*%
%LPD*%
G01*
G04 APERTURE LIST*
%ADD10C,0.100000*%
%ADD11C,0.010000*%
%ADD12R,1.727200X1.727200*%
%ADD13O,1.727200X1.727200*%
%ADD14C,0.800000*%
%ADD15C,0.250000*%
G04 APERTURE END LIST*
D10*
D11*
G36*
X37877731Y-23426120D02*
X38105910Y-23434572D01*
X38384471Y-23448320D01*
X38543667Y-23456731D01*
X39538500Y-23509650D01*
X41137302Y-23976062D01*
X42200568Y-24688738D01*
X42509597Y-24896684D01*
X42756209Y-25065008D01*
X42948922Y-25200312D01*
X43096257Y-25309197D01*
X43206731Y-25398261D01*
X43288865Y-25474106D01*
X43351177Y-25543332D01*
X43402187Y-25612540D01*
X43412000Y-25627291D01*
X43542389Y-25840619D01*
X43693814Y-26111981D01*
X43855868Y-26420800D01*
X44018144Y-26746499D01*
X44170236Y-27068499D01*
X44301738Y-27366223D01*
X44347619Y-27477325D01*
X44558363Y-28000817D01*
X44556619Y-31785000D01*
X44555814Y-32377836D01*
X44554002Y-32963089D01*
X44551264Y-33532726D01*
X44547682Y-34078713D01*
X44543336Y-34593016D01*
X44538308Y-35067604D01*
X44532680Y-35494441D01*
X44526533Y-35865495D01*
X44519948Y-36172732D01*
X44513006Y-36408120D01*
X44508738Y-36510842D01*
X44495567Y-36843201D01*
X44485254Y-37231179D01*
X44478252Y-37645759D01*
X44475018Y-38057928D01*
X44476006Y-38438669D01*
X44477051Y-38532000D01*
X44480163Y-38834403D01*
X44482435Y-39202801D01*
X44483842Y-39618526D01*
X44484357Y-40062910D01*
X44483955Y-40517287D01*
X44482608Y-40962987D01*
X44480917Y-41287629D01*
X44470334Y-42963757D01*
X43888250Y-43012475D01*
X43511051Y-43043927D01*
X43210024Y-43068399D01*
X42976972Y-43086021D01*
X42803700Y-43096922D01*
X42682011Y-43101231D01*
X42603710Y-43099079D01*
X42560600Y-43090595D01*
X42544485Y-43075909D01*
X42547170Y-43055150D01*
X42557738Y-43033526D01*
X42589343Y-42938305D01*
X42624498Y-42769995D01*
X42661800Y-42540031D01*
X42699847Y-42259847D01*
X42737237Y-41940876D01*
X42772568Y-41594552D01*
X42804438Y-41232309D01*
X42831446Y-40865580D01*
X42839788Y-40733334D01*
X42864324Y-40357928D01*
X42889266Y-40051579D01*
X42916424Y-39798689D01*
X42947610Y-39583658D01*
X42984634Y-39390888D01*
X43006859Y-39294000D01*
X43070991Y-39004650D01*
X43139193Y-38654649D01*
X43209734Y-38256579D01*
X43280886Y-37823028D01*
X43350919Y-37366579D01*
X43418103Y-36899817D01*
X43480711Y-36435328D01*
X43537013Y-35985697D01*
X43585278Y-35563509D01*
X43623779Y-35181348D01*
X43650786Y-34851800D01*
X43664569Y-34587449D01*
X43666000Y-34496884D01*
X43671919Y-34327591D01*
X43688294Y-34097640D01*
X43713054Y-33830107D01*
X43744127Y-33548070D01*
X43768652Y-33353423D01*
X43817875Y-32975923D01*
X43863179Y-32611837D01*
X43903565Y-32270620D01*
X43938034Y-31961722D01*
X43965587Y-31694599D01*
X43985225Y-31478702D01*
X43995948Y-31323485D01*
X43996758Y-31238401D01*
X43993561Y-31225450D01*
X43946890Y-31217962D01*
X43826817Y-31208373D01*
X43644565Y-31197302D01*
X43411356Y-31185372D01*
X43138412Y-31173203D01*
X42836953Y-31161415D01*
X42834186Y-31161314D01*
X42522524Y-31149409D01*
X42230155Y-31137223D01*
X41970362Y-31125390D01*
X41756425Y-31114543D01*
X41601624Y-31105315D01*
X41522917Y-31098807D01*
X41348335Y-31077745D01*
X41319238Y-30476289D01*
X41307368Y-30264077D01*
X41290448Y-30007104D01*
X41269616Y-29718820D01*
X41246009Y-29412676D01*
X41220765Y-29102120D01*
X41195020Y-28800603D01*
X41169913Y-28521575D01*
X41146580Y-28278485D01*
X41126159Y-28084782D01*
X41109787Y-27953918D01*
X41102297Y-27910794D01*
X41073399Y-27847654D01*
X41043809Y-27847294D01*
X40991190Y-27947127D01*
X40940283Y-28131276D01*
X40891147Y-28399405D01*
X40843842Y-28751180D01*
X40798426Y-29186265D01*
X40787788Y-29303334D01*
X40748976Y-29701278D01*
X40707599Y-30051775D01*
X40664853Y-30347478D01*
X40621935Y-30581038D01*
X40580044Y-30745109D01*
X40540375Y-30832342D01*
X40538254Y-30834794D01*
X40489263Y-30848468D01*
X40370800Y-30867724D01*
X40197718Y-30890542D01*
X39984868Y-30914901D01*
X39837904Y-30930044D01*
X39628265Y-30948114D01*
X39393477Y-30962938D01*
X39124496Y-30974745D01*
X38812279Y-30983762D01*
X38447781Y-30990219D01*
X38021960Y-30994345D01*
X37525771Y-30996367D01*
X37202654Y-30996667D01*
X35241667Y-30996667D01*
X35241667Y-29560089D01*
X35240726Y-29132465D01*
X35237549Y-28782391D01*
X35231599Y-28502771D01*
X35222342Y-28286506D01*
X35209243Y-28126497D01*
X35191768Y-28015647D01*
X35169382Y-27946858D01*
X35141550Y-27913031D01*
X35117077Y-27906334D01*
X35091800Y-27944720D01*
X35045963Y-28051739D01*
X34984153Y-28215178D01*
X34910961Y-28422823D01*
X34830976Y-28662463D01*
X34818783Y-28700084D01*
X34693433Y-29105949D01*
X34596018Y-29465230D01*
X34519022Y-29808228D01*
X34454931Y-30165246D01*
X34453981Y-30171167D01*
X34408960Y-30440940D01*
X34370122Y-30642672D01*
X34333212Y-30792345D01*
X34293978Y-30905939D01*
X34248166Y-30999436D01*
X34221994Y-31042809D01*
X34098535Y-31237118D01*
X32987351Y-31481856D01*
X32691976Y-31547638D01*
X32424000Y-31608707D01*
X32194484Y-31662430D01*
X32014494Y-31706173D01*
X31895091Y-31737303D01*
X31847339Y-31753186D01*
X31847309Y-31753214D01*
X31840940Y-31798734D01*
X31831120Y-31923027D01*
X31818135Y-32120282D01*
X31802265Y-32384687D01*
X31783797Y-32710431D01*
X31763012Y-33091702D01*
X31740194Y-33522690D01*
X31715627Y-33997583D01*
X31689594Y-34510569D01*
X31662379Y-35055838D01*
X31634265Y-35627577D01*
X31605536Y-36219976D01*
X31576474Y-36827224D01*
X31547365Y-37443508D01*
X31518490Y-38063018D01*
X31490134Y-38679942D01*
X31462580Y-39288468D01*
X31436112Y-39882787D01*
X31411012Y-40457085D01*
X31387566Y-41005553D01*
X31366055Y-41522378D01*
X31346763Y-42001749D01*
X31344205Y-42066834D01*
X31326234Y-42535400D01*
X31311022Y-42958726D01*
X31298443Y-43348297D01*
X31288368Y-43715600D01*
X31280670Y-44072122D01*
X31275221Y-44429349D01*
X31271894Y-44798769D01*
X31270560Y-45191868D01*
X31271091Y-45620132D01*
X31273361Y-46095048D01*
X31277242Y-46628104D01*
X31282604Y-47230785D01*
X31284539Y-47432584D01*
X31314434Y-50512334D01*
X31066134Y-50506559D01*
X30953330Y-50502123D01*
X30771407Y-50492806D01*
X30535716Y-50479493D01*
X30261606Y-50463068D01*
X29964429Y-50444417D01*
X29780667Y-50432475D01*
X28743500Y-50364167D01*
X28650558Y-49623334D01*
X28615871Y-49311178D01*
X28586683Y-48967245D01*
X28562251Y-48579180D01*
X28541828Y-48134629D01*
X28524671Y-47621238D01*
X28520373Y-47464334D01*
X28512284Y-47138261D01*
X28506433Y-46846911D01*
X28503078Y-46578554D01*
X28502475Y-46321459D01*
X28504882Y-46063895D01*
X28510558Y-45794131D01*
X28519759Y-45500437D01*
X28532744Y-45171081D01*
X28549770Y-44794333D01*
X28571094Y-44358462D01*
X28596975Y-43851737D01*
X28601718Y-43760167D01*
X28661673Y-42650888D01*
X28726599Y-41535957D01*
X28795634Y-40427867D01*
X28867918Y-39339111D01*
X28942587Y-38282183D01*
X29018781Y-37269576D01*
X29095638Y-36313784D01*
X29172296Y-35427300D01*
X29189699Y-35235719D01*
X29230788Y-34783352D01*
X29273830Y-34301593D01*
X29317195Y-33809188D01*
X29359258Y-33324883D01*
X29398390Y-32867423D01*
X29432964Y-32455553D01*
X29461354Y-32108018D01*
X29462941Y-32088168D01*
X29524028Y-31366343D01*
X29591144Y-30652110D01*
X29662808Y-29958618D01*
X29737542Y-29299012D01*
X29813865Y-28686442D01*
X29890297Y-28134055D01*
X29954922Y-27717552D01*
X30087370Y-26914937D01*
X30457172Y-26362885D01*
X30826975Y-25810834D01*
X32198238Y-24957966D01*
X33569500Y-24105098D01*
X34500834Y-23870190D01*
X34826290Y-23789732D01*
X35104530Y-23725602D01*
X35358360Y-23673781D01*
X35610584Y-23630248D01*
X35884008Y-23590986D01*
X36201438Y-23551976D01*
X36490500Y-23519547D01*
X36819956Y-23483877D01*
X37084488Y-23457030D01*
X37303314Y-23438419D01*
X37495651Y-23427455D01*
X37680718Y-23423552D01*
X37877731Y-23426120D01*
X37877731Y-23426120D01*
G37*
X37877731Y-23426120D02*
X38105910Y-23434572D01*
X38384471Y-23448320D01*
X38543667Y-23456731D01*
X39538500Y-23509650D01*
X41137302Y-23976062D01*
X42200568Y-24688738D01*
X42509597Y-24896684D01*
X42756209Y-25065008D01*
X42948922Y-25200312D01*
X43096257Y-25309197D01*
X43206731Y-25398261D01*
X43288865Y-25474106D01*
X43351177Y-25543332D01*
X43402187Y-25612540D01*
X43412000Y-25627291D01*
X43542389Y-25840619D01*
X43693814Y-26111981D01*
X43855868Y-26420800D01*
X44018144Y-26746499D01*
X44170236Y-27068499D01*
X44301738Y-27366223D01*
X44347619Y-27477325D01*
X44558363Y-28000817D01*
X44556619Y-31785000D01*
X44555814Y-32377836D01*
X44554002Y-32963089D01*
X44551264Y-33532726D01*
X44547682Y-34078713D01*
X44543336Y-34593016D01*
X44538308Y-35067604D01*
X44532680Y-35494441D01*
X44526533Y-35865495D01*
X44519948Y-36172732D01*
X44513006Y-36408120D01*
X44508738Y-36510842D01*
X44495567Y-36843201D01*
X44485254Y-37231179D01*
X44478252Y-37645759D01*
X44475018Y-38057928D01*
X44476006Y-38438669D01*
X44477051Y-38532000D01*
X44480163Y-38834403D01*
X44482435Y-39202801D01*
X44483842Y-39618526D01*
X44484357Y-40062910D01*
X44483955Y-40517287D01*
X44482608Y-40962987D01*
X44480917Y-41287629D01*
X44470334Y-42963757D01*
X43888250Y-43012475D01*
X43511051Y-43043927D01*
X43210024Y-43068399D01*
X42976972Y-43086021D01*
X42803700Y-43096922D01*
X42682011Y-43101231D01*
X42603710Y-43099079D01*
X42560600Y-43090595D01*
X42544485Y-43075909D01*
X42547170Y-43055150D01*
X42557738Y-43033526D01*
X42589343Y-42938305D01*
X42624498Y-42769995D01*
X42661800Y-42540031D01*
X42699847Y-42259847D01*
X42737237Y-41940876D01*
X42772568Y-41594552D01*
X42804438Y-41232309D01*
X42831446Y-40865580D01*
X42839788Y-40733334D01*
X42864324Y-40357928D01*
X42889266Y-40051579D01*
X42916424Y-39798689D01*
X42947610Y-39583658D01*
X42984634Y-39390888D01*
X43006859Y-39294000D01*
X43070991Y-39004650D01*
X43139193Y-38654649D01*
X43209734Y-38256579D01*
X43280886Y-37823028D01*
X43350919Y-37366579D01*
X43418103Y-36899817D01*
X43480711Y-36435328D01*
X43537013Y-35985697D01*
X43585278Y-35563509D01*
X43623779Y-35181348D01*
X43650786Y-34851800D01*
X43664569Y-34587449D01*
X43666000Y-34496884D01*
X43671919Y-34327591D01*
X43688294Y-34097640D01*
X43713054Y-33830107D01*
X43744127Y-33548070D01*
X43768652Y-33353423D01*
X43817875Y-32975923D01*
X43863179Y-32611837D01*
X43903565Y-32270620D01*
X43938034Y-31961722D01*
X43965587Y-31694599D01*
X43985225Y-31478702D01*
X43995948Y-31323485D01*
X43996758Y-31238401D01*
X43993561Y-31225450D01*
X43946890Y-31217962D01*
X43826817Y-31208373D01*
X43644565Y-31197302D01*
X43411356Y-31185372D01*
X43138412Y-31173203D01*
X42836953Y-31161415D01*
X42834186Y-31161314D01*
X42522524Y-31149409D01*
X42230155Y-31137223D01*
X41970362Y-31125390D01*
X41756425Y-31114543D01*
X41601624Y-31105315D01*
X41522917Y-31098807D01*
X41348335Y-31077745D01*
X41319238Y-30476289D01*
X41307368Y-30264077D01*
X41290448Y-30007104D01*
X41269616Y-29718820D01*
X41246009Y-29412676D01*
X41220765Y-29102120D01*
X41195020Y-28800603D01*
X41169913Y-28521575D01*
X41146580Y-28278485D01*
X41126159Y-28084782D01*
X41109787Y-27953918D01*
X41102297Y-27910794D01*
X41073399Y-27847654D01*
X41043809Y-27847294D01*
X40991190Y-27947127D01*
X40940283Y-28131276D01*
X40891147Y-28399405D01*
X40843842Y-28751180D01*
X40798426Y-29186265D01*
X40787788Y-29303334D01*
X40748976Y-29701278D01*
X40707599Y-30051775D01*
X40664853Y-30347478D01*
X40621935Y-30581038D01*
X40580044Y-30745109D01*
X40540375Y-30832342D01*
X40538254Y-30834794D01*
X40489263Y-30848468D01*
X40370800Y-30867724D01*
X40197718Y-30890542D01*
X39984868Y-30914901D01*
X39837904Y-30930044D01*
X39628265Y-30948114D01*
X39393477Y-30962938D01*
X39124496Y-30974745D01*
X38812279Y-30983762D01*
X38447781Y-30990219D01*
X38021960Y-30994345D01*
X37525771Y-30996367D01*
X37202654Y-30996667D01*
X35241667Y-30996667D01*
X35241667Y-29560089D01*
X35240726Y-29132465D01*
X35237549Y-28782391D01*
X35231599Y-28502771D01*
X35222342Y-28286506D01*
X35209243Y-28126497D01*
X35191768Y-28015647D01*
X35169382Y-27946858D01*
X35141550Y-27913031D01*
X35117077Y-27906334D01*
X35091800Y-27944720D01*
X35045963Y-28051739D01*
X34984153Y-28215178D01*
X34910961Y-28422823D01*
X34830976Y-28662463D01*
X34818783Y-28700084D01*
X34693433Y-29105949D01*
X34596018Y-29465230D01*
X34519022Y-29808228D01*
X34454931Y-30165246D01*
X34453981Y-30171167D01*
X34408960Y-30440940D01*
X34370122Y-30642672D01*
X34333212Y-30792345D01*
X34293978Y-30905939D01*
X34248166Y-30999436D01*
X34221994Y-31042809D01*
X34098535Y-31237118D01*
X32987351Y-31481856D01*
X32691976Y-31547638D01*
X32424000Y-31608707D01*
X32194484Y-31662430D01*
X32014494Y-31706173D01*
X31895091Y-31737303D01*
X31847339Y-31753186D01*
X31847309Y-31753214D01*
X31840940Y-31798734D01*
X31831120Y-31923027D01*
X31818135Y-32120282D01*
X31802265Y-32384687D01*
X31783797Y-32710431D01*
X31763012Y-33091702D01*
X31740194Y-33522690D01*
X31715627Y-33997583D01*
X31689594Y-34510569D01*
X31662379Y-35055838D01*
X31634265Y-35627577D01*
X31605536Y-36219976D01*
X31576474Y-36827224D01*
X31547365Y-37443508D01*
X31518490Y-38063018D01*
X31490134Y-38679942D01*
X31462580Y-39288468D01*
X31436112Y-39882787D01*
X31411012Y-40457085D01*
X31387566Y-41005553D01*
X31366055Y-41522378D01*
X31346763Y-42001749D01*
X31344205Y-42066834D01*
X31326234Y-42535400D01*
X31311022Y-42958726D01*
X31298443Y-43348297D01*
X31288368Y-43715600D01*
X31280670Y-44072122D01*
X31275221Y-44429349D01*
X31271894Y-44798769D01*
X31270560Y-45191868D01*
X31271091Y-45620132D01*
X31273361Y-46095048D01*
X31277242Y-46628104D01*
X31282604Y-47230785D01*
X31284539Y-47432584D01*
X31314434Y-50512334D01*
X31066134Y-50506559D01*
X30953330Y-50502123D01*
X30771407Y-50492806D01*
X30535716Y-50479493D01*
X30261606Y-50463068D01*
X29964429Y-50444417D01*
X29780667Y-50432475D01*
X28743500Y-50364167D01*
X28650558Y-49623334D01*
X28615871Y-49311178D01*
X28586683Y-48967245D01*
X28562251Y-48579180D01*
X28541828Y-48134629D01*
X28524671Y-47621238D01*
X28520373Y-47464334D01*
X28512284Y-47138261D01*
X28506433Y-46846911D01*
X28503078Y-46578554D01*
X28502475Y-46321459D01*
X28504882Y-46063895D01*
X28510558Y-45794131D01*
X28519759Y-45500437D01*
X28532744Y-45171081D01*
X28549770Y-44794333D01*
X28571094Y-44358462D01*
X28596975Y-43851737D01*
X28601718Y-43760167D01*
X28661673Y-42650888D01*
X28726599Y-41535957D01*
X28795634Y-40427867D01*
X28867918Y-39339111D01*
X28942587Y-38282183D01*
X29018781Y-37269576D01*
X29095638Y-36313784D01*
X29172296Y-35427300D01*
X29189699Y-35235719D01*
X29230788Y-34783352D01*
X29273830Y-34301593D01*
X29317195Y-33809188D01*
X29359258Y-33324883D01*
X29398390Y-32867423D01*
X29432964Y-32455553D01*
X29461354Y-32108018D01*
X29462941Y-32088168D01*
X29524028Y-31366343D01*
X29591144Y-30652110D01*
X29662808Y-29958618D01*
X29737542Y-29299012D01*
X29813865Y-28686442D01*
X29890297Y-28134055D01*
X29954922Y-27717552D01*
X30087370Y-26914937D01*
X30457172Y-26362885D01*
X30826975Y-25810834D01*
X32198238Y-24957966D01*
X33569500Y-24105098D01*
X34500834Y-23870190D01*
X34826290Y-23789732D01*
X35104530Y-23725602D01*
X35358360Y-23673781D01*
X35610584Y-23630248D01*
X35884008Y-23590986D01*
X36201438Y-23551976D01*
X36490500Y-23519547D01*
X36819956Y-23483877D01*
X37084488Y-23457030D01*
X37303314Y-23438419D01*
X37495651Y-23427455D01*
X37680718Y-23423552D01*
X37877731Y-23426120D01*
G36*
X57826500Y-21082549D02*
X57986349Y-21110657D01*
X58217398Y-21153025D01*
X58507804Y-21207398D01*
X58845726Y-21271524D01*
X59219323Y-21343147D01*
X59616754Y-21420015D01*
X60026177Y-21499873D01*
X60251386Y-21544097D01*
X62125939Y-21913115D01*
X62384679Y-22401474D01*
X62500828Y-22620025D01*
X62620579Y-22844218D01*
X62729080Y-23046309D01*
X62805008Y-23186678D01*
X62966597Y-23483523D01*
X62171986Y-24723707D01*
X61377374Y-25963891D01*
X61559279Y-27093862D01*
X61658884Y-27717945D01*
X61744007Y-28263316D01*
X61815256Y-28734578D01*
X61873242Y-29136331D01*
X61918572Y-29473175D01*
X61951856Y-29749710D01*
X61973702Y-29970537D01*
X61984719Y-30140257D01*
X61985516Y-30263471D01*
X61983344Y-30298167D01*
X61956622Y-30448131D01*
X61896779Y-30672639D01*
X61804715Y-30968707D01*
X61681331Y-31333347D01*
X61613395Y-31525834D01*
X61265874Y-32499500D01*
X61335706Y-33938834D01*
X61353155Y-34292227D01*
X61370376Y-34629470D01*
X61386708Y-34938442D01*
X61401490Y-35207019D01*
X61414059Y-35423079D01*
X61423753Y-35574499D01*
X61428168Y-35632167D01*
X61450797Y-35886167D01*
X60998319Y-36415334D01*
X60841989Y-36599423D01*
X60702157Y-36766446D01*
X60589498Y-36903468D01*
X60514686Y-36997557D01*
X60491665Y-37029167D01*
X60459511Y-37100801D01*
X60410756Y-37235393D01*
X60351739Y-37414401D01*
X60288800Y-37619282D01*
X60281792Y-37643000D01*
X60219643Y-37845528D01*
X60161257Y-38020184D01*
X60112687Y-38149888D01*
X60079983Y-38217561D01*
X60076965Y-38221163D01*
X60025215Y-38243515D01*
X59901658Y-38283813D01*
X59716535Y-38339111D01*
X59480086Y-38406464D01*
X59202553Y-38482927D01*
X58894178Y-38565555D01*
X58724751Y-38610053D01*
X57421669Y-38949948D01*
X56798584Y-38827759D01*
X56518591Y-38773643D01*
X56174367Y-38708378D01*
X55781978Y-38634906D01*
X55357490Y-38556171D01*
X54916969Y-38475115D01*
X54476482Y-38394681D01*
X54052095Y-38317813D01*
X53659873Y-38247453D01*
X53315882Y-38186543D01*
X53036190Y-38138029D01*
X52995133Y-38131046D01*
X52790221Y-38095608D01*
X52631542Y-38069851D01*
X52503191Y-38056014D01*
X52389260Y-38056338D01*
X52273844Y-38073061D01*
X52141035Y-38108424D01*
X51974927Y-38164665D01*
X51759615Y-38244024D01*
X51497667Y-38341879D01*
X51274428Y-38426169D01*
X50981887Y-38538707D01*
X50629176Y-38675860D01*
X50225429Y-38833994D01*
X49779777Y-39009475D01*
X49301353Y-39198668D01*
X48799290Y-39397941D01*
X48282719Y-39603659D01*
X47760774Y-39812188D01*
X47242587Y-40019894D01*
X46737289Y-40223143D01*
X46254015Y-40418301D01*
X45801896Y-40601735D01*
X45390064Y-40769810D01*
X45199794Y-40847905D01*
X45167776Y-40846789D01*
X45177192Y-40790108D01*
X45190106Y-40754222D01*
X45214334Y-40693128D01*
X45267232Y-40561541D01*
X45345586Y-40367404D01*
X45446182Y-40118658D01*
X45565805Y-39823243D01*
X45701242Y-39489101D01*
X45849278Y-39124174D01*
X46006699Y-38736402D01*
X46044509Y-38643306D01*
X46202173Y-38254252D01*
X46349717Y-37888439D01*
X46484130Y-37553455D01*
X46602403Y-37256887D01*
X46701522Y-37006321D01*
X46778478Y-36809344D01*
X46830260Y-36673543D01*
X46853855Y-36606504D01*
X46855003Y-36601194D01*
X46833746Y-36553872D01*
X46773774Y-36444458D01*
X46680875Y-36282886D01*
X46560837Y-36079089D01*
X46419449Y-35843003D01*
X46265972Y-35590243D01*
X46264472Y-35587756D01*
X49697640Y-35587756D01*
X49716448Y-35887120D01*
X49808031Y-36162600D01*
X49825221Y-36195646D01*
X49929791Y-36354361D01*
X50027447Y-36435846D01*
X50047814Y-36442955D01*
X50176158Y-36454122D01*
X50351153Y-36443405D01*
X50538915Y-36415045D01*
X50705560Y-36373282D01*
X50758043Y-36354056D01*
X50853716Y-36318593D01*
X50900500Y-36323902D01*
X50926378Y-36375269D01*
X50929959Y-36386543D01*
X50989511Y-36493718D01*
X51067712Y-36521812D01*
X51150910Y-36470007D01*
X51196353Y-36402505D01*
X51210781Y-36345556D01*
X51221905Y-36232218D01*
X51229847Y-36057434D01*
X51234730Y-35816146D01*
X51236678Y-35503298D01*
X51236508Y-35426457D01*
X51455334Y-35426457D01*
X51456454Y-35703258D01*
X51459589Y-35953872D01*
X51464404Y-36165102D01*
X51470560Y-36323748D01*
X51477721Y-36416609D01*
X51481029Y-36433038D01*
X51538658Y-36491421D01*
X51624366Y-36488689D01*
X51710925Y-36427832D01*
X51728100Y-36405914D01*
X51750223Y-36361710D01*
X51766948Y-36293387D01*
X51778968Y-36190070D01*
X51786976Y-36040885D01*
X51791667Y-35834959D01*
X51792248Y-35757874D01*
X52092685Y-35757874D01*
X52103683Y-35892603D01*
X52137348Y-36014374D01*
X52186985Y-36132004D01*
X52260434Y-36267021D01*
X52339135Y-36373225D01*
X52389760Y-36416989D01*
X52503438Y-36444923D01*
X52670967Y-36446522D01*
X52866458Y-36423916D01*
X53064024Y-36379234D01*
X53138490Y-36355424D01*
X53248771Y-36319299D01*
X53301261Y-36314982D01*
X53317147Y-36343769D01*
X53318000Y-36366411D01*
X53346243Y-36462000D01*
X53413863Y-36514867D01*
X53472891Y-36512729D01*
X53533630Y-36461034D01*
X53594733Y-36369972D01*
X53612396Y-36321999D01*
X53626506Y-36247957D01*
X53637421Y-36139183D01*
X53645500Y-35987018D01*
X53651102Y-35782799D01*
X53654586Y-35517866D01*
X53654857Y-35465197D01*
X54503334Y-35465197D01*
X54504580Y-35744980D01*
X54508076Y-35996157D01*
X54513455Y-36206454D01*
X54520354Y-36363595D01*
X54528406Y-36455303D01*
X54533341Y-36473564D01*
X54608729Y-36497419D01*
X54701029Y-36465245D01*
X54777867Y-36389857D01*
X54787400Y-36373000D01*
X54802407Y-36301712D01*
X54815450Y-36161431D01*
X54826308Y-35967812D01*
X54834759Y-35736509D01*
X54840583Y-35483178D01*
X54843558Y-35223475D01*
X54843465Y-34973055D01*
X54840083Y-34747572D01*
X54837031Y-34665709D01*
X55144304Y-34665709D01*
X55146381Y-34692206D01*
X55161301Y-34777144D01*
X55200932Y-34819058D01*
X55290284Y-34836701D01*
X55344996Y-34841124D01*
X55530491Y-34854414D01*
X55502059Y-35370290D01*
X55492698Y-35686637D01*
X55501272Y-35953068D01*
X55526852Y-36160114D01*
X55568512Y-36298306D01*
X55597072Y-36340672D01*
X55665901Y-36377804D01*
X55778214Y-36411920D01*
X55802931Y-36417177D01*
X55925656Y-36434271D01*
X56051311Y-36432903D01*
X56211068Y-36411540D01*
X56319277Y-36391767D01*
X56409255Y-36352371D01*
X56831870Y-36352371D01*
X56845017Y-36448532D01*
X56859889Y-36471778D01*
X56940488Y-36502266D01*
X57031299Y-36464560D01*
X57109251Y-36368319D01*
X57109868Y-36367132D01*
X57149078Y-36240779D01*
X57138891Y-36134720D01*
X57091978Y-36063201D01*
X57021007Y-36040468D01*
X56938649Y-36080766D01*
X56897567Y-36128420D01*
X56850768Y-36233081D01*
X56831870Y-36352371D01*
X56409255Y-36352371D01*
X56450720Y-36334216D01*
X56549414Y-36231935D01*
X56604819Y-36107277D01*
X56606395Y-35982593D01*
X56555374Y-35891089D01*
X56493432Y-35842768D01*
X56440749Y-35858571D01*
X56410552Y-35884159D01*
X56324008Y-35925951D01*
X56196926Y-35948407D01*
X56057468Y-35951600D01*
X55933795Y-35935602D01*
X55854068Y-35900485D01*
X55841363Y-35882704D01*
X55827471Y-35798749D01*
X55820710Y-35654073D01*
X55820820Y-35472300D01*
X55826729Y-35300621D01*
X56831316Y-35300621D01*
X56845214Y-35481495D01*
X56884980Y-35585554D01*
X56949031Y-35611163D01*
X57035779Y-35556684D01*
X57057436Y-35534139D01*
X57088378Y-35495427D01*
X57112940Y-35448164D01*
X57133092Y-35380340D01*
X57150806Y-35279940D01*
X57168054Y-35134952D01*
X57186806Y-34933363D01*
X57209034Y-34663160D01*
X57217155Y-34560860D01*
X57236071Y-34308689D01*
X57246511Y-34127418D01*
X57248260Y-34003687D01*
X57241102Y-33924133D01*
X57224822Y-33875395D01*
X57205697Y-33850221D01*
X57119267Y-33808703D01*
X57034913Y-33843823D01*
X56968665Y-33948707D01*
X56967271Y-33952459D01*
X56947805Y-34038383D01*
X56925099Y-34189061D01*
X56901145Y-34384739D01*
X56877936Y-34605668D01*
X56857462Y-34832093D01*
X56841717Y-35044265D01*
X56832691Y-35222430D01*
X56831316Y-35300621D01*
X55826729Y-35300621D01*
X55827541Y-35277051D01*
X55840611Y-35091950D01*
X55851125Y-34997595D01*
X55879167Y-34786357D01*
X56084255Y-34757115D01*
X56280495Y-34704633D01*
X56402944Y-34614299D01*
X56450132Y-34487266D01*
X56450667Y-34469906D01*
X56423699Y-34343450D01*
X56342396Y-34281900D01*
X56232827Y-34279793D01*
X56095070Y-34301408D01*
X55985000Y-34318775D01*
X55858000Y-34338884D01*
X55858000Y-34021113D01*
X55853893Y-33847851D01*
X55839531Y-33742839D01*
X55811855Y-33689967D01*
X55792923Y-33678371D01*
X55699168Y-33680441D01*
X55622370Y-33760450D01*
X55566025Y-33912748D01*
X55537135Y-34091657D01*
X55508394Y-34383334D01*
X55367186Y-34383334D01*
X55236098Y-34414808D01*
X55161733Y-34509033D01*
X55144304Y-34665709D01*
X54837031Y-34665709D01*
X54833189Y-34562682D01*
X54822565Y-34434040D01*
X54815318Y-34393917D01*
X54763327Y-34316223D01*
X54682055Y-34305459D01*
X54594211Y-34361734D01*
X54569234Y-34392753D01*
X54547535Y-34436023D01*
X54531022Y-34502936D01*
X54519042Y-34604129D01*
X54510942Y-34750242D01*
X54506068Y-34951910D01*
X54503766Y-35219772D01*
X54503334Y-35465197D01*
X53654857Y-35465197D01*
X53656311Y-35183558D01*
X53656667Y-34875731D01*
X53655898Y-34540504D01*
X53653719Y-34230730D01*
X53650317Y-33957012D01*
X53645937Y-33732768D01*
X54552738Y-33732768D01*
X54565641Y-33859698D01*
X54590864Y-33923019D01*
X54662310Y-33988491D01*
X54753066Y-33985464D01*
X54840602Y-33919046D01*
X54879045Y-33857696D01*
X54912157Y-33708710D01*
X54876259Y-33571472D01*
X54786431Y-33477552D01*
X54702591Y-33463894D01*
X54629903Y-33515073D01*
X54577055Y-33611295D01*
X54552738Y-33732768D01*
X53645937Y-33732768D01*
X53645882Y-33729953D01*
X53640603Y-33560155D01*
X53634668Y-33458222D01*
X53630971Y-33434296D01*
X53572544Y-33375310D01*
X53481464Y-33381937D01*
X53395417Y-33437395D01*
X53361136Y-33479518D01*
X53338558Y-33542798D01*
X53325382Y-33643646D01*
X53319304Y-33798469D01*
X53318000Y-33989217D01*
X53317294Y-34196143D01*
X53313545Y-34331467D01*
X53304313Y-34408254D01*
X53287154Y-34439568D01*
X53259626Y-34438471D01*
X53236117Y-34427156D01*
X53099491Y-34389621D01*
X52930428Y-34389752D01*
X52771621Y-34426184D01*
X52733815Y-34443222D01*
X52524307Y-34597582D01*
X52346223Y-34816616D01*
X52209180Y-35083190D01*
X52122797Y-35380166D01*
X52098741Y-35574721D01*
X52092685Y-35757874D01*
X51792248Y-35757874D01*
X51793732Y-35561417D01*
X51794000Y-35372210D01*
X51792880Y-35095409D01*
X51789744Y-34844795D01*
X51784930Y-34633565D01*
X51778773Y-34474919D01*
X51771612Y-34382058D01*
X51768304Y-34365629D01*
X51710676Y-34307246D01*
X51624968Y-34309978D01*
X51538409Y-34370835D01*
X51521234Y-34392753D01*
X51499111Y-34436957D01*
X51482386Y-34505280D01*
X51470366Y-34608597D01*
X51462357Y-34757782D01*
X51457667Y-34963708D01*
X51455602Y-35237250D01*
X51455334Y-35426457D01*
X51236508Y-35426457D01*
X51235812Y-35113834D01*
X51234055Y-34849000D01*
X51225282Y-33740100D01*
X51500627Y-33740100D01*
X51518770Y-33867797D01*
X51541490Y-33920450D01*
X51616539Y-33990511D01*
X51712198Y-33990057D01*
X51803923Y-33920191D01*
X51812766Y-33908247D01*
X51869751Y-33766290D01*
X51863420Y-33617070D01*
X51819737Y-33526084D01*
X51736891Y-33461806D01*
X51652872Y-33466214D01*
X51578363Y-33524163D01*
X51524053Y-33620507D01*
X51500627Y-33740100D01*
X51225282Y-33740100D01*
X51222500Y-33388500D01*
X51129694Y-33375293D01*
X51039624Y-33392768D01*
X50973707Y-33477266D01*
X50930499Y-33633082D01*
X50908558Y-33864511D01*
X50905000Y-34044054D01*
X50904142Y-34236525D01*
X50899619Y-34358005D01*
X50888510Y-34422167D01*
X50867891Y-34442684D01*
X50834840Y-34433229D01*
X50823117Y-34427156D01*
X50653934Y-34381778D01*
X50464416Y-34404450D01*
X50274287Y-34488633D01*
X50103273Y-34627789D01*
X50057235Y-34681054D01*
X49870096Y-34971254D01*
X49749544Y-35277978D01*
X49697640Y-35587756D01*
X46264472Y-35587756D01*
X46109613Y-35331116D01*
X45969864Y-35093197D01*
X45852402Y-34886667D01*
X45762902Y-34721706D01*
X45707039Y-34608495D01*
X45690365Y-34557716D01*
X45703906Y-34498287D01*
X45734467Y-34369162D01*
X45779035Y-34182908D01*
X45834599Y-33952093D01*
X45898145Y-33689283D01*
X45935160Y-33536667D01*
X46022910Y-33163961D01*
X46094453Y-32830689D01*
X46154466Y-32510481D01*
X46207626Y-32176969D01*
X46258611Y-31803782D01*
X46295441Y-31505402D01*
X46424461Y-30426638D01*
X46293039Y-29032246D01*
X47947720Y-29032246D01*
X47949273Y-29055957D01*
X47966043Y-29148165D01*
X48010253Y-29193560D01*
X48108229Y-29215563D01*
X48132167Y-29218667D01*
X48301500Y-29239834D01*
X48330787Y-29973361D01*
X48346188Y-30288552D01*
X48365363Y-30525259D01*
X48390473Y-30689651D01*
X48423678Y-30787895D01*
X48467138Y-30826161D01*
X48523014Y-30810616D01*
X48593465Y-30747427D01*
X48599549Y-30740771D01*
X48628343Y-30701715D01*
X48648713Y-30649429D01*
X48661767Y-30570596D01*
X48668615Y-30451901D01*
X48670366Y-30280026D01*
X48668131Y-30041656D01*
X48666555Y-29936438D01*
X48665389Y-29862574D01*
X49697045Y-29862574D01*
X49708918Y-30123756D01*
X49751128Y-30336828D01*
X49786910Y-30425167D01*
X49910088Y-30585021D01*
X50079024Y-30702982D01*
X50273160Y-30773600D01*
X50471944Y-30791425D01*
X50654819Y-30751010D01*
X50763603Y-30684082D01*
X50880927Y-30583164D01*
X50925777Y-30673124D01*
X50998724Y-30760917D01*
X51081028Y-30767411D01*
X51160243Y-30693120D01*
X51177718Y-30662735D01*
X51199974Y-30605514D01*
X51216808Y-30523885D01*
X51228900Y-30406747D01*
X51236926Y-30243001D01*
X51241567Y-30021546D01*
X51242100Y-29941387D01*
X51447555Y-29941387D01*
X51492977Y-30253817D01*
X51612842Y-30545532D01*
X51652313Y-30610166D01*
X51690273Y-30659534D01*
X51737713Y-30687851D01*
X51815183Y-30699197D01*
X51943231Y-30697653D01*
X52062890Y-30691694D01*
X52296479Y-30667935D01*
X52480847Y-30626835D01*
X52556000Y-30596993D01*
X52740212Y-30484162D01*
X52849439Y-30368801D01*
X52892964Y-30240161D01*
X52894667Y-30204792D01*
X52879578Y-30101745D01*
X52842669Y-30043054D01*
X52838813Y-30041243D01*
X52772752Y-30046555D01*
X52658945Y-30082315D01*
X52553063Y-30126825D01*
X52276789Y-30217483D01*
X52105740Y-30234253D01*
X51975617Y-30230549D01*
X51900763Y-30208477D01*
X51851830Y-30152555D01*
X51815443Y-30081103D01*
X51769495Y-29893316D01*
X51786340Y-29683374D01*
X51857966Y-29475541D01*
X51976360Y-29294085D01*
X52114884Y-29174242D01*
X52239554Y-29109668D01*
X52338696Y-29101027D01*
X52446037Y-29150287D01*
X52513667Y-29197500D01*
X52654695Y-29281395D01*
X52762287Y-29294178D01*
X52831313Y-29247723D01*
X53148667Y-29247723D01*
X53149051Y-29641929D01*
X53150442Y-29959652D01*
X53153200Y-30209073D01*
X53157685Y-30398374D01*
X53164256Y-30535736D01*
X53173273Y-30629339D01*
X53185096Y-30687366D01*
X53200084Y-30717998D01*
X53213744Y-30727963D01*
X53291223Y-30720951D01*
X53361910Y-30677740D01*
X53405727Y-30623534D01*
X53431193Y-30545141D01*
X53442761Y-30420997D01*
X53445000Y-30275308D01*
X53447027Y-30108164D01*
X53457217Y-30003758D01*
X53481734Y-29940186D01*
X53526741Y-29895541D01*
X53557890Y-29874103D01*
X53641776Y-29827910D01*
X53691151Y-29833356D01*
X53716640Y-29859993D01*
X53760634Y-29918613D01*
X53841400Y-30027250D01*
X53945473Y-30167770D01*
X54011536Y-30257176D01*
X54175223Y-30475928D01*
X54299115Y-30631305D01*
X54391694Y-30729487D01*
X54461441Y-30776655D01*
X54516836Y-30778988D01*
X54566360Y-30742667D01*
X54606766Y-30690914D01*
X54657557Y-30585636D01*
X54672667Y-30506967D01*
X54648094Y-30440812D01*
X54580880Y-30323698D01*
X54480779Y-30171170D01*
X54357548Y-29998775D01*
X54334000Y-29967281D01*
X54208702Y-29798363D01*
X54155561Y-29724301D01*
X54884334Y-29724301D01*
X54885476Y-30007741D01*
X54888682Y-30262567D01*
X54893622Y-30476702D01*
X54899967Y-30638070D01*
X54907385Y-30734596D01*
X54912556Y-30756778D01*
X54990265Y-30782856D01*
X55086007Y-30730973D01*
X55121189Y-30695986D01*
X55149280Y-30657780D01*
X55170475Y-30605579D01*
X55186030Y-30527196D01*
X55197196Y-30410443D01*
X55198586Y-30381480D01*
X55506989Y-30381480D01*
X55509611Y-30559036D01*
X55516119Y-30682450D01*
X55527019Y-30761884D01*
X55542822Y-30807502D01*
X55561667Y-30828054D01*
X55614818Y-30859988D01*
X55650376Y-30856352D01*
X55701520Y-30807048D01*
X55729351Y-30777018D01*
X55765272Y-30730682D01*
X55789656Y-30671993D01*
X55804686Y-30584840D01*
X55812545Y-30453111D01*
X55815418Y-30260696D01*
X55815667Y-30140093D01*
X55816548Y-29914977D01*
X55820884Y-29758201D01*
X55831210Y-29653441D01*
X55850063Y-29584375D01*
X55879980Y-29534682D01*
X55915815Y-29495670D01*
X56022372Y-29410967D01*
X56165952Y-29325263D01*
X56326650Y-29246933D01*
X56484560Y-29184355D01*
X56619778Y-29145904D01*
X56712396Y-29139956D01*
X56735514Y-29150736D01*
X56746357Y-29200860D01*
X56758011Y-29321645D01*
X56769556Y-29499101D01*
X56780071Y-29719241D01*
X56788157Y-29951268D01*
X56796361Y-30223653D01*
X56804001Y-30423061D01*
X56812839Y-30561149D01*
X56824638Y-30649575D01*
X56841158Y-30699996D01*
X56864163Y-30724070D01*
X56895414Y-30733454D01*
X56906632Y-30735143D01*
X56977635Y-30727300D01*
X57032453Y-30667285D01*
X57070951Y-30586977D01*
X57096483Y-30512781D01*
X57113606Y-30422788D01*
X57123063Y-30302438D01*
X57125597Y-30137170D01*
X57124397Y-30063150D01*
X57315023Y-30063150D01*
X57337414Y-30325266D01*
X57421772Y-30529914D01*
X57568052Y-30676961D01*
X57691673Y-30739847D01*
X57867660Y-30776975D01*
X58086336Y-30780388D01*
X58313026Y-30750769D01*
X58412439Y-30725643D01*
X58609667Y-30666286D01*
X58609667Y-30843224D01*
X58592336Y-31018581D01*
X58532311Y-31130309D01*
X58417544Y-31189758D01*
X58235989Y-31208276D01*
X58222081Y-31208334D01*
X58026521Y-31193614D01*
X57858674Y-31154343D01*
X57816243Y-31137129D01*
X57716952Y-31094184D01*
X57659346Y-31092743D01*
X57609269Y-31136668D01*
X57587595Y-31162985D01*
X57521207Y-31294085D01*
X57516691Y-31428389D01*
X57542365Y-31491605D01*
X57644280Y-31580791D01*
X57804791Y-31641530D01*
X58002111Y-31671968D01*
X58214457Y-31670257D01*
X58420043Y-31634543D01*
X58567978Y-31578750D01*
X58693868Y-31503555D01*
X58786712Y-31414639D01*
X58852870Y-31297236D01*
X58898702Y-31136575D01*
X58930566Y-30917888D01*
X58950303Y-30690829D01*
X58964533Y-30452840D01*
X58975363Y-30186281D01*
X58982783Y-29904950D01*
X58986781Y-29622645D01*
X58987347Y-29353164D01*
X58984468Y-29110305D01*
X58978134Y-28907868D01*
X58968333Y-28759649D01*
X58955054Y-28679448D01*
X58951958Y-28672748D01*
X58887092Y-28635581D01*
X58836189Y-28648542D01*
X58759303Y-28664862D01*
X58622906Y-28677895D01*
X58452148Y-28685499D01*
X58391348Y-28686461D01*
X58207439Y-28690462D01*
X58081718Y-28703009D01*
X57987734Y-28730436D01*
X57899039Y-28779079D01*
X57841546Y-28818140D01*
X57656666Y-28998238D01*
X57506434Y-29253725D01*
X57392124Y-29582179D01*
X57354645Y-29743702D01*
X57315023Y-30063150D01*
X57124397Y-30063150D01*
X57121951Y-29912425D01*
X57115913Y-29705500D01*
X57105564Y-29458490D01*
X57091731Y-29233606D01*
X57075791Y-29047732D01*
X57059120Y-28917746D01*
X57047693Y-28868897D01*
X56965062Y-28746604D01*
X56834168Y-28687366D01*
X56652966Y-28691213D01*
X56419413Y-28758175D01*
X56142484Y-28882665D01*
X56014079Y-28946471D01*
X55918391Y-28991325D01*
X55877901Y-29007000D01*
X55866487Y-28968924D01*
X55859289Y-28871690D01*
X55858000Y-28797832D01*
X55847671Y-28646577D01*
X55811706Y-28567470D01*
X55742639Y-28549966D01*
X55690904Y-28561790D01*
X55642116Y-28589392D01*
X55603297Y-28643725D01*
X55573181Y-28733679D01*
X55550504Y-28868147D01*
X55533999Y-29056020D01*
X55522402Y-29306190D01*
X55514446Y-29627547D01*
X55511361Y-29823285D01*
X55507742Y-30139618D01*
X55506989Y-30381480D01*
X55198586Y-30381480D01*
X55205227Y-30243132D01*
X55211376Y-30013075D01*
X55215775Y-29776162D01*
X55218757Y-29505979D01*
X55218686Y-29252769D01*
X55215788Y-29033362D01*
X55210288Y-28864590D01*
X55202411Y-28763284D01*
X55202228Y-28762043D01*
X55162671Y-28619672D01*
X55101372Y-28553259D01*
X55023723Y-28565913D01*
X54962406Y-28623631D01*
X54937549Y-28660755D01*
X54918566Y-28710163D01*
X54904678Y-28782839D01*
X54895105Y-28889765D01*
X54889069Y-29041927D01*
X54885790Y-29250308D01*
X54884489Y-29525893D01*
X54884334Y-29724301D01*
X54155561Y-29724301D01*
X54104350Y-29652930D01*
X54030448Y-29544586D01*
X53996498Y-29486936D01*
X53995334Y-29482486D01*
X54023492Y-29436148D01*
X54096191Y-29353052D01*
X54168156Y-29280175D01*
X54340730Y-29086630D01*
X54432583Y-28918319D01*
X54443779Y-28775127D01*
X54442472Y-28769607D01*
X54404276Y-28687846D01*
X54341336Y-28664258D01*
X54248319Y-28701473D01*
X54119891Y-28802123D01*
X53950719Y-28968837D01*
X53875308Y-29049334D01*
X53737145Y-29195840D01*
X53617789Y-29316242D01*
X53529665Y-29398426D01*
X53485202Y-29430278D01*
X53484471Y-29430334D01*
X53471608Y-29389643D01*
X53460785Y-29274112D01*
X53452446Y-29093551D01*
X53447038Y-28857773D01*
X53445005Y-28576588D01*
X53445000Y-28561172D01*
X53444219Y-28263617D01*
X53441363Y-28040149D01*
X53440650Y-28020133D01*
X54930836Y-28020133D01*
X54945911Y-28138954D01*
X54995087Y-28222706D01*
X55057210Y-28267441D01*
X55121381Y-28251463D01*
X55153019Y-28231693D01*
X55233835Y-28144948D01*
X55267774Y-28071046D01*
X55273186Y-27948174D01*
X55241383Y-27825386D01*
X55183544Y-27737650D01*
X55155582Y-27720188D01*
X55070869Y-27724320D01*
X55000430Y-27790540D01*
X54951381Y-27896569D01*
X54930836Y-28020133D01*
X53440650Y-28020133D01*
X53435663Y-27880200D01*
X53426350Y-27773199D01*
X53412654Y-27708578D01*
X53393806Y-27675768D01*
X53379923Y-27667037D01*
X53302444Y-27674050D01*
X53231757Y-27717260D01*
X53209499Y-27740803D01*
X53191612Y-27772753D01*
X53177617Y-27821880D01*
X53167040Y-27896957D01*
X53159405Y-28006754D01*
X53154234Y-28160044D01*
X53151052Y-28365598D01*
X53149382Y-28632187D01*
X53148749Y-28968584D01*
X53148667Y-29247723D01*
X52831313Y-29247723D01*
X52848942Y-29235859D01*
X52877191Y-29197809D01*
X52924878Y-29071807D01*
X52894974Y-28950602D01*
X52784880Y-28827398D01*
X52715162Y-28774167D01*
X52570838Y-28689065D01*
X52433331Y-28653828D01*
X52332683Y-28650282D01*
X52171382Y-28669763D01*
X52032553Y-28730744D01*
X51897239Y-28845295D01*
X51749279Y-29021816D01*
X51576573Y-29311185D01*
X51475710Y-29622442D01*
X51447555Y-29941387D01*
X51242100Y-29941387D01*
X51243499Y-29731282D01*
X51243667Y-29583626D01*
X51243033Y-29271194D01*
X51240623Y-29032514D01*
X51235671Y-28856680D01*
X51227413Y-28732783D01*
X51215083Y-28649915D01*
X51197917Y-28597168D01*
X51175149Y-28563636D01*
X51171904Y-28560285D01*
X51119306Y-28517764D01*
X51074356Y-28527164D01*
X51008022Y-28595631D01*
X51002571Y-28601955D01*
X50966336Y-28648161D01*
X50940388Y-28698687D01*
X50923013Y-28767698D01*
X50912501Y-28869360D01*
X50907140Y-29017837D01*
X50905217Y-29227297D01*
X50905000Y-29409373D01*
X50905000Y-30103358D01*
X50763421Y-30211346D01*
X50599345Y-30293986D01*
X50416404Y-30320550D01*
X50248530Y-30286977D01*
X50225322Y-30275745D01*
X50150139Y-30208809D01*
X50078584Y-30105741D01*
X50074866Y-30098705D01*
X50033088Y-29951728D01*
X50022395Y-29749991D01*
X50041299Y-29516886D01*
X50088318Y-29275807D01*
X50137353Y-29114301D01*
X50202441Y-28894241D01*
X50225664Y-28720700D01*
X50206670Y-28603032D01*
X50158413Y-28554434D01*
X50082414Y-28545491D01*
X50014958Y-28587978D01*
X49949366Y-28690902D01*
X49878959Y-28863269D01*
X49836610Y-28988315D01*
X49761576Y-29275058D01*
X49714826Y-29573076D01*
X49697045Y-29862574D01*
X48665389Y-29862574D01*
X48655222Y-29218667D01*
X48983028Y-29218667D01*
X49200663Y-29207979D01*
X49346394Y-29172269D01*
X49430693Y-29106066D01*
X49464034Y-29003899D01*
X49465667Y-28966572D01*
X49453961Y-28870946D01*
X49409652Y-28808252D01*
X49318950Y-28772041D01*
X49168065Y-28755864D01*
X49008979Y-28753000D01*
X48653891Y-28753000D01*
X48681045Y-28573084D01*
X48710514Y-28381846D01*
X48734166Y-28260062D01*
X48759325Y-28193542D01*
X48793310Y-28168099D01*
X48843445Y-28169544D01*
X48885141Y-28177578D01*
X49002227Y-28216536D01*
X49085222Y-28266670D01*
X49177438Y-28323447D01*
X49250294Y-28301537D01*
X49313461Y-28197967D01*
X49314174Y-28196277D01*
X49353505Y-28034780D01*
X49317639Y-27906670D01*
X49203428Y-27805109D01*
X49113977Y-27761324D01*
X48964974Y-27711042D01*
X48843367Y-27703408D01*
X48759224Y-27718814D01*
X48632573Y-27774589D01*
X48536941Y-27877594D01*
X48464779Y-28039984D01*
X48408536Y-28273916D01*
X48406074Y-28287334D01*
X48377307Y-28445682D01*
X48352421Y-28582281D01*
X48338605Y-28657750D01*
X48301822Y-28730395D01*
X48213262Y-28752859D01*
X48201421Y-28753000D01*
X48064895Y-28788957D01*
X47976226Y-28886968D01*
X47947720Y-29032246D01*
X46293039Y-29032246D01*
X46121087Y-27207834D01*
X46247724Y-24333181D01*
X46269297Y-23848074D01*
X46290141Y-23388264D01*
X46303274Y-23104270D01*
X50862667Y-23104270D01*
X50876773Y-23186405D01*
X50916591Y-23335979D01*
X50978367Y-23541057D01*
X51058351Y-23789704D01*
X51152789Y-24069985D01*
X51257931Y-24369965D01*
X51279358Y-24429732D01*
X51406951Y-24784298D01*
X51277634Y-25128232D01*
X51213018Y-25309490D01*
X51157321Y-25482568D01*
X51120506Y-25616065D01*
X51115504Y-25639151D01*
X51103116Y-25795699D01*
X51127134Y-25914661D01*
X51178129Y-25985036D01*
X51246671Y-25995827D01*
X51323327Y-25936034D01*
X51344369Y-25906084D01*
X51395396Y-25796695D01*
X51434619Y-25665275D01*
X51435161Y-25662667D01*
X51474301Y-25523121D01*
X51546641Y-25317408D01*
X51648208Y-25055432D01*
X51775030Y-24747097D01*
X51923136Y-24402306D01*
X51999309Y-24231306D01*
X52700054Y-24231306D01*
X52732196Y-24495714D01*
X52818292Y-24713509D01*
X52893149Y-24814375D01*
X53043069Y-24915873D01*
X53232423Y-24950915D01*
X53448083Y-24919421D01*
X53676921Y-24821313D01*
X53680671Y-24819170D01*
X53903617Y-24650319D01*
X54081588Y-24433974D01*
X54209230Y-24186200D01*
X54246327Y-24050536D01*
X54522773Y-24050536D01*
X54534385Y-24355384D01*
X54595686Y-24612380D01*
X54705857Y-24813217D01*
X54807770Y-24913096D01*
X54996091Y-25006834D01*
X55212866Y-25042094D01*
X55428835Y-25018038D01*
X55611510Y-24936104D01*
X55690085Y-24885162D01*
X55727094Y-24884647D01*
X55749863Y-24935765D01*
X55751946Y-24942306D01*
X55807526Y-25012986D01*
X55892102Y-25019368D01*
X55980619Y-24962319D01*
X56003766Y-24933581D01*
X56025488Y-24890313D01*
X56041986Y-24823499D01*
X56053910Y-24722472D01*
X56061912Y-24576566D01*
X56066644Y-24375111D01*
X56068756Y-24107441D01*
X56069019Y-23864664D01*
X56067306Y-23583406D01*
X56062862Y-23328913D01*
X56056142Y-23113940D01*
X56047605Y-22951243D01*
X56037708Y-22853578D01*
X56031970Y-22832387D01*
X55967801Y-22794272D01*
X55883720Y-22817012D01*
X55805448Y-22890144D01*
X55779758Y-22934972D01*
X55759535Y-23024965D01*
X55744256Y-23189639D01*
X55734540Y-23419123D01*
X55731004Y-23703542D01*
X55731000Y-23714443D01*
X55731000Y-24386902D01*
X55598140Y-24481506D01*
X55460370Y-24546065D01*
X55298009Y-24575181D01*
X55143905Y-24566667D01*
X55031965Y-24519222D01*
X54920948Y-24374027D01*
X54860192Y-24171737D01*
X54850400Y-23923909D01*
X54892278Y-23642097D01*
X54963685Y-23399301D01*
X55024719Y-23190388D01*
X55051202Y-23011832D01*
X55042582Y-22878148D01*
X54998304Y-22803850D01*
X54986641Y-22797956D01*
X54911341Y-22800654D01*
X54837427Y-22871128D01*
X54761814Y-23014285D01*
X54681420Y-23235030D01*
X54651888Y-23330504D01*
X54561668Y-23706140D01*
X54522773Y-24050536D01*
X54246327Y-24050536D01*
X54281187Y-23923057D01*
X54292104Y-23660608D01*
X54236626Y-23414916D01*
X54184708Y-23307428D01*
X54063431Y-23154571D01*
X53903804Y-23026049D01*
X53732314Y-22939460D01*
X53589448Y-22911930D01*
X53430013Y-22941245D01*
X53252007Y-23015163D01*
X53093932Y-23115749D01*
X53034318Y-23170526D01*
X52915275Y-23345098D01*
X52813597Y-23583275D01*
X52737634Y-23864476D01*
X52724507Y-23934062D01*
X52700054Y-24231306D01*
X51999309Y-24231306D01*
X52088553Y-24030964D01*
X52097303Y-24011667D01*
X52200974Y-23783082D01*
X52296922Y-23571279D01*
X52377725Y-23392659D01*
X52435962Y-23263626D01*
X52458809Y-23212747D01*
X52498152Y-23089337D01*
X52485270Y-22989897D01*
X52476681Y-22969330D01*
X52415413Y-22881194D01*
X52344719Y-22868935D01*
X52262691Y-22934221D01*
X52167423Y-23078717D01*
X52057006Y-23304089D01*
X52034371Y-23355694D01*
X51946113Y-23556138D01*
X51849925Y-23768827D01*
X51765245Y-23950838D01*
X51757989Y-23966053D01*
X51627918Y-24237939D01*
X51542629Y-24038966D01*
X51490262Y-23903759D01*
X51426689Y-23720810D01*
X51363520Y-23523911D01*
X51347445Y-23470746D01*
X51267044Y-23211694D01*
X51201125Y-23026515D01*
X51145728Y-22906451D01*
X51096896Y-22842740D01*
X51056252Y-22826334D01*
X50981392Y-22862594D01*
X50911313Y-22950530D01*
X50867792Y-23058874D01*
X50862667Y-23104270D01*
X46303274Y-23104270D01*
X46309916Y-22960667D01*
X46328283Y-22572199D01*
X46344905Y-22229775D01*
X46359442Y-21940311D01*
X46371555Y-21710723D01*
X46380907Y-21547926D01*
X46387157Y-21458836D01*
X46389212Y-21443677D01*
X46433494Y-21436766D01*
X46551887Y-21424238D01*
X46734089Y-21407023D01*
X46969796Y-21386049D01*
X47248706Y-21362246D01*
X47560518Y-21336544D01*
X47712615Y-21324302D01*
X48090682Y-21294020D01*
X48489531Y-21261927D01*
X48888070Y-21229730D01*
X49265206Y-21199135D01*
X49599849Y-21171852D01*
X49867834Y-21149840D01*
X50306307Y-21118396D01*
X50687271Y-21103154D01*
X51036454Y-21104842D01*
X51379587Y-21124186D01*
X51742399Y-21161913D01*
X52114208Y-21213259D01*
X52567362Y-21287133D01*
X52937811Y-21360701D01*
X53227517Y-21434467D01*
X53438438Y-21508935D01*
X53572533Y-21584609D01*
X53579219Y-21590070D01*
X53659548Y-21649293D01*
X53741521Y-21681941D01*
X53853226Y-21694827D01*
X54011826Y-21694981D01*
X54299076Y-21676779D01*
X54647931Y-21634238D01*
X55040062Y-21570929D01*
X55457141Y-21490421D01*
X55880838Y-21396284D01*
X56292824Y-21292087D01*
X56674769Y-21181401D01*
X56716575Y-21168214D01*
X57276167Y-20990020D01*
X57826500Y-21082549D01*
X57826500Y-21082549D01*
G37*
X57826500Y-21082549D02*
X57986349Y-21110657D01*
X58217398Y-21153025D01*
X58507804Y-21207398D01*
X58845726Y-21271524D01*
X59219323Y-21343147D01*
X59616754Y-21420015D01*
X60026177Y-21499873D01*
X60251386Y-21544097D01*
X62125939Y-21913115D01*
X62384679Y-22401474D01*
X62500828Y-22620025D01*
X62620579Y-22844218D01*
X62729080Y-23046309D01*
X62805008Y-23186678D01*
X62966597Y-23483523D01*
X62171986Y-24723707D01*
X61377374Y-25963891D01*
X61559279Y-27093862D01*
X61658884Y-27717945D01*
X61744007Y-28263316D01*
X61815256Y-28734578D01*
X61873242Y-29136331D01*
X61918572Y-29473175D01*
X61951856Y-29749710D01*
X61973702Y-29970537D01*
X61984719Y-30140257D01*
X61985516Y-30263471D01*
X61983344Y-30298167D01*
X61956622Y-30448131D01*
X61896779Y-30672639D01*
X61804715Y-30968707D01*
X61681331Y-31333347D01*
X61613395Y-31525834D01*
X61265874Y-32499500D01*
X61335706Y-33938834D01*
X61353155Y-34292227D01*
X61370376Y-34629470D01*
X61386708Y-34938442D01*
X61401490Y-35207019D01*
X61414059Y-35423079D01*
X61423753Y-35574499D01*
X61428168Y-35632167D01*
X61450797Y-35886167D01*
X60998319Y-36415334D01*
X60841989Y-36599423D01*
X60702157Y-36766446D01*
X60589498Y-36903468D01*
X60514686Y-36997557D01*
X60491665Y-37029167D01*
X60459511Y-37100801D01*
X60410756Y-37235393D01*
X60351739Y-37414401D01*
X60288800Y-37619282D01*
X60281792Y-37643000D01*
X60219643Y-37845528D01*
X60161257Y-38020184D01*
X60112687Y-38149888D01*
X60079983Y-38217561D01*
X60076965Y-38221163D01*
X60025215Y-38243515D01*
X59901658Y-38283813D01*
X59716535Y-38339111D01*
X59480086Y-38406464D01*
X59202553Y-38482927D01*
X58894178Y-38565555D01*
X58724751Y-38610053D01*
X57421669Y-38949948D01*
X56798584Y-38827759D01*
X56518591Y-38773643D01*
X56174367Y-38708378D01*
X55781978Y-38634906D01*
X55357490Y-38556171D01*
X54916969Y-38475115D01*
X54476482Y-38394681D01*
X54052095Y-38317813D01*
X53659873Y-38247453D01*
X53315882Y-38186543D01*
X53036190Y-38138029D01*
X52995133Y-38131046D01*
X52790221Y-38095608D01*
X52631542Y-38069851D01*
X52503191Y-38056014D01*
X52389260Y-38056338D01*
X52273844Y-38073061D01*
X52141035Y-38108424D01*
X51974927Y-38164665D01*
X51759615Y-38244024D01*
X51497667Y-38341879D01*
X51274428Y-38426169D01*
X50981887Y-38538707D01*
X50629176Y-38675860D01*
X50225429Y-38833994D01*
X49779777Y-39009475D01*
X49301353Y-39198668D01*
X48799290Y-39397941D01*
X48282719Y-39603659D01*
X47760774Y-39812188D01*
X47242587Y-40019894D01*
X46737289Y-40223143D01*
X46254015Y-40418301D01*
X45801896Y-40601735D01*
X45390064Y-40769810D01*
X45199794Y-40847905D01*
X45167776Y-40846789D01*
X45177192Y-40790108D01*
X45190106Y-40754222D01*
X45214334Y-40693128D01*
X45267232Y-40561541D01*
X45345586Y-40367404D01*
X45446182Y-40118658D01*
X45565805Y-39823243D01*
X45701242Y-39489101D01*
X45849278Y-39124174D01*
X46006699Y-38736402D01*
X46044509Y-38643306D01*
X46202173Y-38254252D01*
X46349717Y-37888439D01*
X46484130Y-37553455D01*
X46602403Y-37256887D01*
X46701522Y-37006321D01*
X46778478Y-36809344D01*
X46830260Y-36673543D01*
X46853855Y-36606504D01*
X46855003Y-36601194D01*
X46833746Y-36553872D01*
X46773774Y-36444458D01*
X46680875Y-36282886D01*
X46560837Y-36079089D01*
X46419449Y-35843003D01*
X46265972Y-35590243D01*
X46264472Y-35587756D01*
X49697640Y-35587756D01*
X49716448Y-35887120D01*
X49808031Y-36162600D01*
X49825221Y-36195646D01*
X49929791Y-36354361D01*
X50027447Y-36435846D01*
X50047814Y-36442955D01*
X50176158Y-36454122D01*
X50351153Y-36443405D01*
X50538915Y-36415045D01*
X50705560Y-36373282D01*
X50758043Y-36354056D01*
X50853716Y-36318593D01*
X50900500Y-36323902D01*
X50926378Y-36375269D01*
X50929959Y-36386543D01*
X50989511Y-36493718D01*
X51067712Y-36521812D01*
X51150910Y-36470007D01*
X51196353Y-36402505D01*
X51210781Y-36345556D01*
X51221905Y-36232218D01*
X51229847Y-36057434D01*
X51234730Y-35816146D01*
X51236678Y-35503298D01*
X51236508Y-35426457D01*
X51455334Y-35426457D01*
X51456454Y-35703258D01*
X51459589Y-35953872D01*
X51464404Y-36165102D01*
X51470560Y-36323748D01*
X51477721Y-36416609D01*
X51481029Y-36433038D01*
X51538658Y-36491421D01*
X51624366Y-36488689D01*
X51710925Y-36427832D01*
X51728100Y-36405914D01*
X51750223Y-36361710D01*
X51766948Y-36293387D01*
X51778968Y-36190070D01*
X51786976Y-36040885D01*
X51791667Y-35834959D01*
X51792248Y-35757874D01*
X52092685Y-35757874D01*
X52103683Y-35892603D01*
X52137348Y-36014374D01*
X52186985Y-36132004D01*
X52260434Y-36267021D01*
X52339135Y-36373225D01*
X52389760Y-36416989D01*
X52503438Y-36444923D01*
X52670967Y-36446522D01*
X52866458Y-36423916D01*
X53064024Y-36379234D01*
X53138490Y-36355424D01*
X53248771Y-36319299D01*
X53301261Y-36314982D01*
X53317147Y-36343769D01*
X53318000Y-36366411D01*
X53346243Y-36462000D01*
X53413863Y-36514867D01*
X53472891Y-36512729D01*
X53533630Y-36461034D01*
X53594733Y-36369972D01*
X53612396Y-36321999D01*
X53626506Y-36247957D01*
X53637421Y-36139183D01*
X53645500Y-35987018D01*
X53651102Y-35782799D01*
X53654586Y-35517866D01*
X53654857Y-35465197D01*
X54503334Y-35465197D01*
X54504580Y-35744980D01*
X54508076Y-35996157D01*
X54513455Y-36206454D01*
X54520354Y-36363595D01*
X54528406Y-36455303D01*
X54533341Y-36473564D01*
X54608729Y-36497419D01*
X54701029Y-36465245D01*
X54777867Y-36389857D01*
X54787400Y-36373000D01*
X54802407Y-36301712D01*
X54815450Y-36161431D01*
X54826308Y-35967812D01*
X54834759Y-35736509D01*
X54840583Y-35483178D01*
X54843558Y-35223475D01*
X54843465Y-34973055D01*
X54840083Y-34747572D01*
X54837031Y-34665709D01*
X55144304Y-34665709D01*
X55146381Y-34692206D01*
X55161301Y-34777144D01*
X55200932Y-34819058D01*
X55290284Y-34836701D01*
X55344996Y-34841124D01*
X55530491Y-34854414D01*
X55502059Y-35370290D01*
X55492698Y-35686637D01*
X55501272Y-35953068D01*
X55526852Y-36160114D01*
X55568512Y-36298306D01*
X55597072Y-36340672D01*
X55665901Y-36377804D01*
X55778214Y-36411920D01*
X55802931Y-36417177D01*
X55925656Y-36434271D01*
X56051311Y-36432903D01*
X56211068Y-36411540D01*
X56319277Y-36391767D01*
X56409255Y-36352371D01*
X56831870Y-36352371D01*
X56845017Y-36448532D01*
X56859889Y-36471778D01*
X56940488Y-36502266D01*
X57031299Y-36464560D01*
X57109251Y-36368319D01*
X57109868Y-36367132D01*
X57149078Y-36240779D01*
X57138891Y-36134720D01*
X57091978Y-36063201D01*
X57021007Y-36040468D01*
X56938649Y-36080766D01*
X56897567Y-36128420D01*
X56850768Y-36233081D01*
X56831870Y-36352371D01*
X56409255Y-36352371D01*
X56450720Y-36334216D01*
X56549414Y-36231935D01*
X56604819Y-36107277D01*
X56606395Y-35982593D01*
X56555374Y-35891089D01*
X56493432Y-35842768D01*
X56440749Y-35858571D01*
X56410552Y-35884159D01*
X56324008Y-35925951D01*
X56196926Y-35948407D01*
X56057468Y-35951600D01*
X55933795Y-35935602D01*
X55854068Y-35900485D01*
X55841363Y-35882704D01*
X55827471Y-35798749D01*
X55820710Y-35654073D01*
X55820820Y-35472300D01*
X55826729Y-35300621D01*
X56831316Y-35300621D01*
X56845214Y-35481495D01*
X56884980Y-35585554D01*
X56949031Y-35611163D01*
X57035779Y-35556684D01*
X57057436Y-35534139D01*
X57088378Y-35495427D01*
X57112940Y-35448164D01*
X57133092Y-35380340D01*
X57150806Y-35279940D01*
X57168054Y-35134952D01*
X57186806Y-34933363D01*
X57209034Y-34663160D01*
X57217155Y-34560860D01*
X57236071Y-34308689D01*
X57246511Y-34127418D01*
X57248260Y-34003687D01*
X57241102Y-33924133D01*
X57224822Y-33875395D01*
X57205697Y-33850221D01*
X57119267Y-33808703D01*
X57034913Y-33843823D01*
X56968665Y-33948707D01*
X56967271Y-33952459D01*
X56947805Y-34038383D01*
X56925099Y-34189061D01*
X56901145Y-34384739D01*
X56877936Y-34605668D01*
X56857462Y-34832093D01*
X56841717Y-35044265D01*
X56832691Y-35222430D01*
X56831316Y-35300621D01*
X55826729Y-35300621D01*
X55827541Y-35277051D01*
X55840611Y-35091950D01*
X55851125Y-34997595D01*
X55879167Y-34786357D01*
X56084255Y-34757115D01*
X56280495Y-34704633D01*
X56402944Y-34614299D01*
X56450132Y-34487266D01*
X56450667Y-34469906D01*
X56423699Y-34343450D01*
X56342396Y-34281900D01*
X56232827Y-34279793D01*
X56095070Y-34301408D01*
X55985000Y-34318775D01*
X55858000Y-34338884D01*
X55858000Y-34021113D01*
X55853893Y-33847851D01*
X55839531Y-33742839D01*
X55811855Y-33689967D01*
X55792923Y-33678371D01*
X55699168Y-33680441D01*
X55622370Y-33760450D01*
X55566025Y-33912748D01*
X55537135Y-34091657D01*
X55508394Y-34383334D01*
X55367186Y-34383334D01*
X55236098Y-34414808D01*
X55161733Y-34509033D01*
X55144304Y-34665709D01*
X54837031Y-34665709D01*
X54833189Y-34562682D01*
X54822565Y-34434040D01*
X54815318Y-34393917D01*
X54763327Y-34316223D01*
X54682055Y-34305459D01*
X54594211Y-34361734D01*
X54569234Y-34392753D01*
X54547535Y-34436023D01*
X54531022Y-34502936D01*
X54519042Y-34604129D01*
X54510942Y-34750242D01*
X54506068Y-34951910D01*
X54503766Y-35219772D01*
X54503334Y-35465197D01*
X53654857Y-35465197D01*
X53656311Y-35183558D01*
X53656667Y-34875731D01*
X53655898Y-34540504D01*
X53653719Y-34230730D01*
X53650317Y-33957012D01*
X53645937Y-33732768D01*
X54552738Y-33732768D01*
X54565641Y-33859698D01*
X54590864Y-33923019D01*
X54662310Y-33988491D01*
X54753066Y-33985464D01*
X54840602Y-33919046D01*
X54879045Y-33857696D01*
X54912157Y-33708710D01*
X54876259Y-33571472D01*
X54786431Y-33477552D01*
X54702591Y-33463894D01*
X54629903Y-33515073D01*
X54577055Y-33611295D01*
X54552738Y-33732768D01*
X53645937Y-33732768D01*
X53645882Y-33729953D01*
X53640603Y-33560155D01*
X53634668Y-33458222D01*
X53630971Y-33434296D01*
X53572544Y-33375310D01*
X53481464Y-33381937D01*
X53395417Y-33437395D01*
X53361136Y-33479518D01*
X53338558Y-33542798D01*
X53325382Y-33643646D01*
X53319304Y-33798469D01*
X53318000Y-33989217D01*
X53317294Y-34196143D01*
X53313545Y-34331467D01*
X53304313Y-34408254D01*
X53287154Y-34439568D01*
X53259626Y-34438471D01*
X53236117Y-34427156D01*
X53099491Y-34389621D01*
X52930428Y-34389752D01*
X52771621Y-34426184D01*
X52733815Y-34443222D01*
X52524307Y-34597582D01*
X52346223Y-34816616D01*
X52209180Y-35083190D01*
X52122797Y-35380166D01*
X52098741Y-35574721D01*
X52092685Y-35757874D01*
X51792248Y-35757874D01*
X51793732Y-35561417D01*
X51794000Y-35372210D01*
X51792880Y-35095409D01*
X51789744Y-34844795D01*
X51784930Y-34633565D01*
X51778773Y-34474919D01*
X51771612Y-34382058D01*
X51768304Y-34365629D01*
X51710676Y-34307246D01*
X51624968Y-34309978D01*
X51538409Y-34370835D01*
X51521234Y-34392753D01*
X51499111Y-34436957D01*
X51482386Y-34505280D01*
X51470366Y-34608597D01*
X51462357Y-34757782D01*
X51457667Y-34963708D01*
X51455602Y-35237250D01*
X51455334Y-35426457D01*
X51236508Y-35426457D01*
X51235812Y-35113834D01*
X51234055Y-34849000D01*
X51225282Y-33740100D01*
X51500627Y-33740100D01*
X51518770Y-33867797D01*
X51541490Y-33920450D01*
X51616539Y-33990511D01*
X51712198Y-33990057D01*
X51803923Y-33920191D01*
X51812766Y-33908247D01*
X51869751Y-33766290D01*
X51863420Y-33617070D01*
X51819737Y-33526084D01*
X51736891Y-33461806D01*
X51652872Y-33466214D01*
X51578363Y-33524163D01*
X51524053Y-33620507D01*
X51500627Y-33740100D01*
X51225282Y-33740100D01*
X51222500Y-33388500D01*
X51129694Y-33375293D01*
X51039624Y-33392768D01*
X50973707Y-33477266D01*
X50930499Y-33633082D01*
X50908558Y-33864511D01*
X50905000Y-34044054D01*
X50904142Y-34236525D01*
X50899619Y-34358005D01*
X50888510Y-34422167D01*
X50867891Y-34442684D01*
X50834840Y-34433229D01*
X50823117Y-34427156D01*
X50653934Y-34381778D01*
X50464416Y-34404450D01*
X50274287Y-34488633D01*
X50103273Y-34627789D01*
X50057235Y-34681054D01*
X49870096Y-34971254D01*
X49749544Y-35277978D01*
X49697640Y-35587756D01*
X46264472Y-35587756D01*
X46109613Y-35331116D01*
X45969864Y-35093197D01*
X45852402Y-34886667D01*
X45762902Y-34721706D01*
X45707039Y-34608495D01*
X45690365Y-34557716D01*
X45703906Y-34498287D01*
X45734467Y-34369162D01*
X45779035Y-34182908D01*
X45834599Y-33952093D01*
X45898145Y-33689283D01*
X45935160Y-33536667D01*
X46022910Y-33163961D01*
X46094453Y-32830689D01*
X46154466Y-32510481D01*
X46207626Y-32176969D01*
X46258611Y-31803782D01*
X46295441Y-31505402D01*
X46424461Y-30426638D01*
X46293039Y-29032246D01*
X47947720Y-29032246D01*
X47949273Y-29055957D01*
X47966043Y-29148165D01*
X48010253Y-29193560D01*
X48108229Y-29215563D01*
X48132167Y-29218667D01*
X48301500Y-29239834D01*
X48330787Y-29973361D01*
X48346188Y-30288552D01*
X48365363Y-30525259D01*
X48390473Y-30689651D01*
X48423678Y-30787895D01*
X48467138Y-30826161D01*
X48523014Y-30810616D01*
X48593465Y-30747427D01*
X48599549Y-30740771D01*
X48628343Y-30701715D01*
X48648713Y-30649429D01*
X48661767Y-30570596D01*
X48668615Y-30451901D01*
X48670366Y-30280026D01*
X48668131Y-30041656D01*
X48666555Y-29936438D01*
X48665389Y-29862574D01*
X49697045Y-29862574D01*
X49708918Y-30123756D01*
X49751128Y-30336828D01*
X49786910Y-30425167D01*
X49910088Y-30585021D01*
X50079024Y-30702982D01*
X50273160Y-30773600D01*
X50471944Y-30791425D01*
X50654819Y-30751010D01*
X50763603Y-30684082D01*
X50880927Y-30583164D01*
X50925777Y-30673124D01*
X50998724Y-30760917D01*
X51081028Y-30767411D01*
X51160243Y-30693120D01*
X51177718Y-30662735D01*
X51199974Y-30605514D01*
X51216808Y-30523885D01*
X51228900Y-30406747D01*
X51236926Y-30243001D01*
X51241567Y-30021546D01*
X51242100Y-29941387D01*
X51447555Y-29941387D01*
X51492977Y-30253817D01*
X51612842Y-30545532D01*
X51652313Y-30610166D01*
X51690273Y-30659534D01*
X51737713Y-30687851D01*
X51815183Y-30699197D01*
X51943231Y-30697653D01*
X52062890Y-30691694D01*
X52296479Y-30667935D01*
X52480847Y-30626835D01*
X52556000Y-30596993D01*
X52740212Y-30484162D01*
X52849439Y-30368801D01*
X52892964Y-30240161D01*
X52894667Y-30204792D01*
X52879578Y-30101745D01*
X52842669Y-30043054D01*
X52838813Y-30041243D01*
X52772752Y-30046555D01*
X52658945Y-30082315D01*
X52553063Y-30126825D01*
X52276789Y-30217483D01*
X52105740Y-30234253D01*
X51975617Y-30230549D01*
X51900763Y-30208477D01*
X51851830Y-30152555D01*
X51815443Y-30081103D01*
X51769495Y-29893316D01*
X51786340Y-29683374D01*
X51857966Y-29475541D01*
X51976360Y-29294085D01*
X52114884Y-29174242D01*
X52239554Y-29109668D01*
X52338696Y-29101027D01*
X52446037Y-29150287D01*
X52513667Y-29197500D01*
X52654695Y-29281395D01*
X52762287Y-29294178D01*
X52831313Y-29247723D01*
X53148667Y-29247723D01*
X53149051Y-29641929D01*
X53150442Y-29959652D01*
X53153200Y-30209073D01*
X53157685Y-30398374D01*
X53164256Y-30535736D01*
X53173273Y-30629339D01*
X53185096Y-30687366D01*
X53200084Y-30717998D01*
X53213744Y-30727963D01*
X53291223Y-30720951D01*
X53361910Y-30677740D01*
X53405727Y-30623534D01*
X53431193Y-30545141D01*
X53442761Y-30420997D01*
X53445000Y-30275308D01*
X53447027Y-30108164D01*
X53457217Y-30003758D01*
X53481734Y-29940186D01*
X53526741Y-29895541D01*
X53557890Y-29874103D01*
X53641776Y-29827910D01*
X53691151Y-29833356D01*
X53716640Y-29859993D01*
X53760634Y-29918613D01*
X53841400Y-30027250D01*
X53945473Y-30167770D01*
X54011536Y-30257176D01*
X54175223Y-30475928D01*
X54299115Y-30631305D01*
X54391694Y-30729487D01*
X54461441Y-30776655D01*
X54516836Y-30778988D01*
X54566360Y-30742667D01*
X54606766Y-30690914D01*
X54657557Y-30585636D01*
X54672667Y-30506967D01*
X54648094Y-30440812D01*
X54580880Y-30323698D01*
X54480779Y-30171170D01*
X54357548Y-29998775D01*
X54334000Y-29967281D01*
X54208702Y-29798363D01*
X54155561Y-29724301D01*
X54884334Y-29724301D01*
X54885476Y-30007741D01*
X54888682Y-30262567D01*
X54893622Y-30476702D01*
X54899967Y-30638070D01*
X54907385Y-30734596D01*
X54912556Y-30756778D01*
X54990265Y-30782856D01*
X55086007Y-30730973D01*
X55121189Y-30695986D01*
X55149280Y-30657780D01*
X55170475Y-30605579D01*
X55186030Y-30527196D01*
X55197196Y-30410443D01*
X55198586Y-30381480D01*
X55506989Y-30381480D01*
X55509611Y-30559036D01*
X55516119Y-30682450D01*
X55527019Y-30761884D01*
X55542822Y-30807502D01*
X55561667Y-30828054D01*
X55614818Y-30859988D01*
X55650376Y-30856352D01*
X55701520Y-30807048D01*
X55729351Y-30777018D01*
X55765272Y-30730682D01*
X55789656Y-30671993D01*
X55804686Y-30584840D01*
X55812545Y-30453111D01*
X55815418Y-30260696D01*
X55815667Y-30140093D01*
X55816548Y-29914977D01*
X55820884Y-29758201D01*
X55831210Y-29653441D01*
X55850063Y-29584375D01*
X55879980Y-29534682D01*
X55915815Y-29495670D01*
X56022372Y-29410967D01*
X56165952Y-29325263D01*
X56326650Y-29246933D01*
X56484560Y-29184355D01*
X56619778Y-29145904D01*
X56712396Y-29139956D01*
X56735514Y-29150736D01*
X56746357Y-29200860D01*
X56758011Y-29321645D01*
X56769556Y-29499101D01*
X56780071Y-29719241D01*
X56788157Y-29951268D01*
X56796361Y-30223653D01*
X56804001Y-30423061D01*
X56812839Y-30561149D01*
X56824638Y-30649575D01*
X56841158Y-30699996D01*
X56864163Y-30724070D01*
X56895414Y-30733454D01*
X56906632Y-30735143D01*
X56977635Y-30727300D01*
X57032453Y-30667285D01*
X57070951Y-30586977D01*
X57096483Y-30512781D01*
X57113606Y-30422788D01*
X57123063Y-30302438D01*
X57125597Y-30137170D01*
X57124397Y-30063150D01*
X57315023Y-30063150D01*
X57337414Y-30325266D01*
X57421772Y-30529914D01*
X57568052Y-30676961D01*
X57691673Y-30739847D01*
X57867660Y-30776975D01*
X58086336Y-30780388D01*
X58313026Y-30750769D01*
X58412439Y-30725643D01*
X58609667Y-30666286D01*
X58609667Y-30843224D01*
X58592336Y-31018581D01*
X58532311Y-31130309D01*
X58417544Y-31189758D01*
X58235989Y-31208276D01*
X58222081Y-31208334D01*
X58026521Y-31193614D01*
X57858674Y-31154343D01*
X57816243Y-31137129D01*
X57716952Y-31094184D01*
X57659346Y-31092743D01*
X57609269Y-31136668D01*
X57587595Y-31162985D01*
X57521207Y-31294085D01*
X57516691Y-31428389D01*
X57542365Y-31491605D01*
X57644280Y-31580791D01*
X57804791Y-31641530D01*
X58002111Y-31671968D01*
X58214457Y-31670257D01*
X58420043Y-31634543D01*
X58567978Y-31578750D01*
X58693868Y-31503555D01*
X58786712Y-31414639D01*
X58852870Y-31297236D01*
X58898702Y-31136575D01*
X58930566Y-30917888D01*
X58950303Y-30690829D01*
X58964533Y-30452840D01*
X58975363Y-30186281D01*
X58982783Y-29904950D01*
X58986781Y-29622645D01*
X58987347Y-29353164D01*
X58984468Y-29110305D01*
X58978134Y-28907868D01*
X58968333Y-28759649D01*
X58955054Y-28679448D01*
X58951958Y-28672748D01*
X58887092Y-28635581D01*
X58836189Y-28648542D01*
X58759303Y-28664862D01*
X58622906Y-28677895D01*
X58452148Y-28685499D01*
X58391348Y-28686461D01*
X58207439Y-28690462D01*
X58081718Y-28703009D01*
X57987734Y-28730436D01*
X57899039Y-28779079D01*
X57841546Y-28818140D01*
X57656666Y-28998238D01*
X57506434Y-29253725D01*
X57392124Y-29582179D01*
X57354645Y-29743702D01*
X57315023Y-30063150D01*
X57124397Y-30063150D01*
X57121951Y-29912425D01*
X57115913Y-29705500D01*
X57105564Y-29458490D01*
X57091731Y-29233606D01*
X57075791Y-29047732D01*
X57059120Y-28917746D01*
X57047693Y-28868897D01*
X56965062Y-28746604D01*
X56834168Y-28687366D01*
X56652966Y-28691213D01*
X56419413Y-28758175D01*
X56142484Y-28882665D01*
X56014079Y-28946471D01*
X55918391Y-28991325D01*
X55877901Y-29007000D01*
X55866487Y-28968924D01*
X55859289Y-28871690D01*
X55858000Y-28797832D01*
X55847671Y-28646577D01*
X55811706Y-28567470D01*
X55742639Y-28549966D01*
X55690904Y-28561790D01*
X55642116Y-28589392D01*
X55603297Y-28643725D01*
X55573181Y-28733679D01*
X55550504Y-28868147D01*
X55533999Y-29056020D01*
X55522402Y-29306190D01*
X55514446Y-29627547D01*
X55511361Y-29823285D01*
X55507742Y-30139618D01*
X55506989Y-30381480D01*
X55198586Y-30381480D01*
X55205227Y-30243132D01*
X55211376Y-30013075D01*
X55215775Y-29776162D01*
X55218757Y-29505979D01*
X55218686Y-29252769D01*
X55215788Y-29033362D01*
X55210288Y-28864590D01*
X55202411Y-28763284D01*
X55202228Y-28762043D01*
X55162671Y-28619672D01*
X55101372Y-28553259D01*
X55023723Y-28565913D01*
X54962406Y-28623631D01*
X54937549Y-28660755D01*
X54918566Y-28710163D01*
X54904678Y-28782839D01*
X54895105Y-28889765D01*
X54889069Y-29041927D01*
X54885790Y-29250308D01*
X54884489Y-29525893D01*
X54884334Y-29724301D01*
X54155561Y-29724301D01*
X54104350Y-29652930D01*
X54030448Y-29544586D01*
X53996498Y-29486936D01*
X53995334Y-29482486D01*
X54023492Y-29436148D01*
X54096191Y-29353052D01*
X54168156Y-29280175D01*
X54340730Y-29086630D01*
X54432583Y-28918319D01*
X54443779Y-28775127D01*
X54442472Y-28769607D01*
X54404276Y-28687846D01*
X54341336Y-28664258D01*
X54248319Y-28701473D01*
X54119891Y-28802123D01*
X53950719Y-28968837D01*
X53875308Y-29049334D01*
X53737145Y-29195840D01*
X53617789Y-29316242D01*
X53529665Y-29398426D01*
X53485202Y-29430278D01*
X53484471Y-29430334D01*
X53471608Y-29389643D01*
X53460785Y-29274112D01*
X53452446Y-29093551D01*
X53447038Y-28857773D01*
X53445005Y-28576588D01*
X53445000Y-28561172D01*
X53444219Y-28263617D01*
X53441363Y-28040149D01*
X53440650Y-28020133D01*
X54930836Y-28020133D01*
X54945911Y-28138954D01*
X54995087Y-28222706D01*
X55057210Y-28267441D01*
X55121381Y-28251463D01*
X55153019Y-28231693D01*
X55233835Y-28144948D01*
X55267774Y-28071046D01*
X55273186Y-27948174D01*
X55241383Y-27825386D01*
X55183544Y-27737650D01*
X55155582Y-27720188D01*
X55070869Y-27724320D01*
X55000430Y-27790540D01*
X54951381Y-27896569D01*
X54930836Y-28020133D01*
X53440650Y-28020133D01*
X53435663Y-27880200D01*
X53426350Y-27773199D01*
X53412654Y-27708578D01*
X53393806Y-27675768D01*
X53379923Y-27667037D01*
X53302444Y-27674050D01*
X53231757Y-27717260D01*
X53209499Y-27740803D01*
X53191612Y-27772753D01*
X53177617Y-27821880D01*
X53167040Y-27896957D01*
X53159405Y-28006754D01*
X53154234Y-28160044D01*
X53151052Y-28365598D01*
X53149382Y-28632187D01*
X53148749Y-28968584D01*
X53148667Y-29247723D01*
X52831313Y-29247723D01*
X52848942Y-29235859D01*
X52877191Y-29197809D01*
X52924878Y-29071807D01*
X52894974Y-28950602D01*
X52784880Y-28827398D01*
X52715162Y-28774167D01*
X52570838Y-28689065D01*
X52433331Y-28653828D01*
X52332683Y-28650282D01*
X52171382Y-28669763D01*
X52032553Y-28730744D01*
X51897239Y-28845295D01*
X51749279Y-29021816D01*
X51576573Y-29311185D01*
X51475710Y-29622442D01*
X51447555Y-29941387D01*
X51242100Y-29941387D01*
X51243499Y-29731282D01*
X51243667Y-29583626D01*
X51243033Y-29271194D01*
X51240623Y-29032514D01*
X51235671Y-28856680D01*
X51227413Y-28732783D01*
X51215083Y-28649915D01*
X51197917Y-28597168D01*
X51175149Y-28563636D01*
X51171904Y-28560285D01*
X51119306Y-28517764D01*
X51074356Y-28527164D01*
X51008022Y-28595631D01*
X51002571Y-28601955D01*
X50966336Y-28648161D01*
X50940388Y-28698687D01*
X50923013Y-28767698D01*
X50912501Y-28869360D01*
X50907140Y-29017837D01*
X50905217Y-29227297D01*
X50905000Y-29409373D01*
X50905000Y-30103358D01*
X50763421Y-30211346D01*
X50599345Y-30293986D01*
X50416404Y-30320550D01*
X50248530Y-30286977D01*
X50225322Y-30275745D01*
X50150139Y-30208809D01*
X50078584Y-30105741D01*
X50074866Y-30098705D01*
X50033088Y-29951728D01*
X50022395Y-29749991D01*
X50041299Y-29516886D01*
X50088318Y-29275807D01*
X50137353Y-29114301D01*
X50202441Y-28894241D01*
X50225664Y-28720700D01*
X50206670Y-28603032D01*
X50158413Y-28554434D01*
X50082414Y-28545491D01*
X50014958Y-28587978D01*
X49949366Y-28690902D01*
X49878959Y-28863269D01*
X49836610Y-28988315D01*
X49761576Y-29275058D01*
X49714826Y-29573076D01*
X49697045Y-29862574D01*
X48665389Y-29862574D01*
X48655222Y-29218667D01*
X48983028Y-29218667D01*
X49200663Y-29207979D01*
X49346394Y-29172269D01*
X49430693Y-29106066D01*
X49464034Y-29003899D01*
X49465667Y-28966572D01*
X49453961Y-28870946D01*
X49409652Y-28808252D01*
X49318950Y-28772041D01*
X49168065Y-28755864D01*
X49008979Y-28753000D01*
X48653891Y-28753000D01*
X48681045Y-28573084D01*
X48710514Y-28381846D01*
X48734166Y-28260062D01*
X48759325Y-28193542D01*
X48793310Y-28168099D01*
X48843445Y-28169544D01*
X48885141Y-28177578D01*
X49002227Y-28216536D01*
X49085222Y-28266670D01*
X49177438Y-28323447D01*
X49250294Y-28301537D01*
X49313461Y-28197967D01*
X49314174Y-28196277D01*
X49353505Y-28034780D01*
X49317639Y-27906670D01*
X49203428Y-27805109D01*
X49113977Y-27761324D01*
X48964974Y-27711042D01*
X48843367Y-27703408D01*
X48759224Y-27718814D01*
X48632573Y-27774589D01*
X48536941Y-27877594D01*
X48464779Y-28039984D01*
X48408536Y-28273916D01*
X48406074Y-28287334D01*
X48377307Y-28445682D01*
X48352421Y-28582281D01*
X48338605Y-28657750D01*
X48301822Y-28730395D01*
X48213262Y-28752859D01*
X48201421Y-28753000D01*
X48064895Y-28788957D01*
X47976226Y-28886968D01*
X47947720Y-29032246D01*
X46293039Y-29032246D01*
X46121087Y-27207834D01*
X46247724Y-24333181D01*
X46269297Y-23848074D01*
X46290141Y-23388264D01*
X46303274Y-23104270D01*
X50862667Y-23104270D01*
X50876773Y-23186405D01*
X50916591Y-23335979D01*
X50978367Y-23541057D01*
X51058351Y-23789704D01*
X51152789Y-24069985D01*
X51257931Y-24369965D01*
X51279358Y-24429732D01*
X51406951Y-24784298D01*
X51277634Y-25128232D01*
X51213018Y-25309490D01*
X51157321Y-25482568D01*
X51120506Y-25616065D01*
X51115504Y-25639151D01*
X51103116Y-25795699D01*
X51127134Y-25914661D01*
X51178129Y-25985036D01*
X51246671Y-25995827D01*
X51323327Y-25936034D01*
X51344369Y-25906084D01*
X51395396Y-25796695D01*
X51434619Y-25665275D01*
X51435161Y-25662667D01*
X51474301Y-25523121D01*
X51546641Y-25317408D01*
X51648208Y-25055432D01*
X51775030Y-24747097D01*
X51923136Y-24402306D01*
X51999309Y-24231306D01*
X52700054Y-24231306D01*
X52732196Y-24495714D01*
X52818292Y-24713509D01*
X52893149Y-24814375D01*
X53043069Y-24915873D01*
X53232423Y-24950915D01*
X53448083Y-24919421D01*
X53676921Y-24821313D01*
X53680671Y-24819170D01*
X53903617Y-24650319D01*
X54081588Y-24433974D01*
X54209230Y-24186200D01*
X54246327Y-24050536D01*
X54522773Y-24050536D01*
X54534385Y-24355384D01*
X54595686Y-24612380D01*
X54705857Y-24813217D01*
X54807770Y-24913096D01*
X54996091Y-25006834D01*
X55212866Y-25042094D01*
X55428835Y-25018038D01*
X55611510Y-24936104D01*
X55690085Y-24885162D01*
X55727094Y-24884647D01*
X55749863Y-24935765D01*
X55751946Y-24942306D01*
X55807526Y-25012986D01*
X55892102Y-25019368D01*
X55980619Y-24962319D01*
X56003766Y-24933581D01*
X56025488Y-24890313D01*
X56041986Y-24823499D01*
X56053910Y-24722472D01*
X56061912Y-24576566D01*
X56066644Y-24375111D01*
X56068756Y-24107441D01*
X56069019Y-23864664D01*
X56067306Y-23583406D01*
X56062862Y-23328913D01*
X56056142Y-23113940D01*
X56047605Y-22951243D01*
X56037708Y-22853578D01*
X56031970Y-22832387D01*
X55967801Y-22794272D01*
X55883720Y-22817012D01*
X55805448Y-22890144D01*
X55779758Y-22934972D01*
X55759535Y-23024965D01*
X55744256Y-23189639D01*
X55734540Y-23419123D01*
X55731004Y-23703542D01*
X55731000Y-23714443D01*
X55731000Y-24386902D01*
X55598140Y-24481506D01*
X55460370Y-24546065D01*
X55298009Y-24575181D01*
X55143905Y-24566667D01*
X55031965Y-24519222D01*
X54920948Y-24374027D01*
X54860192Y-24171737D01*
X54850400Y-23923909D01*
X54892278Y-23642097D01*
X54963685Y-23399301D01*
X55024719Y-23190388D01*
X55051202Y-23011832D01*
X55042582Y-22878148D01*
X54998304Y-22803850D01*
X54986641Y-22797956D01*
X54911341Y-22800654D01*
X54837427Y-22871128D01*
X54761814Y-23014285D01*
X54681420Y-23235030D01*
X54651888Y-23330504D01*
X54561668Y-23706140D01*
X54522773Y-24050536D01*
X54246327Y-24050536D01*
X54281187Y-23923057D01*
X54292104Y-23660608D01*
X54236626Y-23414916D01*
X54184708Y-23307428D01*
X54063431Y-23154571D01*
X53903804Y-23026049D01*
X53732314Y-22939460D01*
X53589448Y-22911930D01*
X53430013Y-22941245D01*
X53252007Y-23015163D01*
X53093932Y-23115749D01*
X53034318Y-23170526D01*
X52915275Y-23345098D01*
X52813597Y-23583275D01*
X52737634Y-23864476D01*
X52724507Y-23934062D01*
X52700054Y-24231306D01*
X51999309Y-24231306D01*
X52088553Y-24030964D01*
X52097303Y-24011667D01*
X52200974Y-23783082D01*
X52296922Y-23571279D01*
X52377725Y-23392659D01*
X52435962Y-23263626D01*
X52458809Y-23212747D01*
X52498152Y-23089337D01*
X52485270Y-22989897D01*
X52476681Y-22969330D01*
X52415413Y-22881194D01*
X52344719Y-22868935D01*
X52262691Y-22934221D01*
X52167423Y-23078717D01*
X52057006Y-23304089D01*
X52034371Y-23355694D01*
X51946113Y-23556138D01*
X51849925Y-23768827D01*
X51765245Y-23950838D01*
X51757989Y-23966053D01*
X51627918Y-24237939D01*
X51542629Y-24038966D01*
X51490262Y-23903759D01*
X51426689Y-23720810D01*
X51363520Y-23523911D01*
X51347445Y-23470746D01*
X51267044Y-23211694D01*
X51201125Y-23026515D01*
X51145728Y-22906451D01*
X51096896Y-22842740D01*
X51056252Y-22826334D01*
X50981392Y-22862594D01*
X50911313Y-22950530D01*
X50867792Y-23058874D01*
X50862667Y-23104270D01*
X46303274Y-23104270D01*
X46309916Y-22960667D01*
X46328283Y-22572199D01*
X46344905Y-22229775D01*
X46359442Y-21940311D01*
X46371555Y-21710723D01*
X46380907Y-21547926D01*
X46387157Y-21458836D01*
X46389212Y-21443677D01*
X46433494Y-21436766D01*
X46551887Y-21424238D01*
X46734089Y-21407023D01*
X46969796Y-21386049D01*
X47248706Y-21362246D01*
X47560518Y-21336544D01*
X47712615Y-21324302D01*
X48090682Y-21294020D01*
X48489531Y-21261927D01*
X48888070Y-21229730D01*
X49265206Y-21199135D01*
X49599849Y-21171852D01*
X49867834Y-21149840D01*
X50306307Y-21118396D01*
X50687271Y-21103154D01*
X51036454Y-21104842D01*
X51379587Y-21124186D01*
X51742399Y-21161913D01*
X52114208Y-21213259D01*
X52567362Y-21287133D01*
X52937811Y-21360701D01*
X53227517Y-21434467D01*
X53438438Y-21508935D01*
X53572533Y-21584609D01*
X53579219Y-21590070D01*
X53659548Y-21649293D01*
X53741521Y-21681941D01*
X53853226Y-21694827D01*
X54011826Y-21694981D01*
X54299076Y-21676779D01*
X54647931Y-21634238D01*
X55040062Y-21570929D01*
X55457141Y-21490421D01*
X55880838Y-21396284D01*
X56292824Y-21292087D01*
X56674769Y-21181401D01*
X56716575Y-21168214D01*
X57276167Y-20990020D01*
X57826500Y-21082549D01*
G36*
X50701500Y-34902208D02*
X50762420Y-34937120D01*
X50905000Y-35025239D01*
X50905000Y-35826987D01*
X50752069Y-35890886D01*
X50609335Y-35936948D01*
X50444189Y-35972200D01*
X50402819Y-35977973D01*
X50270215Y-35985759D01*
X50187144Y-35964460D01*
X50128829Y-35915200D01*
X50047713Y-35766541D01*
X50024025Y-35580616D01*
X50053991Y-35378661D01*
X50133836Y-35181915D01*
X50259787Y-35011614D01*
X50295388Y-34977973D01*
X50434423Y-34880250D01*
X50561130Y-34855753D01*
X50701500Y-34902208D01*
X50701500Y-34902208D01*
G37*
X50701500Y-34902208D02*
X50762420Y-34937120D01*
X50905000Y-35025239D01*
X50905000Y-35826987D01*
X50752069Y-35890886D01*
X50609335Y-35936948D01*
X50444189Y-35972200D01*
X50402819Y-35977973D01*
X50270215Y-35985759D01*
X50187144Y-35964460D01*
X50128829Y-35915200D01*
X50047713Y-35766541D01*
X50024025Y-35580616D01*
X50053991Y-35378661D01*
X50133836Y-35181915D01*
X50259787Y-35011614D01*
X50295388Y-34977973D01*
X50434423Y-34880250D01*
X50561130Y-34855753D01*
X50701500Y-34902208D01*
G36*
X53008362Y-34864739D02*
X53159474Y-34944351D01*
X53176421Y-34956988D01*
X53244152Y-35011405D01*
X53285873Y-35062505D01*
X53307887Y-35131606D01*
X53316495Y-35240030D01*
X53317998Y-35409093D01*
X53318000Y-35435981D01*
X53318000Y-35806986D01*
X53159815Y-35882419D01*
X53018849Y-35932817D01*
X52849241Y-35971310D01*
X52783364Y-35980379D01*
X52651487Y-35989759D01*
X52574029Y-35977107D01*
X52521763Y-35933514D01*
X52492164Y-35891596D01*
X52428715Y-35724033D01*
X52421904Y-35523499D01*
X52465942Y-35314214D01*
X52555037Y-35120401D01*
X52683400Y-34966281D01*
X52720327Y-34937232D01*
X52868292Y-34862640D01*
X53008362Y-34864739D01*
X53008362Y-34864739D01*
G37*
X53008362Y-34864739D02*
X53159474Y-34944351D01*
X53176421Y-34956988D01*
X53244152Y-35011405D01*
X53285873Y-35062505D01*
X53307887Y-35131606D01*
X53316495Y-35240030D01*
X53317998Y-35409093D01*
X53318000Y-35435981D01*
X53318000Y-35806986D01*
X53159815Y-35882419D01*
X53018849Y-35932817D01*
X52849241Y-35971310D01*
X52783364Y-35980379D01*
X52651487Y-35989759D01*
X52574029Y-35977107D01*
X52521763Y-35933514D01*
X52492164Y-35891596D01*
X52428715Y-35724033D01*
X52421904Y-35523499D01*
X52465942Y-35314214D01*
X52555037Y-35120401D01*
X52683400Y-34966281D01*
X52720327Y-34937232D01*
X52868292Y-34862640D01*
X53008362Y-34864739D01*
G36*
X58367099Y-29146432D02*
X58507416Y-29176736D01*
X58518683Y-29180475D01*
X58652000Y-29226949D01*
X58652000Y-30194429D01*
X58535584Y-30240153D01*
X58424184Y-30269063D01*
X58270488Y-30291282D01*
X58104647Y-30304542D01*
X57956808Y-30306576D01*
X57857121Y-30295117D01*
X57847667Y-30291885D01*
X57713289Y-30201956D01*
X57643003Y-30076437D01*
X57636000Y-30018523D01*
X57662189Y-29755779D01*
X57735450Y-29524305D01*
X57847826Y-29336207D01*
X57991361Y-29203591D01*
X58158097Y-29138564D01*
X58217369Y-29134000D01*
X58367099Y-29146432D01*
X58367099Y-29146432D01*
G37*
X58367099Y-29146432D02*
X58507416Y-29176736D01*
X58518683Y-29180475D01*
X58652000Y-29226949D01*
X58652000Y-30194429D01*
X58535584Y-30240153D01*
X58424184Y-30269063D01*
X58270488Y-30291282D01*
X58104647Y-30304542D01*
X57956808Y-30306576D01*
X57857121Y-30295117D01*
X57847667Y-30291885D01*
X57713289Y-30201956D01*
X57643003Y-30076437D01*
X57636000Y-30018523D01*
X57662189Y-29755779D01*
X57735450Y-29524305D01*
X57847826Y-29336207D01*
X57991361Y-29203591D01*
X58158097Y-29138564D01*
X58217369Y-29134000D01*
X58367099Y-29146432D01*
G36*
X53616896Y-23416427D02*
X53785390Y-23510650D01*
X53826596Y-23546557D01*
X53926537Y-23691527D01*
X53954056Y-23860777D01*
X53912211Y-24040232D01*
X53804060Y-24215814D01*
X53649688Y-24361038D01*
X53462388Y-24467700D01*
X53293791Y-24496433D01*
X53208316Y-24477462D01*
X53114333Y-24398630D01*
X53053789Y-24263230D01*
X53028323Y-24093161D01*
X53039574Y-23910323D01*
X53089183Y-23736616D01*
X53145270Y-23635437D01*
X53292727Y-23479356D01*
X53451305Y-23406174D01*
X53616896Y-23416427D01*
X53616896Y-23416427D01*
G37*
X53616896Y-23416427D02*
X53785390Y-23510650D01*
X53826596Y-23546557D01*
X53926537Y-23691527D01*
X53954056Y-23860777D01*
X53912211Y-24040232D01*
X53804060Y-24215814D01*
X53649688Y-24361038D01*
X53462388Y-24467700D01*
X53293791Y-24496433D01*
X53208316Y-24477462D01*
X53114333Y-24398630D01*
X53053789Y-24263230D01*
X53028323Y-24093161D01*
X53039574Y-23910323D01*
X53089183Y-23736616D01*
X53145270Y-23635437D01*
X53292727Y-23479356D01*
X53451305Y-23406174D01*
X53616896Y-23416427D01*
D12*
X29025000Y-64200000D03*
D13*
X29025000Y-61660000D03*
X31565000Y-64200000D03*
X31565000Y-61660000D03*
X34105000Y-64200000D03*
X34105000Y-61660000D03*
D14*
X38611506Y-40197347D03*
X45350000Y-35670000D03*
X45260000Y-38560000D03*
X28305000Y-56345000D03*
X29575000Y-52535000D03*
X27845084Y-48395084D03*
X34390000Y-57980000D03*
X32410000Y-42070000D03*
X32470000Y-58261134D03*
X31989617Y-43609617D03*
D15*
X38611506Y-40197347D02*
X43622653Y-40197347D01*
X43622653Y-40197347D02*
X45260000Y-38560000D01*
X27210000Y-60540000D02*
X27210000Y-63498600D01*
X27911400Y-64200000D02*
X29025000Y-64200000D01*
X27210000Y-63498600D02*
X27911400Y-64200000D01*
X27833199Y-59916801D02*
X27210000Y-60540000D01*
X28305000Y-56345000D02*
X27833199Y-56816801D01*
X27833199Y-56816801D02*
X27833199Y-59916801D01*
X45260000Y-38560000D02*
X45260000Y-35760000D01*
X45260000Y-35760000D02*
X45350000Y-35670000D01*
X28920000Y-51042218D02*
X28920000Y-51880000D01*
X28920000Y-51880000D02*
X29575000Y-52535000D01*
X27845084Y-48395084D02*
X27845084Y-49967302D01*
X27845084Y-49967302D02*
X28920000Y-51042218D01*
X32994349Y-56931991D02*
X33341991Y-56931991D01*
X33341991Y-56931991D02*
X34390000Y-57980000D01*
X32717818Y-43110000D02*
X32717818Y-42977366D01*
X32717818Y-43110000D02*
X32717818Y-42377818D01*
X32717818Y-43959154D02*
X32717818Y-43110000D01*
X32717818Y-42377818D02*
X32410000Y-42070000D01*
X32994349Y-56931991D02*
X32269149Y-56206791D01*
X32269149Y-56206791D02*
X31837725Y-56206791D01*
X31837725Y-56206791D02*
X30756411Y-55125477D01*
X32073210Y-44603762D02*
X32717818Y-43959154D01*
X30756411Y-55125477D02*
X30756411Y-52544523D01*
X30756411Y-52544523D02*
X32073210Y-51227724D01*
X32073210Y-51227724D02*
X32073210Y-44603762D01*
X32054620Y-57845754D02*
X32470000Y-58261134D01*
X32054620Y-57070000D02*
X32054620Y-57845754D01*
X31620000Y-51040000D02*
X31620000Y-43979234D01*
X31620000Y-43979234D02*
X31989617Y-43609617D01*
X30303201Y-52356799D02*
X31620000Y-51040000D01*
X31650001Y-56660001D02*
X30303201Y-55313201D01*
X30303201Y-55313201D02*
X30303201Y-52356799D01*
X31650001Y-56670001D02*
X31650001Y-56660001D01*
X32054620Y-57070000D02*
X31654621Y-56670001D01*
X31654621Y-56670001D02*
X31650001Y-56670001D01*
M02*
