G04 #@! TF.FileFunction,Legend,Bot*
%FSLAX46Y46*%
G04 Gerber Fmt 4.6, Leading zero omitted, Abs format (unit mm)*
G04 Created by KiCad (PCBNEW 4.0.5+dfsg1-4) date Sun Sep 22 15:40:00 2019*
%MOMM*%
%LPD*%
G01*
G04 APERTURE LIST*
%ADD10C,0.100000*%
%ADD11C,0.300000*%
%ADD12C,0.150000*%
%ADD13C,0.120000*%
%ADD14C,0.010000*%
G04 APERTURE END LIST*
D10*
D11*
X65525811Y-61096920D02*
X64957512Y-61156651D01*
X65417227Y-62113841D02*
X65282833Y-60835170D01*
X65196864Y-60700562D01*
X65047322Y-60644457D01*
X64905248Y-60659390D01*
X63820916Y-61276112D02*
X63925444Y-62270634D01*
X64460251Y-61208915D02*
X64542381Y-61990326D01*
X64486276Y-62139867D01*
X64351667Y-62225836D01*
X64138556Y-62248235D01*
X63989015Y-62192131D01*
X63910511Y-62128559D01*
X62568269Y-62341457D02*
X62717810Y-62397561D01*
X63001959Y-62367696D01*
X63136568Y-62281727D01*
X63200138Y-62203223D01*
X63256243Y-62053682D01*
X63211446Y-61627459D01*
X63125475Y-61492851D01*
X63046972Y-61429279D01*
X62897430Y-61373174D01*
X62613282Y-61403039D01*
X62478674Y-61489010D01*
X61936400Y-62479691D02*
X61779608Y-60987908D01*
X61734595Y-61926326D02*
X61368103Y-62539421D01*
X61263574Y-61544899D02*
X61891602Y-62053468D01*
X59629716Y-61716625D02*
X59379058Y-62748478D01*
X58919344Y-61791288D02*
X59379058Y-62748478D01*
X59558465Y-63088732D01*
X59636968Y-63152304D01*
X59786509Y-63208408D01*
X58242462Y-62867939D02*
X58377071Y-62781970D01*
X58440641Y-62703466D01*
X58496746Y-62553925D01*
X58451948Y-62127702D01*
X58365978Y-61993094D01*
X58287475Y-61929522D01*
X58137933Y-61873417D01*
X57924822Y-61895816D01*
X57790214Y-61981787D01*
X57726643Y-62060291D01*
X57670537Y-62209832D01*
X57715335Y-62636055D01*
X57801306Y-62770663D01*
X57879810Y-62834234D01*
X58029350Y-62890338D01*
X58242462Y-62867939D01*
X56362001Y-62060075D02*
X56466530Y-63054597D01*
X57001337Y-61992879D02*
X57083466Y-62774289D01*
X57027362Y-62923830D01*
X56892753Y-63009799D01*
X56679642Y-63032198D01*
X56530101Y-62976094D01*
X56451597Y-62912523D01*
X54728144Y-62231801D02*
X54159845Y-62291531D01*
X54462768Y-61756939D02*
X54597162Y-63035610D01*
X54541057Y-63185151D01*
X54406448Y-63271121D01*
X54264374Y-63286053D01*
X53127778Y-63405514D02*
X53045648Y-62624105D01*
X53101753Y-62474564D01*
X53236361Y-62388593D01*
X53520510Y-62358728D01*
X53670051Y-62414833D01*
X53120311Y-63334478D02*
X53269852Y-63390582D01*
X53625039Y-63353250D01*
X53759647Y-63267281D01*
X53815752Y-63117740D01*
X53800819Y-62975666D01*
X53714849Y-62841056D01*
X53565308Y-62784952D01*
X53210122Y-62822284D01*
X53060581Y-62766179D01*
X52417405Y-63480178D02*
X52260612Y-61988395D01*
X52215600Y-62926812D02*
X51849107Y-63539908D01*
X51744578Y-62545386D02*
X52372607Y-63053954D01*
X50634007Y-63595799D02*
X50783547Y-63651903D01*
X51067696Y-63622038D01*
X51202304Y-63536068D01*
X51258409Y-63386527D01*
X51198679Y-62818229D01*
X51112708Y-62683621D01*
X50963168Y-62627516D01*
X50679019Y-62657381D01*
X50544411Y-62743351D01*
X50488306Y-62892892D01*
X50503238Y-63034966D01*
X51228544Y-63102378D01*
X49994671Y-63662996D02*
X49860063Y-63748965D01*
X49575913Y-63778830D01*
X49426373Y-63722726D01*
X49340403Y-63588118D01*
X49332937Y-63517080D01*
X49389041Y-63367540D01*
X49523649Y-63281569D01*
X49736761Y-63259170D01*
X49871369Y-63173201D01*
X49927474Y-63023660D01*
X49920008Y-62952623D01*
X49834038Y-62818014D01*
X49684497Y-62761909D01*
X49471385Y-62784308D01*
X49336777Y-62870279D01*
X48723466Y-63868426D02*
X48566673Y-62376643D01*
X48084130Y-63935623D02*
X48002001Y-63154213D01*
X48058106Y-63004672D01*
X48192714Y-62918702D01*
X48405825Y-62896303D01*
X48555367Y-62952408D01*
X48633870Y-63015980D01*
X47160645Y-64032685D02*
X47295254Y-63946716D01*
X47358825Y-63868212D01*
X47414930Y-63718671D01*
X47370132Y-63292448D01*
X47284162Y-63157840D01*
X47205659Y-63094268D01*
X47056117Y-63038163D01*
X46843006Y-63060562D01*
X46708398Y-63146532D01*
X46644826Y-63225037D01*
X46588721Y-63374577D01*
X46633519Y-63800801D01*
X46719489Y-63935409D01*
X46797993Y-63998980D01*
X46947534Y-64055084D01*
X47160645Y-64032685D01*
X46024049Y-64152146D02*
X45867256Y-62660363D01*
X45926987Y-63228662D02*
X45777446Y-63172557D01*
X45493297Y-63202422D01*
X45358689Y-63288393D01*
X45295118Y-63366897D01*
X45239013Y-63516437D01*
X45283811Y-63942661D01*
X45369781Y-64077269D01*
X45448285Y-64140840D01*
X45597826Y-64196944D01*
X45881975Y-64167079D01*
X46016583Y-64081110D01*
X44461228Y-64316405D02*
X44595838Y-64230436D01*
X44659408Y-64151932D01*
X44715513Y-64002391D01*
X44670715Y-63576168D01*
X44584745Y-63441560D01*
X44506242Y-63377988D01*
X44356700Y-63321883D01*
X44143589Y-63344282D01*
X44008981Y-63430253D01*
X43945409Y-63508757D01*
X43889304Y-63658297D01*
X43934102Y-64084521D01*
X44020073Y-64219129D01*
X44098577Y-64282700D01*
X44248117Y-64338804D01*
X44461228Y-64316405D01*
X43309699Y-64293792D02*
X43246129Y-64372296D01*
X43324632Y-64435866D01*
X43388204Y-64357363D01*
X43309699Y-64293792D01*
X43324632Y-64435866D01*
X43264902Y-63867569D02*
X43246343Y-63007655D01*
X43167839Y-62944084D01*
X43104269Y-63022588D01*
X43264902Y-63867569D01*
X43167839Y-62944084D01*
X28908571Y-49598572D02*
X29980000Y-49598572D01*
X30194286Y-49670000D01*
X30337143Y-49812857D01*
X30408571Y-50027143D01*
X30408571Y-50170000D01*
X30408571Y-48170000D02*
X30408571Y-48884286D01*
X28908571Y-48884286D01*
X30265714Y-46812857D02*
X30337143Y-46884286D01*
X30408571Y-47098572D01*
X30408571Y-47241429D01*
X30337143Y-47455714D01*
X30194286Y-47598572D01*
X30051429Y-47670000D01*
X29765714Y-47741429D01*
X29551429Y-47741429D01*
X29265714Y-47670000D01*
X29122857Y-47598572D01*
X28980000Y-47455714D01*
X28908571Y-47241429D01*
X28908571Y-47098572D01*
X28980000Y-46884286D01*
X29051429Y-46812857D01*
X28908571Y-45741429D02*
X29980000Y-45741429D01*
X30194286Y-45812857D01*
X30337143Y-45955714D01*
X30408571Y-46170000D01*
X30408571Y-46312857D01*
X30408571Y-44312857D02*
X30408571Y-45027143D01*
X28908571Y-45027143D01*
X30265714Y-42955714D02*
X30337143Y-43027143D01*
X30408571Y-43241429D01*
X30408571Y-43384286D01*
X30337143Y-43598571D01*
X30194286Y-43741429D01*
X30051429Y-43812857D01*
X29765714Y-43884286D01*
X29551429Y-43884286D01*
X29265714Y-43812857D01*
X29122857Y-43741429D01*
X28980000Y-43598571D01*
X28908571Y-43384286D01*
X28908571Y-43241429D01*
X28980000Y-43027143D01*
X29051429Y-42955714D01*
X28908571Y-41884286D02*
X29980000Y-41884286D01*
X30194286Y-41955714D01*
X30337143Y-42098571D01*
X30408571Y-42312857D01*
X30408571Y-42455714D01*
X30408571Y-40455714D02*
X30408571Y-41170000D01*
X28908571Y-41170000D01*
X30265714Y-39098571D02*
X30337143Y-39170000D01*
X30408571Y-39384286D01*
X30408571Y-39527143D01*
X30337143Y-39741428D01*
X30194286Y-39884286D01*
X30051429Y-39955714D01*
X29765714Y-40027143D01*
X29551429Y-40027143D01*
X29265714Y-39955714D01*
X29122857Y-39884286D01*
X28980000Y-39741428D01*
X28908571Y-39527143D01*
X28908571Y-39384286D01*
X28980000Y-39170000D01*
X29051429Y-39098571D01*
X28908571Y-38027143D02*
X29980000Y-38027143D01*
X30194286Y-38098571D01*
X30337143Y-38241428D01*
X30408571Y-38455714D01*
X30408571Y-38598571D01*
X30408571Y-36598571D02*
X30408571Y-37312857D01*
X28908571Y-37312857D01*
X30265714Y-35241428D02*
X30337143Y-35312857D01*
X30408571Y-35527143D01*
X30408571Y-35670000D01*
X30337143Y-35884285D01*
X30194286Y-36027143D01*
X30051429Y-36098571D01*
X29765714Y-36170000D01*
X29551429Y-36170000D01*
X29265714Y-36098571D01*
X29122857Y-36027143D01*
X28980000Y-35884285D01*
X28908571Y-35670000D01*
X28908571Y-35527143D01*
X28980000Y-35312857D01*
X29051429Y-35241428D01*
D12*
X61600000Y-39850000D02*
X59700000Y-39850000D01*
X61600000Y-38750000D02*
X59700000Y-38750000D01*
X60700000Y-39300000D02*
X60250000Y-39300000D01*
X60750000Y-39050000D02*
X60750000Y-39550000D01*
X60750000Y-39300000D02*
X60500000Y-39050000D01*
X60500000Y-39050000D02*
X60500000Y-39550000D01*
X60500000Y-39550000D02*
X60750000Y-39300000D01*
X60250000Y-54400000D02*
X58350000Y-54400000D01*
X60250000Y-53300000D02*
X58350000Y-53300000D01*
X59350000Y-53850000D02*
X58900000Y-53850000D01*
X59400000Y-53600000D02*
X59400000Y-54100000D01*
X59400000Y-53850000D02*
X59150000Y-53600000D01*
X59150000Y-53600000D02*
X59150000Y-54100000D01*
X59150000Y-54100000D02*
X59400000Y-53850000D01*
X53125000Y-47725000D02*
X51225000Y-47725000D01*
X53125000Y-46625000D02*
X51225000Y-46625000D01*
X52225000Y-47175000D02*
X51775000Y-47175000D01*
X52275000Y-46925000D02*
X52275000Y-47425000D01*
X52275000Y-47175000D02*
X52025000Y-46925000D01*
X52025000Y-46925000D02*
X52025000Y-47425000D01*
X52025000Y-47425000D02*
X52275000Y-47175000D01*
X44800000Y-56125000D02*
X42900000Y-56125000D01*
X44800000Y-55025000D02*
X42900000Y-55025000D01*
X43900000Y-55575000D02*
X43450000Y-55575000D01*
X43950000Y-55325000D02*
X43950000Y-55825000D01*
X43950000Y-55575000D02*
X43700000Y-55325000D01*
X43700000Y-55325000D02*
X43700000Y-55825000D01*
X43700000Y-55825000D02*
X43950000Y-55575000D01*
X39000000Y-50525000D02*
X37100000Y-50525000D01*
X39000000Y-49425000D02*
X37100000Y-49425000D01*
X38100000Y-49975000D02*
X37650000Y-49975000D01*
X38150000Y-49725000D02*
X38150000Y-50225000D01*
X38150000Y-49975000D02*
X37900000Y-49725000D01*
X37900000Y-49725000D02*
X37900000Y-50225000D01*
X37900000Y-50225000D02*
X38150000Y-49975000D01*
X45225000Y-42250000D02*
X43325000Y-42250000D01*
X45225000Y-41150000D02*
X43325000Y-41150000D01*
X44325000Y-41700000D02*
X43875000Y-41700000D01*
X44375000Y-41450000D02*
X44375000Y-41950000D01*
X44375000Y-41700000D02*
X44125000Y-41450000D01*
X44125000Y-41450000D02*
X44125000Y-41950000D01*
X44125000Y-41950000D02*
X44375000Y-41700000D01*
X36075000Y-23900000D02*
X37975000Y-23900000D01*
X36075000Y-25000000D02*
X37975000Y-25000000D01*
X36975000Y-24450000D02*
X37425000Y-24450000D01*
X36925000Y-24700000D02*
X36925000Y-24200000D01*
X36925000Y-24450000D02*
X37175000Y-24700000D01*
X37175000Y-24700000D02*
X37175000Y-24200000D01*
X37175000Y-24200000D02*
X36925000Y-24450000D01*
X48918726Y-23487091D02*
X47575223Y-24830594D01*
X48140909Y-22709274D02*
X46797406Y-24052777D01*
X47893421Y-23734579D02*
X47575223Y-24052777D01*
X47752000Y-23522447D02*
X48105553Y-23876000D01*
X47928777Y-23699223D02*
X47575223Y-23699223D01*
X47575223Y-23699223D02*
X47928777Y-24052777D01*
X47928777Y-24052777D02*
X47928777Y-23699223D01*
X58523274Y-35186909D02*
X59866777Y-33843406D01*
X59301091Y-35964726D02*
X60644594Y-34621223D01*
X59548579Y-34939421D02*
X59866777Y-34621223D01*
X59690000Y-35151553D02*
X59336447Y-34798000D01*
X59513223Y-34974777D02*
X59866777Y-34974777D01*
X59866777Y-34974777D02*
X59513223Y-34621223D01*
X59513223Y-34621223D02*
X59513223Y-34974777D01*
X40225000Y-39905000D02*
X39225000Y-40905000D01*
X39225000Y-40905000D02*
X33025000Y-40905000D01*
X33025000Y-40905000D02*
X33025000Y-31685000D01*
X33025000Y-31685000D02*
X40225000Y-31685000D01*
X40225000Y-31685000D02*
X40225000Y-39905000D01*
X35375000Y-65470000D02*
X30295000Y-65470000D01*
X27475000Y-65750000D02*
X29025000Y-65750000D01*
X27755000Y-62930000D02*
X30295000Y-62930000D01*
X30295000Y-62930000D02*
X30295000Y-65470000D01*
X35375000Y-65470000D02*
X35375000Y-60390000D01*
X35375000Y-60390000D02*
X30295000Y-60390000D01*
X27475000Y-65750000D02*
X27475000Y-64200000D01*
X27755000Y-60390000D02*
X27755000Y-62930000D01*
X30295000Y-60390000D02*
X27755000Y-60390000D01*
X37835001Y-25845000D02*
X36835001Y-25845000D01*
X36835001Y-27195000D02*
X37835001Y-27195000D01*
X43188000Y-27091000D02*
X44188000Y-27091000D01*
X44188000Y-25741000D02*
X43188000Y-25741000D01*
X55126000Y-39537000D02*
X56126000Y-39537000D01*
X56126000Y-38187000D02*
X55126000Y-38187000D01*
D13*
X27670000Y-58250000D02*
X28305000Y-58250000D01*
X27670000Y-57615000D02*
X27670000Y-58250000D01*
D14*
G36*
X45836221Y-34381666D02*
X46190092Y-34240937D01*
X46216000Y-34184000D01*
X46428737Y-33977630D01*
X46724000Y-33930000D01*
X47136741Y-33823632D01*
X47232000Y-33676000D01*
X47457336Y-33516945D01*
X48020254Y-33428477D01*
X48248000Y-33422000D01*
X48899466Y-33391910D01*
X49189071Y-33228846D01*
X49262397Y-32823625D01*
X49264000Y-32660000D01*
X49223878Y-32171400D01*
X49006461Y-31954197D01*
X48466165Y-31899203D01*
X48248000Y-31898000D01*
X47611778Y-31841666D01*
X47257907Y-31700937D01*
X47232000Y-31644000D01*
X47019262Y-31437630D01*
X46724000Y-31390000D01*
X46311258Y-31283632D01*
X46216000Y-31136000D01*
X45990663Y-30976945D01*
X45427745Y-30888477D01*
X45200000Y-30882000D01*
X44563778Y-30938335D01*
X44209907Y-31079064D01*
X44184000Y-31136000D01*
X43971262Y-31342371D01*
X43676000Y-31390000D01*
X43263258Y-31496369D01*
X43168000Y-31644000D01*
X42942663Y-31803056D01*
X42379745Y-31891524D01*
X42152000Y-31898000D01*
X41500533Y-31928091D01*
X41210928Y-32091155D01*
X41137602Y-32496376D01*
X41136000Y-32660000D01*
X43168000Y-32660000D01*
X43247831Y-32102240D01*
X43544865Y-31905862D01*
X43676000Y-31898000D01*
X44047840Y-32017748D01*
X44178759Y-32463299D01*
X44184000Y-32660000D01*
X46216000Y-32660000D01*
X46295831Y-32102240D01*
X46592865Y-31905862D01*
X46724000Y-31898000D01*
X47095840Y-32017748D01*
X47226759Y-32463299D01*
X47232000Y-32660000D01*
X47152168Y-33217761D01*
X46855134Y-33414139D01*
X46724000Y-33422000D01*
X46352159Y-33302253D01*
X46221240Y-32856702D01*
X46216000Y-32660000D01*
X44184000Y-32660000D01*
X44104168Y-33217761D01*
X43807134Y-33414139D01*
X43676000Y-33422000D01*
X43304159Y-33302253D01*
X43173240Y-32856702D01*
X43168000Y-32660000D01*
X41136000Y-32660000D01*
X41176121Y-33148601D01*
X41393538Y-33365804D01*
X41933834Y-33420798D01*
X42152000Y-33422000D01*
X42788221Y-33478335D01*
X43142092Y-33619064D01*
X43168000Y-33676000D01*
X43380737Y-33882371D01*
X43676000Y-33930000D01*
X44088741Y-34036369D01*
X44184000Y-34184000D01*
X44409336Y-34343056D01*
X44972254Y-34431524D01*
X45200000Y-34438000D01*
X45836221Y-34381666D01*
X45836221Y-34381666D01*
G37*
X45836221Y-34381666D02*
X46190092Y-34240937D01*
X46216000Y-34184000D01*
X46428737Y-33977630D01*
X46724000Y-33930000D01*
X47136741Y-33823632D01*
X47232000Y-33676000D01*
X47457336Y-33516945D01*
X48020254Y-33428477D01*
X48248000Y-33422000D01*
X48899466Y-33391910D01*
X49189071Y-33228846D01*
X49262397Y-32823625D01*
X49264000Y-32660000D01*
X49223878Y-32171400D01*
X49006461Y-31954197D01*
X48466165Y-31899203D01*
X48248000Y-31898000D01*
X47611778Y-31841666D01*
X47257907Y-31700937D01*
X47232000Y-31644000D01*
X47019262Y-31437630D01*
X46724000Y-31390000D01*
X46311258Y-31283632D01*
X46216000Y-31136000D01*
X45990663Y-30976945D01*
X45427745Y-30888477D01*
X45200000Y-30882000D01*
X44563778Y-30938335D01*
X44209907Y-31079064D01*
X44184000Y-31136000D01*
X43971262Y-31342371D01*
X43676000Y-31390000D01*
X43263258Y-31496369D01*
X43168000Y-31644000D01*
X42942663Y-31803056D01*
X42379745Y-31891524D01*
X42152000Y-31898000D01*
X41500533Y-31928091D01*
X41210928Y-32091155D01*
X41137602Y-32496376D01*
X41136000Y-32660000D01*
X43168000Y-32660000D01*
X43247831Y-32102240D01*
X43544865Y-31905862D01*
X43676000Y-31898000D01*
X44047840Y-32017748D01*
X44178759Y-32463299D01*
X44184000Y-32660000D01*
X46216000Y-32660000D01*
X46295831Y-32102240D01*
X46592865Y-31905862D01*
X46724000Y-31898000D01*
X47095840Y-32017748D01*
X47226759Y-32463299D01*
X47232000Y-32660000D01*
X47152168Y-33217761D01*
X46855134Y-33414139D01*
X46724000Y-33422000D01*
X46352159Y-33302253D01*
X46221240Y-32856702D01*
X46216000Y-32660000D01*
X44184000Y-32660000D01*
X44104168Y-33217761D01*
X43807134Y-33414139D01*
X43676000Y-33422000D01*
X43304159Y-33302253D01*
X43173240Y-32856702D01*
X43168000Y-32660000D01*
X41136000Y-32660000D01*
X41176121Y-33148601D01*
X41393538Y-33365804D01*
X41933834Y-33420798D01*
X42152000Y-33422000D01*
X42788221Y-33478335D01*
X43142092Y-33619064D01*
X43168000Y-33676000D01*
X43380737Y-33882371D01*
X43676000Y-33930000D01*
X44088741Y-34036369D01*
X44184000Y-34184000D01*
X44409336Y-34343056D01*
X44972254Y-34431524D01*
X45200000Y-34438000D01*
X45836221Y-34381666D01*
D12*
X63768095Y-39412381D02*
X63768095Y-38412381D01*
X63530000Y-38412381D01*
X63387142Y-38460000D01*
X63291904Y-38555238D01*
X63244285Y-38650476D01*
X63196666Y-38840952D01*
X63196666Y-38983810D01*
X63244285Y-39174286D01*
X63291904Y-39269524D01*
X63387142Y-39364762D01*
X63530000Y-39412381D01*
X63768095Y-39412381D01*
X62291904Y-38412381D02*
X62768095Y-38412381D01*
X62815714Y-38888571D01*
X62768095Y-38840952D01*
X62672857Y-38793333D01*
X62434761Y-38793333D01*
X62339523Y-38840952D01*
X62291904Y-38888571D01*
X62244285Y-38983810D01*
X62244285Y-39221905D01*
X62291904Y-39317143D01*
X62339523Y-39364762D01*
X62434761Y-39412381D01*
X62672857Y-39412381D01*
X62768095Y-39364762D01*
X62815714Y-39317143D01*
X59888095Y-52802381D02*
X59888095Y-51802381D01*
X59650000Y-51802381D01*
X59507142Y-51850000D01*
X59411904Y-51945238D01*
X59364285Y-52040476D01*
X59316666Y-52230952D01*
X59316666Y-52373810D01*
X59364285Y-52564286D01*
X59411904Y-52659524D01*
X59507142Y-52754762D01*
X59650000Y-52802381D01*
X59888095Y-52802381D01*
X58364285Y-52802381D02*
X58935714Y-52802381D01*
X58650000Y-52802381D02*
X58650000Y-51802381D01*
X58745238Y-51945238D01*
X58840476Y-52040476D01*
X58935714Y-52088095D01*
X55288095Y-47592381D02*
X55288095Y-46592381D01*
X55050000Y-46592381D01*
X54907142Y-46640000D01*
X54811904Y-46735238D01*
X54764285Y-46830476D01*
X54716666Y-47020952D01*
X54716666Y-47163810D01*
X54764285Y-47354286D01*
X54811904Y-47449524D01*
X54907142Y-47544762D01*
X55050000Y-47592381D01*
X55288095Y-47592381D01*
X54335714Y-46687619D02*
X54288095Y-46640000D01*
X54192857Y-46592381D01*
X53954761Y-46592381D01*
X53859523Y-46640000D01*
X53811904Y-46687619D01*
X53764285Y-46782857D01*
X53764285Y-46878095D01*
X53811904Y-47020952D01*
X54383333Y-47592381D01*
X53764285Y-47592381D01*
X44438095Y-54527381D02*
X44438095Y-53527381D01*
X44200000Y-53527381D01*
X44057142Y-53575000D01*
X43961904Y-53670238D01*
X43914285Y-53765476D01*
X43866666Y-53955952D01*
X43866666Y-54098810D01*
X43914285Y-54289286D01*
X43961904Y-54384524D01*
X44057142Y-54479762D01*
X44200000Y-54527381D01*
X44438095Y-54527381D01*
X43533333Y-53527381D02*
X42914285Y-53527381D01*
X43247619Y-53908333D01*
X43104761Y-53908333D01*
X43009523Y-53955952D01*
X42961904Y-54003571D01*
X42914285Y-54098810D01*
X42914285Y-54336905D01*
X42961904Y-54432143D01*
X43009523Y-54479762D01*
X43104761Y-54527381D01*
X43390476Y-54527381D01*
X43485714Y-54479762D01*
X43533333Y-54432143D01*
X38638095Y-48927381D02*
X38638095Y-47927381D01*
X38400000Y-47927381D01*
X38257142Y-47975000D01*
X38161904Y-48070238D01*
X38114285Y-48165476D01*
X38066666Y-48355952D01*
X38066666Y-48498810D01*
X38114285Y-48689286D01*
X38161904Y-48784524D01*
X38257142Y-48879762D01*
X38400000Y-48927381D01*
X38638095Y-48927381D01*
X37209523Y-48260714D02*
X37209523Y-48927381D01*
X37447619Y-47879762D02*
X37685714Y-48594048D01*
X37066666Y-48594048D01*
X44863095Y-40652381D02*
X44863095Y-39652381D01*
X44625000Y-39652381D01*
X44482142Y-39700000D01*
X44386904Y-39795238D01*
X44339285Y-39890476D01*
X44291666Y-40080952D01*
X44291666Y-40223810D01*
X44339285Y-40414286D01*
X44386904Y-40509524D01*
X44482142Y-40604762D01*
X44625000Y-40652381D01*
X44863095Y-40652381D01*
X43434523Y-39652381D02*
X43625000Y-39652381D01*
X43720238Y-39700000D01*
X43767857Y-39747619D01*
X43863095Y-39890476D01*
X43910714Y-40080952D01*
X43910714Y-40461905D01*
X43863095Y-40557143D01*
X43815476Y-40604762D01*
X43720238Y-40652381D01*
X43529761Y-40652381D01*
X43434523Y-40604762D01*
X43386904Y-40557143D01*
X43339285Y-40461905D01*
X43339285Y-40223810D01*
X43386904Y-40128571D01*
X43434523Y-40080952D01*
X43529761Y-40033333D01*
X43720238Y-40033333D01*
X43815476Y-40080952D01*
X43863095Y-40128571D01*
X43910714Y-40223810D01*
X35378095Y-25012381D02*
X35378095Y-24012381D01*
X35140000Y-24012381D01*
X34997142Y-24060000D01*
X34901904Y-24155238D01*
X34854285Y-24250476D01*
X34806666Y-24440952D01*
X34806666Y-24583810D01*
X34854285Y-24774286D01*
X34901904Y-24869524D01*
X34997142Y-24964762D01*
X35140000Y-25012381D01*
X35378095Y-25012381D01*
X34473333Y-24012381D02*
X33806666Y-24012381D01*
X34235238Y-25012381D01*
X47533134Y-22613310D02*
X46826027Y-21906203D01*
X46657668Y-22074562D01*
X46590324Y-22209249D01*
X46590324Y-22343936D01*
X46623996Y-22444951D01*
X46725011Y-22613310D01*
X46826027Y-22714326D01*
X46994385Y-22815341D01*
X47095401Y-22849012D01*
X47230087Y-22849012D01*
X47364775Y-22781668D01*
X47533134Y-22613310D01*
X46320950Y-23017370D02*
X46354622Y-22916355D01*
X46354622Y-22849012D01*
X46320950Y-22747997D01*
X46287279Y-22714325D01*
X46186264Y-22680653D01*
X46118920Y-22680653D01*
X46017905Y-22714325D01*
X45883217Y-22849012D01*
X45849546Y-22950028D01*
X45849546Y-23017371D01*
X45883217Y-23118386D01*
X45916889Y-23152058D01*
X46017904Y-23185730D01*
X46085248Y-23185730D01*
X46186263Y-23152058D01*
X46320950Y-23017370D01*
X46421966Y-22983699D01*
X46489309Y-22983699D01*
X46590325Y-23017371D01*
X46725012Y-23152058D01*
X46758683Y-23253073D01*
X46758683Y-23320416D01*
X46725012Y-23421432D01*
X46590324Y-23556119D01*
X46489309Y-23589791D01*
X46421966Y-23589791D01*
X46320950Y-23556119D01*
X46186264Y-23421432D01*
X46152591Y-23320416D01*
X46152591Y-23253073D01*
X46186263Y-23152058D01*
X61592454Y-35656630D02*
X60885347Y-34949523D01*
X60716988Y-35117882D01*
X60649644Y-35252569D01*
X60649644Y-35387256D01*
X60683316Y-35488271D01*
X60784331Y-35656630D01*
X60885347Y-35757646D01*
X61053705Y-35858661D01*
X61154721Y-35892332D01*
X61289407Y-35892332D01*
X61424095Y-35824988D01*
X61592454Y-35656630D01*
X60851675Y-36397408D02*
X60716988Y-36532095D01*
X60615972Y-36565767D01*
X60548629Y-36565767D01*
X60380270Y-36532096D01*
X60211912Y-36431081D01*
X59942537Y-36161706D01*
X59908866Y-36060691D01*
X59908866Y-35993348D01*
X59942537Y-35892332D01*
X60077225Y-35757645D01*
X60178240Y-35723973D01*
X60245584Y-35723973D01*
X60346599Y-35757645D01*
X60514957Y-35926003D01*
X60548629Y-36027019D01*
X60548630Y-36094363D01*
X60514958Y-36195378D01*
X60380270Y-36330065D01*
X60279255Y-36363737D01*
X60211911Y-36363736D01*
X60110896Y-36330065D01*
X37796429Y-42647857D02*
X37796429Y-41447857D01*
X36539285Y-42533571D02*
X36596428Y-42590714D01*
X36767857Y-42647857D01*
X36882143Y-42647857D01*
X37053571Y-42590714D01*
X37167857Y-42476429D01*
X37225000Y-42362143D01*
X37282143Y-42133571D01*
X37282143Y-41962143D01*
X37225000Y-41733571D01*
X37167857Y-41619286D01*
X37053571Y-41505000D01*
X36882143Y-41447857D01*
X36767857Y-41447857D01*
X36596428Y-41505000D01*
X36539285Y-41562143D01*
X35396428Y-42647857D02*
X36082143Y-42647857D01*
X35739285Y-42647857D02*
X35739285Y-41447857D01*
X35853571Y-41619286D01*
X35967857Y-41733571D01*
X36082143Y-41790714D01*
X37558095Y-65872381D02*
X37558095Y-64872381D01*
X37177142Y-64872381D01*
X37081904Y-64920000D01*
X37034285Y-64967619D01*
X36986666Y-65062857D01*
X36986666Y-65205714D01*
X37034285Y-65300952D01*
X37081904Y-65348571D01*
X37177142Y-65396190D01*
X37558095Y-65396190D01*
X36034285Y-65872381D02*
X36605714Y-65872381D01*
X36320000Y-65872381D02*
X36320000Y-64872381D01*
X36415238Y-65015238D01*
X36510476Y-65110476D01*
X36605714Y-65158095D01*
X37501667Y-28872381D02*
X37835001Y-28396190D01*
X38073096Y-28872381D02*
X38073096Y-27872381D01*
X37692143Y-27872381D01*
X37596905Y-27920000D01*
X37549286Y-27967619D01*
X37501667Y-28062857D01*
X37501667Y-28205714D01*
X37549286Y-28300952D01*
X37596905Y-28348571D01*
X37692143Y-28396190D01*
X38073096Y-28396190D01*
X36549286Y-28872381D02*
X37120715Y-28872381D01*
X36835001Y-28872381D02*
X36835001Y-27872381D01*
X36930239Y-28015238D01*
X37025477Y-28110476D01*
X37120715Y-28158095D01*
X43816666Y-25342381D02*
X44150000Y-24866190D01*
X44388095Y-25342381D02*
X44388095Y-24342381D01*
X44007142Y-24342381D01*
X43911904Y-24390000D01*
X43864285Y-24437619D01*
X43816666Y-24532857D01*
X43816666Y-24675714D01*
X43864285Y-24770952D01*
X43911904Y-24818571D01*
X44007142Y-24866190D01*
X44388095Y-24866190D01*
X43435714Y-24437619D02*
X43388095Y-24390000D01*
X43292857Y-24342381D01*
X43054761Y-24342381D01*
X42959523Y-24390000D01*
X42911904Y-24437619D01*
X42864285Y-24532857D01*
X42864285Y-24628095D01*
X42911904Y-24770952D01*
X43483333Y-25342381D01*
X42864285Y-25342381D01*
X52746666Y-39412381D02*
X53080000Y-38936190D01*
X53318095Y-39412381D02*
X53318095Y-38412381D01*
X52937142Y-38412381D01*
X52841904Y-38460000D01*
X52794285Y-38507619D01*
X52746666Y-38602857D01*
X52746666Y-38745714D01*
X52794285Y-38840952D01*
X52841904Y-38888571D01*
X52937142Y-38936190D01*
X53318095Y-38936190D01*
X52413333Y-38412381D02*
X51794285Y-38412381D01*
X52127619Y-38793333D01*
X51984761Y-38793333D01*
X51889523Y-38840952D01*
X51841904Y-38888571D01*
X51794285Y-38983810D01*
X51794285Y-39221905D01*
X51841904Y-39317143D01*
X51889523Y-39364762D01*
X51984761Y-39412381D01*
X52270476Y-39412381D01*
X52365714Y-39364762D01*
X52413333Y-39317143D01*
M02*
