<?xml version="1.0" encoding="UTF-8" standalone="no"?>
<!-- Created with Inkscape (http://www.inkscape.org/) -->

<svg
   xmlns:dc="http://purl.org/dc/elements/1.1/"
   xmlns:cc="http://creativecommons.org/ns#"
   xmlns:rdf="http://www.w3.org/1999/02/22-rdf-syntax-ns#"
   xmlns:svg="http://www.w3.org/2000/svg"
   xmlns="http://www.w3.org/2000/svg"
   xmlns:sodipodi="http://sodipodi.sourceforge.net/DTD/sodipodi-0.dtd"
   xmlns:inkscape="http://www.inkscape.org/namespaces/inkscape"
   width="50.0mm"
   height="75.0mm"
   viewBox="0 0 50.0 75.0"
   version="1.1"
   id="svg311"
   inkscape:version="0.92.1 r15371"
   sodipodi:docname="okottanai.svg">
  <sodipodi:namedview
     id="base"
     pagecolor="#ffffff"
     bordercolor="#666666"
     borderopacity="1.0"
     inkscape:pageopacity="0.0"
     inkscape:pageshadow="2"
     inkscape:zoom="2.8"
     inkscape:cx="155.15586"
     inkscape:cy="142.30126"
     inkscape:document-units="mm"
     inkscape:current-layer="g320"
     showgrid="true"
     inkscape:window-width="1920"
     inkscape:window-height="1016"
     inkscape:window-x="1080"
     inkscape:window-y="322"
     inkscape:window-maximized="1"
     borderlayer="true"
     guidetolerance="1"
     objecttolerance="1"
     gridtolerance="1"
     showguides="true"
     inkscape:guide-bbox="true">
    <inkscape:grid
       visible="true"
       opacity="0"
       color="#3f3fff"
       id="grid314"
       units="mm"
       type="xygrid"
       empspacing="1"
       spacingy="2.54"
       spacingx="2.54" />
    <inkscape:grid
       spacingx="2.54"
       spacingy="2.54"
       empspacing="1"
       type="xygrid"
       units="mm"
       id="grid475" />
    <inkscape:grid
       id="grid509"
       units="mm"
       type="xygrid"
       empspacing="1"
       spacingy="2.54"
       spacingx="2.54" />
    <inkscape:grid
       spacingx="2.54"
       spacingy="2.54"
       empspacing="1"
       type="xygrid"
       units="mm"
       id="grid575" />
    <inkscape:grid
       id="grid632"
       units="mm"
       type="xygrid"
       empspacing="1"
       spacingy="2.54"
       spacingx="2.54" />
    <inkscape:grid
       spacingx="2.54"
       spacingy="2.54"
       empspacing="1"
       type="xygrid"
       units="mm"
       id="grid672" />
  </sodipodi:namedview>
  <defs
     id="defs305" />
  <metadata
     id="metadata308">
    <rdf:RDF>
      <cc:Work
         rdf:about="">
        <dc:format>image/svg+xml</dc:format>
        <dc:type
           rdf:resource="http://purl.org/dc/dcmitype/StillImage" />
        <dc:title></dc:title>
      </cc:Work>
    </rdf:RDF>
  </metadata>
  <g
     style="display:none"
     id="g320"
     inkscape:groupmode="layer"
     inkscape:label="[fixed] BG">
    <rect
       id="rect318"
       style="fill:#ffffff;fill-opacity:1;stroke:none"
       height="50"
       width="50"
       y="-0.15355283"
       x="-0.31891742" />
  </g>
  <g
     style="display:inline"
     id="g322"
     inkscape:groupmode="layer"
     inkscape:label="Edge.Cuts">
    <path
       style="fill:none;stroke:#000000;stroke-width:0.07784196;stroke-opacity:1"
       d="M10.279888 74.996249L10.238503 74.74690425L10.185028 74.284057L10.122938 73.669164L9.6594381 73.388874L9.46625911836 73.2615161914L9.29350818437 73.1250999063L9.14046073945 72.9786777305L9.006392225 72.82130225L8.89057808242 72.6520260508L8.79229375312 72.4699017188L8.71081467852 72.2739818398L8.6454163 72.063319L8.59145831406 71.8229366563L8.5744217125 71.60964375L8.59474060469 71.3632312188L8.6528491 71.02349L8.778813075 70.46780625L8.9162012 70.004026L8.99014955 69.7531756094L9.031866275 69.450485125L9.0477660125 69.0136138281L9.0442634 68.360221L9.02995776719 67.7487793906L9.0044728875 67.327712625L8.96362791406 67.0531502969L8.903242 66.881222L8.77833679727 66.6015508848L8.69809696563 66.3171987031L8.66277649492 66.0257728262L8.672629375 65.724880625L8.7279095957 65.4121294707L8.82887114687 65.0851267344L8.97576801836 64.7414797871L9.1688542 64.378796L9.35645248594 64.0288927969L9.5006415875 63.682802125L9.62681004531 63.2691793906L9.7603464 62.71668L10.35212 60.121388L10.60261475 58.992398L10.706804 58.446782L10.6934654219 58.3901684844L10.657147875 58.332268625L10.6033986406 58.2798709531L10.537765 58.239764L10.4008165086 58.1672665527L10.2927539438 58.0776816094L10.2090689195 57.9543706426L10.14525305 57.780695125L10.0967979492 57.5400165293L10.0591952313 57.2156963281L9.9985134 56.249577L9.95983867227 55.2111406094L9.93419645313 53.96627375L9.920990225 51.116107L9.95685608438 48.2167935L9.99255397461 46.9104932031L10.0397554 45.78605L10.1725661969 43.4355433379L10.3173669625 41.2696069531L10.4790497594 39.240530123L10.66250665 37.300602125L10.8726296969 35.4021122363L11.1143109625 33.4973497344L11.3924425094 31.5386038965L11.7119164 29.478164L12.3403684 25.235775L12.6667295719 23.0274280859L12.9559587125 21.199927L13.2204298844 19.6981181016L13.47251715 18.46684775L13.7245945719 17.4509623047L13.9890362125 16.595308125L14.2782161344 15.8447315703L14.6045084 15.144079L14.820448775 14.678498125L14.8861390719 14.5087727969L14.9102654 14.413072L14.8792584312 14.29414425L14.79483365 14.06116325L14.5173074 13.387635L14.2654892325 12.7683457435L14.0435500602 12.1365985639L13.8515374405 11.4936157206L13.6894989312 10.8406194734L13.5574820899 10.1788320819L13.4555344742 9.50947580566L13.3837036417 8.83377290432L13.34203715 8.1529456375L13.3305825567 7.46821626482L13.3493874195 6.7808070459L13.398499296 6.09194024036L13.4779657437 5.40283810781L13.5878343204 4.71472290789L13.7281525836 4.0288169002L13.8989680909 3.34634234436L14.1003284 2.6685215L14.3092892672 2.07685914125L14.5298942125 1.57239988063L14.7656053766 1.15117225156L14.8902077096 0.970529215566L15.0198849 0.8092047875L15.1550697154 0.666702534043L15.2961949234 0.542526021875L15.4436932916 0.436178817676L15.5979975875 0.347164488125L15.7595405787 0.274986599902L15.9287550328 0.219148719688L16.1060737174 0.17915441416L16.2919294 0.15450725L16.4863368324 0.1486526422L16.6918623746 0.164812158223L16.9078280194 0.202597113455L17.1335557594 0.261618823281L17.3683675873 0.341488603088L17.6115854957 0.441817768262L18.120527525 0.70229951625L18.6549577887 1.03995459033L19.2094522281 1.45167351359L19.7785867848 1.93434680912L20.3569374 2.484865L21.0942524625 3.24905527344L21.6992559 3.9337054125L22.2127840875 4.58768807031L22.6756734 5.2598759L23.0975184 5.9120942L23.4992644 5.8584472L24.3680634 5.7429175L24.6116200172 5.72173575898L24.8810283375 5.71816200938L25.1695593141 5.73138171133L25.4704839 5.760580325L26.0825977125 5.86365612813L26.3803288453 5.93590423789L26.6635374 6.0208731L27.2464924 6.2148078L27.4808804 5.9505056L27.748383025 5.6205129L28.0623924 5.198275L28.2600536559 4.94563109297L28.5214767594 4.64954849375L29.178846025 3.98165145L29.9209752281 3.30375233125L30.2883482535 2.99516713828L30.6343394 2.7250196L31.1467662418 2.36841434336L31.6723866969 2.04944729063L32.1973856598 1.77367990508L32.707948025 1.54667365L33.1902586871 1.37398998867L33.6305025406 1.26119038438L33.8305321937 1.22898506089L34.0148644801 1.21383630039L34.1817725116 1.21643928579L34.3295294 1.2374892L34.6113804117 1.32221392305L34.8629836187 1.44697025938L35.0875350289 1.61584127227L35.28823065 1.832910025L35.4682664898 2.10225958086L35.6308385562 2.42797300313L35.779142857 2.81413335508L35.9163754 3.2648237L36.082662316 3.90394315508L36.2109520406 4.49249767813L36.3046221637 5.07736730586L36.367050275 5.705432075L36.4016139645 6.42357202227L36.4116908219 7.27866718438L36.4006584371 8.31759759805L36.3718944 9.5872433L36.3557144 10.207675L37.0015944 10.723285L37.4974289625 11.1402619531L37.9265739 11.553247125L38.3324395875 12.0073159844L38.7584364 12.547544L39.0945177203 13.012985623L39.3944775875 13.4716749844L39.6641032359 13.9358074473L39.9091819 14.417578375L40.1355008141 14.9291831309L40.3488472125 15.4828170781L40.5550083297 16.0906755801L40.7597714 16.764954L41.2568469938 18.5242413906L41.4268916539 19.1906819355L41.56019515 19.792155875L41.6684481773 20.3865398301L41.7633414312 21.0317104219L41.9598114 22.705918L42.2705184 25.469307L42.4430668063 27.087452541L42.6083795875 28.9254231406L42.7640677125 30.9444752637L42.90774215 33.105865375L43.0370138687 35.3708499395L43.1494938375 37.7006854219L43.242793025 40.0566282871L43.3145224 42.399935L43.3356486871 43.8744496035L43.3326004469 45.5613850781L43.308843277 47.3396642949L43.267842775 49.088210125L43.2130645387 50.6859454395L43.1479741656 52.0117931094L43.0760372535 52.9446760059L43.0385843446 53.2259190613L43.0007194 53.363517L42.9451248121 53.4377767676L42.8771156969 53.5027553906L42.705665275 53.604104625L42.4899909156 53.6660355469L42.2337154 53.687019L42.00531215 53.7102065L41.9246781813 53.7353068125L41.8818174 53.765959L41.9055574156 53.914763L42.006270025 54.26156325L42.3740084 55.342262L42.7724702906 56.5021324375L43.139394775 57.7259625L43.5439165719 59.2609885625L44.0551704 61.354447L44.3850956656 62.7242464375L44.586049525 63.46046275L44.6711483785 63.6923580156L44.7635878219 63.8875144375L45.0232664 64.32982L45.21023715 64.6541911563L45.3114034 64.89272575L45.35256065 65.1320257188L45.3595044 65.458693L45.3307544 65.92740925L45.3007765875 66.1233413125L45.2645944 66.258658L45.225077775 66.4512303906L45.1921964 66.798637375L45.1537404 67.851511L45.1473947906 68.6365753281L45.167025525 69.102078625L45.1921707223 69.2673825332L45.2305164469 69.4156613594L45.3557514 69.744964L45.4750063629 70.0529645469L45.5726650406 70.34607825L45.6486764918 70.6240070781L45.702989775 70.886453L45.7355539488 71.1331179844L45.7463180719 71.363704L45.7352312027 71.5779130156L45.7022424 71.775447L45.645448898 71.9864979336L45.5773519469 72.1687685313L45.4927901285 72.3281681133L45.386602025 72.470606L45.2536262184 72.6019915117L45.0887012906 72.7282339688L44.8866658238 72.8552426914L44.6423584 72.988927L44.2773020406 73.1861591094L44.1556991324 73.2657533066L44.061338275 73.346017875L43.9841883707 73.4369665215L43.9142183219 73.5486129531L43.7556934 73.874054L43.50210715 74.36521175L43.2541654 74.762726L43.1058474 74.9527763906L43.0439792594 75.011506584L42.9791939 75.051068125L42.9031579781 75.0752320254L42.80753815 75.0877692969L42.5242134 75.093048L22.4147524 75.080980625L10.6318664 75.093499L10.5011637125 75.0862649375L10.39341215 75.066099L10.3169322125 75.0353055625L10.2800444 74.996189L10.279888 74.996249"
       id="path404-6"
       inkscape:connector-curvature="0"
       sodipodi:nodetypes="ccccccccccccsscsscsscssscccccccscssccscsccscsccsscccccccccccc" />
  </g>
  <g
     style="display:none"
     id="g324"
     inkscape:groupmode="layer"
     inkscape:label="B.Cu-disabled" />
  <g
     style="display:inline"
     id="g326"
     inkscape:groupmode="layer"
     inkscape:label="B.Mask">
    <path
       sodipodi:nodetypes="ccccccccccccccccccccccscccccccccccc"
       inkscape:connector-curvature="0"
       id="path1624-9"
       d="m 22.968105,30.200355 -0.278443,-0.120467 -0.421785,-0.250566 -0.609709,-0.593005 -0.517834,-0.743342 -0.300679,-0.676526 -0.11693,-0.638942 -0.0167,-0.868626 0.108578,-0.755872 0.183748,-0.785104 0.313206,-0.69323 0.434313,-0.751696 0.350792,-0.3842 1.143117,-0.522371 0.944941,-0.248048 1.275669,0.0059 0.891787,0.188988 0.566963,0.248047 0.431131,0.537434 0.330729,0.534482 0.194892,0.463612 0.191942,0.688034 c 0,0 0.09745,0.584682 0.09745,0.599447 0,0.01476 0.02953,0.575823 0.02953,0.575823 l -0.003,0.764812 -0.04134,0.528577 -0.124024,0.71461 -0.191941,0.454753 -0.354353,0.626022 -0.313011,0.383882 -0.42227,0.298246 -0.62307,0.298249 -0.121071,0.02363 c 0,0 -0.256904,0.197848 -3.032668,0.09745 z"
       style="fill:#000000;stroke:none;stroke-width:0.26458332px;stroke-linecap:butt;stroke-linejoin:miter;stroke-opacity:1" />
    <path
       sodipodi:nodetypes="ccccccccccccccccccccccscccccccccccc"
       inkscape:connector-curvature="0"
       id="path1624-9-3"
       d="m 35.064016,30.1078 -0.26805,-0.120467 -0.406042,-0.250566 -0.586951,-0.593004 -0.498505,-0.743343 -0.289456,-0.676526 -0.112565,-0.638942 -0.01608,-0.868626 0.104525,-0.755872 0.17689,-0.785104 0.301515,-0.69323 0.418102,-0.751696 0.337698,-0.3842 1.100449,-0.522371 0.90967,-0.248048 1.228054,0.0059 0.8585,0.188988 0.545801,0.248047 0.415038,0.537434 0.318385,0.534482 0.187617,0.463612 0.184778,0.688034 c 0,0 0.09381,0.584682 0.09381,0.599447 0,0.01476 0.02843,0.575823 0.02843,0.575823 l -0.0029,0.764812 -0.0398,0.528577 -0.119395,0.71461 -0.184776,0.454754 -0.341127,0.626021 -0.301327,0.383883 -0.406509,0.298246 -0.599813,0.298248 -0.116552,0.02363 c 0,0 -0.247315,0.197849 -2.919471,0.09745 z"
       style="display:inline;fill:#000000;stroke:none;stroke-width:0.25959846px;stroke-linecap:butt;stroke-linejoin:miter;stroke-opacity:1" />
    <path
       style="fill:#211f21;stroke-width:0.07749845"
       d="m 16.4717,13.091832 c 1.73474,-1.927105 3.49362,-3.1353559 5.47971,-3.7642219 0.42703,-0.135211 0.60061,-0.226832 0.60061,-0.31701 0,-0.359462 -1.24504,-1.16087 -2.50276,-1.610978 -0.44899,-0.160681 -0.59748,-0.248005 -0.57844,-0.340163 0.0649,-0.314123 1.42233,0.156223 2.45472,0.850566 0.36678,0.246675 0.69547,0.418069 0.73262,0.382021 0.0895,-0.08683 0.19628,-0.655277 0.20048,-1.067299 0.004,-0.393661 -0.50073,-1.343778 -1.25488,-2.362137 -0.65465,-0.883997 -2.44719,-2.657008 -3.16709,-3.132575 -0.81965,-0.541466 -1.71693,-0.906325 -2.10189,-0.854691 -0.62757,0.08418 -1.06277,0.659362 -1.53609,2.030209 -0.90843,2.631065 -1.00701,5.956584 -0.25383,8.5634179 0.3824,1.323536 0.9002,2.480111 1.11034,2.480111 0.0247,0 0.39208,-0.385761 0.8165,-0.85725 z M 35.56,9.8610401 c 0.0392,-0.0746 0.11488,-0.571553 0.16827,-1.104354 0.19201,-1.915965 -0.0728,-4.351008 -0.63315,-5.822936 -0.18652,-0.489919 -0.27799,-0.626661 -0.5314,-0.794359 -0.17665,-0.116893 -0.41558,-0.202568 -0.56495,-0.202568 -0.37394,0 -1.01342,0.206366 -1.68351,0.543275 -1.4421,0.725077 -3.53627,2.660053 -4.29179,3.965551 -0.20166,0.348445 -0.2064,0.381861 -0.12106,0.852483 0.17731,0.97779 0.16452,0.952231 0.49026,0.979251 0.20228,0.01678 0.4929,-0.0583 0.92752,-0.2396 1.11493,-0.46511 2.1054,-0.639618 2.1054,-0.370951 0,0.07367 -0.23611,0.179509 -0.69747,0.312653 -0.97006,0.279938 -1.03495,0.307953 -0.89124,0.384796 0.0639,0.03419 0.30805,0.08563 0.54248,0.114319 0.91572,0.112056 4.23194,1.10939 4.80432,1.44487 0.18022,0.1056279 0.2984,0.08602 0.37632,-0.06243 z M 24.60573,8.6802451 c 0.67044,-0.125743 2.53288,-0.37884 2.84807,-0.387038 0.032,-8.2e-4 0.0581,-0.212343 0.0581,-0.470025 0,-0.397267 -0.0297,-0.498177 -0.19508,-0.66359 -0.48785,-0.487858 -1.63312,-0.775646 -2.80782,-0.705562 -0.84299,0.05029 -1.07949,0.162745 -1.13355,0.53898 -0.0887,0.617592 -0.1816,1.808501 -0.14573,1.869091 0.0217,0.03666 0.14838,0.04672 0.28149,0.02235 0.1331,-0.02437 0.62563,-0.116265 1.0945,-0.204202 z"
       id="path404-61-5-0"
       inkscape:connector-curvature="0"
       sodipodi:nodetypes="csccscccccssccccssccccccscscccccscccccccc" />
  </g>
  <g
     style="display:inline"
     id="g328"
     inkscape:groupmode="layer"
     inkscape:label="B.Silk">
    <text
       transform="matrix(-1.0147191,-0.65043882,-0.49951071,0.66530614,0,0)"
       id="text1258"
       y="23.416752"
       x="-54.251793"
       style="font-style:normal;font-weight:normal;font-size:2.69086504px;line-height:1.25;font-family:sans-serif;letter-spacing:0px;word-spacing:0px;display:inline;fill:#000000;fill-opacity:1;stroke:none;stroke-width:0.06727163"
       xml:space="preserve"><tspan
         style="font-style:normal;font-variant:normal;font-weight:bold;font-stretch:normal;line-height:1.25;font-family:GN-KMBFont-UB-NewstyleKanaA;-inkscape-font-specification:'GN-KMBFont-UB-NewstyleKanaA Bold';stroke-width:0.06727163"
         y="25.797537"
         x="-54.251793"
         id="tspan1256"
         sodipodi:role="line" /><tspan
         id="tspan1264"
         style="font-style:normal;font-variant:normal;font-weight:bold;font-stretch:normal;line-height:1.25;font-family:GN-KMBFont-UB-NewstyleKanaA;-inkscape-font-specification:'GN-KMBFont-UB-NewstyleKanaA Bold';stroke-width:0.06727163"
         y="29.161118"
         x="-54.251793"
         sodipodi:role="line">これは俺の法的に異なる</tspan><tspan
         id="tspan1268"
         style="font-style:normal;font-variant:normal;font-weight:bold;font-stretch:normal;line-height:1.25;font-family:GN-KMBFont-UB-NewstyleKanaA;-inkscape-font-specification:'GN-KMBFont-UB-NewstyleKanaA Bold';stroke-width:0.06727163"
         y="32.643955"
         x="-54.251793"
         sodipodi:role="line">キャラクター,ビピミだ</tspan><tspan
         id="tspan1270"
         style="font-style:normal;font-variant:normal;font-weight:bold;font-stretch:normal;line-height:1.25;font-family:GN-KMBFont-UB-NewstyleKanaA;-inkscape-font-specification:'GN-KMBFont-UB-NewstyleKanaA Bold';stroke-width:0.06727163"
         y="36.126793"
         x="-54.251793"
         sodipodi:role="line" /><tspan
         id="tspan1260"
         style="font-style:normal;font-variant:normal;font-weight:bold;font-stretch:normal;line-height:1.25;font-family:GN-KMBFont-UB-NewstyleKanaA;-inkscape-font-specification:'GN-KMBFont-UB-NewstyleKanaA Bold';stroke-width:0.06727163"
         y="39.490376"
         x="-54.251793"
         sodipodi:role="line" /></text>
    <text
       transform="scale(-0.88968486,1.1239935)"
       id="text1274"
       y="65.775101"
       x="-48.827892"
       style="font-style:normal;font-weight:normal;font-size:2.86693668px;line-height:1.25;font-family:sans-serif;letter-spacing:0px;word-spacing:0px;display:inline;fill:#000000;fill-opacity:1;stroke:none;stroke-width:0.0716734"
       xml:space="preserve"><tspan
         style="font-style:normal;font-variant:normal;font-weight:normal;font-stretch:normal;font-family:GN-KMBFont-UB-OldstyleKana;-inkscape-font-specification:GN-KMBFont-UB-OldstyleKana;stroke-width:0.0716734"
         y="65.775101"
         x="-48.827892"
         id="tspan1272"
         sodipodi:role="line">fuck you 株式会社竹書房</tspan></text>
    <text
       transform="matrix(-0.92392246,-0.75729588,-0.69761774,0.51053738,0,0)"
       id="text1258-3"
       y="17.442585"
       x="-56.354622"
       style="font-style:normal;font-weight:normal;font-size:3.36904955px;line-height:1.25;font-family:sans-serif;letter-spacing:0px;word-spacing:0px;display:inline;fill:#000000;fill-opacity:1;stroke:none;stroke-width:0.08422622"
       xml:space="preserve"><tspan
         style="font-style:normal;font-variant:normal;font-weight:bold;font-stretch:normal;line-height:1.25;font-family:GN-KMBFont-UB-NewstyleKanaA;-inkscape-font-specification:'GN-KMBFont-UB-NewstyleKanaA Bold';stroke-width:0.08422622"
         y="17.442585"
         x="-56.354622"
         id="tspan1256-5"
         sodipodi:role="line">これはピピミじゃない</tspan><tspan
         id="tspan1268-3"
         style="font-style:normal;font-variant:normal;font-weight:bold;font-stretch:normal;line-height:1.25;font-family:GN-KMBFont-UB-NewstyleKanaA;-inkscape-font-specification:'GN-KMBFont-UB-NewstyleKanaA Bold';stroke-width:0.08422622"
         y="21.803207"
         x="-56.354622"
         sodipodi:role="line" /><tspan
         id="tspan1270-4"
         style="font-style:normal;font-variant:normal;font-weight:bold;font-stretch:normal;line-height:1.25;font-family:GN-KMBFont-UB-NewstyleKanaA;-inkscape-font-specification:'GN-KMBFont-UB-NewstyleKanaA Bold';stroke-width:0.08422622"
         y="26.014521"
         x="-56.354622"
         sodipodi:role="line" /><tspan
         id="tspan1260-1"
         style="font-style:normal;font-variant:normal;font-weight:bold;font-stretch:normal;line-height:1.25;font-family:GN-KMBFont-UB-NewstyleKanaA;-inkscape-font-specification:'GN-KMBFont-UB-NewstyleKanaA Bold';stroke-width:0.08422622"
         y="30.225832"
         x="-56.354622"
         sodipodi:role="line" /></text>
    <path
       sodipodi:nodetypes="cccscsscsccccccccsscscccsscscssccssccccsscsscsccscccccccsssccscsccsssscccssssscccccssccsccccccscccccccscccsccscscsccccscccccccsscscscccscsscscsscscccccssssscssccccssscscccsscccsccsscsccsscscsccccccsccsscssscsssccssssccssscssssscscsccccsccsssccscccccccsccccsscssscscssscssssccsssccsccscccssccccccccccscccccsccccscsccc"
       inkscape:connector-curvature="0"
       id="path117"
       d="m 12.138626,71.021143 c -13.3284679,1.165762 -6.6642307,0.58288 0,0 z m 0.02971,-0.04938 c -0.04383,-0.08598 -0.261751,-0.3499 -0.570804,-0.691381 -0.617622,-0.68242 -0.883353,-1.109247 -1.266749,-2.034626 -0.03604,-0.08691 -0.18328,-0.282481 -0.327245,-0.434583 C 9.576846,67.360389 9.192658,66.862776 9.113784,66.658734 8.838251,65.9459 8.933959,65.521946 9.59883,64.510266 c 0.09358,-0.142362 0.170118,-0.298665 0.170118,-0.347337 0,-0.07783 0.16334,-0.487342 0.275707,-0.691214 0.06441,-0.11678 0.334359,-0.964425 0.423585,-1.329853 0.04504,-0.1847 0.09748,-0.371368 0.116576,-0.414824 0.01896,-0.04346 0.06965,-0.160717 0.112542,-0.260582 0.0558,-0.129825 0.142204,-0.229911 0.303177,-0.351252 0.123837,-0.09333 0.286317,-0.227014 0.361103,-0.297054 0.356114,-0.333576 0.574165,-0.399304 0.912907,-0.275195 0.08552,0.03133 0.160356,0.0572 0.166433,0.05753 0.0067,3.04e-4 0.0067,-0.386084 0,-0.858691 -0.0054,-0.472609 0.004,-1.24152 0.02272,-1.708693 0.02501,-0.629534 0.02138,-0.931223 -0.01439,-1.165468 -0.05526,-0.362747 -0.06925,-1.256849 -0.02756,-1.777834 0.05284,-0.661977 0.10044,-1.047371 0.147716,-1.195588 0.255001,-0.799457 0.42411,-1.010223 0.923516,-1.150967 0.723885,-0.18448 1.23265,0.319045 1.37644,0.904535 0.09506,0.404088 0.104475,0.562858 0.123433,2.093891 0.02313,1.867853 0.0515,2.744088 0.10945,3.377883 0.02582,0.282479 0.04168,0.873607 0.03523,1.31362 -0.0067,0.440013 9.25e-4,0.800025 0.0164,0.800025 0.01546,0 0.05567,-0.02515 0.08941,-0.05587 0.107432,-0.0978 0.535899,-0.220681 0.769601,-0.220681 0.265946,0 0.590866,0.111159 0.785387,0.268671 0.07583,0.06143 0.224802,0.229151 0.33101,0.372728 l 0.193097,0.261045 0.137107,-0.06021 c 0.506358,-0.222369 0.970617,-0.199315 1.380205,0.06854 0.781663,0.511161 0.976466,1.102619 0.773514,2.348577 -0.10676,0.655807 -0.132038,0.867306 -0.143575,1.204976 -0.0094,0.28059 -0.03146,0.378045 -0.133114,0.592608 -0.143669,0.303476 -0.234724,0.595986 -0.442261,1.420821 -0.08458,0.336006 -0.189547,0.72713 -0.233327,0.869162 -0.04383,0.142036 -0.121685,0.409362 -0.173223,0.594059 -0.157572,0.565251 -0.257623,0.869173 -0.293563,0.891767 -0.01882,0.0119 -0.03429,0.06066 -0.03429,0.108452 0,0.109628 -0.259519,0.521976 -0.539113,0.856626 -0.118054,0.141241 -0.21914,0.263544 -0.224747,0.271787 -0.0054,0.0082 -1.175062,0.01715 -2.598791,0.01976 -2.55169,0.0046 -2.589191,0.0037 -2.628923,-0.07425 z m 4.700112,-0.176022 c 0.358131,-0.304325 0.73249,-0.798603 0.824218,-1.088215 0.02756,-0.08692 0.06669,-0.179361 0.087,-0.205431 0.03321,-0.04264 0.138074,-0.391211 0.282861,-0.940286 0.02864,-0.108643 0.08041,-0.295318 0.114962,-0.414825 0.05755,-0.199068 0.297611,-1.10945 0.354166,-1.34325 0.06239,-0.258064 0.304038,-0.976575 0.351675,-1.04586 0.03119,-0.04529 0.05217,-0.169407 0.05029,-0.296306 -0.0027,-0.16839 -0.01076,-0.195768 -0.03442,-0.11961 -0.123836,0.393044 -0.905902,2.02078 -1.231331,2.562638 -0.135252,0.225218 -0.245925,0.425223 -0.245925,0.44446 0,0.01921 -0.02622,0.03495 -0.05822,0.03495 -0.0753,0 -0.07637,-0.160966 -0.0027,-0.395075 0.09009,-0.286667 0.153243,-0.527541 0.160396,-0.612362 0.01385,-0.16374 0.09614,-0.722773 0.151387,-1.027193 0.08538,-0.470543 0.07973,-0.514984 -0.09183,-0.723798 -0.0835,-0.101683 -0.198905,-0.300434 -0.256453,-0.44167 -0.242927,-0.596143 -0.425374,-0.922428 -0.533506,-0.954117 -0.183737,-0.05384 -0.442907,-0.03561 -0.505228,0.03557 -0.127602,0.14563 -0.30112,0.576681 -0.30112,0.747763 0,0.147655 -0.01076,0.170781 -0.08229,0.170781 -0.08135,0 -0.08215,-0.0081 -0.06293,-0.641992 0.01076,-0.353099 0.0394,-0.693251 0.06387,-0.755893 l 0.04451,-0.113894 -0.166097,0.02377 c -0.0913,0.01313 -0.213964,0.03524 -0.272454,0.04927 -0.148402,0.03561 -0.175979,-0.06374 -0.06185,-0.222987 0.122896,-0.171588 0.568303,-0.511169 0.670398,-0.511169 0.170117,0 0.427821,0.232389 0.685175,0.617883 0.178615,0.267539 0.198918,0.284504 0.393977,0.329277 0.11308,0.02598 0.341552,0.09055 0.507635,0.14352 0.225392,0.07189 0.320819,0.08607 0.376201,0.05591 0.110525,-0.06013 0.66748,-0.04867 0.750577,0.01545 0.03805,0.02934 0.100575,0.118953 0.138869,0.19915 l 0.06978,0.145817 0.06508,-0.370584 c 0.03577,-0.203821 0.06508,-0.456063 0.06508,-0.56053 0,-0.173061 -0.01466,-0.203604 -0.165089,-0.343418 -0.190878,-0.177451 -0.222435,-0.18647 -0.225957,-0.06457 -0.004,0.138455 -0.135669,0.517665 -0.185621,0.534592 -0.08444,0.02862 -0.08767,-0.0984 -0.0081,-0.311555 0.102054,-0.273124 0.100844,-0.432018 -0.004,-0.568229 -0.08094,-0.104691 -0.09493,-0.108151 -0.358574,-0.08897 -0.244944,0.01783 -0.30147,0.0074 -0.527589,-0.0975 -0.1393,-0.06461 -0.283533,-0.144986 -0.320523,-0.178616 -0.04639,-0.0422 -0.08256,-0.04898 -0.116576,-0.02189 -0.143575,0.114346 -0.233407,0.08992 -0.46243,-0.125722 -0.162789,-0.153274 -0.246759,-0.206257 -0.303124,-0.191267 -0.05472,0.01458 -0.108239,-0.01585 -0.179596,-0.102107 -0.124644,-0.150608 -0.248614,-0.156657 -0.463789,-0.02264 -0.219033,0.13643 -0.252258,0.150304 -0.283318,0.11827 -0.01506,-0.01559 0.04249,-0.08862 0.127871,-0.162342 l 0.155393,-0.134023 -0.119802,0.0343 c -0.06588,0.01884 -0.225972,0.04682 -0.355751,0.06215 -0.324678,0.03832 -0.416862,0.13669 -0.380451,0.405961 0.02084,0.154208 0.01345,0.20436 -0.03805,0.247579 -0.04679,0.03951 -0.08175,0.04297 -0.128811,0.01272 -0.109853,-0.07049 -0.204418,-1.096842 -0.19229,-2.087393 0.0054,-0.456312 -0.0121,-1.131889 -0.03792,-1.501278 -0.05056,-0.706055 -0.124509,-2.931351 -0.128542,-3.871727 -0.0013,-0.346354 -0.01479,-0.52193 -0.0355,-0.46971 -0.0476,0.119651 -0.123702,0.136088 -0.33339,0.07193 -0.244607,-0.07487 -0.778099,-0.07654 -0.80604,-0.0026 -0.01587,0.04191 0.01587,0.05023 0.141518,0.03704 0.237858,-0.02497 0.696375,0.03782 0.716047,0.09807 0.01345,0.04038 -0.07032,0.04588 -0.404721,0.0266 -0.387241,-0.02233 -0.579504,-0.06702 -0.638477,-0.148531 -0.03792,-0.0525 -0.03751,-0.34834 9.96e-4,-0.660398 0.02003,-0.161849 0.03039,-0.300369 0.02299,-0.307818 -0.01829,-0.01853 -0.123434,0.366973 -0.159724,0.584923 -0.01627,0.09779 -0.03308,1.928947 -0.03751,4.069259 -0.0081,4.214558 -0.01829,4.430282 -0.199443,4.456762 -0.112138,0.0164 -0.142754,-0.09534 -0.108508,-0.395403 0.02044,-0.17851 0.01573,-0.232063 -0.01815,-0.210742 -0.02501,0.01574 -0.113617,-0.01726 -0.196847,-0.07328 -0.08323,-0.05602 -0.292448,-0.161372 -0.464891,-0.234094 l -0.313531,-0.132218 -0.276259,0.06982 c -0.151952,0.0384 -0.292434,0.08627 -0.312213,0.106387 -0.01976,0.02012 -0.07947,0.203464 -0.132711,0.407459 -0.05325,0.203991 -0.111197,0.406453 -0.128677,0.449909 -0.103129,0.255115 -0.120744,0.30797 -0.107567,0.321407 0.0081,0.0082 0.04639,-0.02077 0.08511,-0.06437 0.06629,-0.07455 0.175025,-0.108602 0.175025,-0.05485 0,0.0134 -0.05244,0.08516 -0.116576,0.159403 -0.07422,0.08597 -0.114693,0.173944 -0.111197,0.24226 0.004,0.08474 0.0094,0.08973 0.02138,0.02381 0.016,-0.0828 0.156187,-0.173321 0.268393,-0.173321 0.09251,0 0.288346,0.112363 0.535441,0.307243 0.178521,0.140809 0.29308,0.195897 0.524429,0.252208 0.323925,0.07885 0.724047,0.0959 0.762569,0.03253 0.01345,-0.02207 0.04061,-0.02992 0.06051,-0.01741 0.05728,0.03603 0.04235,-0.02009 -0.0359,-0.133859 -0.09627,-0.140086 -0.13029,-0.297788 -0.09977,-0.4628 0.03442,-0.186498 0.09412,-0.171219 0.09412,0.02409 0,0.129634 0.08632,0.393109 0.128677,0.393109 0.0054,0 0.12666,-0.115563 0.268985,-0.256797 0.287351,-0.285136 0.396034,-0.317326 0.614731,-0.182069 0.12061,0.07461 0.398536,0.418309 0.47511,0.587589 0.02461,0.05456 0.06441,0.08222 0.10192,0.07093 0.252137,-0.076 0.440204,-0.106852 0.468279,-0.07682 0.09829,0.105102 0.19588,0.59705 0.198031,0.997899 0.0013,0.355767 -0.08296,1.17423 -0.138829,1.33837 -0.04168,0.122523 -0.09694,0.03141 -0.09694,-0.159845 0,-0.245954 -0.21188,-1.317222 -0.276084,-1.3959 -0.02622,-0.0322 -0.120206,-0.05418 -0.231552,-0.05418 -0.196188,0 -0.243356,-0.0357 -0.589372,-0.446015 -0.11066,-0.131261 -0.247499,-0.113347 -0.204364,0.02678 0.0675,0.219137 0.06521,0.274626 -0.01761,0.424401 -0.108509,0.196376 -0.111198,0.158275 0.131097,1.871454 0.14613,1.033019 0.150513,1.091638 0.08646,1.156748 -0.05352,0.05441 -0.06158,0.0509 -0.07906,-0.03451 -0.01076,-0.05228 -0.02837,-0.175058 -0.03899,-0.272839 -0.05472,-0.500016 -0.14773,-1.185143 -0.1816,-1.337665 -0.03536,-0.15941 -0.158056,-0.316715 -0.249932,-0.320575 -0.02138,-7.24e-4 -0.249515,-0.1061 -0.50699,-0.233776 -0.502095,-0.248974 -0.524389,-0.268128 -1.05101,-0.903055 -0.31587,-0.380848 -0.344537,-0.404955 -0.48151,-0.404955 -0.242227,0 -0.384404,0.0434 -0.40991,0.125121 -0.0312,0.09997 0.0121,0.148574 0.331104,0.367929 0.318936,0.219595 0.400485,0.350901 0.224694,0.361773 -0.04814,0.0029 -0.243263,0.02829 -0.433549,0.05623 l -0.345962,0.05081 -0.08941,-0.114086 c -0.04921,-0.06275 -0.09654,-0.141392 -0.105012,-0.174758 -0.0081,-0.03335 -0.0081,0.0015 0.0013,0.07762 0.0094,0.07606 0.03227,0.156552 0.05042,0.17889 0.05042,0.06212 0.08484,0.615695 0.04666,0.749532 -0.02568,0.08969 -0.05674,0.118516 -0.128139,0.118516 -0.0921,0 -0.09479,-0.0093 -0.116307,-0.395075 -0.02487,-0.446945 -0.132577,-0.798817 -0.203961,-0.665934 -0.02165,0.04033 -0.05056,0.08221 -0.06414,0.09308 -0.0394,0.03152 -0.25008,0.39679 -0.353197,0.612366 -0.175441,0.366708 -0.08941,0.912694 0.184289,1.169433 0.0601,0.05637 0.222893,0.170522 0.361762,0.253671 0.138882,0.08315 0.313759,0.196973 0.388626,0.252951 0.180174,0.134706 0.271889,0.192309 0.384538,0.241463 0.166339,0.07258 0.54718,0.438042 0.797663,0.765448 0.296629,0.387711 0.629213,1.129497 0.506412,1.129497 -0.01076,0 -0.139891,-0.06002 -0.285833,-0.133353 -0.145928,-0.07335 -0.326143,-0.153773 -0.400471,-0.178723 -0.07436,-0.02497 -0.172968,-0.08119 -0.219182,-0.124985 -0.04625,-0.04378 -0.08404,-0.06216 -0.08404,-0.04083 0,0.116807 0.371711,0.61002 0.937594,1.244052 0.0991,0.110968 0.296401,0.348434 0.438577,0.527699 l 0.258497,0.325937 h 1.898557 1.89857 z m -4.816595,-3.330256 c -0.03133,-0.04889 -0.07973,-0.159898 -0.107701,-0.246684 -0.02797,-0.08679 -0.135521,-0.35098 -0.238974,-0.587112 -0.172335,-0.393344 -0.188094,-0.454942 -0.188094,-0.735103 0,-0.168184 0.01855,-0.359817 0.04114,-0.425852 0.03173,-0.09252 0.0277,-0.15279 -0.01748,-0.262694 -0.0558,-0.135733 -0.05486,-0.14263 0.01802,-0.14263 0.08336,0 0.101382,0.03603 0.226052,0.454337 0.163892,0.5496 0.245845,0.935535 0.207026,0.975004 -0.02447,0.02493 -0.0067,0.158921 0.04975,0.381133 0.11792,0.461947 0.151481,0.678497 0.105012,0.678497 -0.02084,0 -0.06333,-0.04 -0.09466,-0.0889 z m 1.932212,-1.264236 c -0.02649,-0.822764 -0.04007,-1.080806 -0.06696,-1.274114 -0.01909,-0.137488 0.100172,-0.08988 0.128542,0.05131 0.01439,0.07168 0.03899,0.573916 0.05473,1.116081 0.02501,0.863051 0.02124,0.985761 -0.02971,0.985761 -0.04921,0 -0.06266,-0.136539 -0.08659,-0.87904 z m -4.403227,-0.02963 c 0,-0.05433 0.0094,-0.07655 0.01963,-0.04938 0.01076,0.02717 0.01076,0.07161 0,0.09877 -0.01076,0.02717 -0.01963,0.0049 -0.01963,-0.04938 z m 1.431219,-3.239606 c 0,-0.04346 0.01734,-0.07901 0.03859,-0.07901 0.02124,0 0.0757,-0.08001 0.120878,-0.177785 0.08229,-0.178156 0.151307,-0.231287 0.151307,-0.116561 0,0.124082 -0.210267,0.452369 -0.289732,0.452369 -0.0121,0 -0.02098,-0.03557 -0.02098,-0.07901 z m 2.058886,-0.369426 c 0,-0.06781 0.378393,-0.578751 0.428614,-0.578751 0.07664,0 0.03227,0.09625 -0.16599,0.360678 -0.202481,0.270002 -0.262624,0.319945 -0.262624,0.218073 z m 0.448393,-0.763331 c 0.0121,-0.08318 0.03496,-0.302142 0.04948,-0.486586 0.02232,-0.282035 0.03792,-0.337566 0.09816,-0.349281 0.06696,-0.01299 0.06978,0.01026 0.04383,0.370059 -0.03388,0.469617 -0.06279,0.587325 -0.148281,0.604085 -0.05607,0.01094 -0.06266,-0.01012 -0.04316,-0.138277 z m -0.04047,-2.062109 c -0.207403,-0.04585 -0.123971,-0.09178 0.194239,-0.10703 0.170923,-0.0082 0.37007,-0.03256 0.442557,-0.05416 0.131501,-0.03919 0.198407,-0.0271 0.198407,0.03581 0,0.07264 -0.639485,0.168629 -0.835203,0.125367 z m -0.213655,-0.224478 c 0,-0.06948 0.209634,-0.108876 0.602119,-0.11317 0.364168,-0.004 0.437462,0.06408 0.107971,0.100316 -0.597562,0.06572 -0.710144,0.06776 -0.710144,0.01285 z m -0.141155,-0.144855 c -0.02985,-0.04911 0.04787,-0.10439 0.191106,-0.136033 0.05956,-0.01313 0.129484,-0.05429 0.155381,-0.09143 0.09022,-0.129128 0.211543,-0.168029 0.357149,-0.114483 0.160194,0.05891 0.137336,0.128636 -0.03281,0.100083 -0.06696,-0.01121 -0.156779,-0.0049 -0.19951,0.01396 -0.0523,0.02315 0.01761,0.03307 0.213668,0.03039 0.297719,-0.0041 0.466155,0.02724 0.466155,0.08668 0,0.01834 -0.187919,0.04147 -0.417602,0.0514 -0.229682,0.01 -0.483244,0.03632 -0.563489,0.05864 -0.09789,0.02721 -0.153848,0.02746 -0.170077,7.23e-4 z m 0.383947,-2.743644 c -0.142284,-0.05839 0.07005,-0.152684 0.243827,-0.108315 0.07826,0.02001 0.08915,0.0361 0.05351,0.07976 -0.04356,0.0534 -0.200156,0.06843 -0.297342,0.02855 z m 0.223363,-0.211488 c -0.278827,-0.01537 -0.35005,-0.02985 -0.291346,-0.05926 0.0913,-0.04574 0.659776,-0.0527 0.703125,-0.0086 0.06548,0.06657 -0.0601,0.08727 -0.411779,0.06787 z m -0.500469,-0.182754 c 0.03523,-0.0431 0.12666,-0.06923 0.41974,-0.119925 0.170776,-0.02952 0.663459,0.05901 0.663392,0.119228 -4e-5,0.0326 -0.161364,0.04579 -0.560007,0.04579 -0.415088,0 -0.55042,-0.01162 -0.523125,-0.04508 z m 0.228539,-1.260929 c 0,-0.04782 0.03617,-0.05883 0.16209,-0.04938 0.231767,0.01737 0.245239,0.110913 0.016,0.110913 -0.135293,0 -0.17805,-0.0148 -0.17805,-0.06153 z m 4.504125,11.123599 c 0.04948,-0.184696 0.134055,-0.438634 0.187906,-0.564307 0.09305,-0.217017 0.09533,-0.239567 0.04599,-0.448878 -0.04343,-0.18394 -0.05715,-0.206147 -0.08337,-0.13431 -0.03308,0.09091 -0.303823,1.441114 -0.303823,1.515107 0,0.109901 0.07086,-0.0601 0.153243,-0.367613 z m 0.99408,-3.435168 c -0.170521,-0.250234 -0.451875,-0.441201 -0.723643,-0.491166 -0.09614,-0.0177 -0.223067,0.0018 -0.407881,0.0624 -0.228795,0.07509 -0.251505,0.09022 -0.154211,0.102736 0.107433,0.01382 0.561769,0.115987 0.887078,0.199505 0.162857,0.0418 0.328496,0.139989 0.416096,0.246641 0.104609,0.127309 0.09197,0.04042 -0.01748,-0.120116 z m -2.267404,-0.818369 c -0.14933,-0.280176 -0.535374,-0.420172 -0.918326,-0.333018 -0.291103,0.06625 -0.360255,0.156758 -0.100441,0.131357 0.225985,-0.02207 0.55635,0.02099 0.52732,0.06873 -0.01076,0.01831 0.01076,0.02515 0.048,0.01516 0.08377,-0.02229 0.32773,0.07752 0.39703,0.162446 0.06548,0.08019 0.09681,0.04995 0.04639,-0.04467 z M 12.7,61.72358 c 0.02246,-0.121867 0.0054,-0.17139 -0.117248,-0.353507 -0.147259,-0.217454 -0.283708,-0.309569 -0.521767,-0.352262 -0.109584,-0.01965 -0.158581,-0.0052 -0.252513,0.07432 l -0.116576,0.0987 0.179287,0.0015 c 0.172336,0.0015 0.384001,0.111652 0.384001,0.200073 0,0.01917 0.07852,0.111228 0.174662,0.204545 0.096,0.09331 0.174715,0.191882 0.174809,0.219043 3.5e-4,0.108739 0.07086,0.04045 0.09533,-0.09234 z m 0.591202,-7.130369 c 0.03738,-0.03796 0.553674,-0.03278 0.925761,0.0093 l 0.116576,0.01313 -0.0027,-0.378565 c -0.0013,-0.248807 -0.02635,-0.456247 -0.07247,-0.605201 -0.06266,-0.202643 -0.0882,-0.235567 -0.240815,-0.310991 -0.169754,-0.08387 -0.171959,-0.08393 -0.384686,-0.01039 -0.117652,0.04068 -0.2294,0.09319 -0.248252,0.116698 -0.05997,0.07472 -0.155434,0.544885 -0.179166,0.882266 -0.02205,0.313677 -0.004,0.37439 0.08538,0.283694 z m 4.182889,16.427928 c -16.8854291,1.165757 -8.442716,0.582882 0,0 z"
       style="display:inline;fill:#000000;stroke-width:0.03917581" />
    <path
       sodipodi:nodetypes="cccscsscsccccccccsscscccsscscssccssccccsscsscsccscccccccsssccscsccsssscccssssscccccssccsccccccscccccccscccsccscscsccccscccccccsscscscccscsscscsscscccccssssscssccccssscscccsscccsccsscsccsscscsccccccsccsscssscsssccssssccssscssssscscsccccsccsssccscccccccsccccsscssscscssscssssccsssccsccscccssccccccccccscccccsccccscsccc"
       inkscape:connector-curvature="0"
       id="path117-5"
       d="m 42.423566,70.087283 c 11.587986,0.98441 5.793993,0.492204 0,0 z m -0.02583,-0.04169 c 0.03811,-0.07261 0.227571,-0.295464 0.496269,-0.583826 0.536971,-0.576263 0.768,-0.93669 1.101332,-1.718111 0.03132,-0.07339 0.159348,-0.238536 0.284512,-0.366977 0.370971,-0.380658 0.704992,-0.80086 0.773567,-0.973163 0.239551,-0.601941 0.156342,-0.95994 -0.421707,-1.814236 -0.08137,-0.120215 -0.147905,-0.252203 -0.147905,-0.293304 0,-0.06573 -0.142008,-0.411528 -0.239703,-0.583686 -0.05599,-0.09861 -0.290697,-0.814393 -0.368271,-1.122969 -0.03917,-0.155971 -0.08475,-0.3136 -0.101353,-0.350296 -0.01649,-0.0367 -0.06056,-0.135714 -0.09784,-0.220044 -0.04852,-0.109628 -0.123637,-0.194141 -0.2636,-0.296609 -0.107666,-0.07881 -0.248928,-0.191698 -0.313937,-0.250844 -0.309611,-0.281678 -0.499191,-0.337185 -0.793696,-0.232383 -0.07435,0.02646 -0.139417,0.0483 -0.144699,0.04857 -0.0059,2.56e-4 -0.0059,-0.326023 0,-0.725108 0.0046,-0.399085 -0.0036,-1.048382 -0.01977,-1.442879 -0.02174,-0.5316 -0.01859,-0.786357 0.01249,-0.984161 0.04805,-0.306317 0.0601,-1.061324 0.02397,-1.501264 -0.04594,-0.558996 -0.08732,-0.884438 -0.128423,-1.009596 -0.221704,-0.675087 -0.368729,-0.853067 -0.802921,-0.971914 -0.62936,-0.15578 -1.071688,0.269413 -1.196701,0.763819 -0.08264,0.341224 -0.09083,0.475295 -0.107316,1.768153 -0.0201,1.577279 -0.04478,2.317203 -0.09516,2.8524 -0.02245,0.238535 -0.03624,0.737704 -0.03061,1.109269 0.0059,0.37156 -9.11e-4,0.67557 -0.01426,0.67557 -0.01346,0 -0.04839,-0.02123 -0.07774,-0.04719 -0.0934,-0.08258 -0.465917,-0.186349 -0.669102,-0.186349 -0.23122,0 -0.513709,0.09387 -0.682828,0.226874 -0.06593,0.05187 -0.195446,0.193506 -0.287787,0.314745 l -0.167883,0.220438 -0.119191,-0.05084 c -0.440247,-0.187776 -0.843869,-0.168308 -1.199983,0.05787 -0.67959,0.431642 -0.848945,0.931089 -0.672507,1.983219 0.09282,0.553786 0.114796,0.732384 0.124826,1.017524 0.0081,0.236939 0.02734,0.319234 0.115732,0.500422 0.12492,0.256262 0.204073,0.503267 0.384522,1.199786 0.07353,0.283734 0.164783,0.614013 0.202848,0.733953 0.03811,0.119938 0.105795,0.345676 0.1506,0.501644 0.136999,0.477314 0.223983,0.733956 0.255242,0.753036 0.01636,0.01006 0.02982,0.05122 0.02982,0.09158 0,0.09257 0.225618,0.440775 0.468703,0.723362 0.102638,0.119268 0.190522,0.222544 0.195397,0.229505 0.0046,0.0069 1.021621,0.01448 2.259446,0.01669 2.218471,0.0039 2.251075,0.0031 2.285616,-0.0627 z m -4.086355,-0.148638 c -0.311365,-0.256984 -0.636838,-0.674366 -0.716577,-0.918928 -0.02397,-0.07339 -0.05799,-0.151459 -0.07563,-0.173473 -0.02889,-0.036 -0.120045,-0.330355 -0.245937,-0.794009 -0.0249,-0.09174 -0.0699,-0.249376 -0.09995,-0.350292 -0.05003,-0.1681 -0.258735,-0.936859 -0.307914,-1.134287 -0.05425,-0.217918 -0.264336,-0.824654 -0.305754,-0.88316 -0.02712,-0.03825 -0.04535,-0.143054 -0.04372,-0.250212 0.0025,-0.142194 0.0094,-0.165312 0.02994,-0.100999 0.107666,0.331901 0.787608,1.706417 1.070542,2.16398 0.117589,0.190182 0.213801,0.359073 0.213801,0.375319 0,0.01622 0.0228,0.02952 0.05062,0.02952 0.06546,0 0.06641,-0.135925 0.0025,-0.333614 -0.07832,-0.242072 -0.133219,-0.445473 -0.139438,-0.517101 -0.01203,-0.138266 -0.08358,-0.610333 -0.131619,-0.867396 -0.07412,-0.397343 -0.06932,-0.434871 0.07984,-0.611199 0.07259,-0.08586 0.172931,-0.253698 0.222976,-0.372966 0.211194,-0.5034 0.369814,-0.778926 0.463826,-0.805685 0.159748,-0.04547 0.385072,-0.03006 0.439255,0.03003 0.110821,0.122975 0.261801,0.486972 0.261801,0.631441 0,0.12468 0.0094,0.144212 0.07155,0.144212 0.07073,0 0.07131,-0.0068 0.0547,-0.542124 -0.0094,-0.298165 -0.03426,-0.585402 -0.05553,-0.6383 l -0.03869,-0.09617 0.144405,0.02008 c 0.07938,0.01109 0.186024,0.02976 0.236879,0.0416 0.12902,0.03006 0.152997,-0.05382 0.05377,-0.188294 -0.106847,-0.144894 -0.49409,-0.431651 -0.582852,-0.431651 -0.147904,0 -0.371943,0.196241 -0.595703,0.521765 -0.155289,0.225919 -0.172942,0.240244 -0.342531,0.278052 -0.09831,0.02195 -0.29694,0.07646 -0.441345,0.121192 -0.195952,0.0607 -0.278915,0.07269 -0.327079,0.04722 -0.09609,-0.05077 -0.580317,-0.04109 -0.652564,0.01305 -0.03308,0.02478 -0.08732,0.10045 -0.120735,0.168166 l -0.06067,0.123133 -0.05658,-0.312933 c -0.03109,-0.172111 -0.05657,-0.385112 -0.05657,-0.473334 0,-0.146132 0.01274,-0.171928 0.143531,-0.289993 0.165951,-0.149841 0.193391,-0.157458 0.196452,-0.05453 0.0036,0.11692 0.117951,0.437136 0.16138,0.451435 0.07342,0.02417 0.07622,-0.08309 0.007,-0.263094 -0.08873,-0.230636 -0.08768,-0.364811 0.0036,-0.479831 0.07037,-0.08841 0.08253,-0.09132 0.311762,-0.07512 0.212946,0.01504 0.262092,0.0062 0.458694,-0.08233 0.121098,-0.05456 0.246497,-0.12243 0.278658,-0.150828 0.04033,-0.03563 0.07178,-0.04136 0.101353,-0.01849 0.124827,0.09656 0.202941,0.07593 0.402058,-0.106163 0.141521,-0.129432 0.214525,-0.174172 0.263528,-0.161513 0.04758,0.0123 0.0941,-0.01339 0.156155,-0.08623 0.108367,-0.127178 0.216138,-0.132286 0.403216,-0.01911 0.190442,0.115207 0.219317,0.126919 0.246319,0.09988 0.01309,-0.01317 -0.03694,-0.07484 -0.111171,-0.137087 l -0.135089,-0.113174 0.104153,0.02896 c 0.05729,0.01591 0.196465,0.03953 0.309298,0.05249 0.282279,0.03235 0.362427,0.115424 0.330772,0.342803 -0.01813,0.130219 -0.01169,0.172573 0.03308,0.209067 0.04067,0.03336 0.07108,0.03629 0.11199,0.01075 0.09551,-0.05953 0.177725,-0.926214 0.16718,-1.762668 -0.0046,-0.385324 0.01052,-0.955803 0.03296,-1.267732 0.04395,-0.596213 0.108249,-2.47533 0.111756,-3.269419 0.0013,-0.292469 0.01287,-0.440735 0.03087,-0.396637 0.04138,0.10104 0.107549,0.114918 0.289867,0.06075 0.212669,-0.06321 0.676494,-0.06463 0.700786,-0.0022 0.01367,0.03539 -0.01379,0.04241 -0.123052,0.03129 -0.206785,-0.02109 -0.605426,0.03194 -0.62253,0.08281 -0.01169,0.0341 0.06114,0.03875 0.351871,0.02246 0.336673,-0.01882 0.503831,-0.0566 0.555104,-0.125422 0.03296,-0.04432 0.03262,-0.29415 -9.11e-4,-0.557666 -0.01742,-0.136671 -0.02641,-0.253639 -0.01998,-0.259932 0.0159,-0.01567 0.107315,0.309884 0.138856,0.493929 0.01414,0.08257 0.02876,1.628869 0.03262,3.436222 0.007,3.55892 0.0159,3.741082 0.173399,3.763443 0.0975,0.01384 0.124124,-0.08051 0.09434,-0.333888 -0.01778,-0.150741 -0.01367,-0.195966 0.01578,-0.177959 0.02174,0.0133 0.09878,-0.01457 0.171144,-0.06188 0.07237,-0.04732 0.254268,-0.136268 0.404196,-0.197678 l 0.272576,-0.111648 0.240196,0.05896 c 0.132096,0.03242 0.254247,0.07286 0.271433,0.08984 0.0172,0.01698 0.06909,0.171811 0.115381,0.344072 0.04629,0.172258 0.09667,0.343223 0.111873,0.379919 0.08966,0.215427 0.104977,0.26006 0.09352,0.271407 -0.007,0.0069 -0.04033,-0.01755 -0.07399,-0.05436 -0.05763,-0.06296 -0.152167,-0.09171 -0.152167,-0.04632 0,0.01131 0.04559,0.07192 0.101353,0.134605 0.06453,0.0726 0.09971,0.146886 0.09667,0.204576 -0.0036,0.07155 -0.0081,0.07577 -0.01859,0.02011 -0.01393,-0.06992 -0.135793,-0.146356 -0.233345,-0.146356 -0.08043,0 -0.250694,0.09488 -0.46552,0.259446 -0.15521,0.118905 -0.254811,0.16542 -0.455948,0.212974 -0.281628,0.06658 -0.629499,0.08097 -0.66299,0.02747 -0.01169,-0.01864 -0.0353,-0.02527 -0.0526,-0.01469 -0.0498,0.03043 -0.03683,-0.01695 0.03122,-0.113035 0.08371,-0.118295 0.113277,-0.251462 0.08675,-0.390804 -0.02994,-0.157486 -0.08184,-0.144585 -0.08184,0.02035 0,0.109467 -0.07506,0.331956 -0.111873,0.331956 -0.0046,0 -0.110121,-0.09758 -0.233848,-0.216849 -0.24983,-0.240775 -0.344331,-0.267961 -0.53446,-0.153745 -0.104861,0.06299 -0.346506,0.353233 -0.413079,0.496179 -0.0215,0.04607 -0.05599,0.06943 -0.08861,0.0599 -0.219211,-0.06418 -0.382721,-0.09022 -0.407128,-0.06487 -0.08545,0.08875 -0.170301,0.504169 -0.172173,0.84266 -0.0013,0.300423 0.07213,0.991562 0.120699,1.130165 0.03624,0.103463 0.08428,0.02653 0.08428,-0.134975 0,-0.207695 0.184212,-1.112311 0.240031,-1.178749 0.0228,-0.02719 0.10451,-0.04575 0.201314,-0.04575 0.170569,0 0.211579,-0.03015 0.51241,-0.37663 0.09621,-0.110843 0.21518,-0.09572 0.177678,0.02261 -0.05868,0.185047 -0.0567,0.231905 0.01532,0.358379 0.09434,0.165827 0.09667,0.133653 -0.113978,1.580321 -0.127047,0.872316 -0.130858,0.921817 -0.07517,0.976797 0.04652,0.04595 0.05354,0.04299 0.06875,-0.02914 0.0094,-0.04414 0.02468,-0.147825 0.0339,-0.230394 0.04758,-0.422298 0.128438,-1.000839 0.157897,-1.129637 0.03074,-0.134611 0.137404,-0.267442 0.217283,-0.270701 0.01859,-6.11e-4 0.216934,-0.08959 0.440798,-0.197409 0.436518,-0.210246 0.455898,-0.226417 0.913752,-0.762574 0.274624,-0.321598 0.299547,-0.341956 0.418634,-0.341956 0.210609,0 0.334221,0.03665 0.356384,0.105658 0.02712,0.08442 -0.01052,0.125461 -0.287868,0.31069 -0.277279,0.185432 -0.348187,0.296313 -0.195354,0.305494 0.04185,0.0024 0.211496,0.02389 0.376934,0.04749 l 0.300796,0.04292 0.07774,-0.09633 c 0.04279,-0.05298 0.08382,-0.119391 0.0913,-0.147567 0.007,-0.02817 0.007,0.0012 -0.0013,0.06555 -0.0081,0.06423 -0.02805,0.132197 -0.04384,0.151057 -0.04384,0.05246 -0.07377,0.519918 -0.04057,0.632935 0.02233,0.07574 0.04933,0.100086 0.111407,0.100086 0.08008,0 0.08242,-0.0078 0.101113,-0.333613 0.02162,-0.377414 0.115264,-0.67455 0.177328,-0.562338 0.01883,0.03405 0.04384,0.06942 0.05564,0.07859 0.03425,0.02662 0.217413,0.33506 0.307076,0.517104 0.152519,0.30966 0.07774,0.77071 -0.160236,0.987509 -0.05225,0.0476 -0.193776,0.143993 -0.31452,0.214208 -0.120735,0.07023 -0.27279,0.166336 -0.337866,0.213601 -0.156649,0.113751 -0.236386,0.162392 -0.334326,0.203899 -0.144629,0.06129 -0.475739,0.3699 -0.693512,0.646371 -0.257885,0.327397 -0.547035,0.953786 -0.440285,0.953786 0.0094,0 0.121635,-0.05068 0.248508,-0.112607 0.126883,-0.06194 0.283565,-0.129852 0.34819,-0.150921 0.06464,-0.02109 0.150379,-0.06856 0.19056,-0.105541 0.04021,-0.03697 0.07307,-0.0525 0.07307,-0.03448 0,0.09863 -0.323171,0.515125 -0.815161,1.050523 -0.08615,0.0937 -0.257694,0.294229 -0.381305,0.445607 l -0.224743,0.27523 h -1.650637 -1.650648 z m 4.187626,-2.812187 c 0.02725,-0.04129 0.06932,-0.135027 0.09364,-0.208309 0.02431,-0.07329 0.117837,-0.296383 0.207769,-0.495777 0.149832,-0.332153 0.163533,-0.384169 0.163533,-0.620748 0,-0.142018 -0.01614,-0.30384 -0.03577,-0.359603 -0.02759,-0.07813 -0.02409,-0.129021 0.01519,-0.221828 0.04852,-0.114617 0.04769,-0.120441 -0.01568,-0.120441 -0.07248,0 -0.08815,0.03043 -0.196532,0.383653 -0.142492,0.464103 -0.213729,0.789998 -0.179995,0.823332 0.02127,0.02105 0.0059,0.134198 -0.04325,0.321842 -0.102523,0.390084 -0.1317,0.572942 -0.0913,0.572942 0.01813,0 0.05507,-0.03378 0.0823,-0.07507 z m -1.679895,-1.067567 c 0.02301,-0.694772 0.03484,-0.912668 0.05821,-1.075903 0.01661,-0.116103 -0.08709,-0.07589 -0.111756,0.04333 -0.0125,0.06052 -0.0339,0.484638 -0.04758,0.942461 -0.02174,0.728789 -0.01847,0.83241 0.02583,0.83241 0.04278,0 0.05448,-0.115298 0.07528,-0.742291 z m 3.828238,-0.02502 c 0,-0.04588 -0.0081,-0.06464 -0.01706,-0.04169 -0.0094,0.02294 -0.0094,0.06047 0,0.0834 0.0094,0.02294 0.01706,0.0041 0.01706,-0.04169 z m -1.244322,-2.73564 c 0,-0.0367 -0.01509,-0.06671 -0.03355,-0.06671 -0.01846,0 -0.06582,-0.06756 -0.105092,-0.150128 -0.07155,-0.150438 -0.131551,-0.195303 -0.131551,-0.09843 0,0.104778 0.182811,0.381997 0.2519,0.381997 0.01052,0 0.01834,-0.03003 0.01834,-0.06671 z m -1.790031,-0.311956 c 0,-0.05726 -0.328982,-0.488717 -0.372654,-0.488717 -0.06663,0 -0.02805,0.08129 0.144326,0.304569 0.176029,0.228 0.228328,0.270172 0.228328,0.184148 z M 41.223159,62.3 c -0.01052,-0.07025 -0.0304,-0.255139 -0.04301,-0.410889 -0.01939,-0.238161 -0.03296,-0.285052 -0.08534,-0.294944 -0.05822,-0.01097 -0.06067,0.0086 -0.03811,0.31249 0.02946,0.396559 0.05459,0.495958 0.128919,0.510109 0.04875,0.0092 0.05447,-0.0085 0.03753,-0.116766 z m 0.03519,-1.741316 c 0.180317,-0.03872 0.107782,-0.07751 -0.168875,-0.09037 -0.148603,-0.0069 -0.321746,-0.02749 -0.384766,-0.04574 -0.114328,-0.03309 -0.172498,-0.02289 -0.172498,0.03024 0,0.06134 0.555978,0.142396 0.726139,0.105863 z M 41.4441,60.369133 c 0,-0.05868 -0.182273,-0.09194 -0.523492,-0.09557 -0.316615,-0.0033 -0.380336,0.05412 -0.09387,0.08471 0.51953,0.05549 0.617412,0.05721 0.617412,0.01086 z m 0.122721,-0.12232 c 0.02595,-0.04147 -0.04161,-0.08815 -0.16615,-0.114872 -0.05179,-0.01109 -0.112576,-0.04584 -0.135091,-0.07721 -0.07844,-0.10904 -0.183922,-0.14189 -0.31051,-0.09667 -0.139279,0.04974 -0.119403,0.108623 0.02851,0.08451 0.05822,-0.0094 0.136293,-0.0041 0.173447,0.01179 0.04548,0.01955 -0.01532,0.02792 -0.185769,0.02567 -0.258853,-0.0034 -0.405281,0.023 -0.405281,0.0732 0,0.01549 0.163379,0.03502 0.363067,0.04341 0.19969,0.0084 0.420141,0.03066 0.48991,0.04952 0.08511,0.02298 0.133756,0.02318 0.147867,6.11e-4 z m -0.333809,-2.316829 c 0.123704,-0.0493 -0.0609,-0.128932 -0.211988,-0.09147 -0.06804,0.01689 -0.0775,0.03049 -0.04652,0.06735 0.03787,0.0451 0.174018,0.05778 0.258529,0.0241 z m -0.194198,-0.178587 c 0.242417,-0.01298 0.304339,-0.02521 0.253302,-0.05005 -0.07937,-0.03862 -0.573621,-0.04449 -0.61131,-0.0073 -0.05693,0.05621 0.05226,0.07369 0.358008,0.0573 z m 0.435118,-0.154325 c -0.03061,-0.0364 -0.110121,-0.05846 -0.364929,-0.101263 -0.148474,-0.02493 -0.576825,0.04983 -0.576766,0.100685 3.7e-5,0.02752 0.140292,0.03868 0.486882,0.03868 0.360884,0 0.478541,-0.0098 0.454813,-0.03808 z m -0.198695,-1.064774 c 0,-0.04039 -0.03145,-0.04968 -0.140922,-0.0417 -0.201501,0.01466 -0.213217,0.09366 -0.01393,0.09366 0.117624,0 0.15481,-0.0125 0.15481,-0.05196 z m -3.915958,9.39315 c -0.04301,-0.155965 -0.11655,-0.370399 -0.163369,-0.476521 -0.0809,-0.183256 -0.08288,-0.202299 -0.03998,-0.379048 0.03776,-0.155325 0.04968,-0.174078 0.07237,-0.113417 0.02876,0.07676 0.264147,1.216927 0.264147,1.279409 0,0.0928 -0.0616,-0.05075 -0.133244,-0.310426 z m -0.86427,-2.900779 c 0.14824,-0.211298 0.392853,-0.372557 0.629133,-0.41475 0.08358,-0.01494 0.193941,0.0015 0.354631,0.05269 0.198918,0.06341 0.218663,0.07619 0.134064,0.08675 -0.0934,0.01168 -0.4884,0.09794 -0.771242,0.168469 -0.14158,0.03529 -0.28559,0.118211 -0.361747,0.208273 -0.09095,0.107504 -0.07996,0.03413 0.01519,-0.101437 z m 1.971318,-0.691054 c 0.129828,-0.236595 0.465452,-0.354808 0.798395,-0.281209 0.25309,0.05594 0.313225,0.132369 0.08721,0.110922 -0.196465,-0.01864 -0.48369,0.01773 -0.45845,0.05803 0.0094,0.01546 -0.0094,0.02123 -0.04173,0.01281 -0.07283,-0.01882 -0.284946,0.06547 -0.345184,0.137175 -0.05693,0.06771 -0.08417,0.04218 -0.04033,-0.03773 z m 3.469179,-0.09752 c -0.01952,-0.102907 -0.0046,-0.144726 0.101938,-0.298513 0.128032,-0.183625 0.246659,-0.26141 0.453634,-0.297461 0.09527,-0.0166 0.137861,-0.0044 0.219538,0.06276 l 0.101353,0.08334 -0.155874,0.0012 c -0.149833,0.0012 -0.333858,0.09428 -0.333858,0.168948 0,0.01619 -0.06827,0.09393 -0.151855,0.172725 -0.08347,0.0788 -0.1519,0.162032 -0.15198,0.18497 -3.06e-4,0.09182 -0.06161,0.03416 -0.08288,-0.07798 z m -0.514001,-6.021126 c -0.0325,-0.03206 -0.481376,-0.02768 -0.804872,0.0078 l -0.101353,0.01109 0.0025,-0.319675 c 0.0013,-0.210101 0.02292,-0.38527 0.06301,-0.511055 0.05447,-0.171118 0.07669,-0.198921 0.209367,-0.262612 0.147591,-0.07082 0.149504,-0.07087 0.334453,-0.0087 0.102293,0.03435 0.199447,0.07869 0.215835,0.09854 0.05214,0.06309 0.135137,0.460123 0.155771,0.74502 0.01917,0.264877 0.0036,0.316147 -0.07423,0.239559 z m -3.636676,13.872305 c 14.680476,0.984407 7.340239,0.492203 0,0 z"
       style="display:inline;fill:#000000;stroke-width:0.03356718" />
    <path
       sodipodi:nodetypes="cscccccsscscsccccscccsccsccccccccsscccccscsssccsccssssssscssscccsccccscscssssscsssccssscsccccccccsccccsssccsssscss"
       inkscape:connector-curvature="0"
       id="path2552"
       d="m 28.472511,38.848647 c 0.244401,-0.123106 0.432337,-0.982074 0.634269,-2.899025 0.135107,-1.28256 0.266084,-1.936926 0.401335,-2.005053 0.135241,-0.06813 0.163843,0.01523 0.08761,0.255425 -0.06235,0.196074 -0.07886,0.474313 -0.03695,0.618229 0.05585,0.191819 0.129846,0.09842 0.277176,-0.349845 0.14944,-0.454621 0.288698,-0.627667 0.542884,-0.674489 0.188046,-0.03464 0.374924,-0.05313 0.415279,-0.0411 0.04036,0.01203 0.08345,0.508761 0.09576,1.103845 0.01231,0.595081 0.0727,1.014985 0.134213,0.933115 0.09819,-0.1307 0.103649,-1.337556 0.0098,-2.164597 -0.05173,-0.455935 0.35864,-0.235437 0.666039,0.357869 0.147642,0.28496 0.308675,0.852694 0.357851,1.261629 0.05201,0.43246 0.131596,0.628658 0.19024,0.468969 0.05551,-0.150986 0.02076,-0.604504 -0.07711,-1.007781 -0.176748,-0.728333 -0.17563,-0.733244 0.167364,-0.735146 0.220754,-0.0013 0.421017,0.120982 0.555261,0.338683 0.115482,0.18733 0.233211,0.268962 0.261621,0.181413 0.0284,-0.08755 -0.0035,-0.220045 -0.07102,-0.29443 -0.06896,-0.07602 -0.006,-0.361155 0.144078,-0.651172 0.198914,-0.384716 0.219555,-0.585507 0.08118,-0.789507 -0.169136,-0.249331 -0.180411,-0.234421 -0.127203,0.168247 0.117319,0.88789 -0.957868,1.026216 -1.946326,0.2504 -0.148019,-0.116179 -0.270099,-0.0826 -0.394285,0.108389 -0.279475,0.429825 -1.698263,0.533651 -2.325374,0.170171 -0.430323,-0.249417 -0.48615,-0.360717 -0.409843,-0.817071 l 0.08834,-0.528322 -0.461217,0.304932 c -0.353212,0.233522 -0.483249,0.436557 -0.555293,0.867015 -0.269507,1.610244 -0.07005,2.308664 0.536295,1.877863 0.258934,-0.183973 0.279814,-0.174877 0.345006,0.150283 0.03816,0.190355 0.0118,0.887368 -0.05851,1.54891 -0.160417,1.508589 0.0091,2.225053 0.471508,1.992161 z m -0.33276,-0.590386 c -0.02897,-0.161968 7.11e-4,-0.744528 0.06597,-1.294582 0.21168,-1.784338 -0.04892,-2.55795 -0.671101,-1.992228 -0.202817,0.184415 -0.234988,0.150607 -0.264575,-0.278006 -0.01852,-0.26837 0.04535,-0.858663 0.141937,-1.311755 l 0.175615,-0.82381 0.205189,0.499254 c 0.157166,0.382404 0.336418,0.538379 0.765841,0.666403 l 0.560649,0.167146 -0.192989,1.734618 c -0.282981,2.543475 -0.376613,3.033948 -0.568283,2.976807 -0.09106,-0.02714 -0.189277,-0.181881 -0.218251,-0.343847 z m -1.588657,-5.212877 c 0.01944,-0.257057 -0.01156,-0.553065 -0.06907,-0.657799 -0.06959,-0.126951 -0.116187,-0.03464 -0.139741,0.276943 -0.01944,0.257054 0.01156,0.553063 0.06907,0.657799 0.06959,0.126951 0.116188,0.03464 0.139743,-0.276943 z m 0.847844,-0.790307 c 0.05308,-0.163592 0.339498,-0.412423 0.636475,-0.552958 0.371805,-0.175946 0.443793,-0.251336 0.231161,-0.242084 -0.16984,0.0074 -0.335569,0.0056 -0.368285,-0.0043 -0.09005,-0.02685 -0.792946,0.679758 -0.849473,0.853955 -0.02721,0.08384 0.01873,0.172796 0.102072,0.197642 0.08334,0.02485 0.194971,-0.08868 0.248055,-0.252259 z m 7.305965,2.017043 c 0.07485,-0.201886 0.06995,-0.525935 -0.01095,-0.720122 -0.08089,-0.194185 -0.126981,-0.245812 -0.102447,-0.114727 0.02453,0.131091 0.02943,0.455144 0.01095,0.720121 -0.03096,0.442945 -0.02269,0.452192 0.102447,0.114728 z M 34.16195,33.434985 c 0.09195,-0.281176 -0.377246,-1.183262 -0.654207,-1.25788 -0.09279,-0.02498 -0.06718,0.06061 0.05694,0.190265 0.124119,0.12965 0.290086,0.481614 0.368816,0.782148 0.100431,0.383328 0.168607,0.468533 0.228448,0.285469 z m -6.413637,-2.512671 c 0.299853,-0.07897 0.698731,-0.09819 0.886398,-0.0427 0.187671,0.05547 0.362417,0.03552 0.38834,-0.04435 0.02594,-0.07989 -0.03856,-0.169229 -0.143323,-0.198532 -0.337989,-0.09452 -1.658804,0.118252 -1.709823,0.275478 -0.06029,0.185819 -0.08695,0.185352 0.578408,0.01003 z m 3.756615,0.971457 c 0.02593,-0.07989 -0.02107,-0.165582 -0.10441,-0.190428 -0.08334,-0.02485 -0.172749,0.02019 -0.198669,0.100071 -0.02594,0.07989 0.02107,0.165581 0.104411,0.190428 0.08334,0.02485 0.172748,-0.02019 0.198668,-0.100071 z M 30.032062,31.18294 c 0.198764,0.02127 0.378181,-0.01305 0.398707,-0.07631 0.02052,-0.06327 -0.143298,-0.134596 -0.364053,-0.158535 -0.220753,-0.02394 -0.420107,0.01422 -0.443008,0.08479 -0.0229,0.07057 -0.0217,0.124503 0.0027,0.119837 0.02434,-0.0047 0.206929,0.0088 0.40569,0.03022 z m 2.373434,0.496409 c 0.02511,-0.07737 -0.05663,-0.171191 -0.181651,-0.208461 -0.12502,-0.03727 -0.235644,-0.04208 -0.245833,-0.01059 -0.01008,0.0314 0.07157,0.125206 0.181655,0.208461 0.11009,0.08326 0.220721,0.08805 0.245829,0.01059 z m 2.668933,0.482078 c -0.263073,-0.260909 -0.715901,-0.513374 -1.125892,-0.627715 l -0.685826,-0.191265 0.733355,0.337185 c 0.403346,0.185457 0.853481,0.454082 1.000302,0.59695 0.146825,0.142862 0.323464,0.273605 0.392538,0.290528 0.06908,0.01691 -0.07243,-0.165631 -0.314478,-0.405678 z m -3.183818,-0.944041 c 0.0251,-0.07734 0.264795,-0.182219 0.532675,-0.233075 0.292321,-0.05549 0.392338,-0.123243 0.250159,-0.169457 -0.130278,-0.0424 -0.450071,0.03866 -0.710629,0.180017 -0.260558,0.141362 -0.39366,0.280895 -0.295788,0.310073 0.09788,0.02919 0.198483,-0.01015 0.22358,-0.08755 z m -0.912091,-0.26224 c 0.04941,-0.152245 -0.570212,-0.736572 -0.707647,-0.667345 -0.0616,0.03103 0.06441,0.218537 0.280035,0.416674 0.215629,0.198139 0.408053,0.310942 0.427609,0.250675 z m 0.647496,-0.458876 c 0.05185,-0.159777 0.06812,-0.298297 0.03617,-0.307823 -0.03195,-0.0095 -0.136181,0.102781 -0.231617,0.249553 -0.09544,0.146778 -0.111721,0.285299 -0.03618,0.30782 0.07555,0.02252 0.179772,-0.08978 0.23162,-0.249552 z"
       style="display:inline;fill:#000000;stroke-width:0.15537177" />
  </g>
  <g
     style="display:inline"
     id="g330"
     inkscape:groupmode="layer"
     inkscape:label="F.Cu">
    <path
       style="fill:#211f21;stroke-width:0.07749845"
       d="m 11.34,56.809632 c 0.1039,-0.09589 0.28297,-0.418492 0.39796,-0.71686 0.36819,-0.955389 1.18923,-2.443046 2.09594,-3.797678 l 0.88201,-1.317725 -0.19004,-2.595947 C 14.3133,45.477546 14.18778,40.869798 14.18436,35.844348 l -0.002,-3.198768 -0.44633,-0.482412 c -0.54244,-0.58629 -0.88294,-1.10953 -1.11205,-1.708888 -0.1126,-0.294595 -0.19266,-0.415613 -0.23037,-0.348242 -0.15937,0.284787 -0.97221,6.620925 -1.19124,9.285819 -0.47988,5.838603 -0.59859,9.743916 -0.46646,15.34469 0.0512,2.168816 0.0605,2.247459 0.26618,2.247459 0.0821,0 0.2342,-0.07846 0.33809,-0.174374 z m 6.0026,-3.034483 c 0.39557,-0.102306 0.76971,-0.227909 0.83144,-0.279138 0.0859,-0.07127 0.10344,-0.223184 0.0748,-0.646901 -0.0206,-0.304569 -0.09,-1.913858 -0.15419,-3.576203 -0.10737,-2.778353 -0.22331,-5.213562 -0.42616,-8.951069 -0.0428,-0.788548 -0.11387,-3.42156 -0.15794,-5.851133 -0.0857,-4.723781 0.004,-12.161256 0.16188,-13.512185 0.094,-0.801248 0.0723,-0.941278 -0.14592,-0.941278 -0.0814,0 -0.19449,-0.05609 -0.25138,-0.124634 -0.0879,-0.105883 -0.0813,-0.140851 0.0441,-0.232495 0.0811,-0.05932 0.21931,-0.107871 0.30707,-0.107883 0.0878,-8e-6 0.82217,-0.04955 1.63203,-0.1101 0.80986,-0.06054 1.87353,-0.132702 2.36371,-0.160351 0.49017,-0.02765 1.05322,-0.0972 1.25121,-0.15456 0.19799,-0.05735 0.55434,-0.128566 0.79188,-0.158244 0.30042,-0.03753 0.44361,-0.09261 0.47042,-0.180963 0.0735,-0.242417 0.5083,-2.530255 0.50861,-2.676566 2.9e-4,-0.135883 -0.0455,-0.143524 -0.6003,-0.100119 -0.96482,0.07549 -1.77702,0.419569 -2.3007,0.974675 -0.28572,0.302868 -0.56319,0.320832 -0.63342,0.04102 -0.0421,-0.167666 0.0113,-0.262905 0.32789,-0.585046 0.66246,-0.67407 1.47081,-0.983998 2.91031,-1.115846 l 0.5172,-0.04737 0.31372,-0.827574 c 0.41971,-1.107155 0.56743,-1.364729 0.79902,-1.39322 0.13985,-0.01721 0.21194,0.02885 0.28042,0.179165 0.1167,0.256127 0.47863,2.032173 0.47863,2.348706 0,0.205371 0.0793,0.297449 0.58155,0.675464 0.55151,0.415082 0.74361,0.687958 0.6224,0.884086 -0.0882,0.14267 -0.31408,0.0893 -0.62828,-0.148436 -0.50935,-0.385397 -0.51697,-0.371686 -0.46146,0.830953 0.0609,1.319778 0.0777,1.402635 0.29384,1.449691 0.34844,0.07586 3.75008,0.197123 5.50214,0.196151 1.57873,-9.26e-4 1.86152,-0.02 2.29218,-0.154998 0.2702,-0.0847 0.64619,-0.153997 0.83554,-0.153997 0.23969,0 0.35829,-0.03655 0.39044,-0.120309 0.0506,-0.131897 -0.17426,-2.633027 -0.24737,-2.751318 -0.14871,-0.240623 -1.13,0.03971 -1.72949,0.494101 -0.56529,0.428461 -0.66968,-0.07432 -0.11652,-0.561223 0.35518,-0.312649 1.12737,-0.62618 1.5422,-0.62618 0.0996,0 0.20007,-0.03085 0.22338,-0.06856 0.0233,-0.03771 -0.0102,-0.46953 -0.0745,-0.959597 -0.12147,-0.926256 -0.079,-1.29679 0.14863,-1.29679 0.13917,0 0.65044,0.792358 1.21089,1.876605 0.34904,0.675256 0.49558,0.877936 0.78445,1.084978 0.47719,0.342015 0.99722,0.957885 0.99722,1.181006 0,0.316873 -0.19758,0.276847 -0.58749,-0.11902 -0.20648,-0.209627 -0.40006,-0.381142 -0.43017,-0.381142 -0.0661,0 0.54511,2.404043 0.64302,2.529166 0.0379,0.04837 0.33576,0.112976 0.662,0.143548 0.32623,0.03057 0.7525,0.103943 0.94726,0.163066 0.61679,0.187221 0.65331,0.169468 0.59261,-0.288074 -0.029,-0.218483 -0.1403,-0.66313 -0.24739,-0.98811 -0.10707,-0.324978 -0.31518,-1.040458 -0.46243,-1.589952 -0.41433,-1.546015 -0.95304,-2.674404 -1.85844,-3.89273 -1.42532,-1.91794 -3.22618,-2.932634 -6.73297,-3.793707 -2.15008,-0.527939 -4.35959,-0.535544 -6.88542,-0.0237 -3.3535,0.67957 -5.0922,1.542593 -7.05617,3.502407 -2.57406,2.56862 -3.13938,4.02543 -4.11606,10.606916 -0.19406,1.30771 -0.35283,2.470309 -0.35283,2.583555 0,0.189899 0.0536,0.155685 0.68978,-0.440192 l 0.68979,-0.646096 0.0455,-1.046229 c 0.16215,-3.732736 0.2889,-4.862918 0.70614,-6.296249 0.32355,-1.11147 0.96677,-2.383577 1.20522,-2.383577 0.17141,0 0.0348,0.498759 -0.46476,1.696261 -0.68832,1.650139 -0.927,3.624011 -0.97097,8.029794 -0.0136,1.363973 -0.0709,3.264625 -0.12734,4.223668 -0.13545,2.302084 -0.13904,13.447257 -0.005,16.158424 0.12322,2.49608 0.30635,5.322756 0.39914,6.161125 0.0401,0.36231 0.0968,1.042358 0.12597,1.511223 0.0292,0.468866 0.0842,0.935977 0.12222,1.038029 0.0668,0.179121 0.0885,0.183812 0.6287,0.135412 0.30774,-0.02756 0.88318,-0.133835 1.27874,-0.236133 z M 42.46685,38.965613 c -0.0416,-0.937731 -0.0926,-2.088583 -0.11338,-2.557449 -0.0844,-1.902791 -0.35845,-6.279703 -0.46832,-7.478601 -0.21492,-2.345187 -0.87401,-8.018455 -0.95436,-8.214834 l -0.0793,-0.193746 -0.004,0.193746 c -0.002,0.106565 0.0833,1.048167 0.18988,2.092457 0.73228,7.173421 0.78403,9.645804 0.38502,18.399453 -0.10499,2.303206 -0.28316,6.878328 -0.38959,10.003732 -0.0247,0.724609 -0.014,1.36216 0.0237,1.416778 0.0648,0.09392 1.05311,0.33202 1.21887,0.293653 0.0426,-0.0098 0.10034,-0.314897 0.12829,-0.677841 0.22114,-4.431687 0.2317,-9.382199 0.0632,-13.277348 z m -1.9836,11.411651 c 0.0498,-0.82006 0.13319,-11.793505 0.0893,-11.749579 -0.0159,0.01588 -0.23887,0.900528 -0.49552,1.965873 -0.56174,2.331794 -1.12378,3.796926 -1.87586,4.890039 -0.44747,0.650373 -0.44521,0.676733 0.10825,1.258068 1.30663,1.372467 1.54006,1.80068 1.37752,2.527001 l -0.0944,0.421753 0.3727,0.700442 c 0.20498,0.385247 0.39559,0.701085 0.42359,0.701855 0.028,7.94e-4 0.0705,-0.321183 0.0944,-0.715452 z"
       id="path404-61"
       inkscape:connector-curvature="0"
       sodipodi:nodetypes="ccsccscsscsccccsscscsccccsccccscccsccccsccccsccsccscsccscssssccccccssssssscssssccccccccccsccccsscsccccccccscccccccc" />
  </g>
  <g
     style="display:inline"
     id="g332"
     inkscape:groupmode="layer"
     inkscape:label="F.Mask">
    <path
       sodipodi:nodetypes="ccccccccccccccccccccccscccccccccccc"
       inkscape:connector-curvature="0"
       id="path1624"
       d="m 23.050642,30.227539 -0.278443,-0.120467 -0.421785,-0.250566 -0.609709,-0.593005 -0.517834,-0.743342 -0.300679,-0.676526 -0.11693,-0.638942 -0.0167,-0.868626 0.108578,-0.755872 0.183748,-0.785104 0.313206,-0.69323 0.434313,-0.751696 0.350792,-0.3842 1.143117,-0.522371 0.944941,-0.248048 1.275669,0.0059 0.891787,0.188988 0.566963,0.248047 0.431131,0.537434 0.330729,0.534482 0.194892,0.463612 0.191942,0.688034 c 0,0 0.09745,0.584682 0.09745,0.599447 0,0.01476 0.02953,0.575823 0.02953,0.575823 l -0.003,0.764812 -0.04134,0.528577 -0.124024,0.71461 -0.191941,0.454753 -0.354352,0.626022 -0.313012,0.383882 -0.42227,0.298246 -0.623069,0.298249 -0.121071,0.02363 c 0,0 -0.256905,0.197848 -3.032668,0.09745 z"
       style="fill:#000000;stroke:none;stroke-width:0.26458332px;stroke-linecap:butt;stroke-linejoin:miter;stroke-opacity:1" />
    <path
       sodipodi:nodetypes="ccccccccccccccccccccccscccccccccccc"
       inkscape:connector-curvature="0"
       id="path1624-9-3-7"
       d="m 35.034243,30.110863 -0.26805,-0.120467 -0.406042,-0.250566 -0.586951,-0.593004 -0.498505,-0.743343 -0.289456,-0.676526 -0.112565,-0.638942 -0.01608,-0.868626 0.104525,-0.755872 0.17689,-0.785104 0.301515,-0.69323 0.418102,-0.751696 0.337698,-0.3842 1.100449,-0.522371 0.90967,-0.248048 1.228054,0.0059 0.8585,0.188988 0.545801,0.248047 0.415038,0.537434 0.318385,0.534482 0.187617,0.463612 0.184778,0.688034 c 0,0 0.09381,0.584682 0.09381,0.599447 0,0.01476 0.02843,0.575823 0.02843,0.575823 l -0.0029,0.764812 -0.0398,0.528577 -0.119395,0.71461 -0.184776,0.454754 -0.341127,0.626021 -0.301327,0.383883 -0.406509,0.298246 -0.599813,0.298248 -0.116552,0.02363 c 0,0 -0.247315,0.197849 -2.919471,0.09745 z"
       style="display:inline;fill:#000000;stroke:none;stroke-width:0.25959846px;stroke-linecap:butt;stroke-linejoin:miter;stroke-opacity:1" />
    <path
       style="fill:#211f21;stroke-width:0.07749845"
       d="m 16.459888,13.06679 c 1.73474,-1.927105 3.49362,-3.1353559 5.47971,-3.7642219 0.42703,-0.135211 0.60061,-0.226832 0.60061,-0.31701 0,-0.359462 -1.24504,-1.16087 -2.50276,-1.610978 -0.44899,-0.160681 -0.59748,-0.248005 -0.57844,-0.340163 0.0649,-0.314123 1.42233,0.156223 2.45472,0.850566 0.36678,0.246675 0.69547,0.418069 0.73262,0.382021 0.0895,-0.08683 0.19628,-0.655277 0.20048,-1.067299 0.004,-0.393661 -0.50073,-1.343778 -1.25488,-2.362137 -0.65465,-0.883997 -2.44719,-2.657008 -3.16709,-3.132575 -0.81965,-0.541466 -1.71693,-0.906325 -2.10189,-0.854691 -0.62757,0.08418 -1.06277,0.659362 -1.53609,2.030209 -0.90843,2.631065 -1.00701,5.956584 -0.25383,8.5634179 0.3824,1.323536 0.9002,2.480111 1.11034,2.480111 0.0247,0 0.39208,-0.385761 0.8165,-0.85725 z m 19.0883,-3.2307919 c 0.0392,-0.0746 0.11488,-0.571553 0.16827,-1.104354 0.19201,-1.915965 -0.0728,-4.351008 -0.63315,-5.822936 -0.18652,-0.489919 -0.27799,-0.626661 -0.5314,-0.794359 -0.17665,-0.116893 -0.41558,-0.202568 -0.56495,-0.202568 -0.37394,0 -1.01342,0.206366 -1.68351,0.543275 -1.4421,0.725077 -3.53627,2.660053 -4.29179,3.965551 -0.20166,0.348445 -0.2064,0.381861 -0.12106,0.852483 0.17731,0.97779 0.16452,0.952231 0.49026,0.979251 0.20228,0.01678 0.4929,-0.0583 0.92752,-0.2396 1.11493,-0.46511 2.1054,-0.639618 2.1054,-0.370951 0,0.07367 -0.23611,0.179509 -0.69747,0.312653 -0.97006,0.279938 -1.03495,0.307953 -0.89124,0.384796 0.0639,0.03419 0.30805,0.08563 0.54248,0.114319 0.91572,0.112056 4.23194,1.10939 4.80432,1.44487 0.18022,0.1056279 0.2984,0.08602 0.37632,-0.06243 z m -10.95427,-1.180795 c 0.67044,-0.125743 2.53288,-0.37884 2.84807,-0.387038 0.032,-8.2e-4 0.0581,-0.212343 0.0581,-0.470025 0,-0.397267 -0.0297,-0.498177 -0.19508,-0.66359 -0.48785,-0.487858 -1.63312,-0.775646 -2.80782,-0.705562 -0.84299,0.05029 -1.07949,0.162745 -1.13355,0.53898 -0.0887,0.617592 -0.1816,1.808501 -0.14573,1.869091 0.0217,0.03666 0.14838,0.04672 0.28149,0.02235 0.1331,-0.02437 0.62563,-0.116265 1.0945,-0.204202 z"
       id="path404-61-5"
       inkscape:connector-curvature="0"
       sodipodi:nodetypes="csccscccccssccccssccccccscscccccscccccccc" />
  </g>
  <g
     style="display:inline"
     id="g334"
     inkscape:groupmode="layer"
     inkscape:label="F.Silk">
    <path
       style="fill:#211f21;stroke-width:0.07763558"
       d="m 10.34728,75.000061 c -0.0179,-0.05347 -0.0604,-0.37367 -0.0944,-0.71156 L 10.19108,73.674153 9.72962,73.394111 C 9.189,73.066018 8.8730002,72.651482 8.7200802,72.069732 c -0.0959,-0.365005 -0.095,-0.497421 0.007,-1.038907 0.0645,-0.341322 0.1825,-0.799668 0.26219,-1.018561 0.12239,-0.336204 0.14219,-0.591146 0.1275,-1.642347 -0.0134,-0.960818 -0.0454,-1.297535 -0.1404,-1.477688 -0.39068,-0.741017 -0.30973,-1.506423 0.2644398,-2.500207 0.28907,-0.500344 0.39549,-0.800446 0.58888,-1.660642 0.12982,-0.577467 0.39495,-1.744308 0.58916,-2.592991 0.19421,-0.848682 0.35312,-1.601582 0.35312,-1.673121 0,-0.07154 -0.0757,-0.164607 -0.16829,-0.206835 -0.40592,-0.185169 -0.45721,-0.375122 -0.53687,-1.988422 -0.12021,-2.434239 -0.0993,-7.758128 0.0411,-10.45425 0.34101,-6.550708 0.7574,-10.625948 1.66478,-16.293429 0.0856,-0.534689 0.36715,-2.442072 0.62568,-4.238625 0.92669,-6.440031 1.32765,-8.233523 2.25414,-10.082748 0.16743,-0.334168 0.30441,-0.662829 0.30441,-0.730359 0,-0.06752 -0.17605,-0.528563 -0.39122,-1.024528 -1.41635,-3.264585 -1.5655,-7.1123407 -0.41514,-10.70961 0.54237,-1.6960621 1.17164,-2.42045779 2.18193,-2.51178513 1.00155,-0.0905396 2.50417,0.77392652 4.04707,2.32829153 1.08463,1.0926976 1.70958,1.8432666 2.3085,2.7725505 l 0.41999,0.6516399 0.39997,-0.053599 c 0.21998,-0.029484 0.60922,-0.081427 0.86496,-0.1154274 0.60635,-0.080615 1.55869,0.035104 2.28535,0.2777082 l 0.58038,0.1937629 0.23335,-0.2640671 c 0.12835,-0.1452376 0.38887,-0.4834422 0.57895,-0.7515635 0.42757,-0.6031338 1.68297,-1.8146317 2.5606,-2.4710625 1.3307,-0.9953058 2.94822,-1.6487612 3.67888,-1.4862115 0.79127,0.1760303 1.22737,0.7351708 1.57984,2.025537 0.49491,1.8118017 0.55043,2.585112 0.45351,6.3168128 l -0.0161,0.6198823 0.64303,0.515152 c 0.72167,0.578152 1.15103,1.025573 1.74909,1.822642 0.94533,1.259903 1.44561,2.317877 1.9925,4.213671 0.82981,2.87653 0.89699,3.210287 1.19475,5.935697 0.10514,0.962441 0.24435,2.204862 0.30933,2.760938 0.46559,3.983982 0.87971,10.723582 1.0394,16.915617 0.0913,3.538047 -0.11103,10.630253 -0.31242,10.953862 -0.13071,0.210044 -0.39808,0.323214 -0.76362,0.323214 -0.16597,0 -0.32363,0.03549 -0.35034,0.07887 -0.0267,0.04338 0.19379,0.752089 0.49002,1.574905 0.58046,1.612307 0.89365,2.736308 1.67374,6.006854 0.57027,2.390852 0.51789,2.229299 0.96383,2.972735 0.31655,0.527741 0.33683,0.596054 0.33475,1.127873 -10e-4,0.31136 -0.0437,0.671023 -0.0945,0.799256 -0.056,0.141587 -0.0994,0.766601 -0.11037,1.59144 -0.0178,1.333117 -0.014,1.368182 0.20112,1.891775 0.34524,0.840173 0.46167,1.524871 0.34496,2.028682 -0.14034,0.605891 -0.34591,0.842088 -1.0552,1.212404 -0.61906,0.32321 -0.62924,0.333409 -0.88276,0.884342 -0.14105,0.306541 -0.36574,0.706091 -0.49931,0.887885 -0.24076,0.327689 -0.24701,0.33053 -0.72673,0.330029 l -0.48388,-7.97e-4 0.35477,-0.305192 c 0.23254,-0.200045 0.45748,-0.508262 0.6529,-0.894637 0.29403,-0.581336 0.29696,-0.59582 0.21249,-1.051628 -0.11211,-0.604973 -0.2758,-0.93789 -0.68663,-1.396438 -0.39606,-0.442077 -0.74669,-0.628618 -1.18158,-0.628618 -0.52587,0 -0.63012,-0.202608 -0.86033,-1.672115 -0.1697,-1.083223 -0.31548,-1.78366 -0.38596,-1.854386 -0.0487,-0.0489 -0.11747,-0.04045 -0.19483,0.02397 -0.0942,0.07849 -0.11954,0.277646 -0.11954,0.940946 0,0.533439 -0.0315,0.86095 -0.0862,0.894827 -0.12151,0.07536 -0.19852,-0.08165 -0.25699,-0.523988 -0.0658,-0.497687 -0.19134,-0.764357 -0.3599,-0.764357 -0.0746,0 -0.41485,0.119909 -0.75605,0.266464 -0.66155,0.28416 -1.81057,0.665614 -2.46587,0.818636 -0.63415,0.148084 -0.707,0.275491 -0.77091,1.348287 -0.0521,0.87456 -0.12808,1.131569 -0.26756,0.905085 -0.035,-0.0569 -0.0854,-0.280121 -0.11188,-0.496043 -0.0994,-0.81044 -0.2059,-1.20981 -0.34201,-1.282918 -0.0906,-0.04864 -0.44001,-0.02352 -1.04062,0.0748 -1.37105,0.224448 -3.01313,0.325263 -4.83433,0.296813 -1.40966,-0.02204 -1.66102,-0.0083 -1.76511,0.09579 -0.0863,0.08633 -0.14321,0.390023 -0.19687,1.049937 -0.10119,1.244552 -0.13746,1.433991 -0.27464,1.433991 -0.18054,0 -0.25279,-0.303296 -0.33527,-1.407572 -0.0521,-0.697735 -0.11213,-1.063399 -0.18683,-1.138371 -0.071,-0.0713 -0.4092,-0.135349 -0.95375,-0.180676 -3.20179,-0.266506 -3.90123,-0.3344 -4.82075,-0.467982 -1.07975,-0.156852 -1.36637,-0.141685 -1.48381,0.07851 -0.0389,0.07288 -0.11022,0.585064 -0.15858,1.138206 -0.0988,1.130643 -0.16025,1.448459 -0.2881,1.491227 -0.20883,0.06985 -0.28196,-0.339603 -0.29359,-1.643699 -0.01,-1.108781 -0.0312,-1.328024 -0.13648,-1.405297 -0.0686,-0.05034 -0.46225,-0.169338 -0.87471,-0.264423 -0.64887,-0.149573 -0.77161,-0.158436 -0.9107,-0.06576 -0.27395,0.182537 -0.53336,1.078119 -0.58677,2.02571 -0.046,0.816773 -0.0548,0.849093 -0.28001,1.036853 -0.55671,0.464056 -0.6905,0.631254 -0.93377,1.166971 -0.28132,0.619504 -0.33522,0.659799 -1.22988,0.919345 -0.35565,0.103174 -0.60182,0.121096 -1.09591,0.07978 -0.4382,-0.03663 -0.65393,-0.02618 -0.69068,0.03351 -0.0659,0.106999 -0.0666,0.966399 -8.7e-4,1.173927 0.0423,0.133649 0.01,0.151761 -0.26966,0.151761 -0.18505,0 -0.33126,-0.04059 -0.35027,-0.09722 z m 0.54523,-2.161939 c -0.19401,-0.20815 -0.35275,-0.432459 -0.35275,-0.498456 0,-0.214177 0.14822,-0.127121 0.30346,0.178249 0.12013,0.236305 0.25323,0.345327 0.64094,0.524965 0.41024,0.190086 0.58573,0.226142 1.08582,0.223075 0.66548,-0.004 0.84979,-0.102746 1.04167,-0.5577 0.15016,-0.356041 0.1393,-0.947097 -0.0185,-1.007873 -0.15925,-0.06133 -0.2767,0.119235 -0.22397,0.344306 0.0328,0.139908 0.008,0.174989 -0.12538,0.174989 -0.15044,0 -0.16168,-0.02951 -0.11728,-0.308115 0.0411,-0.258246 0.0239,-0.321634 -0.10635,-0.391601 -0.23075,-0.123929 -0.18997,-0.21663 0.13518,-0.307239 0.47471,-0.132301 0.76145,-0.0996 1.01666,0.115889 0.20068,0.169471 0.2563,0.183905 0.38875,0.100882 0.28586,-0.179149 0.34538,-0.405418 0.29503,-1.121455 -0.0276,-0.391958 -0.0959,-0.74693 -0.16376,-0.8509 -0.34341,-0.525961 -2.3144,-0.676878 -4.07475,-0.311997 -0.70963,0.147093 -0.83544,0.271253 -1.11909,1.104475 -0.27755,0.815296 -0.3423898,1.613642 -0.16031,1.973935 0.29658,0.586853 0.62854,0.75241 0.53805,0.268327 -0.0638,-0.341125 -0.013,-0.344075 0.19199,-0.01113 0.2405,0.390528 0.54298,0.665753 0.8125,0.739292 0.38536,0.105146 0.38802,0.02141 0.0121,-0.381895 z m 33.47532,-0.335974 c 0.53874,-0.253933 0.6782,-0.436696 0.72009,-0.943556 0.0423,-0.512303 -0.0503,-0.907422 -0.46487,-1.983194 -0.44595,-1.157133 -0.39119,-1.115913 -1.41769,-1.067273 -1.43338,0.06793 -1.66442,0.228218 -1.72916,1.199665 l -0.0321,0.482373 -0.2237,-0.04491 c -0.1672,-0.03356 -0.2237,-0.01538 -0.2237,0.07196 0,0.184437 0.16265,0.268924 0.59378,0.308425 0.3229,0.02957 0.47829,0.09918 0.8059,0.360949 0.38386,0.306724 0.42604,0.321622 0.7777,0.274811 0.40519,-0.05395 0.76756,0.0057 0.76756,0.126477 0,0.04195 -0.1395,0.07628 -0.31,0.07628 -0.25518,0 -0.30999,0.02669 -0.30999,0.150955 0,0.08302 0.0349,0.172586 0.0775,0.199022 0.0426,0.02642 0.0775,0.213993 0.0775,0.416782 0,0.597514 0.21826,0.688426 0.89123,0.371213 z m -3.17326,-2.777979 c 0.0799,-0.129685 -0.0998,-0.278387 -0.20666,-0.171099 -0.0894,0.08974 -0.0335,0.255647 0.0863,0.255647 0.0376,0 0.0918,-0.03805 0.12042,-0.08455 z m -9.76898,-0.305452 c 1.70031,-0.139759 4.33056,-0.69579 5.88989,-1.245118 1.70502,-0.600647 2.92773,-1.499431 3.13746,-2.306271 0.0536,-0.206256 0.11446,-0.32869 0.1352,-0.272084 0.0207,0.0566 -0.0208,0.256662 -0.0923,0.444553 -0.0715,0.187885 -0.11885,0.439048 -0.10522,0.55814 0.0344,0.300789 0.28295,0.311108 1.58602,0.06586 0.66072,-0.124359 1.33279,-0.199307 1.78713,-0.199307 h 0.7282 l 0.1123,-0.269708 c 0.0618,-0.148344 0.11172,-0.472075 0.11102,-0.719401 -0.001,-0.447883 -0.0779,-0.636947 -0.49721,-1.227066 -0.17767,-0.250049 -0.53009,-1.541671 -1.0611,-3.889004 -0.46041,-2.035255 -0.71805,-2.949622 -1.271,-4.510832 -0.50778,-1.433667 -0.93185,-2.438245 -1.11624,-2.644276 -0.0766,-0.08554 -0.18046,-0.326016 -0.23087,-0.534365 -0.16633,-0.687414 -1.10678,-2.447095 -1.4101,-2.638463 -0.0946,-0.0597 -0.22373,-0.01216 -0.54249,0.199661 -0.23008,0.152896 -0.61014,0.353457 -0.84457,0.445689 -0.4343,0.170862 -0.69749,0.354347 -0.69749,0.486266 0,0.04039 -0.12848,0.282325 -0.2855,0.537634 -0.71091,1.155829 -2.0296,1.900736 -3.70127,2.090777 -0.38489,0.04375 -0.73079,0.110653 -0.76866,0.148659 -0.0787,0.07894 0.95364,2.110671 2.30482,4.536269 0.49536,0.889241 0.90064,1.669781 0.90064,1.734534 0,0.117126 -0.25678,0.25076 -1.66621,0.867131 l -0.69749,0.305025 0.003,0.382535 c 0.002,0.210394 0.0313,0.510761 0.0655,0.667487 0.0848,0.388143 7e-5,0.423146 -1.37414,0.567974 -1.23826,0.130496 -4.43544,0.162297 -4.61869,0.04596 -0.1366,-0.08674 -0.0481,-1.619978 0.31664,-5.487478 0.26891,-2.851116 0.28929,-3.268206 0.16577,-3.392167 -0.0491,-0.04926 -0.38638,-0.116728 -0.74954,-0.149948 -2.04701,-0.187236 -3.6377,-0.920888 -4.86009,-2.24155 -0.39744,-0.429395 -0.56977,-0.557535 -0.84627,-0.629259 -0.19096,-0.04955 -0.80057,-0.230263 -1.35468,-0.401616 -0.55412,-0.171351 -1.07723,-0.318078 -1.16248,-0.326059 -0.15151,-0.01415 -0.15436,0.024 -0.1267,1.698985 0.0305,1.84352 0.0318,1.836797 -0.37704,1.922866 -0.10655,0.02244 -0.54169,0.132125 -0.96695,0.243755 -0.5338,0.140121 -0.97231,0.202963 -1.41626,0.202963 -0.78566,0 -0.74628,0.06753 -0.85206,-1.461028 -0.0423,-0.611088 -0.0974,-1.131627 -0.12246,-1.156769 -0.11975,-0.120172 -0.34159,0.130148 -0.97857,1.104177 -0.807,1.23402 -1.66822,2.938696 -2.04168,4.041236 -0.14489,0.42775 -0.40696,1.372692 -0.58239,2.099865 -0.73771,3.057981 -0.88283,3.685499 -0.98516,4.259779 -0.0872,0.489345 -0.1895,0.739977 -0.53726,1.316101 -0.37805,0.626314 -0.42956,0.761143 -0.42956,1.124423 0,0.461862 0.18557,1.007645 0.37744,1.110072 0.0775,0.04139 0.45554,0.0092 0.97878,-0.08312 1.23569,-0.218245 3.20484,-0.174654 3.87492,0.08578 0.25575,0.0994 0.56499,0.251075 0.68722,0.33706 0.29578,0.208091 0.54503,0.117846 0.87553,-0.316999 0.31838,-0.418864 0.3894,-0.787609 0.25775,-1.338221 -0.17495,-0.731724 -0.17506,-1.477135 -2.9e-4,-2.735362 0.20378,-1.468079 0.69319,-3.612569 0.95561,-4.18725 0.18719,-0.409938 0.19559,-0.417239 0.20167,-0.175259 0.004,0.138867 -0.1495,0.89388 -0.34,1.677796 -0.33931,1.396282 -0.66204,3.557563 -0.66028,4.421849 5.8e-4,0.227761 0.0528,0.58591 0.11624,0.795889 0.24591,0.813478 0.10673,1.367635 -0.51406,2.046887 -0.33624,0.367884 -0.36081,0.450458 -0.16489,0.554072 0.25772,0.136308 1.61195,0.472308 2.69307,0.66819 3.26501,0.591564 9.92003,0.977787 12.78725,0.742106 z M 15.01817,68.623335 c 0.0555,-0.116226 0.12064,-0.37842 0.14475,-0.58265 0.0432,-0.366291 0.0398,-0.373617 -0.25533,-0.539039 -0.60976,-0.341828 -1.15737,-0.446605 -2.31412,-0.442779 -1.11746,0.0037 -2.38174,0.182354 -2.64202,0.373348 -0.10115,0.07422 -0.14232,0.251408 -0.17003,0.731698 -0.0424,0.734419 -0.10696,0.696147 0.84665,0.501515 0.45529,-0.09292 1.02811,-0.132192 1.92665,-0.132065 1.10535,1.57e-4 1.33652,0.02207 1.70497,0.161596 0.53259,0.201679 0.63245,0.192247 0.75848,-0.07162 z m 26.23545,-0.227982 c 0.31833,-0.171539 1.099,-0.299639 2.12878,-0.349294 0.56624,-0.02731 1.04559,-0.07573 1.06522,-0.107605 0.0715,-0.116141 -0.0671,-0.789042 -0.19522,-0.947866 -0.11286,-0.139873 -0.21361,-0.162634 -0.7056,-0.159426 -0.31566,0.0021 -1.04474,0.09749 -1.62017,0.212092 -1.47033,0.292806 -1.33949,0.221785 -1.27537,0.692279 0.10119,0.742472 0.21587,0.868097 0.60236,0.65982 z M 31.61107,62.56604 c 0.48564,-0.04478 0.93028,-0.09963 0.98811,-0.121903 0.23497,-0.0905 0.0931,-0.825925 -0.84477,-4.379131 -0.74855,-2.835915 -0.91985,-3.655332 -0.7642,-3.655332 0.16268,0 0.75492,1.762145 1.29386,3.849759 0.62904,2.43661 0.68185,2.605399 0.81513,2.605399 0.17796,0 1.78873,-0.722941 1.82559,-0.819356 0.0209,-0.05474 -0.22754,-0.561634 -0.55218,-1.126418 -0.32463,-0.564786 -0.7318,-1.30943 -0.90482,-1.654774 -0.17303,-0.345344 -0.39713,-0.759117 -0.49802,-0.919497 -0.10089,-0.160385 -0.44993,-0.822447 -0.77565,-1.471254 -0.49513,-0.98625 -0.57491,-1.196008 -0.48663,-1.279448 0.0607,-0.05741 0.49199,-0.135367 1.01536,-0.183535 1.38443,-0.127421 2.44363,-0.559845 3.18863,-1.301789 0.33922,-0.337816 0.56918,-0.701545 0.49231,-0.778686 -0.0383,-0.03848 -1.74982,0.463516 -3.85447,1.130551 -0.23443,0.0743 -0.82968,0.250939 -1.32277,0.39254 l -0.89654,0.257446 -2.55214,-0.514749 c -2.38524,-0.481083 -4.57212,-0.932197 -4.97398,-1.026034 -0.28583,-0.06675 -0.20559,0.12967 0.19379,0.474328 1.11878,0.965499 2.71253,1.532186 4.2984,1.52837 0.64341,-0.0016 0.85199,0.02414 0.92634,0.114039 0.0769,0.09298 0.0306,0.852679 -0.23319,3.822138 -0.18104,2.038355 -0.33634,4.021079 -0.34511,4.40606 l -0.016,0.699954 0.65873,0.04187 c 0.82373,0.05236 2.17278,0.01562 3.32418,-0.09057 z M 11.34,56.956738 c 0.1039,-0.09623 0.28297,-0.419975 0.39796,-0.719399 0.36819,-0.958773 1.18923,-2.4517 2.09594,-3.81113 l 0.88201,-1.322393 -0.19004,-2.605141 C 14.3133,45.584514 14.18778,40.960446 14.18436,35.917195 l -0.002,-3.210097 -0.44633,-0.484118 c -0.54244,-0.588369 -0.88294,-1.11346 -1.11205,-1.714943 -0.1126,-0.295639 -0.19266,-0.417085 -0.23037,-0.349474 -0.15937,0.285794 -0.97221,6.644374 -1.19124,9.318707 -0.47988,5.859283 -0.59859,9.778428 -0.46646,15.39904 0.0512,2.176498 0.0605,2.255418 0.26618,2.255418 0.0821,0 0.2342,-0.07874 0.33809,-0.17499 z m 6.0026,-3.045231 c 0.39557,-0.102669 0.76971,-0.228717 0.83144,-0.280127 0.0859,-0.07152 0.10344,-0.223975 0.0748,-0.649192 -0.0206,-0.305649 -0.09,-1.920637 -0.15419,-3.58887 -0.10737,-2.788194 -0.22331,-5.232028 -0.42616,-8.982773 -0.0428,-0.791341 -0.11387,-3.433679 -0.15794,-5.871857 -0.0857,-4.740513 0.004,-12.20433 0.16188,-13.560044 0.094,-0.804085 0.0723,-0.944611 -0.14592,-0.944611 -0.0814,0 -0.19449,-0.05629 -0.25138,-0.125076 -0.0879,-0.106258 -0.0813,-0.14135 0.0441,-0.233318 0.0811,-0.05953 0.21931,-0.108253 0.30707,-0.108266 0.0878,-8e-6 0.82217,-0.04972 1.63203,-0.110489 0.80986,-0.06076 1.87353,-0.133172 2.36371,-0.160919 0.49017,-0.02775 1.05322,-0.09755 1.25121,-0.155108 0.19799,-0.05755 0.55434,-0.129021 0.79188,-0.158804 0.30042,-0.03766 0.44361,-0.09294 0.47042,-0.181604 0.0735,-0.243276 0.5083,-2.539217 0.50861,-2.686047 2.9e-4,-0.136364 -0.0455,-0.144032 -0.6003,-0.100473 -0.96482,0.07576 -1.77702,0.421055 -2.3007,0.978127 -0.28572,0.303941 -0.56319,0.321968 -0.63342,0.04116 -0.0421,-0.168259 0.0113,-0.263836 0.32789,-0.587118 0.66246,-0.676457 1.47081,-0.987483 2.91031,-1.119798 l 0.5172,-0.04754 0.31372,-0.830505 c 0.41971,-1.111077 0.56743,-1.369563 0.79902,-1.398155 0.13985,-0.01727 0.21194,0.02895 0.28042,0.1798 0.1167,0.257034 0.47863,2.039371 0.47863,2.357025 0,0.206098 0.0793,0.298502 0.58155,0.677856 0.55151,0.416552 0.74361,0.690395 0.6224,0.887218 -0.0882,0.143175 -0.31408,0.08962 -0.62828,-0.148962 -0.50935,-0.386762 -0.51697,-0.373003 -0.46146,0.833896 0.0609,1.324453 0.0777,1.407603 0.29384,1.454826 0.34844,0.07613 3.75008,0.197821 5.50214,0.196846 1.57873,-9.3e-4 1.86152,-0.02007 2.29218,-0.155547 0.2702,-0.085 0.64619,-0.154543 0.83554,-0.154543 0.23969,0 0.35829,-0.03668 0.39044,-0.120735 0.0506,-0.132364 -0.17426,-2.642353 -0.24737,-2.761063 -0.14871,-0.241475 -1.13,0.03985 -1.72949,0.495851 -0.56529,0.429979 -0.66968,-0.07458 -0.11652,-0.563211 0.35518,-0.313756 1.12737,-0.628398 1.5422,-0.628398 0.0996,0 0.20007,-0.03096 0.22338,-0.0688 0.0233,-0.03784 -0.0102,-0.471194 -0.0745,-0.962996 -0.12147,-0.929537 -0.079,-1.301383 0.14862,-1.301383 0.13918,0 0.65045,0.795164 1.21089,1.883251 0.34905,0.677648 0.49558,0.881046 0.78445,1.088821 0.4772,0.343227 0.99722,0.961278 0.99722,1.185189 0,0.317996 -0.19758,0.277828 -0.58748,-0.119441 -0.20649,-0.21037 -0.40007,-0.382492 -0.43017,-0.382492 -0.0661,0 0.54511,2.412558 0.64301,2.538124 0.0379,0.04854 0.33576,0.113376 0.66201,0.144056 0.32622,0.03068 0.75249,0.104311 0.94725,0.163644 0.6168,0.187884 0.65332,0.170068 0.59262,-0.289094 -0.029,-0.219257 -0.14031,-0.665479 -0.2474,-0.99161 C 40.37694,18.162104 40.16882,17.44409 40.02157,16.892649 39.60724,15.341158 39.06853,14.208773 38.16314,12.986131 36.73781,11.061398 34.93695,10.04311 31.43016,9.1789884 29.28008,8.6491795 27.07057,8.6415476 24.54474,9.1552045 c -3.3535,0.681976 -5.0922,1.5480555 -7.05617,3.5148115 -2.57406,2.577718 -3.13938,4.039688 -4.11606,10.644485 -0.19406,1.312342 -0.35283,2.479058 -0.35283,2.592705 0,0.190572 0.0536,0.156237 0.68978,-0.441751 l 0.68979,-0.648384 0.0455,-1.049935 c 0.16215,-3.745957 0.2889,-4.880142 0.70614,-6.31855 0.32355,-1.115406 0.96677,-2.392019 1.20522,-2.392019 0.17141,0 0.0348,0.500525 -0.46476,1.702269 -0.68832,1.655984 -0.927,3.636847 -0.97097,8.058235 -0.0136,1.368804 -0.0709,3.276188 -0.12734,4.238629 -0.13545,2.310238 -0.13904,13.494886 -0.005,16.215656 0.12322,2.50492 0.30635,5.341608 0.39914,6.182946 0.0401,0.363591 0.0968,1.046048 0.12597,1.516577 0.0292,0.470525 0.0842,0.939291 0.12222,1.041705 0.0668,0.179753 0.0885,0.18446 0.6287,0.135891 0.30774,-0.02766 0.88318,-0.134308 1.27874,-0.236969 z m 25.06108,-1.537616 c 0.0279,-0.364228 0.0934,-2.163803 0.14537,-3.999049 0.0931,-3.28397 0.0702,-5.873257 -0.0822,-9.325326 -0.0416,-0.941052 -0.0926,-2.095981 -0.11338,-2.566507 -0.0844,-1.909531 -0.35845,-6.301945 -0.46832,-7.505088 -0.21492,-2.353494 -0.87401,-8.046856 -0.95436,-8.243931 l -0.0793,-0.194432 -0.004,0.194432 c -0.002,0.106942 0.0833,1.05188 0.18988,2.099868 0.73228,7.19883 0.78402,9.679968 0.38501,18.464622 -0.10498,2.311364 -0.28315,6.90269 -0.38958,10.039164 -0.0247,0.727176 -0.014,1.366985 0.0237,1.421797 0.0648,0.09425 1.05311,0.333196 1.21886,0.294693 0.0426,-0.0098 0.10035,-0.316013 0.1283,-0.680243 z m -10.76,-0.6193 c 1.77159,-1.186995 2.6881,-1.859038 2.6881,-1.971086 0,-0.167041 -0.45091,-0.202876 -2.53813,-0.2017 -2.49747,0.0016 -6.52999,0.214156 -6.6671,0.351749 -0.10609,0.106471 0.13066,0.28044 0.92467,0.679424 2.72853,1.371079 3.92063,1.923345 4.15874,1.926614 0.19967,0.0027 0.51879,-0.17198 1.43372,-0.785001 z m -3.90243,0.263566 c -0.005,-0.0994 -1.00331,-0.686041 -1.8568,-1.091549 -2.39291,-1.136927 -5.68679,-2.848652 -6.3109,-3.279581 -0.24055,-0.166089 -0.33949,-0.300769 -0.41021,-0.558432 -0.20523,-0.747703 -0.59778,-1.072841 -0.7239,-0.599586 -0.0615,0.230865 0.0608,2.773641 0.15092,3.137457 0.0486,0.196326 0.13886,0.266991 0.57129,0.447447 0.63557,0.26522 2.34212,0.702899 4.63035,1.18754 0.95904,0.203123 2.19708,0.466209 2.75119,0.584631 1.14128,0.243908 1.20244,0.252688 1.19806,0.172073 z m 6.10783,-0.492577 c 0.70384,-0.217451 1.89305,-0.605905 2.6427,-0.863242 1.91881,-0.658661 2.49844,-0.967711 2.69347,-1.436126 0.15197,-0.365003 0.0209,-0.643637 -0.70838,-1.5063 -0.58732,-0.694697 -0.84555,-0.931988 -1.01424,-0.931988 -0.10408,0 -0.22967,0.288194 -0.3312,0.760029 -0.0393,0.182747 -0.16215,0.427735 -0.27293,0.54441 -0.11078,0.116672 -0.43691,0.469255 -0.72471,0.783514 -0.36857,0.402449 -0.99299,0.906741 -2.112,1.70569 -0.87379,0.623872 -1.63978,1.180451 -1.7022,1.236842 -0.21704,0.196105 0.21409,0.113563 1.52949,-0.292829 z m 6.63417,-1.023993 c 0.0498,-0.822965 0.13319,-11.835277 0.0893,-11.791196 -0.0159,0.01593 -0.23887,0.903718 -0.49552,1.972835 -0.56174,2.340053 -1.12378,3.810376 -1.87586,4.907361 -0.44747,0.652675 -0.44521,0.67913 0.10825,1.262523 1.30663,1.377329 1.54006,1.807057 1.37752,2.535951 l -0.0944,0.423248 0.3727,0.702923 c 0.20497,0.386611 0.39559,0.703568 0.42359,0.704341 0.028,7.96e-4 0.0705,-0.322321 0.0944,-0.717986 z M 25.77937,49.590146 c 1.62597,-0.160471 3.97259,-0.247819 6.55102,-0.24386 l 2.68727,0.0042 0.45142,-0.334469 c 0.58622,-0.434338 0.59166,-0.441762 1.10874,-1.512253 0.24264,-0.502322 0.6609,-1.262589 0.92945,-1.689485 1.23931,-1.969971 1.96274,-3.908124 2.58305,-6.920236 0.56495,-2.74327 0.71345,-4.526181 0.70934,-8.516141 -0.003,-2.964874 -0.0157,-3.247972 -0.21579,-4.821918 -0.35809,-2.817267 -0.64214,-4.667319 -0.73016,-4.755659 -0.0602,-0.0604 -0.17276,7.7e-4 -0.3984,0.216424 l -0.31451,0.300609 0.15183,0.44111 c 0.18416,0.535078 0.22886,0.958803 0.10114,0.958803 -0.0504,0 -0.23451,-0.286387 -0.40908,-0.636416 -0.73419,-1.472059 -2.36037,-2.256936 -3.84215,-1.854417 -0.99438,0.270121 -1.71551,0.918164 -2.27742,2.046609 -0.2723,0.546856 -0.44084,0.579376 -0.35958,0.06939 0.08,-0.501958 0.60526,-1.532121 1.01,-1.980821 0.20408,-0.226237 0.35352,-0.428928 0.33209,-0.45043 -0.0214,-0.02151 -1.32494,-0.07171 -2.89671,-0.111568 -3.2562,-0.08256 -4.16403,-0.137467 -4.32396,-0.261512 -0.0879,-0.06814 -0.12304,-0.402836 -0.16046,-1.526084 -0.0264,-0.79134 -0.0639,-1.516673 -0.0835,-1.611853 -0.0283,-0.137615 -0.14769,-0.207233 -0.58315,-0.33997 -0.35727,-0.108901 -0.57397,-0.140448 -0.62347,-0.09076 -0.10348,0.103848 -0.26383,0.743487 -0.4949,1.974065 -0.221,1.176982 -0.23195,1.140931 0.40959,1.349194 0.50105,0.162657 1.18272,0.61342 1.64262,1.086201 0.19002,0.19535 0.39205,0.355183 0.44893,0.355183 0.0569,0 0.27121,-0.157491 0.47627,-0.349979 0.39542,-0.371177 0.57992,-0.432355 0.66139,-0.219302 0.036,0.09404 -0.083,0.254583 -0.42463,0.572779 l -0.4746,0.442103 0.20042,0.636717 c 0.23046,0.732114 0.24374,0.862003 0.0881,0.862003 -0.0618,0 -0.25711,-0.279278 -0.43452,-0.621502 -0.80798,-1.558536 -2.58321,-2.41343 -4.14181,-1.994568 -1.07362,0.28853 -1.95703,1.036623 -2.45596,2.079779 -0.30875,0.645526 -0.496,0.719651 -0.42154,0.166871 0.0806,-0.598175 0.60331,-1.597099 1.09283,-2.088359 0.4429,-0.444467 0.51342,-0.575366 0.30994,-0.575366 -0.34138,0 -3.32816,0.246929 -3.38067,0.279493 -0.1096,0.06798 -0.21099,0.593297 -0.31382,1.625946 -0.16687,1.675879 -0.1394,15.142163 0.0384,18.821052 0.20674,4.277731 0.17155,4.039575 0.75294,5.095539 0.26868,0.488019 0.58782,1.088143 0.70918,1.333619 0.12137,0.245477 0.33386,0.532289 0.47221,0.637361 0.2229,0.169277 2.06512,1.167964 3.58399,1.942911 0.61282,0.312678 0.92029,0.341133 2.25861,0.209056 z m 2.88279,-15.636382 c -0.57266,-0.303601 -0.99524,-1.06843 -0.99524,-1.801269 0,-0.334737 0.20042,-0.425563 0.26918,-0.121986 0.0218,0.09624 0.0766,0.348851 0.12183,0.561347 0.11035,0.518687 0.31447,0.829052 0.68132,1.035961 0.3762,0.212188 0.74867,0.218993 1.07449,0.01965 0.32274,-0.197483 0.49226,-0.538032 0.53823,-1.081281 0.0542,-0.640271 0.095,-0.788418 0.21739,-0.788418 0.12154,0 0.16157,0.106907 0.23296,0.622186 0.0627,0.452912 0.33952,0.994741 0.61266,1.19939 0.2955,0.221405 0.88831,0.220871 1.18678,-0.0011 0.42083,-0.312918 0.5524,-0.5951 0.76721,-1.645523 0.0197,-0.09623 0.0923,-0.174989 0.16132,-0.174989 0.30145,0 -0.0479,1.404699 -0.46164,1.856397 -0.23369,0.255107 -0.73077,0.473025 -1.08368,0.475083 -0.42745,0.0024 -0.77568,-0.172124 -1.0658,-0.534424 -0.14066,-0.175652 -0.27607,-0.318938 -0.3009,-0.318409 -0.0248,5.31e-4 -0.12472,0.124202 -0.22195,0.274827 -0.0972,0.150629 -0.28905,0.342553 -0.42625,0.4265 -0.32562,0.199241 -0.92807,0.19742 -1.30791,-0.004 z m -6.08029,-3.961097 c -0.69746,-0.401452 -1.39706,-1.315965 -1.66009,-2.170088 -0.25034,-0.812891 -0.15378,-2.191249 0.22327,-3.187084 0.18825,-0.497188 0.7111,-1.397518 0.92372,-1.590619 0.14983,-0.136074 0.15357,-0.130325 0.20357,0.313229 0.10698,0.948832 0.61667,1.318654 1.71064,1.241179 0.96765,-0.06853 1.70261,-0.263386 2.07842,-0.551042 0.44869,-0.343436 0.69243,-0.782506 0.63915,-1.151359 -0.0615,-0.425985 0.0816,-0.435719 0.46731,-0.03177 0.44633,0.467459 0.77383,1.130647 0.97417,1.972676 0.21673,0.910916 0.17658,2.603159 -0.0787,3.317244 -0.20054,0.560952 -0.56394,1.143089 -0.88039,1.410302 -0.30137,0.254485 -0.97336,0.597415 -1.09148,0.557009 -0.0499,-0.0171 0.0609,-0.109042 0.24633,-0.204388 0.36068,-0.18549 0.98009,-0.721464 1.10546,-0.956561 0.15772,-0.295745 -0.63664,-1.383381 -1.01036,-1.383381 -0.10254,0 -0.15809,0.07708 -0.194,0.26918 -0.062,0.331792 -0.41526,0.698621 -0.7933,0.823825 -0.17555,0.05814 -0.51097,0.07845 -0.87827,0.05319 -0.9263,-0.06372 -1.4161,-0.383111 -1.5431,-1.006227 -0.0274,-0.134751 -0.0863,-0.257167 -0.13074,-0.272034 -0.24904,-0.0833 -1.19393,0.954846 -1.19393,1.311767 0,0.20885 0.50422,0.732932 0.97981,1.018398 0.22834,0.137059 0.41516,0.29352 0.41516,0.347689 0,0.141833 -0.0691,0.124152 -0.51264,-0.13113 z m 12.05319,-0.224581 c -0.74452,-0.473826 -1.44769,-1.537233 -1.61056,-2.435621 -0.0915,-0.504627 -0.003,-1.595989 0.19022,-2.350007 0.12699,-0.495231 0.61853,-1.465961 0.92097,-1.81881 l 0.1744,-0.203477 0.0863,0.491813 c 0.10801,0.615319 0.24869,0.833295 0.65828,1.019916 0.39494,0.179953 0.68439,0.185716 1.5673,0.0312 1.20097,-0.210176 1.84448,-0.729558 1.85891,-1.500359 0.004,-0.194459 0.044,-0.366066 0.0897,-0.381352 0.13278,-0.04441 0.64259,0.597461 0.89077,1.121506 0.26415,0.557751 0.5253,1.73332 0.52677,2.371239 0.004,1.651612 -0.50487,2.903196 -1.42162,3.497818 -0.45228,0.293355 -0.66982,0.36802 -0.66982,0.229899 0,-0.03813 0.0843,-0.09058 0.18737,-0.116535 0.22697,-0.05717 1.02646,-0.775513 1.0913,-0.980541 0.0986,-0.311643 -0.67386,-1.360743 -0.96102,-1.305244 -0.0648,0.0125 -0.14117,0.13772 -0.1698,0.278231 -0.13988,0.686322 -1.08497,1.049039 -2.04655,0.785446 -0.49002,-0.134327 -0.80044,-0.414432 -0.90029,-0.812386 -0.0595,-0.237012 -0.12773,-0.346138 -0.21651,-0.346138 -0.15293,0 -0.69993,0.548135 -0.92481,0.926728 -0.13942,0.234719 -0.14554,0.289064 -0.0526,0.466639 0.13203,0.252233 0.61989,0.717478 0.95109,0.907001 0.13852,0.07927 0.25187,0.189082 0.25187,0.244021 0,0.146682 -0.0857,0.124715 -0.47172,-0.120992 z m -20.2887,1.109026 c 0.0264,-0.638191 0.0748,-2.108418 0.1077,-3.267171 0.0553,-1.948507 0.0498,-2.11066 -0.0727,-2.157843 -0.18726,-0.07211 -0.87266,0.641894 -1.18217,1.231521 -0.6905,1.315395 -0.64936,3.169805 0.0977,4.403958 0.32543,0.537626 0.77798,1.024089 0.91146,0.979786 0.0601,-0.01997 0.10602,-0.415717 0.13801,-1.190251 z M 39.35432,20.544128 c 0.45556,-0.43276 0.40309,-0.501174 -0.45857,-0.597916 -0.35418,-0.03976 -0.66948,-0.113737 -0.70066,-0.164366 -0.0312,-0.05062 -0.13319,-0.408332 -0.22668,-0.794882 -0.29593,-1.223582 -0.69644,-2.486835 -0.83204,-2.624307 -0.072,-0.07298 -0.2791,-0.156207 -0.46026,-0.184929 l -0.32937,-0.05222 2.4e-4,0.340476 c 5.3e-4,0.578246 0.23675,2.740948 0.30905,2.828381 0.0376,0.04547 0.20137,0.130536 0.3639,0.189025 0.44292,0.159383 1.02386,0.561887 1.45509,1.008154 0.21152,0.218898 0.41407,0.397995 0.45013,0.397995 0.036,0 0.22916,-0.155435 0.42915,-0.345408 z m -2.42676,-4.78691 c 0.0618,-0.100324 -0.51811,-1.21191 -0.61956,-1.187629 -0.10789,0.02582 -0.14167,0.838409 -0.0426,1.024193 0.0447,0.08383 0.17719,0.166983 0.29442,0.184805 0.11723,0.01781 0.23725,0.03765 0.2667,0.04405 0.0294,0.0064 0.0749,-0.02303 0.10103,-0.06542 z m -10.57811,-0.2234 c 0,-0.192326 -0.13012,-0.900944 -0.24115,-1.313311 -0.15255,-0.566611 -0.29288,-0.433903 -0.65324,0.617756 -0.19806,0.578036 -0.18365,0.617359 0.2744,0.748688 0.43991,0.12613 0.61999,0.110686 0.61999,-0.05313 z M 16.4717,13.107456 c 1.73474,-1.933931 3.49362,-3.1464605 5.47971,-3.7775529 0.42703,-0.1356899 0.60061,-0.2276355 0.60061,-0.3181329 0,-0.3607362 -1.24504,-1.1649817 -2.50276,-1.6166849 -0.44899,-0.1612491 -0.59748,-0.2488834 -0.57844,-0.3413669 0.0649,-0.3152356 1.42233,0.1567764 2.45472,0.8535777 0.36678,0.2475497 0.69547,0.4195508 0.73262,0.3833751 0.0895,-0.087138 0.19628,-0.657598 0.20048,-1.0710803 C 22.86264,6.8245366 22.35791,5.8710533 21.60376,4.8490884 20.94911,3.9619593 19.15657,2.1826694 18.43667,1.705418 17.61702,1.1620342 16.71974,0.7958829 16.33478,0.84769979 15.70721,0.93217795 15.27201,1.5093972 14.79869,2.8850996 c -0.90843,2.640384 -1.00701,5.9776818 -0.25383,8.5937474 0.3824,1.328223 0.9002,2.488895 1.11034,2.488895 0.0247,0 0.39208,-0.387127 0.8165,-0.860286 z M 35.56,9.8652214 c 0.0392,-0.074864 0.11487,-0.5735764 0.16827,-1.1082645 0.192,-1.9227522 -0.0728,-4.36642 -0.63316,-5.8435604 C 34.9086,2.4217422 34.81712,2.2845159 34.56371,2.1162239 34.38707,1.9989169 34.14814,1.9129384 33.99877,1.9129384 c -0.37394,0 -1.01343,0.207097 -1.68351,0.5451993 -1.4421,0.7276451 -3.53627,2.6694737 -4.29179,3.9795967 -0.20166,0.3496781 -0.2064,0.3832135 -0.12106,0.8555024 0.17731,0.9812523 0.16452,0.9556027 0.49026,0.9827194 0.20228,0.016839 0.4929,-0.058507 0.92752,-0.2404496 1.11493,-0.4667564 2.1054,-0.6418835 2.1054,-0.3722639 0,0.073931 -0.23611,0.1801448 -0.69748,0.3137604 -0.97005,0.2809295 -1.03494,0.3090427 -0.89123,0.3861579 0.0639,0.034311 0.30805,0.085933 0.54248,0.1147249 0.91572,0.1124529 4.23194,1.1133184 4.80432,1.4499867 0.18022,0.1060024 0.29839,0.086324 0.37632,-0.062651 z M 24.60573,8.6802451 c 0.67044,-0.1261883 2.53288,-0.3801818 2.84807,-0.3884088 0.032,-8.229e-4 0.0581,-0.2130951 0.0581,-0.4716898 0,-0.3986751 -0.0297,-0.4999415 -0.19508,-0.6659404 -0.48785,-0.489587 -1.63312,-0.7783933 -2.80782,-0.708061 -0.84299,0.050468 -1.07949,0.1633204 -1.13355,0.540889 -0.0887,0.6197794 -0.1816,1.8149066 -0.14573,1.8757112 0.0217,0.03679 0.14838,0.046885 0.28149,0.022429 0.1331,-0.024456 0.62563,-0.1166778 1.0945,-0.2049262 z"
       id="path404-5"
       inkscape:connector-curvature="0"
       sodipodi:nodetypes="ccccccccccccsscsscsscssscccccccscssccscsccscsccssccccccccccscccssccsccscscccccccssscsccsccccccccccccscccsccccccscccccccccccccccscsccccscccssscssccsccccccccscccccscccccsccccsscccscscscccccccsccsccccsccccccccccccccsccccsccccsccccccscccccssssccccccccscccsccccscccccccccsccscsscscccccscscsccccsccccscccsccccsccccsccsccscsccscssssccccccssssssscssssccccccccccsssccccsscsccccscsccccscccccccccsccscscscccscccscccccccsscscsccccscsccccccccscsscscscccscsccssccscsccccscccccsccccsccccccccccccssscsccscccsccsccscsccccccccscccscsssccccssccscccccccccssccccccscsccccccccscscscssccsscsssccscccccsscccsssccccccscsccccc" />
  </g>
  <g
     id="g336"
     inkscape:groupmode="layer"
     inkscape:label="Drill" />
</svg>
