G04 #@! TF.FileFunction,Copper,L1,Top,Signal*
%FSLAX46Y46*%
G04 Gerber Fmt 4.6, Leading zero omitted, Abs format (unit mm)*
G04 Created by KiCad (PCBNEW 4.0.5+dfsg1-4) date Sun Sep 22 16:13:37 2019*
%MOMM*%
%LPD*%
G01*
G04 APERTURE LIST*
%ADD10C,0.100000*%
%ADD11C,0.010000*%
%ADD12R,1.727200X1.727200*%
%ADD13O,1.727200X1.727200*%
%ADD14C,0.600000*%
%ADD15C,0.250000*%
G04 APERTURE END LIST*
D10*
D11*
G36*
X80690460Y-32553150D02*
X81114146Y-32564116D01*
X81499068Y-32584969D01*
X81868072Y-32617640D01*
X82244002Y-32664058D01*
X82649703Y-32726156D01*
X82999167Y-32786301D01*
X83617291Y-32913940D01*
X84275807Y-33081367D01*
X84945697Y-33279881D01*
X85597943Y-33500785D01*
X86203528Y-33735379D01*
X86297972Y-33775236D01*
X86848949Y-34024092D01*
X87408220Y-34301508D01*
X87960643Y-34598711D01*
X88491074Y-34906929D01*
X88984373Y-35217390D01*
X89425396Y-35521321D01*
X89772500Y-35788081D01*
X90234042Y-36208142D01*
X90687182Y-36700963D01*
X91123528Y-37254638D01*
X91534694Y-37857260D01*
X91912287Y-38496922D01*
X92247920Y-39161718D01*
X92411347Y-39533167D01*
X92774865Y-40486750D01*
X93066440Y-41428804D01*
X93285184Y-42354645D01*
X93430209Y-43259590D01*
X93500629Y-44138956D01*
X93495555Y-44988059D01*
X93482899Y-45188248D01*
X93456516Y-45485395D01*
X93420482Y-45814993D01*
X93379197Y-46140269D01*
X93337062Y-46424448D01*
X93329653Y-46468831D01*
X93266076Y-46813797D01*
X93194512Y-47154956D01*
X93117861Y-47482258D01*
X93039023Y-47785651D01*
X92960898Y-48055084D01*
X92886386Y-48280504D01*
X92818385Y-48451861D01*
X92759795Y-48559102D01*
X92717015Y-48592500D01*
X92668273Y-48559855D01*
X92585570Y-48471901D01*
X92482156Y-48343613D01*
X92410035Y-48245587D01*
X92261936Y-48054482D01*
X92085812Y-47852685D01*
X91913502Y-47676120D01*
X91868229Y-47634261D01*
X91718708Y-47489791D01*
X91603767Y-47357841D01*
X91538333Y-47255920D01*
X91532394Y-47240341D01*
X91506085Y-47136634D01*
X91478541Y-46987629D01*
X91449211Y-46788353D01*
X91417546Y-46533830D01*
X91382995Y-46219083D01*
X91345008Y-45839138D01*
X91303037Y-45389019D01*
X91256530Y-44863750D01*
X91211635Y-44338000D01*
X91152338Y-43678289D01*
X91089798Y-43066145D01*
X91024809Y-42507332D01*
X90958163Y-42007610D01*
X90890655Y-41572743D01*
X90823075Y-41208492D01*
X90756219Y-40920620D01*
X90727571Y-40820720D01*
X90648460Y-40614721D01*
X90563702Y-40480198D01*
X90478370Y-40419718D01*
X90397536Y-40435851D01*
X90326272Y-40531164D01*
X90297829Y-40603129D01*
X90282695Y-40662380D01*
X90272325Y-40739062D01*
X90267136Y-40839532D01*
X90267544Y-40970144D01*
X90273965Y-41137256D01*
X90286817Y-41347224D01*
X90306515Y-41606403D01*
X90333476Y-41921150D01*
X90368117Y-42297821D01*
X90410854Y-42742772D01*
X90462103Y-43262358D01*
X90491071Y-43552337D01*
X90571765Y-44371726D01*
X90641897Y-45116283D01*
X90702049Y-45795109D01*
X90752806Y-46417301D01*
X90794749Y-46991958D01*
X90828463Y-47528180D01*
X90854531Y-48035064D01*
X90873535Y-48521710D01*
X90886059Y-48997217D01*
X90892686Y-49470684D01*
X90894137Y-49841334D01*
X90887831Y-50541428D01*
X90867983Y-51178325D01*
X90832907Y-51772660D01*
X90780919Y-52345070D01*
X90710333Y-52916188D01*
X90619462Y-53506652D01*
X90572541Y-53778334D01*
X90444889Y-54366604D01*
X90268512Y-54985981D01*
X90051359Y-55616348D01*
X89801380Y-56237590D01*
X89526522Y-56829588D01*
X89234734Y-57372227D01*
X89008809Y-57735848D01*
X88840165Y-57983140D01*
X88661042Y-58235749D01*
X88477991Y-58485450D01*
X88297559Y-58724020D01*
X88126296Y-58943235D01*
X87970749Y-59134871D01*
X87837469Y-59290702D01*
X87733004Y-59402507D01*
X87663903Y-59462060D01*
X87636715Y-59461137D01*
X87636564Y-59459107D01*
X87645714Y-59398242D01*
X87672027Y-59273645D01*
X87711438Y-59103545D01*
X87759230Y-58908774D01*
X87849952Y-58529756D01*
X87947122Y-58091129D01*
X88045797Y-57617176D01*
X88141033Y-57132187D01*
X88227889Y-56660445D01*
X88286469Y-56318334D01*
X88414633Y-55432384D01*
X88508391Y-54536190D01*
X88567701Y-53621044D01*
X88592526Y-52678239D01*
X88582827Y-51699067D01*
X88538563Y-50674821D01*
X88459695Y-49596793D01*
X88346185Y-48456276D01*
X88247275Y-47625414D01*
X88098856Y-46510024D01*
X87943949Y-45461530D01*
X87782982Y-44481895D01*
X87616385Y-43573079D01*
X87444586Y-42737045D01*
X87268014Y-41975755D01*
X87087099Y-41291171D01*
X86902268Y-40685255D01*
X86713951Y-40159968D01*
X86522577Y-39717274D01*
X86515441Y-39702500D01*
X86387355Y-39454114D01*
X86276602Y-39277570D01*
X86175379Y-39163863D01*
X86075882Y-39103984D01*
X85983528Y-39088667D01*
X85864067Y-39125136D01*
X85787552Y-39234338D01*
X85754110Y-39415962D01*
X85759910Y-39629988D01*
X85766785Y-39766126D01*
X85761125Y-39861036D01*
X85746130Y-39892656D01*
X85689094Y-39866915D01*
X85584597Y-39798818D01*
X85449302Y-39701295D01*
X85299873Y-39587272D01*
X85152976Y-39469677D01*
X85025274Y-39361439D01*
X84933432Y-39275486D01*
X84899770Y-39236065D01*
X84849491Y-39126974D01*
X84806505Y-38979601D01*
X84793506Y-38912651D01*
X84744176Y-38702672D01*
X84659639Y-38504258D01*
X84530174Y-38301126D01*
X84346064Y-38076990D01*
X84203006Y-37923241D01*
X83993002Y-37690518D01*
X83823626Y-37473407D01*
X83708151Y-37288994D01*
X83703972Y-37280824D01*
X83596816Y-37099954D01*
X83498336Y-37001521D01*
X83405937Y-36984050D01*
X83317025Y-37046064D01*
X83308711Y-37055979D01*
X83250945Y-37161281D01*
X83232000Y-37249496D01*
X83191028Y-37378329D01*
X83073509Y-37501622D01*
X82887538Y-37611801D01*
X82808667Y-37645514D01*
X82519715Y-37787947D01*
X82276471Y-37965847D01*
X82089559Y-38168485D01*
X81969603Y-38385135D01*
X81932296Y-38530392D01*
X81927804Y-38658794D01*
X81964420Y-38747562D01*
X81999419Y-38787419D01*
X82077800Y-38851820D01*
X82134590Y-38877000D01*
X82198358Y-38841942D01*
X82304953Y-38738845D01*
X82451318Y-38570823D01*
X82528266Y-38476207D01*
X82628021Y-38372771D01*
X82751732Y-38273458D01*
X82878540Y-38191605D01*
X82987588Y-38140543D01*
X83058017Y-38133608D01*
X83061401Y-38135384D01*
X83077784Y-38186274D01*
X83090293Y-38305454D01*
X83098886Y-38476633D01*
X83103525Y-38683523D01*
X83104169Y-38909832D01*
X83100779Y-39139272D01*
X83093315Y-39355552D01*
X83081737Y-39542382D01*
X83066006Y-39683473D01*
X83065193Y-39688528D01*
X83013248Y-39907665D01*
X82928045Y-40164213D01*
X82822528Y-40424636D01*
X82709641Y-40655397D01*
X82657838Y-40743884D01*
X82544180Y-40923930D01*
X82284840Y-40650158D01*
X82143616Y-40499237D01*
X81971917Y-40313031D01*
X81795489Y-40119564D01*
X81691264Y-40004075D01*
X81545524Y-39849260D01*
X81405114Y-39713276D01*
X81287279Y-39612084D01*
X81216795Y-39564890D01*
X81126918Y-39527280D01*
X81059837Y-39525789D01*
X80980409Y-39565779D01*
X80913216Y-39611216D01*
X80825520Y-39684212D01*
X80697908Y-39806177D01*
X80545622Y-39961848D01*
X80383903Y-40135957D01*
X80335595Y-40189763D01*
X79864123Y-40675488D01*
X79372729Y-41092874D01*
X79048050Y-41325767D01*
X78804989Y-41484816D01*
X78564256Y-41634753D01*
X78338172Y-41768601D01*
X78139058Y-41879385D01*
X77979233Y-41960131D01*
X77871018Y-42003862D01*
X77840084Y-42009667D01*
X77733874Y-41978450D01*
X77580511Y-41888789D01*
X77387777Y-41746665D01*
X77163451Y-41558061D01*
X76915314Y-41328960D01*
X76772226Y-41188579D01*
X76558836Y-40966746D01*
X76371202Y-40751206D01*
X76196841Y-40524847D01*
X76023270Y-40270559D01*
X75838006Y-39971231D01*
X75657204Y-39660167D01*
X75549359Y-39474997D01*
X75449554Y-39311207D01*
X75368637Y-39186114D01*
X75317454Y-39117034D01*
X75316114Y-39115614D01*
X75232901Y-39064223D01*
X75128442Y-39067357D01*
X74996638Y-39128319D01*
X74831392Y-39250410D01*
X74626607Y-39436934D01*
X74511334Y-39551479D01*
X74313026Y-39752726D01*
X74167406Y-39897517D01*
X74066911Y-39988880D01*
X74003976Y-40029840D01*
X73971037Y-40023425D01*
X73960529Y-39972660D01*
X73964888Y-39880573D01*
X73975171Y-39766000D01*
X74010898Y-39464231D01*
X74063527Y-39156176D01*
X74129029Y-38856621D01*
X74203372Y-38580351D01*
X74282527Y-38342153D01*
X74362462Y-38156811D01*
X74439147Y-38039112D01*
X74448456Y-38029749D01*
X74552015Y-37932460D01*
X74753924Y-38056989D01*
X74945245Y-38213772D01*
X75137241Y-38446239D01*
X75158240Y-38476343D01*
X75261857Y-38617520D01*
X75358559Y-38732455D01*
X75431427Y-38801504D01*
X75445789Y-38810189D01*
X75543527Y-38819090D01*
X75617828Y-38755384D01*
X75659792Y-38629874D01*
X75665879Y-38543066D01*
X75625934Y-38315012D01*
X75508768Y-38069053D01*
X75318390Y-37811175D01*
X75058803Y-37547364D01*
X74918958Y-37427062D01*
X74797416Y-37327387D01*
X74887208Y-37151380D01*
X74954289Y-36970465D01*
X74975188Y-36796020D01*
X74949404Y-36651210D01*
X74899583Y-36576395D01*
X74822380Y-36521985D01*
X74776222Y-36506334D01*
X74734044Y-36536455D01*
X74646410Y-36619835D01*
X74523595Y-36745995D01*
X74375876Y-36904456D01*
X74258052Y-37034697D01*
X74091096Y-37218518D01*
X73934279Y-37385738D01*
X73800115Y-37523411D01*
X73701121Y-37618593D01*
X73661913Y-37651294D01*
X73545757Y-37759761D01*
X73406867Y-37930872D01*
X73255893Y-38149463D01*
X73103481Y-38400370D01*
X72992736Y-38604317D01*
X72922450Y-38726667D01*
X72835285Y-38858324D01*
X72740897Y-38987623D01*
X72648942Y-39102899D01*
X72569076Y-39192485D01*
X72510957Y-39244717D01*
X72484240Y-39247929D01*
X72490764Y-39210736D01*
X72506982Y-39142087D01*
X72531963Y-39010538D01*
X72561910Y-38836918D01*
X72584784Y-38695189D01*
X72617895Y-38445187D01*
X72625594Y-38267166D01*
X72606412Y-38151898D01*
X72558881Y-38090153D01*
X72485764Y-38072667D01*
X72396906Y-38100116D01*
X72300135Y-38184549D01*
X72193987Y-38329093D01*
X72076997Y-38536875D01*
X71947702Y-38811023D01*
X71804638Y-39154664D01*
X71646342Y-39570925D01*
X71471349Y-40062933D01*
X71278195Y-40633817D01*
X71257174Y-40697334D01*
X71003363Y-41501034D01*
X70775096Y-42301217D01*
X70569800Y-43110331D01*
X70384898Y-43940825D01*
X70217816Y-44805148D01*
X70065979Y-45715750D01*
X69926812Y-46685079D01*
X69797741Y-47725585D01*
X69790534Y-47788167D01*
X69746161Y-48168729D01*
X69708581Y-48475057D01*
X69676245Y-48717170D01*
X69647602Y-48905087D01*
X69621100Y-49048829D01*
X69595189Y-49158415D01*
X69568318Y-49243864D01*
X69563026Y-49258068D01*
X69530042Y-49323264D01*
X69478447Y-49366863D01*
X69388909Y-49397386D01*
X69242093Y-49423353D01*
X69162973Y-49434376D01*
X69019196Y-49467672D01*
X68916444Y-49534074D01*
X68832066Y-49652689D01*
X68780927Y-49756667D01*
X68751250Y-49830689D01*
X68728565Y-49913248D01*
X68711600Y-50017550D01*
X68699078Y-50156804D01*
X68689724Y-50344215D01*
X68682264Y-50592992D01*
X68677047Y-50832685D01*
X68670022Y-51135702D01*
X68662201Y-51361353D01*
X68652992Y-51516939D01*
X68641798Y-51609760D01*
X68628025Y-51647117D01*
X68611490Y-51637018D01*
X68597720Y-51571202D01*
X68586327Y-51431658D01*
X68577285Y-51229293D01*
X68570570Y-50975012D01*
X68566160Y-50679721D01*
X68564029Y-50354324D01*
X68564154Y-50009728D01*
X68566510Y-49656837D01*
X68571073Y-49306558D01*
X68577820Y-48969797D01*
X68586726Y-48657457D01*
X68597768Y-48380446D01*
X68610920Y-48149669D01*
X68619427Y-48042167D01*
X68701083Y-47204353D01*
X68787624Y-46439915D01*
X68880904Y-45737615D01*
X68982775Y-45086217D01*
X69095089Y-44474482D01*
X69219698Y-43891176D01*
X69358454Y-43325059D01*
X69456776Y-42962167D01*
X69526262Y-42714673D01*
X69593036Y-42476715D01*
X69651414Y-42268557D01*
X69695714Y-42110459D01*
X69712070Y-42052000D01*
X69758667Y-41901154D01*
X69829713Y-41690701D01*
X69918264Y-41439666D01*
X70017377Y-41167076D01*
X70120110Y-40891955D01*
X70219519Y-40633330D01*
X70308662Y-40410225D01*
X70330019Y-40358667D01*
X70383021Y-40239031D01*
X70467761Y-40056442D01*
X70578123Y-39823681D01*
X70707992Y-39553529D01*
X70851253Y-39258768D01*
X71001791Y-38952177D01*
X71038945Y-38877000D01*
X71196792Y-38555522D01*
X71354338Y-38230071D01*
X71504204Y-37916224D01*
X71639012Y-37629558D01*
X71751384Y-37385651D01*
X71833943Y-37200081D01*
X71840986Y-37183667D01*
X71973136Y-36891862D01*
X72111118Y-36628099D01*
X72266561Y-36374533D01*
X72451094Y-36113324D01*
X72676345Y-35826627D01*
X72897866Y-35562023D01*
X73357835Y-35048796D01*
X73801777Y-34608265D01*
X74240231Y-34232732D01*
X74683738Y-33914504D01*
X75142840Y-33645885D01*
X75628076Y-33419179D01*
X76051696Y-33259558D01*
X76363718Y-33160315D01*
X76735641Y-33053884D01*
X77143722Y-32946207D01*
X77564219Y-32843224D01*
X77973389Y-32750877D01*
X78347491Y-32675105D01*
X78490667Y-32649270D01*
X78678525Y-32618505D01*
X78850819Y-32594778D01*
X79023003Y-32577194D01*
X79210526Y-32564860D01*
X79428841Y-32556882D01*
X79693399Y-32552368D01*
X80019651Y-32550423D01*
X80205167Y-32550139D01*
X80690460Y-32553150D01*
X80690460Y-32553150D01*
G37*
X80690460Y-32553150D02*
X81114146Y-32564116D01*
X81499068Y-32584969D01*
X81868072Y-32617640D01*
X82244002Y-32664058D01*
X82649703Y-32726156D01*
X82999167Y-32786301D01*
X83617291Y-32913940D01*
X84275807Y-33081367D01*
X84945697Y-33279881D01*
X85597943Y-33500785D01*
X86203528Y-33735379D01*
X86297972Y-33775236D01*
X86848949Y-34024092D01*
X87408220Y-34301508D01*
X87960643Y-34598711D01*
X88491074Y-34906929D01*
X88984373Y-35217390D01*
X89425396Y-35521321D01*
X89772500Y-35788081D01*
X90234042Y-36208142D01*
X90687182Y-36700963D01*
X91123528Y-37254638D01*
X91534694Y-37857260D01*
X91912287Y-38496922D01*
X92247920Y-39161718D01*
X92411347Y-39533167D01*
X92774865Y-40486750D01*
X93066440Y-41428804D01*
X93285184Y-42354645D01*
X93430209Y-43259590D01*
X93500629Y-44138956D01*
X93495555Y-44988059D01*
X93482899Y-45188248D01*
X93456516Y-45485395D01*
X93420482Y-45814993D01*
X93379197Y-46140269D01*
X93337062Y-46424448D01*
X93329653Y-46468831D01*
X93266076Y-46813797D01*
X93194512Y-47154956D01*
X93117861Y-47482258D01*
X93039023Y-47785651D01*
X92960898Y-48055084D01*
X92886386Y-48280504D01*
X92818385Y-48451861D01*
X92759795Y-48559102D01*
X92717015Y-48592500D01*
X92668273Y-48559855D01*
X92585570Y-48471901D01*
X92482156Y-48343613D01*
X92410035Y-48245587D01*
X92261936Y-48054482D01*
X92085812Y-47852685D01*
X91913502Y-47676120D01*
X91868229Y-47634261D01*
X91718708Y-47489791D01*
X91603767Y-47357841D01*
X91538333Y-47255920D01*
X91532394Y-47240341D01*
X91506085Y-47136634D01*
X91478541Y-46987629D01*
X91449211Y-46788353D01*
X91417546Y-46533830D01*
X91382995Y-46219083D01*
X91345008Y-45839138D01*
X91303037Y-45389019D01*
X91256530Y-44863750D01*
X91211635Y-44338000D01*
X91152338Y-43678289D01*
X91089798Y-43066145D01*
X91024809Y-42507332D01*
X90958163Y-42007610D01*
X90890655Y-41572743D01*
X90823075Y-41208492D01*
X90756219Y-40920620D01*
X90727571Y-40820720D01*
X90648460Y-40614721D01*
X90563702Y-40480198D01*
X90478370Y-40419718D01*
X90397536Y-40435851D01*
X90326272Y-40531164D01*
X90297829Y-40603129D01*
X90282695Y-40662380D01*
X90272325Y-40739062D01*
X90267136Y-40839532D01*
X90267544Y-40970144D01*
X90273965Y-41137256D01*
X90286817Y-41347224D01*
X90306515Y-41606403D01*
X90333476Y-41921150D01*
X90368117Y-42297821D01*
X90410854Y-42742772D01*
X90462103Y-43262358D01*
X90491071Y-43552337D01*
X90571765Y-44371726D01*
X90641897Y-45116283D01*
X90702049Y-45795109D01*
X90752806Y-46417301D01*
X90794749Y-46991958D01*
X90828463Y-47528180D01*
X90854531Y-48035064D01*
X90873535Y-48521710D01*
X90886059Y-48997217D01*
X90892686Y-49470684D01*
X90894137Y-49841334D01*
X90887831Y-50541428D01*
X90867983Y-51178325D01*
X90832907Y-51772660D01*
X90780919Y-52345070D01*
X90710333Y-52916188D01*
X90619462Y-53506652D01*
X90572541Y-53778334D01*
X90444889Y-54366604D01*
X90268512Y-54985981D01*
X90051359Y-55616348D01*
X89801380Y-56237590D01*
X89526522Y-56829588D01*
X89234734Y-57372227D01*
X89008809Y-57735848D01*
X88840165Y-57983140D01*
X88661042Y-58235749D01*
X88477991Y-58485450D01*
X88297559Y-58724020D01*
X88126296Y-58943235D01*
X87970749Y-59134871D01*
X87837469Y-59290702D01*
X87733004Y-59402507D01*
X87663903Y-59462060D01*
X87636715Y-59461137D01*
X87636564Y-59459107D01*
X87645714Y-59398242D01*
X87672027Y-59273645D01*
X87711438Y-59103545D01*
X87759230Y-58908774D01*
X87849952Y-58529756D01*
X87947122Y-58091129D01*
X88045797Y-57617176D01*
X88141033Y-57132187D01*
X88227889Y-56660445D01*
X88286469Y-56318334D01*
X88414633Y-55432384D01*
X88508391Y-54536190D01*
X88567701Y-53621044D01*
X88592526Y-52678239D01*
X88582827Y-51699067D01*
X88538563Y-50674821D01*
X88459695Y-49596793D01*
X88346185Y-48456276D01*
X88247275Y-47625414D01*
X88098856Y-46510024D01*
X87943949Y-45461530D01*
X87782982Y-44481895D01*
X87616385Y-43573079D01*
X87444586Y-42737045D01*
X87268014Y-41975755D01*
X87087099Y-41291171D01*
X86902268Y-40685255D01*
X86713951Y-40159968D01*
X86522577Y-39717274D01*
X86515441Y-39702500D01*
X86387355Y-39454114D01*
X86276602Y-39277570D01*
X86175379Y-39163863D01*
X86075882Y-39103984D01*
X85983528Y-39088667D01*
X85864067Y-39125136D01*
X85787552Y-39234338D01*
X85754110Y-39415962D01*
X85759910Y-39629988D01*
X85766785Y-39766126D01*
X85761125Y-39861036D01*
X85746130Y-39892656D01*
X85689094Y-39866915D01*
X85584597Y-39798818D01*
X85449302Y-39701295D01*
X85299873Y-39587272D01*
X85152976Y-39469677D01*
X85025274Y-39361439D01*
X84933432Y-39275486D01*
X84899770Y-39236065D01*
X84849491Y-39126974D01*
X84806505Y-38979601D01*
X84793506Y-38912651D01*
X84744176Y-38702672D01*
X84659639Y-38504258D01*
X84530174Y-38301126D01*
X84346064Y-38076990D01*
X84203006Y-37923241D01*
X83993002Y-37690518D01*
X83823626Y-37473407D01*
X83708151Y-37288994D01*
X83703972Y-37280824D01*
X83596816Y-37099954D01*
X83498336Y-37001521D01*
X83405937Y-36984050D01*
X83317025Y-37046064D01*
X83308711Y-37055979D01*
X83250945Y-37161281D01*
X83232000Y-37249496D01*
X83191028Y-37378329D01*
X83073509Y-37501622D01*
X82887538Y-37611801D01*
X82808667Y-37645514D01*
X82519715Y-37787947D01*
X82276471Y-37965847D01*
X82089559Y-38168485D01*
X81969603Y-38385135D01*
X81932296Y-38530392D01*
X81927804Y-38658794D01*
X81964420Y-38747562D01*
X81999419Y-38787419D01*
X82077800Y-38851820D01*
X82134590Y-38877000D01*
X82198358Y-38841942D01*
X82304953Y-38738845D01*
X82451318Y-38570823D01*
X82528266Y-38476207D01*
X82628021Y-38372771D01*
X82751732Y-38273458D01*
X82878540Y-38191605D01*
X82987588Y-38140543D01*
X83058017Y-38133608D01*
X83061401Y-38135384D01*
X83077784Y-38186274D01*
X83090293Y-38305454D01*
X83098886Y-38476633D01*
X83103525Y-38683523D01*
X83104169Y-38909832D01*
X83100779Y-39139272D01*
X83093315Y-39355552D01*
X83081737Y-39542382D01*
X83066006Y-39683473D01*
X83065193Y-39688528D01*
X83013248Y-39907665D01*
X82928045Y-40164213D01*
X82822528Y-40424636D01*
X82709641Y-40655397D01*
X82657838Y-40743884D01*
X82544180Y-40923930D01*
X82284840Y-40650158D01*
X82143616Y-40499237D01*
X81971917Y-40313031D01*
X81795489Y-40119564D01*
X81691264Y-40004075D01*
X81545524Y-39849260D01*
X81405114Y-39713276D01*
X81287279Y-39612084D01*
X81216795Y-39564890D01*
X81126918Y-39527280D01*
X81059837Y-39525789D01*
X80980409Y-39565779D01*
X80913216Y-39611216D01*
X80825520Y-39684212D01*
X80697908Y-39806177D01*
X80545622Y-39961848D01*
X80383903Y-40135957D01*
X80335595Y-40189763D01*
X79864123Y-40675488D01*
X79372729Y-41092874D01*
X79048050Y-41325767D01*
X78804989Y-41484816D01*
X78564256Y-41634753D01*
X78338172Y-41768601D01*
X78139058Y-41879385D01*
X77979233Y-41960131D01*
X77871018Y-42003862D01*
X77840084Y-42009667D01*
X77733874Y-41978450D01*
X77580511Y-41888789D01*
X77387777Y-41746665D01*
X77163451Y-41558061D01*
X76915314Y-41328960D01*
X76772226Y-41188579D01*
X76558836Y-40966746D01*
X76371202Y-40751206D01*
X76196841Y-40524847D01*
X76023270Y-40270559D01*
X75838006Y-39971231D01*
X75657204Y-39660167D01*
X75549359Y-39474997D01*
X75449554Y-39311207D01*
X75368637Y-39186114D01*
X75317454Y-39117034D01*
X75316114Y-39115614D01*
X75232901Y-39064223D01*
X75128442Y-39067357D01*
X74996638Y-39128319D01*
X74831392Y-39250410D01*
X74626607Y-39436934D01*
X74511334Y-39551479D01*
X74313026Y-39752726D01*
X74167406Y-39897517D01*
X74066911Y-39988880D01*
X74003976Y-40029840D01*
X73971037Y-40023425D01*
X73960529Y-39972660D01*
X73964888Y-39880573D01*
X73975171Y-39766000D01*
X74010898Y-39464231D01*
X74063527Y-39156176D01*
X74129029Y-38856621D01*
X74203372Y-38580351D01*
X74282527Y-38342153D01*
X74362462Y-38156811D01*
X74439147Y-38039112D01*
X74448456Y-38029749D01*
X74552015Y-37932460D01*
X74753924Y-38056989D01*
X74945245Y-38213772D01*
X75137241Y-38446239D01*
X75158240Y-38476343D01*
X75261857Y-38617520D01*
X75358559Y-38732455D01*
X75431427Y-38801504D01*
X75445789Y-38810189D01*
X75543527Y-38819090D01*
X75617828Y-38755384D01*
X75659792Y-38629874D01*
X75665879Y-38543066D01*
X75625934Y-38315012D01*
X75508768Y-38069053D01*
X75318390Y-37811175D01*
X75058803Y-37547364D01*
X74918958Y-37427062D01*
X74797416Y-37327387D01*
X74887208Y-37151380D01*
X74954289Y-36970465D01*
X74975188Y-36796020D01*
X74949404Y-36651210D01*
X74899583Y-36576395D01*
X74822380Y-36521985D01*
X74776222Y-36506334D01*
X74734044Y-36536455D01*
X74646410Y-36619835D01*
X74523595Y-36745995D01*
X74375876Y-36904456D01*
X74258052Y-37034697D01*
X74091096Y-37218518D01*
X73934279Y-37385738D01*
X73800115Y-37523411D01*
X73701121Y-37618593D01*
X73661913Y-37651294D01*
X73545757Y-37759761D01*
X73406867Y-37930872D01*
X73255893Y-38149463D01*
X73103481Y-38400370D01*
X72992736Y-38604317D01*
X72922450Y-38726667D01*
X72835285Y-38858324D01*
X72740897Y-38987623D01*
X72648942Y-39102899D01*
X72569076Y-39192485D01*
X72510957Y-39244717D01*
X72484240Y-39247929D01*
X72490764Y-39210736D01*
X72506982Y-39142087D01*
X72531963Y-39010538D01*
X72561910Y-38836918D01*
X72584784Y-38695189D01*
X72617895Y-38445187D01*
X72625594Y-38267166D01*
X72606412Y-38151898D01*
X72558881Y-38090153D01*
X72485764Y-38072667D01*
X72396906Y-38100116D01*
X72300135Y-38184549D01*
X72193987Y-38329093D01*
X72076997Y-38536875D01*
X71947702Y-38811023D01*
X71804638Y-39154664D01*
X71646342Y-39570925D01*
X71471349Y-40062933D01*
X71278195Y-40633817D01*
X71257174Y-40697334D01*
X71003363Y-41501034D01*
X70775096Y-42301217D01*
X70569800Y-43110331D01*
X70384898Y-43940825D01*
X70217816Y-44805148D01*
X70065979Y-45715750D01*
X69926812Y-46685079D01*
X69797741Y-47725585D01*
X69790534Y-47788167D01*
X69746161Y-48168729D01*
X69708581Y-48475057D01*
X69676245Y-48717170D01*
X69647602Y-48905087D01*
X69621100Y-49048829D01*
X69595189Y-49158415D01*
X69568318Y-49243864D01*
X69563026Y-49258068D01*
X69530042Y-49323264D01*
X69478447Y-49366863D01*
X69388909Y-49397386D01*
X69242093Y-49423353D01*
X69162973Y-49434376D01*
X69019196Y-49467672D01*
X68916444Y-49534074D01*
X68832066Y-49652689D01*
X68780927Y-49756667D01*
X68751250Y-49830689D01*
X68728565Y-49913248D01*
X68711600Y-50017550D01*
X68699078Y-50156804D01*
X68689724Y-50344215D01*
X68682264Y-50592992D01*
X68677047Y-50832685D01*
X68670022Y-51135702D01*
X68662201Y-51361353D01*
X68652992Y-51516939D01*
X68641798Y-51609760D01*
X68628025Y-51647117D01*
X68611490Y-51637018D01*
X68597720Y-51571202D01*
X68586327Y-51431658D01*
X68577285Y-51229293D01*
X68570570Y-50975012D01*
X68566160Y-50679721D01*
X68564029Y-50354324D01*
X68564154Y-50009728D01*
X68566510Y-49656837D01*
X68571073Y-49306558D01*
X68577820Y-48969797D01*
X68586726Y-48657457D01*
X68597768Y-48380446D01*
X68610920Y-48149669D01*
X68619427Y-48042167D01*
X68701083Y-47204353D01*
X68787624Y-46439915D01*
X68880904Y-45737615D01*
X68982775Y-45086217D01*
X69095089Y-44474482D01*
X69219698Y-43891176D01*
X69358454Y-43325059D01*
X69456776Y-42962167D01*
X69526262Y-42714673D01*
X69593036Y-42476715D01*
X69651414Y-42268557D01*
X69695714Y-42110459D01*
X69712070Y-42052000D01*
X69758667Y-41901154D01*
X69829713Y-41690701D01*
X69918264Y-41439666D01*
X70017377Y-41167076D01*
X70120110Y-40891955D01*
X70219519Y-40633330D01*
X70308662Y-40410225D01*
X70330019Y-40358667D01*
X70383021Y-40239031D01*
X70467761Y-40056442D01*
X70578123Y-39823681D01*
X70707992Y-39553529D01*
X70851253Y-39258768D01*
X71001791Y-38952177D01*
X71038945Y-38877000D01*
X71196792Y-38555522D01*
X71354338Y-38230071D01*
X71504204Y-37916224D01*
X71639012Y-37629558D01*
X71751384Y-37385651D01*
X71833943Y-37200081D01*
X71840986Y-37183667D01*
X71973136Y-36891862D01*
X72111118Y-36628099D01*
X72266561Y-36374533D01*
X72451094Y-36113324D01*
X72676345Y-35826627D01*
X72897866Y-35562023D01*
X73357835Y-35048796D01*
X73801777Y-34608265D01*
X74240231Y-34232732D01*
X74683738Y-33914504D01*
X75142840Y-33645885D01*
X75628076Y-33419179D01*
X76051696Y-33259558D01*
X76363718Y-33160315D01*
X76735641Y-33053884D01*
X77143722Y-32946207D01*
X77564219Y-32843224D01*
X77973389Y-32750877D01*
X78347491Y-32675105D01*
X78490667Y-32649270D01*
X78678525Y-32618505D01*
X78850819Y-32594778D01*
X79023003Y-32577194D01*
X79210526Y-32564860D01*
X79428841Y-32556882D01*
X79693399Y-32552368D01*
X80019651Y-32550423D01*
X80205167Y-32550139D01*
X80690460Y-32553150D01*
G36*
X71548102Y-32265812D02*
X71763937Y-32312997D01*
X71908443Y-32383795D01*
X71987214Y-32480539D01*
X72005299Y-32552499D01*
X72018099Y-32683831D01*
X71624299Y-32679499D01*
X71430846Y-32679770D01*
X71296221Y-32688913D01*
X71194683Y-32711783D01*
X71100487Y-32753235D01*
X71033604Y-32790914D01*
X70750019Y-33005789D01*
X70519718Y-33283319D01*
X70344672Y-33618816D01*
X70226848Y-34007592D01*
X70168216Y-34444959D01*
X70166582Y-34855334D01*
X70190935Y-35342167D01*
X69933226Y-35490334D01*
X69682394Y-35664814D01*
X69461722Y-35876195D01*
X69289264Y-36104653D01*
X69191481Y-36304762D01*
X69152828Y-36472520D01*
X69127235Y-36701747D01*
X69114681Y-36970263D01*
X69115147Y-37255887D01*
X69128613Y-37536439D01*
X69155060Y-37789736D01*
X69192988Y-37988000D01*
X69347477Y-38431096D01*
X69571573Y-38859475D01*
X69675988Y-39017812D01*
X69767783Y-39159922D01*
X69839829Y-39292563D01*
X69875689Y-39384343D01*
X69878082Y-39505634D01*
X69849709Y-39698600D01*
X69792097Y-39956654D01*
X69706776Y-40273207D01*
X69595274Y-40641669D01*
X69554446Y-40769056D01*
X69446295Y-41091873D01*
X69355208Y-41339538D01*
X69278075Y-41519129D01*
X69211782Y-41637721D01*
X69153216Y-41702390D01*
X69140290Y-41710499D01*
X69034321Y-41743638D01*
X68877803Y-41766588D01*
X68704570Y-41776087D01*
X68548456Y-41768874D01*
X68542503Y-41768121D01*
X68422279Y-41741945D01*
X68341813Y-41692805D01*
X68298572Y-41609439D01*
X68290022Y-41480583D01*
X68313626Y-41294973D01*
X68366852Y-41041345D01*
X68373000Y-41014834D01*
X68413419Y-40810674D01*
X68443343Y-40600809D01*
X68457280Y-40425169D01*
X68457667Y-40399361D01*
X68450001Y-40236940D01*
X68422621Y-40131994D01*
X68373000Y-40062334D01*
X68298199Y-40000263D01*
X68248756Y-39977667D01*
X68123249Y-40009655D01*
X67962524Y-40107325D01*
X67762743Y-40273237D01*
X67659229Y-40370695D01*
X67347178Y-40673274D01*
X67269814Y-40577735D01*
X67186994Y-40440318D01*
X67104694Y-40242035D01*
X67031250Y-40006323D01*
X66974996Y-39756621D01*
X66972171Y-39740685D01*
X66954562Y-39581251D01*
X66943235Y-39353261D01*
X66937812Y-39072563D01*
X66937916Y-38755005D01*
X66943170Y-38416435D01*
X66953197Y-38072702D01*
X66967621Y-37739654D01*
X66986064Y-37433139D01*
X67008149Y-37169005D01*
X67033499Y-36963101D01*
X67039039Y-36929667D01*
X67194708Y-36267550D01*
X67425474Y-35606010D01*
X67723383Y-34962074D01*
X68080479Y-34352772D01*
X68488808Y-33795132D01*
X68522277Y-33754667D01*
X68923837Y-33308737D01*
X69318159Y-32943988D01*
X69709994Y-32657786D01*
X70104093Y-32447498D01*
X70505208Y-32310491D01*
X70918090Y-32244131D01*
X71255342Y-32239909D01*
X71548102Y-32265812D01*
X71548102Y-32265812D01*
G37*
X71548102Y-32265812D02*
X71763937Y-32312997D01*
X71908443Y-32383795D01*
X71987214Y-32480539D01*
X72005299Y-32552499D01*
X72018099Y-32683831D01*
X71624299Y-32679499D01*
X71430846Y-32679770D01*
X71296221Y-32688913D01*
X71194683Y-32711783D01*
X71100487Y-32753235D01*
X71033604Y-32790914D01*
X70750019Y-33005789D01*
X70519718Y-33283319D01*
X70344672Y-33618816D01*
X70226848Y-34007592D01*
X70168216Y-34444959D01*
X70166582Y-34855334D01*
X70190935Y-35342167D01*
X69933226Y-35490334D01*
X69682394Y-35664814D01*
X69461722Y-35876195D01*
X69289264Y-36104653D01*
X69191481Y-36304762D01*
X69152828Y-36472520D01*
X69127235Y-36701747D01*
X69114681Y-36970263D01*
X69115147Y-37255887D01*
X69128613Y-37536439D01*
X69155060Y-37789736D01*
X69192988Y-37988000D01*
X69347477Y-38431096D01*
X69571573Y-38859475D01*
X69675988Y-39017812D01*
X69767783Y-39159922D01*
X69839829Y-39292563D01*
X69875689Y-39384343D01*
X69878082Y-39505634D01*
X69849709Y-39698600D01*
X69792097Y-39956654D01*
X69706776Y-40273207D01*
X69595274Y-40641669D01*
X69554446Y-40769056D01*
X69446295Y-41091873D01*
X69355208Y-41339538D01*
X69278075Y-41519129D01*
X69211782Y-41637721D01*
X69153216Y-41702390D01*
X69140290Y-41710499D01*
X69034321Y-41743638D01*
X68877803Y-41766588D01*
X68704570Y-41776087D01*
X68548456Y-41768874D01*
X68542503Y-41768121D01*
X68422279Y-41741945D01*
X68341813Y-41692805D01*
X68298572Y-41609439D01*
X68290022Y-41480583D01*
X68313626Y-41294973D01*
X68366852Y-41041345D01*
X68373000Y-41014834D01*
X68413419Y-40810674D01*
X68443343Y-40600809D01*
X68457280Y-40425169D01*
X68457667Y-40399361D01*
X68450001Y-40236940D01*
X68422621Y-40131994D01*
X68373000Y-40062334D01*
X68298199Y-40000263D01*
X68248756Y-39977667D01*
X68123249Y-40009655D01*
X67962524Y-40107325D01*
X67762743Y-40273237D01*
X67659229Y-40370695D01*
X67347178Y-40673274D01*
X67269814Y-40577735D01*
X67186994Y-40440318D01*
X67104694Y-40242035D01*
X67031250Y-40006323D01*
X66974996Y-39756621D01*
X66972171Y-39740685D01*
X66954562Y-39581251D01*
X66943235Y-39353261D01*
X66937812Y-39072563D01*
X66937916Y-38755005D01*
X66943170Y-38416435D01*
X66953197Y-38072702D01*
X66967621Y-37739654D01*
X66986064Y-37433139D01*
X67008149Y-37169005D01*
X67033499Y-36963101D01*
X67039039Y-36929667D01*
X67194708Y-36267550D01*
X67425474Y-35606010D01*
X67723383Y-34962074D01*
X68080479Y-34352772D01*
X68488808Y-33795132D01*
X68522277Y-33754667D01*
X68923837Y-33308737D01*
X69318159Y-32943988D01*
X69709994Y-32657786D01*
X70104093Y-32447498D01*
X70505208Y-32310491D01*
X70918090Y-32244131D01*
X71255342Y-32239909D01*
X71548102Y-32265812D01*
G36*
X93751834Y-33397266D02*
X94045283Y-33400479D01*
X94281638Y-33410148D01*
X94488380Y-33428880D01*
X94692995Y-33459282D01*
X94922965Y-33503962D01*
X94960804Y-33511941D01*
X95690499Y-33700158D01*
X96362171Y-33944411D01*
X96985282Y-34249613D01*
X97569295Y-34620674D01*
X98123674Y-35062502D01*
X98350404Y-35270787D01*
X98789771Y-35719888D01*
X99152770Y-36156566D01*
X99445164Y-36588967D01*
X99672716Y-37025234D01*
X99780417Y-37291953D01*
X99862436Y-37541699D01*
X99902876Y-37726348D01*
X99902690Y-37854013D01*
X99862828Y-37932806D01*
X99856226Y-37938701D01*
X99794583Y-37966271D01*
X99669253Y-38006281D01*
X99499260Y-38053088D01*
X99328589Y-38095240D01*
X99015004Y-38179407D01*
X98784184Y-38267727D01*
X98635638Y-38363749D01*
X98568879Y-38471024D01*
X98583416Y-38593101D01*
X98678761Y-38733531D01*
X98854424Y-38895864D01*
X99109916Y-39083649D01*
X99185362Y-39134430D01*
X99364457Y-39257864D01*
X99520067Y-39373620D01*
X99636921Y-39469734D01*
X99699746Y-39534243D01*
X99703476Y-39540285D01*
X99725626Y-39601523D01*
X99720622Y-39672641D01*
X99683451Y-39775640D01*
X99618326Y-39913826D01*
X99413911Y-40241547D01*
X99139495Y-40548936D01*
X98809074Y-40826298D01*
X98436643Y-41063937D01*
X98036198Y-41252158D01*
X97621734Y-41381263D01*
X97451878Y-41414715D01*
X97290863Y-41432003D01*
X97063938Y-41444354D01*
X96789153Y-41451903D01*
X96484556Y-41454788D01*
X96168197Y-41453145D01*
X95858126Y-41447111D01*
X95572392Y-41436822D01*
X95329045Y-41422414D01*
X95146134Y-41404024D01*
X95101187Y-41396938D01*
X94886336Y-41351948D01*
X94659878Y-41294438D01*
X94437739Y-41229651D01*
X94235843Y-41162829D01*
X94070116Y-41099215D01*
X93956482Y-41044049D01*
X93911678Y-41005371D01*
X93915594Y-40928174D01*
X93957407Y-40814521D01*
X93983937Y-40763822D01*
X94178152Y-40413572D01*
X94327181Y-40113727D01*
X94436529Y-39846874D01*
X94511697Y-39595602D01*
X94558191Y-39342500D01*
X94581513Y-39070156D01*
X94587021Y-38855834D01*
X94581079Y-38556244D01*
X94556552Y-38316268D01*
X94513848Y-38121929D01*
X94430163Y-37897932D01*
X94310687Y-37668792D01*
X94167194Y-37449904D01*
X94011458Y-37256662D01*
X93855253Y-37104459D01*
X93710354Y-37008692D01*
X93645627Y-36986742D01*
X93532765Y-36952576D01*
X93472378Y-36895410D01*
X93458454Y-36798578D01*
X93484985Y-36645416D01*
X93500427Y-36584112D01*
X93565704Y-36174883D01*
X93555908Y-35749286D01*
X93473169Y-35325712D01*
X93319618Y-34922553D01*
X93304483Y-34892019D01*
X93160219Y-34653935D01*
X92980194Y-34429444D01*
X92780213Y-34233412D01*
X92576083Y-34080705D01*
X92383609Y-33986187D01*
X92324180Y-33970059D01*
X92207739Y-33928303D01*
X92171176Y-33868984D01*
X92212111Y-33794589D01*
X92328162Y-33707605D01*
X92516950Y-33610520D01*
X92764329Y-33510153D01*
X92887510Y-33466613D01*
X92995598Y-33435787D01*
X93107198Y-33415549D01*
X93240913Y-33403771D01*
X93415350Y-33398327D01*
X93649112Y-33397090D01*
X93751834Y-33397266D01*
X93751834Y-33397266D01*
G37*
X93751834Y-33397266D02*
X94045283Y-33400479D01*
X94281638Y-33410148D01*
X94488380Y-33428880D01*
X94692995Y-33459282D01*
X94922965Y-33503962D01*
X94960804Y-33511941D01*
X95690499Y-33700158D01*
X96362171Y-33944411D01*
X96985282Y-34249613D01*
X97569295Y-34620674D01*
X98123674Y-35062502D01*
X98350404Y-35270787D01*
X98789771Y-35719888D01*
X99152770Y-36156566D01*
X99445164Y-36588967D01*
X99672716Y-37025234D01*
X99780417Y-37291953D01*
X99862436Y-37541699D01*
X99902876Y-37726348D01*
X99902690Y-37854013D01*
X99862828Y-37932806D01*
X99856226Y-37938701D01*
X99794583Y-37966271D01*
X99669253Y-38006281D01*
X99499260Y-38053088D01*
X99328589Y-38095240D01*
X99015004Y-38179407D01*
X98784184Y-38267727D01*
X98635638Y-38363749D01*
X98568879Y-38471024D01*
X98583416Y-38593101D01*
X98678761Y-38733531D01*
X98854424Y-38895864D01*
X99109916Y-39083649D01*
X99185362Y-39134430D01*
X99364457Y-39257864D01*
X99520067Y-39373620D01*
X99636921Y-39469734D01*
X99699746Y-39534243D01*
X99703476Y-39540285D01*
X99725626Y-39601523D01*
X99720622Y-39672641D01*
X99683451Y-39775640D01*
X99618326Y-39913826D01*
X99413911Y-40241547D01*
X99139495Y-40548936D01*
X98809074Y-40826298D01*
X98436643Y-41063937D01*
X98036198Y-41252158D01*
X97621734Y-41381263D01*
X97451878Y-41414715D01*
X97290863Y-41432003D01*
X97063938Y-41444354D01*
X96789153Y-41451903D01*
X96484556Y-41454788D01*
X96168197Y-41453145D01*
X95858126Y-41447111D01*
X95572392Y-41436822D01*
X95329045Y-41422414D01*
X95146134Y-41404024D01*
X95101187Y-41396938D01*
X94886336Y-41351948D01*
X94659878Y-41294438D01*
X94437739Y-41229651D01*
X94235843Y-41162829D01*
X94070116Y-41099215D01*
X93956482Y-41044049D01*
X93911678Y-41005371D01*
X93915594Y-40928174D01*
X93957407Y-40814521D01*
X93983937Y-40763822D01*
X94178152Y-40413572D01*
X94327181Y-40113727D01*
X94436529Y-39846874D01*
X94511697Y-39595602D01*
X94558191Y-39342500D01*
X94581513Y-39070156D01*
X94587021Y-38855834D01*
X94581079Y-38556244D01*
X94556552Y-38316268D01*
X94513848Y-38121929D01*
X94430163Y-37897932D01*
X94310687Y-37668792D01*
X94167194Y-37449904D01*
X94011458Y-37256662D01*
X93855253Y-37104459D01*
X93710354Y-37008692D01*
X93645627Y-36986742D01*
X93532765Y-36952576D01*
X93472378Y-36895410D01*
X93458454Y-36798578D01*
X93484985Y-36645416D01*
X93500427Y-36584112D01*
X93565704Y-36174883D01*
X93555908Y-35749286D01*
X93473169Y-35325712D01*
X93319618Y-34922553D01*
X93304483Y-34892019D01*
X93160219Y-34653935D01*
X92980194Y-34429444D01*
X92780213Y-34233412D01*
X92576083Y-34080705D01*
X92383609Y-33986187D01*
X92324180Y-33970059D01*
X92207739Y-33928303D01*
X92171176Y-33868984D01*
X92212111Y-33794589D01*
X92328162Y-33707605D01*
X92516950Y-33610520D01*
X92764329Y-33510153D01*
X92887510Y-33466613D01*
X92995598Y-33435787D01*
X93107198Y-33415549D01*
X93240913Y-33403771D01*
X93415350Y-33398327D01*
X93649112Y-33397090D01*
X93751834Y-33397266D01*
G36*
X84037756Y-38445523D02*
X84090762Y-38522089D01*
X84106882Y-38602033D01*
X84099293Y-38623875D01*
X84042872Y-38663130D01*
X83967761Y-38621949D01*
X83960134Y-38614534D01*
X83916584Y-38537174D01*
X83915697Y-38458814D01*
X83955594Y-38413506D01*
X83971344Y-38411334D01*
X84037756Y-38445523D01*
X84037756Y-38445523D01*
G37*
X84037756Y-38445523D02*
X84090762Y-38522089D01*
X84106882Y-38602033D01*
X84099293Y-38623875D01*
X84042872Y-38663130D01*
X83967761Y-38621949D01*
X83960134Y-38614534D01*
X83916584Y-38537174D01*
X83915697Y-38458814D01*
X83955594Y-38413506D01*
X83971344Y-38411334D01*
X84037756Y-38445523D01*
D12*
X84328000Y-72136000D03*
D13*
X84328000Y-69596000D03*
X86868000Y-72136000D03*
X86868000Y-69596000D03*
X89408000Y-72136000D03*
X89408000Y-69596000D03*
D14*
X80147000Y-47620000D03*
X82042000Y-47700000D03*
X70090000Y-60160000D03*
X69490000Y-51070475D03*
X60721817Y-52816183D03*
X60452000Y-57320000D03*
X77760000Y-72360000D03*
X78877000Y-68380000D03*
X83937000Y-67040000D03*
D15*
X82042000Y-47700000D02*
X80227000Y-47700000D01*
X80227000Y-47700000D02*
X80147000Y-47620000D01*
X70800000Y-59630000D02*
X70620000Y-59630000D01*
X70620000Y-59630000D02*
X70090000Y-60160000D01*
X70570000Y-59400000D02*
X70800000Y-59630000D01*
X70570000Y-59000000D02*
X70570000Y-59400000D01*
X70400000Y-58830000D02*
X70570000Y-59000000D01*
X70400000Y-58150000D02*
X70400000Y-58830000D01*
X70080000Y-57830000D02*
X70400000Y-58150000D01*
X70080000Y-55910000D02*
X70080000Y-57830000D01*
X69750000Y-55580000D02*
X70080000Y-55910000D01*
X69750000Y-55020000D02*
X69750000Y-55580000D01*
X69110000Y-54380000D02*
X69750000Y-55020000D01*
X69110000Y-53780000D02*
X69110000Y-54380000D01*
X69490000Y-51070475D02*
X69110000Y-51450475D01*
X69110000Y-51450475D02*
X69110000Y-53780000D01*
X60721817Y-52816183D02*
X60721817Y-57050183D01*
X60721817Y-57050183D02*
X60452000Y-57320000D01*
X77760000Y-72360000D02*
X78153699Y-72753699D01*
X78153699Y-72753699D02*
X82596701Y-72753699D01*
X82596701Y-72753699D02*
X83214400Y-72136000D01*
X83214400Y-72136000D02*
X84328000Y-72136000D01*
X83937000Y-67040000D02*
X82597000Y-68380000D01*
X82597000Y-68380000D02*
X78877000Y-68380000D01*
M02*
