G04 #@! TF.FileFunction,Profile,NP*
%FSLAX46Y46*%
G04 Gerber Fmt 4.6, Leading zero omitted, Abs format (unit mm)*
G04 Created by KiCad (PCBNEW 4.0.5+dfsg1-4) date Sun Sep 22 16:13:37 2019*
%MOMM*%
%LPD*%
G01*
G04 APERTURE LIST*
%ADD10C,0.100000*%
G04 APERTURE END LIST*
D10*
X56514482Y-67327468D02*
X56114599Y-66969344D01*
X56114599Y-66969344D02*
X55876562Y-66610201D01*
X55876562Y-66610201D02*
X55621821Y-65937850D01*
X55621821Y-65937850D02*
X55521595Y-65353198D01*
X55521595Y-65353198D02*
X55492362Y-64893828D01*
X55492362Y-64893828D02*
X55509065Y-64455340D01*
X55509065Y-64455340D02*
X55563354Y-63987620D01*
X55563354Y-63987620D02*
X55680285Y-63511544D01*
X55680285Y-63511544D02*
X55845983Y-63076792D01*
X55845983Y-63076792D02*
X55922498Y-62805787D01*
X55922498Y-62805787D02*
X55676109Y-62868427D01*
X55676109Y-62868427D02*
X55446424Y-62851732D01*
X55446424Y-62851732D02*
X55116513Y-62713921D01*
X55116513Y-62713921D02*
X54790779Y-62480058D01*
X54790779Y-62480058D02*
X54586150Y-62308841D01*
X54586150Y-62308841D02*
X54360642Y-62112563D01*
X54360642Y-62112563D02*
X53588066Y-61561319D01*
X53588066Y-61561319D02*
X53354205Y-61448567D01*
X53354205Y-61448567D02*
X53028470Y-61235585D01*
X53028470Y-61235585D02*
X52704250Y-60942176D01*
X52704250Y-60942176D02*
X52550698Y-60793054D01*
X52550698Y-60793054D02*
X52453251Y-60670507D01*
X52453251Y-60670507D02*
X52311509Y-60425413D01*
X52311509Y-60425413D02*
X52228828Y-60212801D01*
X52228828Y-60212801D02*
X52149098Y-59918982D01*
X52149098Y-59918982D02*
X52095946Y-59580871D01*
X52095946Y-59580871D02*
X52090040Y-59259002D01*
X52090040Y-59259002D02*
X52113663Y-58913507D01*
X52113663Y-58913507D02*
X52147622Y-58634453D01*
X52147622Y-58634453D02*
X52211110Y-58280102D01*
X52211110Y-58280102D02*
X52343992Y-57745620D01*
X52343992Y-57745620D02*
X52534457Y-57283486D01*
X52534457Y-57283486D02*
X52710157Y-56961615D01*
X52710157Y-56961615D02*
X52875521Y-56689943D01*
X52875521Y-56689943D02*
X53104374Y-56412369D01*
X53104374Y-56412369D02*
X53430674Y-56260292D01*
X53430674Y-56260292D02*
X53745162Y-56174652D01*
X53745162Y-56174652D02*
X54126091Y-56105252D01*
X54126091Y-56105252D02*
X54409573Y-56028472D01*
X54409573Y-56028472D02*
X54712249Y-55929552D01*
X54712249Y-55929552D02*
X54887949Y-55849822D01*
X54887949Y-55849822D02*
X55155190Y-55711035D01*
X55155190Y-55711035D02*
X55539072Y-55530904D01*
X55539072Y-55530904D02*
X55767925Y-55451174D01*
X55767925Y-55451174D02*
X55952484Y-55288762D01*
X55952484Y-55288762D02*
X56534213Y-54928506D01*
X56534213Y-54928506D02*
X56817695Y-54714418D01*
X56817695Y-54714418D02*
X57031783Y-54553494D01*
X57031783Y-54553494D02*
X57392041Y-54336451D01*
X57392041Y-54336451D02*
X57083459Y-54137129D01*
X57083459Y-54137129D02*
X57006193Y-54038101D01*
X57006193Y-54038101D02*
X56964432Y-53815724D01*
X56964432Y-53815724D02*
X56790080Y-53620493D01*
X56790080Y-53620493D02*
X56536383Y-53503561D01*
X56536383Y-53503561D02*
X56248233Y-53427348D01*
X56248233Y-53427348D02*
X55965303Y-53386631D01*
X55965303Y-53386631D02*
X55688637Y-53381419D01*
X55688637Y-53381419D02*
X55408840Y-53392901D01*
X55408840Y-53392901D02*
X55088325Y-53348007D01*
X55088325Y-53348007D02*
X54846112Y-53283279D01*
X54846112Y-53283279D02*
X54689509Y-53156951D01*
X54689509Y-53156951D02*
X54434767Y-52945015D01*
X54434767Y-52945015D02*
X54214479Y-52735168D01*
X54214479Y-52735168D02*
X54072492Y-52509659D01*
X54072492Y-52509659D02*
X53950341Y-52297722D01*
X53950341Y-52297722D02*
X53852203Y-52182880D01*
X53852203Y-52182880D02*
X53700820Y-52094139D01*
X53700820Y-52094139D02*
X53447123Y-51843573D01*
X53447123Y-51843573D02*
X53197602Y-51567951D01*
X53197602Y-51567951D02*
X53035779Y-51370630D01*
X53035779Y-51370630D02*
X52855163Y-51093966D01*
X52855163Y-51093966D02*
X52729880Y-50872631D01*
X52729880Y-50872631D02*
X52569101Y-50527062D01*
X52569101Y-50527062D02*
X52482447Y-50280673D01*
X52482447Y-50280673D02*
X52391617Y-49981038D01*
X52391617Y-49981038D02*
X52337328Y-49702284D01*
X52337328Y-49702284D02*
X52314360Y-49395342D01*
X52314360Y-49395342D02*
X52313310Y-49176098D01*
X52313310Y-49176098D02*
X52320620Y-48838879D01*
X52320620Y-48838879D02*
X52355073Y-48514188D01*
X52355073Y-48514188D02*
X52431287Y-48185321D01*
X52431287Y-48185321D02*
X52523161Y-47919096D01*
X52523161Y-47919096D02*
X52606683Y-47705071D01*
X52606683Y-47705071D02*
X52764330Y-47397085D01*
X52764330Y-47397085D02*
X52906317Y-47175752D01*
X52906317Y-47175752D02*
X53099461Y-46929363D01*
X53099461Y-46929363D02*
X53375083Y-46621377D01*
X53375083Y-46621377D02*
X53629824Y-46401088D01*
X53629824Y-46401088D02*
X53804176Y-46293554D01*
X53804176Y-46293554D02*
X54028640Y-46172448D01*
X54028640Y-46172448D02*
X54245797Y-46156788D01*
X54245797Y-46156788D02*
X54706210Y-46177668D01*
X54706210Y-46177668D02*
X54932763Y-46230918D01*
X54932763Y-46230918D02*
X55244925Y-46296688D01*
X55244925Y-46296688D02*
X55448510Y-46308178D01*
X55448510Y-46308178D02*
X55691767Y-46306078D01*
X55691767Y-46306078D02*
X55846282Y-46282068D01*
X55846282Y-46282068D02*
X56172017Y-46262228D01*
X56172017Y-46262228D02*
X56681499Y-46238218D01*
X56681499Y-46238218D02*
X56767109Y-46245518D01*
X56767109Y-46245518D02*
X56895524Y-46211068D01*
X56895524Y-46211068D02*
X57231699Y-46099357D01*
X57231699Y-46099357D02*
X57595018Y-46003307D01*
X57595018Y-46003307D02*
X57712993Y-45977207D01*
X57712993Y-45977207D02*
X57990702Y-45942757D01*
X57990702Y-45942757D02*
X58359242Y-45875937D01*
X58359242Y-45875937D02*
X58843668Y-45802857D01*
X58843668Y-45802857D02*
X59188195Y-45774667D01*
X59188195Y-45774667D02*
X59311390Y-45800767D01*
X59311390Y-45800767D02*
X59592232Y-45882197D01*
X59592232Y-45882197D02*
X59853237Y-46009567D01*
X59853237Y-46009567D02*
X60144519Y-46160950D01*
X60144519Y-46160950D02*
X60644605Y-46420912D01*
X60644605Y-46420912D02*
X61023585Y-46618232D01*
X61023585Y-46618232D02*
X61410917Y-46822860D01*
X61410917Y-46822860D02*
X61606149Y-46891770D01*
X61606149Y-46891770D02*
X62081179Y-47087002D01*
X62081179Y-47087002D02*
X62389166Y-47200800D01*
X62389166Y-47200800D02*
X62816170Y-47330259D01*
X62816170Y-47330259D02*
X63180534Y-47470157D01*
X63180534Y-47470157D02*
X63691061Y-47648685D01*
X63691061Y-47648685D02*
X64067952Y-47783364D01*
X64067952Y-47783364D02*
X64513750Y-47941011D01*
X64513750Y-47941011D02*
X64903170Y-48084042D01*
X64903170Y-48084042D02*
X65335395Y-48220809D01*
X65335395Y-48220809D02*
X65794764Y-48378456D01*
X65794764Y-48378456D02*
X66281278Y-48572644D01*
X66281278Y-48572644D02*
X66738560Y-48764744D01*
X66738560Y-48764744D02*
X67188533Y-48939096D01*
X67188533Y-48939096D02*
X67577953Y-49093611D01*
X67577953Y-49093611D02*
X67817034Y-49184441D01*
X67817034Y-49184441D02*
X67862974Y-49217851D01*
X67862974Y-49217851D02*
X67868174Y-49092568D01*
X67868174Y-49092568D02*
X67867174Y-48757437D01*
X67867174Y-48757437D02*
X67879704Y-48450495D01*
X67879704Y-48450495D02*
X67888104Y-48134156D01*
X67888104Y-48134156D02*
X67906894Y-47796937D01*
X67906894Y-47796937D02*
X67927774Y-47458674D01*
X67927774Y-47458674D02*
X67963274Y-47151732D01*
X67963274Y-47151732D02*
X68003994Y-46697582D01*
X68003994Y-46697582D02*
X68050974Y-46378112D01*
X68050974Y-46378112D02*
X68113614Y-46006440D01*
X68113614Y-46006440D02*
X68159554Y-45710982D01*
X68159554Y-45710982D02*
X68244124Y-45195235D01*
X68244124Y-45195235D02*
X68284844Y-44946758D01*
X68284844Y-44946758D02*
X68342264Y-44441452D01*
X68342264Y-44441452D02*
X68385074Y-44213855D01*
X68385074Y-44213855D02*
X68511400Y-43655304D01*
X68511400Y-43655304D02*
X68600140Y-43250223D01*
X68600140Y-43250223D02*
X68638770Y-43087356D01*
X68638770Y-43087356D02*
X68647170Y-42988176D01*
X68647170Y-42988176D02*
X68639870Y-42870201D01*
X68639870Y-42870201D02*
X68599150Y-42741787D01*
X68599150Y-42741787D02*
X68541730Y-42667657D01*
X68541730Y-42667657D02*
X68413316Y-42595617D01*
X68413316Y-42595617D02*
X67937242Y-42405605D01*
X67937242Y-42405605D02*
X67785859Y-42288674D01*
X67785859Y-42288674D02*
X67662664Y-42147731D01*
X67662664Y-42147731D02*
X67567654Y-41987996D01*
X67567654Y-41987996D02*
X67518584Y-41873154D01*
X67518584Y-41873154D02*
X67491444Y-41763532D01*
X67491444Y-41763532D02*
X67394354Y-41637205D01*
X67394354Y-41637205D02*
X67231487Y-41538025D01*
X67231487Y-41538025D02*
X67106204Y-41483735D01*
X67106204Y-41483735D02*
X66976746Y-41430485D01*
X66976746Y-41430485D02*
X66866079Y-41358445D01*
X66866079Y-41358445D02*
X66791949Y-41279095D01*
X66791949Y-41279095D02*
X66664578Y-41107876D01*
X66664578Y-41107876D02*
X66563308Y-40865663D01*
X66563308Y-40865663D02*
X66464128Y-40559765D01*
X66464128Y-40559765D02*
X66383738Y-40291451D01*
X66383738Y-40291451D02*
X66307528Y-40001213D01*
X66307528Y-40001213D02*
X66121076Y-38858605D01*
X66121076Y-38858605D02*
X66138796Y-37783735D01*
X66138796Y-37783735D02*
X66256914Y-36868324D01*
X66256914Y-36868324D02*
X66499055Y-35840701D01*
X66499055Y-35840701D02*
X66912466Y-34553220D01*
X66912466Y-34553220D02*
X67751101Y-33230303D01*
X67751101Y-33230303D02*
X68743289Y-32143621D01*
X68743289Y-32143621D02*
X69871311Y-31334516D01*
X69871311Y-31334516D02*
X70532770Y-31245928D01*
X70532770Y-31245928D02*
X71672604Y-31257739D01*
X71672604Y-31257739D02*
X72174604Y-31228210D01*
X72174604Y-31228210D02*
X72469898Y-31133716D01*
X72469898Y-31133716D02*
X73107732Y-30720305D01*
X73107732Y-30720305D02*
X73739661Y-30702589D01*
X73739661Y-30702589D02*
X74129449Y-30838424D01*
X74129449Y-30838424D02*
X74696414Y-31151435D01*
X74696414Y-31151435D02*
X75068484Y-31671153D01*
X75068484Y-31671153D02*
X75292907Y-32078658D01*
X75292907Y-32078658D02*
X75464178Y-32291270D01*
X75464178Y-32291270D02*
X76090201Y-32261741D01*
X76090201Y-32261741D02*
X77737942Y-31730212D01*
X77737942Y-31730212D02*
X79775469Y-31588471D01*
X79775469Y-31588471D02*
X81635821Y-31641624D01*
X81635821Y-31641624D02*
X83673348Y-31866047D01*
X83673348Y-31866047D02*
X86142006Y-32622000D01*
X86142006Y-32622000D02*
X87134193Y-33070846D01*
X87134193Y-33070846D02*
X87648006Y-33259834D01*
X87648006Y-33259834D02*
X87919675Y-33171246D01*
X87919675Y-33171246D02*
X88079134Y-32976352D01*
X88079134Y-32976352D02*
X88315370Y-32515694D01*
X88315370Y-32515694D02*
X88941393Y-31795177D01*
X88941393Y-31795177D02*
X89378426Y-31700683D01*
X89378426Y-31700683D02*
X89909956Y-31629813D01*
X89909956Y-31629813D02*
X90429674Y-31653438D01*
X90429674Y-31653438D02*
X90795100Y-31894842D01*
X90795100Y-31894842D02*
X91138379Y-32131814D01*
X91138379Y-32131814D02*
X91398237Y-32568849D01*
X91398237Y-32568849D02*
X91593131Y-32917296D01*
X91593131Y-32917296D02*
X91882520Y-32870049D01*
X91882520Y-32870049D02*
X92189624Y-32686966D01*
X92189624Y-32686966D02*
X92715248Y-32474355D01*
X92715248Y-32474355D02*
X93559790Y-32427108D01*
X93559790Y-32427108D02*
X94611035Y-32462543D01*
X94611035Y-32462543D02*
X95839458Y-32781460D01*
X95839458Y-32781460D02*
X97008822Y-33188966D01*
X97008822Y-33188966D02*
X97871080Y-33714589D01*
X97871080Y-33714589D02*
X99010913Y-34618188D01*
X99010913Y-34618188D02*
X99755054Y-35545411D01*
X99755054Y-35545411D02*
X100327924Y-36437199D01*
X100327924Y-36437199D02*
X100658653Y-37163621D01*
X100658653Y-37163621D02*
X100782677Y-37830986D01*
X100782677Y-37830986D02*
X100640937Y-38356609D01*
X100640937Y-38356609D02*
X100564157Y-38516067D01*
X100564157Y-38516067D02*
X100522817Y-38752303D01*
X100522817Y-38752303D02*
X100552347Y-38976726D01*
X100552347Y-38976726D02*
X100611407Y-39331079D01*
X100611407Y-39331079D02*
X100481478Y-39968914D01*
X100481478Y-39968914D02*
X100180279Y-40642184D01*
X100180279Y-40642184D02*
X99884985Y-41014254D01*
X99884985Y-41014254D02*
X98833737Y-42000535D01*
X98833737Y-42000535D02*
X98001009Y-42266300D01*
X98001009Y-42266300D02*
X97274585Y-42419853D01*
X97274585Y-42419853D02*
X95863080Y-42455283D01*
X95863080Y-42455283D02*
X95178000Y-42384413D01*
X95178000Y-42384413D02*
X94492917Y-42284013D01*
X94492917Y-42284013D02*
X94233059Y-42236763D01*
X94233059Y-42236763D02*
X94103130Y-42289913D01*
X94103130Y-42289913D02*
X94126760Y-42526149D01*
X94126760Y-42526149D02*
X94274408Y-44504618D01*
X94274408Y-44504618D02*
X94174006Y-45727135D01*
X94174006Y-45727135D02*
X93920054Y-47516616D01*
X93920054Y-47516616D02*
X93736973Y-48361156D01*
X93736973Y-48361156D02*
X93506642Y-48993085D01*
X93506642Y-48993085D02*
X93347183Y-49400590D01*
X93347183Y-49400590D02*
X93264503Y-49701790D01*
X93264503Y-49701790D02*
X93223163Y-50002990D01*
X93223163Y-50002990D02*
X93270413Y-50386873D01*
X93270413Y-50386873D02*
X93240883Y-51213696D01*
X93240883Y-51213696D02*
X93140482Y-51975553D01*
X93140482Y-51975553D02*
X92916059Y-52619295D01*
X92916059Y-52619295D02*
X92626671Y-53233507D01*
X92626671Y-53233507D02*
X92201449Y-53883152D01*
X92201449Y-53883152D02*
X91758507Y-54355623D01*
X91758507Y-54355623D02*
X91380532Y-54603670D01*
X91380532Y-54603670D02*
X91226978Y-54792657D01*
X91226978Y-54792657D02*
X91067519Y-55141105D01*
X91067519Y-55141105D02*
X90630485Y-56351809D01*
X90630485Y-56351809D02*
X90335192Y-56971927D01*
X90335192Y-56971927D02*
X90146203Y-57462115D01*
X90146203Y-57462115D02*
X90122573Y-57538895D01*
X90122573Y-57538895D02*
X90051703Y-57816472D01*
X90051703Y-57816472D02*
X90104853Y-57993647D01*
X90104853Y-57993647D02*
X90618663Y-58407059D01*
X90618663Y-58407059D02*
X91929769Y-59759505D01*
X91929769Y-59759505D02*
X92626663Y-60574515D01*
X92626663Y-60574515D02*
X93075510Y-61312750D01*
X93075510Y-61312750D02*
X93276310Y-61867904D01*
X93276310Y-61867904D02*
X93400334Y-62635666D01*
X93400334Y-62635666D02*
X93370804Y-63267595D01*
X93370804Y-63267595D02*
X93199534Y-64194819D01*
X93199534Y-64194819D02*
X92933768Y-64974395D01*
X92933768Y-64974395D02*
X92567606Y-65659476D01*
X92567606Y-65659476D02*
X92213252Y-66173288D01*
X92213252Y-66173288D02*
X91847088Y-66628041D01*
X91847088Y-66628041D02*
X91723064Y-66811122D01*
X91723064Y-66811122D02*
X91687624Y-66923335D01*
X91687624Y-66923335D02*
X91705354Y-67112324D01*
X91705354Y-67112324D02*
X92012458Y-68447051D01*
X92012458Y-68447051D02*
X92219164Y-69344746D01*
X92219164Y-69344746D02*
X92254594Y-69657756D01*
X92254594Y-69657756D02*
X92230964Y-69935333D01*
X92230964Y-69935333D02*
X91888424Y-70850743D01*
X91888424Y-70850743D02*
X91864794Y-71092885D01*
X91864794Y-71092885D02*
X91941564Y-71730718D01*
X91941564Y-71730718D02*
X92065587Y-72279967D01*
X92065587Y-72279967D02*
X92177800Y-72764247D01*
X92177800Y-72764247D02*
X92372694Y-73047730D01*
X92372694Y-73047730D02*
X92656177Y-73230813D01*
X92656177Y-73230813D02*
X93105024Y-73490671D01*
X93105024Y-73490671D02*
X93400318Y-73673752D01*
X93400318Y-73673752D02*
X93465278Y-73886363D01*
X93465278Y-73886363D02*
X93457278Y-74202313D01*
X93457278Y-74202313D02*
X69862304Y-74202313D01*
X69862304Y-74202313D02*
X70257998Y-73762340D01*
X70257998Y-73762340D02*
X70568056Y-73449330D01*
X70568056Y-73449330D02*
X71090726Y-73035919D01*
X71090726Y-73035919D02*
X71510043Y-72755389D01*
X71510043Y-72755389D02*
X71834867Y-72504389D01*
X71834867Y-72504389D02*
X71955937Y-72300636D01*
X71955937Y-72300636D02*
X72050427Y-71996484D01*
X72050427Y-71996484D02*
X72091767Y-71748438D01*
X72091767Y-71748438D02*
X72091767Y-71583073D01*
X72091767Y-71583073D02*
X72053377Y-71382273D01*
X72053377Y-71382273D02*
X71929354Y-71134226D01*
X71929354Y-71134226D02*
X71772848Y-70812355D01*
X71772848Y-70812355D02*
X71707888Y-70561355D01*
X71707888Y-70561355D02*
X71719698Y-70348744D01*
X71719698Y-70348744D02*
X71766948Y-69932380D01*
X71766948Y-69932380D02*
X71867347Y-69504202D01*
X71867347Y-69504202D02*
X72014994Y-68981534D01*
X72014994Y-68981534D02*
X72112444Y-68644899D01*
X72112444Y-68644899D02*
X72254185Y-68119275D01*
X72254185Y-68119275D02*
X72519950Y-67295405D01*
X72519950Y-67295405D02*
X72711891Y-66707771D01*
X72711891Y-66707771D02*
X72835914Y-66303217D01*
X72835914Y-66303217D02*
X72942220Y-65945911D01*
X72942220Y-65945911D02*
X73051479Y-65502972D01*
X73051479Y-65502972D02*
X73190267Y-64927149D01*
X73190267Y-64927149D02*
X73243417Y-64469443D01*
X73243417Y-64469443D02*
X73275897Y-64100326D01*
X73275897Y-64100326D02*
X73343817Y-63527455D01*
X73343817Y-63527455D02*
X73379247Y-63087466D01*
X73379247Y-63087466D02*
X73414677Y-62564795D01*
X73414677Y-62564795D02*
X73453067Y-61906292D01*
X73453067Y-61906292D02*
X73482597Y-61209398D01*
X73482597Y-61209398D02*
X73467837Y-60828467D01*
X73467837Y-60828467D02*
X73408777Y-60394386D01*
X73408777Y-60394386D02*
X73326097Y-60137481D01*
X73326097Y-60137481D02*
X73234557Y-60007552D01*
X73234557Y-60007552D02*
X73089863Y-59942582D01*
X73089863Y-59942582D02*
X72924499Y-59930782D01*
X72924499Y-59930782D02*
X72626252Y-59980982D01*
X72626252Y-59980982D02*
X72177405Y-60060712D01*
X72177405Y-60060712D02*
X71961841Y-60273323D01*
X71961841Y-60273323D02*
X71681311Y-60494793D01*
X71681311Y-60494793D02*
X71569100Y-60612911D01*
X71569100Y-60612911D02*
X71539570Y-60745792D01*
X71539570Y-60745792D02*
X71338770Y-60896393D01*
X71338770Y-60896393D02*
X70488324Y-61324568D01*
X70488324Y-61324568D02*
X69818007Y-61723216D01*
X69818007Y-61723216D02*
X69499089Y-61944686D01*
X69499089Y-61944686D02*
X68565961Y-62603191D01*
X68565961Y-62603191D02*
X67827726Y-63028416D01*
X67827726Y-63028416D02*
X66838491Y-63728263D01*
X66838491Y-63728263D02*
X66380786Y-64035367D01*
X66380786Y-64035367D02*
X65955563Y-64321803D01*
X65955563Y-64321803D02*
X65524434Y-64640721D01*
X65524434Y-64640721D02*
X65359069Y-64865143D01*
X65359069Y-64865143D02*
X64960422Y-65361237D01*
X64960422Y-65361237D02*
X64570634Y-65733307D01*
X64570634Y-65733307D02*
X63888505Y-66208732D01*
X63888505Y-66208732D02*
X63578447Y-66380002D01*
X63578447Y-66380002D02*
X62946518Y-66660532D01*
X62946518Y-66660532D02*
X62394318Y-66864282D01*
X62394318Y-66864282D02*
X62122648Y-66961732D01*
X62122648Y-66961732D02*
X62075398Y-66893812D01*
X62075398Y-66893812D02*
X62072398Y-66763883D01*
X62072398Y-66763883D02*
X61821398Y-66772783D01*
X61821398Y-66772783D02*
X61591069Y-66817073D01*
X61591069Y-66817073D02*
X61384363Y-66944049D01*
X61384363Y-66944049D02*
X61103834Y-67130085D01*
X61103834Y-67130085D02*
X60867599Y-67389943D01*
X60867599Y-67389943D02*
X60525058Y-67714767D01*
X60525058Y-67714767D02*
X60070305Y-67992344D01*
X60070305Y-67992344D02*
X59503341Y-68063214D01*
X59503341Y-68063214D02*
X59175565Y-67989394D01*
X59175565Y-67989394D02*
X58835977Y-67906714D01*
X58835977Y-67906714D02*
X58655848Y-67838794D01*
X58655848Y-67838794D02*
X57885131Y-67729534D01*
X57885131Y-67729534D02*
X57265014Y-67652764D01*
X57265014Y-67652764D02*
X56813214Y-67499211D01*
X56813214Y-67499211D02*
X56514482Y-67327468D01*
X56514482Y-67327468D02*
X56514482Y-67327468D01*
M02*
