G04 #@! TF.FileFunction,Soldermask,Top*
%FSLAX46Y46*%
G04 Gerber Fmt 4.6, Leading zero omitted, Abs format (unit mm)*
G04 Created by KiCad (PCBNEW 4.0.5+dfsg1-4) date Sun Sep 22 16:13:37 2019*
%MOMM*%
%LPD*%
G01*
G04 APERTURE LIST*
%ADD10C,0.100000*%
%ADD11C,0.010000*%
%ADD12C,1.390600*%
%ADD13R,2.127200X2.127200*%
%ADD14O,2.127200X2.127200*%
G04 APERTURE END LIST*
D10*
D11*
G36*
X57702246Y-62402213D02*
X57739318Y-62425514D01*
X57810773Y-62460039D01*
X57943261Y-62501332D01*
X58114202Y-62542848D01*
X58213000Y-62562768D01*
X58387138Y-62596558D01*
X58527338Y-62626024D01*
X58614546Y-62647040D01*
X58633440Y-62653817D01*
X58617586Y-62690215D01*
X58556834Y-62765401D01*
X58509333Y-62816500D01*
X58431457Y-62906109D01*
X58391670Y-62970757D01*
X58391472Y-62987916D01*
X58437953Y-62981684D01*
X58539657Y-62943375D01*
X58677034Y-62880631D01*
X58718457Y-62860114D01*
X58895793Y-62779473D01*
X59076529Y-62711239D01*
X59223150Y-62669491D01*
X59229966Y-62668150D01*
X59360619Y-62648289D01*
X59443268Y-62655917D01*
X59511903Y-62697417D01*
X59545772Y-62727451D01*
X59644443Y-62796121D01*
X59787846Y-62870207D01*
X59901877Y-62917310D01*
X60107775Y-63014849D01*
X60249370Y-63137684D01*
X60263764Y-63155779D01*
X60368429Y-63264444D01*
X60464977Y-63294322D01*
X60565619Y-63244882D01*
X60664902Y-63138332D01*
X60835063Y-62968225D01*
X61059709Y-62807016D01*
X61309331Y-62674280D01*
X61444402Y-62621238D01*
X61607217Y-62576136D01*
X61708049Y-62576391D01*
X61758066Y-62624734D01*
X61769000Y-62700584D01*
X61727864Y-62820556D01*
X61605195Y-62957994D01*
X61402103Y-63111964D01*
X61119698Y-63281530D01*
X61010488Y-63340121D01*
X60822944Y-63440243D01*
X60699899Y-63512412D01*
X60629707Y-63565696D01*
X60600724Y-63609166D01*
X60601307Y-63651892D01*
X60602876Y-63657621D01*
X60627340Y-63750927D01*
X60660069Y-63887672D01*
X60677986Y-63966511D01*
X60703414Y-64100258D01*
X60700584Y-64191112D01*
X60663086Y-64277983D01*
X60613872Y-64355601D01*
X60501098Y-64526014D01*
X60658799Y-64539091D01*
X60759258Y-64559804D01*
X60801477Y-64604443D01*
X60783155Y-64678798D01*
X60701990Y-64788660D01*
X60555682Y-64939821D01*
X60465752Y-65024928D01*
X60334995Y-65152309D01*
X60235959Y-65260213D01*
X60180072Y-65335423D01*
X60173666Y-65362777D01*
X60223515Y-65359274D01*
X60329787Y-65321961D01*
X60474658Y-65257720D01*
X60575794Y-65207516D01*
X60736793Y-65126374D01*
X60870456Y-65062562D01*
X60958494Y-65024623D01*
X60981794Y-65017834D01*
X61019116Y-65055160D01*
X61063050Y-65149675D01*
X61105528Y-65275184D01*
X61138482Y-65405490D01*
X61153844Y-65514400D01*
X61149893Y-65563616D01*
X61092949Y-65661950D01*
X60977451Y-65798905D01*
X60814277Y-65964649D01*
X60614302Y-66149351D01*
X60388406Y-66343179D01*
X60147464Y-66536302D01*
X59902355Y-66718888D01*
X59769108Y-66811664D01*
X59643551Y-66916115D01*
X59557249Y-67025905D01*
X59521190Y-67123161D01*
X59539958Y-67184403D01*
X59584721Y-67175256D01*
X59685698Y-67130829D01*
X59826235Y-67058948D01*
X59936626Y-66997969D01*
X60174398Y-66867481D01*
X60347169Y-66784792D01*
X60459744Y-66749786D01*
X60516924Y-66762348D01*
X60523515Y-66822363D01*
X60484319Y-66929714D01*
X60457118Y-66985449D01*
X60313969Y-67177695D01*
X60110810Y-67329531D01*
X59865064Y-67434781D01*
X59594158Y-67487268D01*
X59315516Y-67480817D01*
X59154917Y-67446972D01*
X59057856Y-67405384D01*
X59020906Y-67339912D01*
X59017334Y-67288084D01*
X59043099Y-67104743D01*
X59113319Y-66880716D01*
X59217376Y-66639626D01*
X59344653Y-66405097D01*
X59484534Y-66200751D01*
X59531368Y-66144290D01*
X59654943Y-65962659D01*
X59698119Y-65792928D01*
X59660396Y-65639151D01*
X59603043Y-65560761D01*
X59534056Y-65446717D01*
X59518087Y-65293065D01*
X59518127Y-65292025D01*
X59508248Y-65159164D01*
X59466796Y-65098548D01*
X59466526Y-65098443D01*
X59378669Y-65099803D01*
X59252506Y-65142273D01*
X59110277Y-65212880D01*
X58974220Y-65298653D01*
X58866574Y-65386618D01*
X58809577Y-65463802D01*
X58805667Y-65483955D01*
X58842507Y-65532114D01*
X58934952Y-65580654D01*
X58975000Y-65594335D01*
X59079569Y-65630408D01*
X59139101Y-65660138D01*
X59144334Y-65667143D01*
X59135059Y-65714834D01*
X59109922Y-65827146D01*
X59072952Y-65986404D01*
X59035754Y-66143319D01*
X58951693Y-66450513D01*
X58860410Y-66685897D01*
X58754066Y-66862326D01*
X58624820Y-66992654D01*
X58464831Y-67089736D01*
X58455988Y-67093899D01*
X58199214Y-67179315D01*
X57951188Y-67198361D01*
X57726021Y-67153420D01*
X57537820Y-67046877D01*
X57423806Y-66919576D01*
X57376858Y-66835971D01*
X57376889Y-66770473D01*
X57421506Y-66681291D01*
X57481433Y-66549073D01*
X57492741Y-66454927D01*
X57456116Y-66411096D01*
X57406594Y-66415491D01*
X57292664Y-66411467D01*
X57180953Y-66337602D01*
X57078212Y-66208600D01*
X56991192Y-66039165D01*
X56964966Y-65959868D01*
X58348217Y-65959868D01*
X58377325Y-66082081D01*
X58377376Y-66082192D01*
X58434094Y-66160760D01*
X58488086Y-66160234D01*
X58528936Y-66085837D01*
X58543639Y-65998811D01*
X58545548Y-65895343D01*
X58519814Y-65851427D01*
X58468227Y-65843334D01*
X58380501Y-65875073D01*
X58348217Y-65959868D01*
X56964966Y-65959868D01*
X56926644Y-65844001D01*
X56891319Y-65637813D01*
X56891969Y-65435305D01*
X56909578Y-65332966D01*
X56948300Y-65080106D01*
X56940791Y-64847214D01*
X56889129Y-64654568D01*
X56830106Y-64557221D01*
X56758319Y-64451395D01*
X56741374Y-64349312D01*
X56750340Y-64279342D01*
X56785913Y-64051333D01*
X56804567Y-63858128D01*
X56805650Y-63714201D01*
X56788509Y-63634028D01*
X56779895Y-63624683D01*
X56699450Y-63619714D01*
X56604427Y-63676300D01*
X56516833Y-63779641D01*
X56496455Y-63815288D01*
X56433693Y-63909958D01*
X56385851Y-63932073D01*
X56354717Y-63892721D01*
X56342076Y-63802989D01*
X56349715Y-63673965D01*
X56379422Y-63516736D01*
X56424185Y-63366834D01*
X56542786Y-63141620D01*
X56737859Y-62927530D01*
X57012342Y-62721812D01*
X57276870Y-62568846D01*
X57454776Y-62477268D01*
X57574512Y-62422213D01*
X57651771Y-62398816D01*
X57702246Y-62402213D01*
X57702246Y-62402213D01*
G37*
X57702246Y-62402213D02*
X57739318Y-62425514D01*
X57810773Y-62460039D01*
X57943261Y-62501332D01*
X58114202Y-62542848D01*
X58213000Y-62562768D01*
X58387138Y-62596558D01*
X58527338Y-62626024D01*
X58614546Y-62647040D01*
X58633440Y-62653817D01*
X58617586Y-62690215D01*
X58556834Y-62765401D01*
X58509333Y-62816500D01*
X58431457Y-62906109D01*
X58391670Y-62970757D01*
X58391472Y-62987916D01*
X58437953Y-62981684D01*
X58539657Y-62943375D01*
X58677034Y-62880631D01*
X58718457Y-62860114D01*
X58895793Y-62779473D01*
X59076529Y-62711239D01*
X59223150Y-62669491D01*
X59229966Y-62668150D01*
X59360619Y-62648289D01*
X59443268Y-62655917D01*
X59511903Y-62697417D01*
X59545772Y-62727451D01*
X59644443Y-62796121D01*
X59787846Y-62870207D01*
X59901877Y-62917310D01*
X60107775Y-63014849D01*
X60249370Y-63137684D01*
X60263764Y-63155779D01*
X60368429Y-63264444D01*
X60464977Y-63294322D01*
X60565619Y-63244882D01*
X60664902Y-63138332D01*
X60835063Y-62968225D01*
X61059709Y-62807016D01*
X61309331Y-62674280D01*
X61444402Y-62621238D01*
X61607217Y-62576136D01*
X61708049Y-62576391D01*
X61758066Y-62624734D01*
X61769000Y-62700584D01*
X61727864Y-62820556D01*
X61605195Y-62957994D01*
X61402103Y-63111964D01*
X61119698Y-63281530D01*
X61010488Y-63340121D01*
X60822944Y-63440243D01*
X60699899Y-63512412D01*
X60629707Y-63565696D01*
X60600724Y-63609166D01*
X60601307Y-63651892D01*
X60602876Y-63657621D01*
X60627340Y-63750927D01*
X60660069Y-63887672D01*
X60677986Y-63966511D01*
X60703414Y-64100258D01*
X60700584Y-64191112D01*
X60663086Y-64277983D01*
X60613872Y-64355601D01*
X60501098Y-64526014D01*
X60658799Y-64539091D01*
X60759258Y-64559804D01*
X60801477Y-64604443D01*
X60783155Y-64678798D01*
X60701990Y-64788660D01*
X60555682Y-64939821D01*
X60465752Y-65024928D01*
X60334995Y-65152309D01*
X60235959Y-65260213D01*
X60180072Y-65335423D01*
X60173666Y-65362777D01*
X60223515Y-65359274D01*
X60329787Y-65321961D01*
X60474658Y-65257720D01*
X60575794Y-65207516D01*
X60736793Y-65126374D01*
X60870456Y-65062562D01*
X60958494Y-65024623D01*
X60981794Y-65017834D01*
X61019116Y-65055160D01*
X61063050Y-65149675D01*
X61105528Y-65275184D01*
X61138482Y-65405490D01*
X61153844Y-65514400D01*
X61149893Y-65563616D01*
X61092949Y-65661950D01*
X60977451Y-65798905D01*
X60814277Y-65964649D01*
X60614302Y-66149351D01*
X60388406Y-66343179D01*
X60147464Y-66536302D01*
X59902355Y-66718888D01*
X59769108Y-66811664D01*
X59643551Y-66916115D01*
X59557249Y-67025905D01*
X59521190Y-67123161D01*
X59539958Y-67184403D01*
X59584721Y-67175256D01*
X59685698Y-67130829D01*
X59826235Y-67058948D01*
X59936626Y-66997969D01*
X60174398Y-66867481D01*
X60347169Y-66784792D01*
X60459744Y-66749786D01*
X60516924Y-66762348D01*
X60523515Y-66822363D01*
X60484319Y-66929714D01*
X60457118Y-66985449D01*
X60313969Y-67177695D01*
X60110810Y-67329531D01*
X59865064Y-67434781D01*
X59594158Y-67487268D01*
X59315516Y-67480817D01*
X59154917Y-67446972D01*
X59057856Y-67405384D01*
X59020906Y-67339912D01*
X59017334Y-67288084D01*
X59043099Y-67104743D01*
X59113319Y-66880716D01*
X59217376Y-66639626D01*
X59344653Y-66405097D01*
X59484534Y-66200751D01*
X59531368Y-66144290D01*
X59654943Y-65962659D01*
X59698119Y-65792928D01*
X59660396Y-65639151D01*
X59603043Y-65560761D01*
X59534056Y-65446717D01*
X59518087Y-65293065D01*
X59518127Y-65292025D01*
X59508248Y-65159164D01*
X59466796Y-65098548D01*
X59466526Y-65098443D01*
X59378669Y-65099803D01*
X59252506Y-65142273D01*
X59110277Y-65212880D01*
X58974220Y-65298653D01*
X58866574Y-65386618D01*
X58809577Y-65463802D01*
X58805667Y-65483955D01*
X58842507Y-65532114D01*
X58934952Y-65580654D01*
X58975000Y-65594335D01*
X59079569Y-65630408D01*
X59139101Y-65660138D01*
X59144334Y-65667143D01*
X59135059Y-65714834D01*
X59109922Y-65827146D01*
X59072952Y-65986404D01*
X59035754Y-66143319D01*
X58951693Y-66450513D01*
X58860410Y-66685897D01*
X58754066Y-66862326D01*
X58624820Y-66992654D01*
X58464831Y-67089736D01*
X58455988Y-67093899D01*
X58199214Y-67179315D01*
X57951188Y-67198361D01*
X57726021Y-67153420D01*
X57537820Y-67046877D01*
X57423806Y-66919576D01*
X57376858Y-66835971D01*
X57376889Y-66770473D01*
X57421506Y-66681291D01*
X57481433Y-66549073D01*
X57492741Y-66454927D01*
X57456116Y-66411096D01*
X57406594Y-66415491D01*
X57292664Y-66411467D01*
X57180953Y-66337602D01*
X57078212Y-66208600D01*
X56991192Y-66039165D01*
X56964966Y-65959868D01*
X58348217Y-65959868D01*
X58377325Y-66082081D01*
X58377376Y-66082192D01*
X58434094Y-66160760D01*
X58488086Y-66160234D01*
X58528936Y-66085837D01*
X58543639Y-65998811D01*
X58545548Y-65895343D01*
X58519814Y-65851427D01*
X58468227Y-65843334D01*
X58380501Y-65875073D01*
X58348217Y-65959868D01*
X56964966Y-65959868D01*
X56926644Y-65844001D01*
X56891319Y-65637813D01*
X56891969Y-65435305D01*
X56909578Y-65332966D01*
X56948300Y-65080106D01*
X56940791Y-64847214D01*
X56889129Y-64654568D01*
X56830106Y-64557221D01*
X56758319Y-64451395D01*
X56741374Y-64349312D01*
X56750340Y-64279342D01*
X56785913Y-64051333D01*
X56804567Y-63858128D01*
X56805650Y-63714201D01*
X56788509Y-63634028D01*
X56779895Y-63624683D01*
X56699450Y-63619714D01*
X56604427Y-63676300D01*
X56516833Y-63779641D01*
X56496455Y-63815288D01*
X56433693Y-63909958D01*
X56385851Y-63932073D01*
X56354717Y-63892721D01*
X56342076Y-63802989D01*
X56349715Y-63673965D01*
X56379422Y-63516736D01*
X56424185Y-63366834D01*
X56542786Y-63141620D01*
X56737859Y-62927530D01*
X57012342Y-62721812D01*
X57276870Y-62568846D01*
X57454776Y-62477268D01*
X57574512Y-62422213D01*
X57651771Y-62398816D01*
X57702246Y-62402213D01*
G36*
X56324298Y-64322568D02*
X56349571Y-64342944D01*
X56371063Y-64396472D01*
X56394885Y-64499159D01*
X56427143Y-64667016D01*
X56432288Y-64694535D01*
X56468361Y-64855212D01*
X56526617Y-65077615D01*
X56601488Y-65343479D01*
X56687401Y-65634542D01*
X56778786Y-65932540D01*
X56870073Y-66219210D01*
X56955690Y-66476289D01*
X57030066Y-66685514D01*
X57073008Y-66795032D01*
X57133715Y-66952107D01*
X57177910Y-67090066D01*
X57196835Y-67181248D01*
X57197000Y-67186615D01*
X57172007Y-67267518D01*
X57103020Y-67284832D01*
X56999030Y-67241009D01*
X56869027Y-67138500D01*
X56811728Y-67081584D01*
X56548049Y-66772466D01*
X56332481Y-66453263D01*
X56178261Y-66144108D01*
X56154916Y-66082372D01*
X56094396Y-65863823D01*
X56054918Y-65619335D01*
X56035451Y-65362458D01*
X56034963Y-65106738D01*
X56052423Y-64865725D01*
X56086800Y-64652965D01*
X56137062Y-64482009D01*
X56202177Y-64366402D01*
X56281115Y-64319695D01*
X56289138Y-64319334D01*
X56324298Y-64322568D01*
X56324298Y-64322568D01*
G37*
X56324298Y-64322568D02*
X56349571Y-64342944D01*
X56371063Y-64396472D01*
X56394885Y-64499159D01*
X56427143Y-64667016D01*
X56432288Y-64694535D01*
X56468361Y-64855212D01*
X56526617Y-65077615D01*
X56601488Y-65343479D01*
X56687401Y-65634542D01*
X56778786Y-65932540D01*
X56870073Y-66219210D01*
X56955690Y-66476289D01*
X57030066Y-66685514D01*
X57073008Y-66795032D01*
X57133715Y-66952107D01*
X57177910Y-67090066D01*
X57196835Y-67181248D01*
X57197000Y-67186615D01*
X57172007Y-67267518D01*
X57103020Y-67284832D01*
X56999030Y-67241009D01*
X56869027Y-67138500D01*
X56811728Y-67081584D01*
X56548049Y-66772466D01*
X56332481Y-66453263D01*
X56178261Y-66144108D01*
X56154916Y-66082372D01*
X56094396Y-65863823D01*
X56054918Y-65619335D01*
X56035451Y-65362458D01*
X56034963Y-65106738D01*
X56052423Y-64865725D01*
X56086800Y-64652965D01*
X56137062Y-64482009D01*
X56202177Y-64366402D01*
X56281115Y-64319695D01*
X56289138Y-64319334D01*
X56324298Y-64322568D01*
G36*
X56457077Y-56794584D02*
X56433660Y-56961719D01*
X56403525Y-57077316D01*
X56351561Y-57155992D01*
X56262658Y-57212361D01*
X56121704Y-57261039D01*
X55918686Y-57315321D01*
X55765813Y-57358492D01*
X55636335Y-57401284D01*
X55569101Y-57429293D01*
X55509251Y-57465932D01*
X55523900Y-57489477D01*
X55568111Y-57508269D01*
X55646405Y-57520667D01*
X55784676Y-57525263D01*
X55958555Y-57521592D01*
X56039684Y-57517261D01*
X56277283Y-57505893D01*
X56444230Y-57509198D01*
X56553764Y-57530418D01*
X56619125Y-57572795D01*
X56653553Y-57639571D01*
X56660751Y-57669339D01*
X56704469Y-57764353D01*
X56798315Y-57895962D01*
X56928560Y-58045169D01*
X56944163Y-58061471D01*
X57064922Y-58196495D01*
X57161565Y-58323154D01*
X57218284Y-58420047D01*
X57225716Y-58442652D01*
X57268828Y-58551932D01*
X57341018Y-58653986D01*
X57419513Y-58720353D01*
X57456698Y-58731334D01*
X57519344Y-58708577D01*
X57610942Y-58653297D01*
X57618030Y-58648307D01*
X57799395Y-58559495D01*
X58042401Y-58501445D01*
X58328233Y-58478537D01*
X58347828Y-58478368D01*
X58574267Y-58491838D01*
X58725103Y-58534061D01*
X58798435Y-58604354D01*
X58805667Y-58642595D01*
X58782927Y-58739822D01*
X58709882Y-58816991D01*
X58579289Y-58876683D01*
X58383908Y-58921476D01*
X58116498Y-58953950D01*
X57884917Y-58970598D01*
X57408667Y-58998237D01*
X57408667Y-59243029D01*
X57397907Y-59452274D01*
X57359979Y-59599939D01*
X57286411Y-59707024D01*
X57191858Y-59780352D01*
X57052793Y-59868402D01*
X57165494Y-59896688D01*
X57268896Y-59939455D01*
X57328106Y-59985114D01*
X57347624Y-60061524D01*
X57284315Y-60141732D01*
X57139870Y-60224492D01*
X56915978Y-60308559D01*
X56869711Y-60323020D01*
X56674220Y-60388690D01*
X56562172Y-60441060D01*
X56533614Y-60480220D01*
X56588594Y-60506261D01*
X56727162Y-60519272D01*
X56949364Y-60519344D01*
X56974033Y-60518704D01*
X57398608Y-60506907D01*
X57428142Y-60743290D01*
X57435132Y-60931573D01*
X57393976Y-61072040D01*
X57293335Y-61183190D01*
X57121866Y-61283522D01*
X57086899Y-61299900D01*
X56972594Y-61344062D01*
X56802336Y-61399830D01*
X56594838Y-61462119D01*
X56368813Y-61525847D01*
X56142975Y-61585933D01*
X55936036Y-61637294D01*
X55766710Y-61674847D01*
X55653710Y-61693511D01*
X55633367Y-61694667D01*
X55545235Y-61727593D01*
X55462470Y-61804020D01*
X55419798Y-61890423D01*
X55419000Y-61901634D01*
X55439123Y-61923714D01*
X55506746Y-61935401D01*
X55632751Y-61937188D01*
X55828022Y-61929567D01*
X55921012Y-61924404D01*
X56152172Y-61914446D01*
X56322974Y-61914659D01*
X56424359Y-61924841D01*
X56448413Y-61936121D01*
X56446732Y-62006206D01*
X56384485Y-62095006D01*
X56277607Y-62184960D01*
X56164808Y-62248652D01*
X55916983Y-62316677D01*
X55655236Y-62309453D01*
X55501352Y-62268263D01*
X55279803Y-62174826D01*
X55090899Y-62072600D01*
X54956893Y-61974010D01*
X54935351Y-61952246D01*
X54884395Y-61885721D01*
X54878788Y-61825035D01*
X54916130Y-61731622D01*
X54920982Y-61721409D01*
X55009245Y-61580292D01*
X55143161Y-61416089D01*
X55301377Y-61250649D01*
X55462536Y-61105817D01*
X55605284Y-61003442D01*
X55641682Y-60984106D01*
X55833061Y-60870588D01*
X55943933Y-60743702D01*
X55978315Y-60594985D01*
X55940223Y-60415974D01*
X55927156Y-60382710D01*
X55896027Y-60266964D01*
X55916471Y-60155655D01*
X55929351Y-60122657D01*
X55961328Y-60027294D01*
X55949164Y-59971516D01*
X55905230Y-59932157D01*
X55809932Y-59895061D01*
X55675303Y-59881106D01*
X55524708Y-59887465D01*
X55381512Y-59911312D01*
X55269080Y-59949821D01*
X55210779Y-60000166D01*
X55207334Y-60016570D01*
X55235773Y-60077517D01*
X55306736Y-60164110D01*
X55334334Y-60191834D01*
X55413610Y-60275033D01*
X55457944Y-60335627D01*
X55461334Y-60346419D01*
X55437373Y-60413018D01*
X55373742Y-60527949D01*
X55282821Y-60672764D01*
X55176987Y-60829015D01*
X55068619Y-60978256D01*
X54970094Y-61102037D01*
X54911729Y-61165500D01*
X54737587Y-61334834D01*
X54390377Y-61334834D01*
X54208242Y-61331564D01*
X54083671Y-61317816D01*
X53989686Y-61287682D01*
X53899307Y-61235254D01*
X53882128Y-61223539D01*
X53707497Y-61076595D01*
X53586155Y-60920185D01*
X53522548Y-60766705D01*
X53521122Y-60628552D01*
X53586322Y-60518123D01*
X53619834Y-60492060D01*
X53706748Y-60408007D01*
X53711779Y-60362942D01*
X54657000Y-60362942D01*
X54665222Y-60465069D01*
X54696508Y-60502341D01*
X54730209Y-60501443D01*
X54796453Y-60454401D01*
X54844291Y-60371121D01*
X54858547Y-60259774D01*
X54820241Y-60189903D01*
X54740886Y-60179232D01*
X54723346Y-60184884D01*
X54671798Y-60248931D01*
X54657000Y-60362942D01*
X53711779Y-60362942D01*
X53715608Y-60328653D01*
X53645961Y-60265943D01*
X53628677Y-60258696D01*
X53529166Y-60204387D01*
X53459971Y-60118677D01*
X53409689Y-59982270D01*
X53377119Y-59832858D01*
X53354720Y-59554446D01*
X53387321Y-59287415D01*
X53470780Y-59056851D01*
X53518025Y-58979681D01*
X53581490Y-58875449D01*
X53616487Y-58789229D01*
X53618052Y-58779887D01*
X53635194Y-58687140D01*
X53658650Y-58595085D01*
X53668771Y-58472066D01*
X53648277Y-58313026D01*
X53639771Y-58276833D01*
X53615961Y-58172508D01*
X53611549Y-58090234D01*
X53631761Y-58004215D01*
X53681821Y-57888651D01*
X53743639Y-57764010D01*
X53821854Y-57600396D01*
X53860951Y-57493267D01*
X53865531Y-57426603D01*
X53849772Y-57394346D01*
X53756759Y-57339476D01*
X53644096Y-57356584D01*
X53556333Y-57419000D01*
X53467410Y-57483642D01*
X53389949Y-57501495D01*
X53347232Y-57469135D01*
X53344667Y-57450123D01*
X53368406Y-57363637D01*
X53429515Y-57237556D01*
X53512834Y-57098686D01*
X53603202Y-56973831D01*
X53634752Y-56937247D01*
X53733905Y-56842408D01*
X53843779Y-56769164D01*
X53977538Y-56714034D01*
X54148341Y-56673536D01*
X54369350Y-56644188D01*
X54653727Y-56622508D01*
X54866308Y-56611451D01*
X55149760Y-56599465D01*
X55442436Y-56588985D01*
X55717858Y-56580834D01*
X55949546Y-56575836D01*
X56047389Y-56574737D01*
X56485278Y-56572334D01*
X56457077Y-56794584D01*
X56457077Y-56794584D01*
G37*
X56457077Y-56794584D02*
X56433660Y-56961719D01*
X56403525Y-57077316D01*
X56351561Y-57155992D01*
X56262658Y-57212361D01*
X56121704Y-57261039D01*
X55918686Y-57315321D01*
X55765813Y-57358492D01*
X55636335Y-57401284D01*
X55569101Y-57429293D01*
X55509251Y-57465932D01*
X55523900Y-57489477D01*
X55568111Y-57508269D01*
X55646405Y-57520667D01*
X55784676Y-57525263D01*
X55958555Y-57521592D01*
X56039684Y-57517261D01*
X56277283Y-57505893D01*
X56444230Y-57509198D01*
X56553764Y-57530418D01*
X56619125Y-57572795D01*
X56653553Y-57639571D01*
X56660751Y-57669339D01*
X56704469Y-57764353D01*
X56798315Y-57895962D01*
X56928560Y-58045169D01*
X56944163Y-58061471D01*
X57064922Y-58196495D01*
X57161565Y-58323154D01*
X57218284Y-58420047D01*
X57225716Y-58442652D01*
X57268828Y-58551932D01*
X57341018Y-58653986D01*
X57419513Y-58720353D01*
X57456698Y-58731334D01*
X57519344Y-58708577D01*
X57610942Y-58653297D01*
X57618030Y-58648307D01*
X57799395Y-58559495D01*
X58042401Y-58501445D01*
X58328233Y-58478537D01*
X58347828Y-58478368D01*
X58574267Y-58491838D01*
X58725103Y-58534061D01*
X58798435Y-58604354D01*
X58805667Y-58642595D01*
X58782927Y-58739822D01*
X58709882Y-58816991D01*
X58579289Y-58876683D01*
X58383908Y-58921476D01*
X58116498Y-58953950D01*
X57884917Y-58970598D01*
X57408667Y-58998237D01*
X57408667Y-59243029D01*
X57397907Y-59452274D01*
X57359979Y-59599939D01*
X57286411Y-59707024D01*
X57191858Y-59780352D01*
X57052793Y-59868402D01*
X57165494Y-59896688D01*
X57268896Y-59939455D01*
X57328106Y-59985114D01*
X57347624Y-60061524D01*
X57284315Y-60141732D01*
X57139870Y-60224492D01*
X56915978Y-60308559D01*
X56869711Y-60323020D01*
X56674220Y-60388690D01*
X56562172Y-60441060D01*
X56533614Y-60480220D01*
X56588594Y-60506261D01*
X56727162Y-60519272D01*
X56949364Y-60519344D01*
X56974033Y-60518704D01*
X57398608Y-60506907D01*
X57428142Y-60743290D01*
X57435132Y-60931573D01*
X57393976Y-61072040D01*
X57293335Y-61183190D01*
X57121866Y-61283522D01*
X57086899Y-61299900D01*
X56972594Y-61344062D01*
X56802336Y-61399830D01*
X56594838Y-61462119D01*
X56368813Y-61525847D01*
X56142975Y-61585933D01*
X55936036Y-61637294D01*
X55766710Y-61674847D01*
X55653710Y-61693511D01*
X55633367Y-61694667D01*
X55545235Y-61727593D01*
X55462470Y-61804020D01*
X55419798Y-61890423D01*
X55419000Y-61901634D01*
X55439123Y-61923714D01*
X55506746Y-61935401D01*
X55632751Y-61937188D01*
X55828022Y-61929567D01*
X55921012Y-61924404D01*
X56152172Y-61914446D01*
X56322974Y-61914659D01*
X56424359Y-61924841D01*
X56448413Y-61936121D01*
X56446732Y-62006206D01*
X56384485Y-62095006D01*
X56277607Y-62184960D01*
X56164808Y-62248652D01*
X55916983Y-62316677D01*
X55655236Y-62309453D01*
X55501352Y-62268263D01*
X55279803Y-62174826D01*
X55090899Y-62072600D01*
X54956893Y-61974010D01*
X54935351Y-61952246D01*
X54884395Y-61885721D01*
X54878788Y-61825035D01*
X54916130Y-61731622D01*
X54920982Y-61721409D01*
X55009245Y-61580292D01*
X55143161Y-61416089D01*
X55301377Y-61250649D01*
X55462536Y-61105817D01*
X55605284Y-61003442D01*
X55641682Y-60984106D01*
X55833061Y-60870588D01*
X55943933Y-60743702D01*
X55978315Y-60594985D01*
X55940223Y-60415974D01*
X55927156Y-60382710D01*
X55896027Y-60266964D01*
X55916471Y-60155655D01*
X55929351Y-60122657D01*
X55961328Y-60027294D01*
X55949164Y-59971516D01*
X55905230Y-59932157D01*
X55809932Y-59895061D01*
X55675303Y-59881106D01*
X55524708Y-59887465D01*
X55381512Y-59911312D01*
X55269080Y-59949821D01*
X55210779Y-60000166D01*
X55207334Y-60016570D01*
X55235773Y-60077517D01*
X55306736Y-60164110D01*
X55334334Y-60191834D01*
X55413610Y-60275033D01*
X55457944Y-60335627D01*
X55461334Y-60346419D01*
X55437373Y-60413018D01*
X55373742Y-60527949D01*
X55282821Y-60672764D01*
X55176987Y-60829015D01*
X55068619Y-60978256D01*
X54970094Y-61102037D01*
X54911729Y-61165500D01*
X54737587Y-61334834D01*
X54390377Y-61334834D01*
X54208242Y-61331564D01*
X54083671Y-61317816D01*
X53989686Y-61287682D01*
X53899307Y-61235254D01*
X53882128Y-61223539D01*
X53707497Y-61076595D01*
X53586155Y-60920185D01*
X53522548Y-60766705D01*
X53521122Y-60628552D01*
X53586322Y-60518123D01*
X53619834Y-60492060D01*
X53706748Y-60408007D01*
X53711779Y-60362942D01*
X54657000Y-60362942D01*
X54665222Y-60465069D01*
X54696508Y-60502341D01*
X54730209Y-60501443D01*
X54796453Y-60454401D01*
X54844291Y-60371121D01*
X54858547Y-60259774D01*
X54820241Y-60189903D01*
X54740886Y-60179232D01*
X54723346Y-60184884D01*
X54671798Y-60248931D01*
X54657000Y-60362942D01*
X53711779Y-60362942D01*
X53715608Y-60328653D01*
X53645961Y-60265943D01*
X53628677Y-60258696D01*
X53529166Y-60204387D01*
X53459971Y-60118677D01*
X53409689Y-59982270D01*
X53377119Y-59832858D01*
X53354720Y-59554446D01*
X53387321Y-59287415D01*
X53470780Y-59056851D01*
X53518025Y-58979681D01*
X53581490Y-58875449D01*
X53616487Y-58789229D01*
X53618052Y-58779887D01*
X53635194Y-58687140D01*
X53658650Y-58595085D01*
X53668771Y-58472066D01*
X53648277Y-58313026D01*
X53639771Y-58276833D01*
X53615961Y-58172508D01*
X53611549Y-58090234D01*
X53631761Y-58004215D01*
X53681821Y-57888651D01*
X53743639Y-57764010D01*
X53821854Y-57600396D01*
X53860951Y-57493267D01*
X53865531Y-57426603D01*
X53849772Y-57394346D01*
X53756759Y-57339476D01*
X53644096Y-57356584D01*
X53556333Y-57419000D01*
X53467410Y-57483642D01*
X53389949Y-57501495D01*
X53347232Y-57469135D01*
X53344667Y-57450123D01*
X53368406Y-57363637D01*
X53429515Y-57237556D01*
X53512834Y-57098686D01*
X53603202Y-56973831D01*
X53634752Y-56937247D01*
X53733905Y-56842408D01*
X53843779Y-56769164D01*
X53977538Y-56714034D01*
X54148341Y-56673536D01*
X54369350Y-56644188D01*
X54653727Y-56622508D01*
X54866308Y-56611451D01*
X55149760Y-56599465D01*
X55442436Y-56588985D01*
X55717858Y-56580834D01*
X55949546Y-56575836D01*
X56047389Y-56574737D01*
X56485278Y-56572334D01*
X56457077Y-56794584D01*
G36*
X58115907Y-60945101D02*
X58089239Y-60983978D01*
X58049560Y-61018742D01*
X57945494Y-61089711D01*
X57887716Y-61090342D01*
X57874334Y-61043029D01*
X57912085Y-60977638D01*
X58009404Y-60939165D01*
X58078879Y-60934075D01*
X58115907Y-60945101D01*
X58115907Y-60945101D01*
G37*
X58115907Y-60945101D02*
X58089239Y-60983978D01*
X58049560Y-61018742D01*
X57945494Y-61089711D01*
X57887716Y-61090342D01*
X57874334Y-61043029D01*
X57912085Y-60977638D01*
X58009404Y-60939165D01*
X58078879Y-60934075D01*
X58115907Y-60945101D01*
G36*
X53190091Y-57824565D02*
X53244665Y-57869656D01*
X53247134Y-57958445D01*
X53244141Y-57974548D01*
X53227202Y-58105404D01*
X53213049Y-58304667D01*
X53201931Y-58556116D01*
X53194098Y-58843528D01*
X53189797Y-59150681D01*
X53189278Y-59461355D01*
X53192790Y-59759328D01*
X53200582Y-60028376D01*
X53209858Y-60208759D01*
X53223259Y-60438201D01*
X53232042Y-60639945D01*
X53235736Y-60797877D01*
X53233873Y-60895885D01*
X53230542Y-60917842D01*
X53180421Y-60971589D01*
X53106351Y-60950365D01*
X53016442Y-60857562D01*
X52987580Y-60816250D01*
X52927740Y-60705632D01*
X52854407Y-60541663D01*
X52779448Y-60351775D01*
X52744947Y-60255334D01*
X52684029Y-60070442D01*
X52643995Y-59920121D01*
X52620465Y-59775834D01*
X52609057Y-59609046D01*
X52605391Y-59391219D01*
X52605218Y-59345167D01*
X52606989Y-59111255D01*
X52616413Y-58933451D01*
X52637440Y-58783278D01*
X52674016Y-58632257D01*
X52728314Y-58457329D01*
X52822935Y-58209616D01*
X52924630Y-58015836D01*
X53027600Y-57883935D01*
X53126045Y-57821861D01*
X53190091Y-57824565D01*
X53190091Y-57824565D01*
G37*
X53190091Y-57824565D02*
X53244665Y-57869656D01*
X53247134Y-57958445D01*
X53244141Y-57974548D01*
X53227202Y-58105404D01*
X53213049Y-58304667D01*
X53201931Y-58556116D01*
X53194098Y-58843528D01*
X53189797Y-59150681D01*
X53189278Y-59461355D01*
X53192790Y-59759328D01*
X53200582Y-60028376D01*
X53209858Y-60208759D01*
X53223259Y-60438201D01*
X53232042Y-60639945D01*
X53235736Y-60797877D01*
X53233873Y-60895885D01*
X53230542Y-60917842D01*
X53180421Y-60971589D01*
X53106351Y-60950365D01*
X53016442Y-60857562D01*
X52987580Y-60816250D01*
X52927740Y-60705632D01*
X52854407Y-60541663D01*
X52779448Y-60351775D01*
X52744947Y-60255334D01*
X52684029Y-60070442D01*
X52643995Y-59920121D01*
X52620465Y-59775834D01*
X52609057Y-59609046D01*
X52605391Y-59391219D01*
X52605218Y-59345167D01*
X52606989Y-59111255D01*
X52616413Y-58933451D01*
X52637440Y-58783278D01*
X52674016Y-58632257D01*
X52728314Y-58457329D01*
X52822935Y-58209616D01*
X52924630Y-58015836D01*
X53027600Y-57883935D01*
X53126045Y-57821861D01*
X53190091Y-57824565D01*
G36*
X57284810Y-56423066D02*
X57415520Y-56461005D01*
X57515083Y-56512812D01*
X57570087Y-56573304D01*
X57567119Y-56637299D01*
X57496117Y-56697844D01*
X57381239Y-56729300D01*
X57220198Y-56738820D01*
X57048264Y-56727640D01*
X56900709Y-56696997D01*
X56847750Y-56675120D01*
X56753984Y-56599140D01*
X56740394Y-56523441D01*
X56807342Y-56458732D01*
X56839923Y-56444286D01*
X56983598Y-56409524D01*
X57136365Y-56404178D01*
X57284810Y-56423066D01*
X57284810Y-56423066D01*
G37*
X57284810Y-56423066D02*
X57415520Y-56461005D01*
X57515083Y-56512812D01*
X57570087Y-56573304D01*
X57567119Y-56637299D01*
X57496117Y-56697844D01*
X57381239Y-56729300D01*
X57220198Y-56738820D01*
X57048264Y-56727640D01*
X56900709Y-56696997D01*
X56847750Y-56675120D01*
X56753984Y-56599140D01*
X56740394Y-56523441D01*
X56807342Y-56458732D01*
X56839923Y-56444286D01*
X56983598Y-56409524D01*
X57136365Y-56404178D01*
X57284810Y-56423066D01*
G36*
X54936308Y-46775794D02*
X55110564Y-46817930D01*
X55326105Y-46884650D01*
X55591904Y-46978147D01*
X55916935Y-47100615D01*
X56310172Y-47254248D01*
X56337992Y-47265241D01*
X57193485Y-47603451D01*
X57107882Y-47820626D01*
X57056127Y-47948221D01*
X57014674Y-48043850D01*
X56998657Y-48076025D01*
X56948276Y-48089642D01*
X56829316Y-48095203D01*
X56657508Y-48092429D01*
X56503934Y-48084745D01*
X56288281Y-48074571D01*
X56149623Y-48077264D01*
X56088622Y-48094937D01*
X56105936Y-48129703D01*
X56202225Y-48183674D01*
X56378150Y-48258964D01*
X56583167Y-48338420D01*
X56762235Y-48407851D01*
X56913663Y-48469853D01*
X57018556Y-48516497D01*
X57055184Y-48536523D01*
X57089394Y-48602487D01*
X57104142Y-48708438D01*
X57104153Y-48710587D01*
X57122591Y-48809002D01*
X57171646Y-48956725D01*
X57242338Y-49128226D01*
X57277719Y-49204094D01*
X57358227Y-49385820D01*
X57418118Y-49551437D01*
X57448770Y-49676059D01*
X57451000Y-49704294D01*
X57460328Y-49846601D01*
X57498501Y-49935679D01*
X57580806Y-49983125D01*
X57722530Y-50000537D01*
X57842588Y-50001390D01*
X58072664Y-50015837D01*
X58302418Y-50060255D01*
X58515076Y-50128076D01*
X58693864Y-50212736D01*
X58822008Y-50307666D01*
X58882734Y-50406302D01*
X58883246Y-50408770D01*
X58873101Y-50514961D01*
X58793114Y-50575797D01*
X58644941Y-50591272D01*
X58430237Y-50561378D01*
X58150658Y-50486109D01*
X57934381Y-50412651D01*
X57760620Y-50350837D01*
X57616772Y-50301692D01*
X57521219Y-50271380D01*
X57492995Y-50264667D01*
X57465251Y-50301786D01*
X57437068Y-50393913D01*
X57431039Y-50423417D01*
X57374937Y-50638734D01*
X57294732Y-50784124D01*
X57181106Y-50873027D01*
X57098198Y-50903473D01*
X56924014Y-50950376D01*
X57039340Y-51034386D01*
X57130424Y-51128817D01*
X57150648Y-51217588D01*
X57099616Y-51285100D01*
X57046240Y-51306267D01*
X56952230Y-51315788D01*
X56803866Y-51315862D01*
X56630922Y-51306608D01*
X56605817Y-51304520D01*
X56406462Y-51294069D01*
X56288329Y-51303950D01*
X56250709Y-51333154D01*
X56292892Y-51380672D01*
X56414168Y-51445495D01*
X56613826Y-51526613D01*
X56811214Y-51596402D01*
X56957757Y-51648231D01*
X57040144Y-51688331D01*
X57075010Y-51730305D01*
X57078986Y-51787759D01*
X57076263Y-51813185D01*
X57030885Y-52026388D01*
X56956599Y-52189343D01*
X56860971Y-52285599D01*
X56858334Y-52287029D01*
X56739041Y-52317365D01*
X56541428Y-52324447D01*
X56268534Y-52308455D01*
X55923395Y-52269572D01*
X55509051Y-52207981D01*
X55490264Y-52204914D01*
X55237331Y-52166562D01*
X55059614Y-52147118D01*
X54949925Y-52146047D01*
X54902559Y-52161174D01*
X54870845Y-52221339D01*
X54902908Y-52280887D01*
X55004243Y-52343716D01*
X55180347Y-52413722D01*
X55325787Y-52461290D01*
X55556358Y-52537165D01*
X55710093Y-52599910D01*
X55792814Y-52654721D01*
X55810346Y-52706796D01*
X55768512Y-52761329D01*
X55708538Y-52802827D01*
X55591164Y-52861758D01*
X55478033Y-52881194D01*
X55334957Y-52864500D01*
X55256760Y-52847300D01*
X55098080Y-52785431D01*
X54923496Y-52678479D01*
X54748748Y-52541197D01*
X54589577Y-52388336D01*
X54461721Y-52234651D01*
X54380921Y-52094893D01*
X54360667Y-52007400D01*
X54398245Y-51923010D01*
X54499268Y-51823841D01*
X54646170Y-51719720D01*
X54821386Y-51620480D01*
X55007350Y-51535948D01*
X55186496Y-51475956D01*
X55341258Y-51450332D01*
X55356664Y-51450034D01*
X55530943Y-51431439D01*
X55641571Y-51368106D01*
X55699405Y-51248584D01*
X55715334Y-51071783D01*
X55726218Y-50897231D01*
X55760384Y-50794274D01*
X55780876Y-50770971D01*
X55834799Y-50686966D01*
X55815718Y-50596704D01*
X55733919Y-50509150D01*
X55599687Y-50433268D01*
X55423305Y-50378019D01*
X55308472Y-50359265D01*
X55189784Y-50352859D01*
X55133603Y-50375925D01*
X55135483Y-50440687D01*
X55190977Y-50559369D01*
X55217917Y-50608210D01*
X55313167Y-50778027D01*
X55059167Y-51007808D01*
X54806477Y-51212548D01*
X54578647Y-51342940D01*
X54365681Y-51401793D01*
X54157585Y-51391920D01*
X53951176Y-51319455D01*
X53784503Y-51210915D01*
X53620258Y-51057468D01*
X53481724Y-50884823D01*
X53392185Y-50718691D01*
X53383370Y-50692475D01*
X53359594Y-50571080D01*
X54494137Y-50571080D01*
X54501940Y-50621801D01*
X54550550Y-50682186D01*
X54616448Y-50661139D01*
X54681846Y-50582494D01*
X54725958Y-50474312D01*
X54713626Y-50389516D01*
X54649133Y-50350005D01*
X54636255Y-50349334D01*
X54570004Y-50385732D01*
X54516835Y-50471407D01*
X54494137Y-50571080D01*
X53359594Y-50571080D01*
X53348862Y-50516292D01*
X53353993Y-50368673D01*
X53395925Y-50267188D01*
X53458009Y-50230375D01*
X53574575Y-50190500D01*
X53613888Y-50116983D01*
X53575022Y-50012825D01*
X53539645Y-49965935D01*
X53454456Y-49803474D01*
X53423086Y-49598497D01*
X53442069Y-49370836D01*
X53507937Y-49140320D01*
X53617225Y-48926779D01*
X53749421Y-48765898D01*
X53848410Y-48665663D01*
X53916491Y-48586425D01*
X53937334Y-48550174D01*
X53962999Y-48494292D01*
X54007542Y-48436921D01*
X54056592Y-48337290D01*
X54070878Y-48177211D01*
X54070062Y-48142109D01*
X54069393Y-48030264D01*
X54084763Y-47947119D01*
X54127981Y-47868526D01*
X54210857Y-47770339D01*
X54296187Y-47679748D01*
X54405702Y-47560209D01*
X54487749Y-47461655D01*
X54528096Y-47401459D01*
X54530000Y-47394326D01*
X54492747Y-47317641D01*
X54390440Y-47276007D01*
X54237256Y-47274630D01*
X54212885Y-47277896D01*
X54095587Y-47291548D01*
X54039424Y-47281851D01*
X54022621Y-47242619D01*
X54022000Y-47223646D01*
X54055977Y-47141506D01*
X54144363Y-47038244D01*
X54266842Y-46932545D01*
X54403097Y-46843094D01*
X54472645Y-46809204D01*
X54571505Y-46774947D01*
X54675752Y-46756496D01*
X54794362Y-46756047D01*
X54936308Y-46775794D01*
X54936308Y-46775794D01*
G37*
X54936308Y-46775794D02*
X55110564Y-46817930D01*
X55326105Y-46884650D01*
X55591904Y-46978147D01*
X55916935Y-47100615D01*
X56310172Y-47254248D01*
X56337992Y-47265241D01*
X57193485Y-47603451D01*
X57107882Y-47820626D01*
X57056127Y-47948221D01*
X57014674Y-48043850D01*
X56998657Y-48076025D01*
X56948276Y-48089642D01*
X56829316Y-48095203D01*
X56657508Y-48092429D01*
X56503934Y-48084745D01*
X56288281Y-48074571D01*
X56149623Y-48077264D01*
X56088622Y-48094937D01*
X56105936Y-48129703D01*
X56202225Y-48183674D01*
X56378150Y-48258964D01*
X56583167Y-48338420D01*
X56762235Y-48407851D01*
X56913663Y-48469853D01*
X57018556Y-48516497D01*
X57055184Y-48536523D01*
X57089394Y-48602487D01*
X57104142Y-48708438D01*
X57104153Y-48710587D01*
X57122591Y-48809002D01*
X57171646Y-48956725D01*
X57242338Y-49128226D01*
X57277719Y-49204094D01*
X57358227Y-49385820D01*
X57418118Y-49551437D01*
X57448770Y-49676059D01*
X57451000Y-49704294D01*
X57460328Y-49846601D01*
X57498501Y-49935679D01*
X57580806Y-49983125D01*
X57722530Y-50000537D01*
X57842588Y-50001390D01*
X58072664Y-50015837D01*
X58302418Y-50060255D01*
X58515076Y-50128076D01*
X58693864Y-50212736D01*
X58822008Y-50307666D01*
X58882734Y-50406302D01*
X58883246Y-50408770D01*
X58873101Y-50514961D01*
X58793114Y-50575797D01*
X58644941Y-50591272D01*
X58430237Y-50561378D01*
X58150658Y-50486109D01*
X57934381Y-50412651D01*
X57760620Y-50350837D01*
X57616772Y-50301692D01*
X57521219Y-50271380D01*
X57492995Y-50264667D01*
X57465251Y-50301786D01*
X57437068Y-50393913D01*
X57431039Y-50423417D01*
X57374937Y-50638734D01*
X57294732Y-50784124D01*
X57181106Y-50873027D01*
X57098198Y-50903473D01*
X56924014Y-50950376D01*
X57039340Y-51034386D01*
X57130424Y-51128817D01*
X57150648Y-51217588D01*
X57099616Y-51285100D01*
X57046240Y-51306267D01*
X56952230Y-51315788D01*
X56803866Y-51315862D01*
X56630922Y-51306608D01*
X56605817Y-51304520D01*
X56406462Y-51294069D01*
X56288329Y-51303950D01*
X56250709Y-51333154D01*
X56292892Y-51380672D01*
X56414168Y-51445495D01*
X56613826Y-51526613D01*
X56811214Y-51596402D01*
X56957757Y-51648231D01*
X57040144Y-51688331D01*
X57075010Y-51730305D01*
X57078986Y-51787759D01*
X57076263Y-51813185D01*
X57030885Y-52026388D01*
X56956599Y-52189343D01*
X56860971Y-52285599D01*
X56858334Y-52287029D01*
X56739041Y-52317365D01*
X56541428Y-52324447D01*
X56268534Y-52308455D01*
X55923395Y-52269572D01*
X55509051Y-52207981D01*
X55490264Y-52204914D01*
X55237331Y-52166562D01*
X55059614Y-52147118D01*
X54949925Y-52146047D01*
X54902559Y-52161174D01*
X54870845Y-52221339D01*
X54902908Y-52280887D01*
X55004243Y-52343716D01*
X55180347Y-52413722D01*
X55325787Y-52461290D01*
X55556358Y-52537165D01*
X55710093Y-52599910D01*
X55792814Y-52654721D01*
X55810346Y-52706796D01*
X55768512Y-52761329D01*
X55708538Y-52802827D01*
X55591164Y-52861758D01*
X55478033Y-52881194D01*
X55334957Y-52864500D01*
X55256760Y-52847300D01*
X55098080Y-52785431D01*
X54923496Y-52678479D01*
X54748748Y-52541197D01*
X54589577Y-52388336D01*
X54461721Y-52234651D01*
X54380921Y-52094893D01*
X54360667Y-52007400D01*
X54398245Y-51923010D01*
X54499268Y-51823841D01*
X54646170Y-51719720D01*
X54821386Y-51620480D01*
X55007350Y-51535948D01*
X55186496Y-51475956D01*
X55341258Y-51450332D01*
X55356664Y-51450034D01*
X55530943Y-51431439D01*
X55641571Y-51368106D01*
X55699405Y-51248584D01*
X55715334Y-51071783D01*
X55726218Y-50897231D01*
X55760384Y-50794274D01*
X55780876Y-50770971D01*
X55834799Y-50686966D01*
X55815718Y-50596704D01*
X55733919Y-50509150D01*
X55599687Y-50433268D01*
X55423305Y-50378019D01*
X55308472Y-50359265D01*
X55189784Y-50352859D01*
X55133603Y-50375925D01*
X55135483Y-50440687D01*
X55190977Y-50559369D01*
X55217917Y-50608210D01*
X55313167Y-50778027D01*
X55059167Y-51007808D01*
X54806477Y-51212548D01*
X54578647Y-51342940D01*
X54365681Y-51401793D01*
X54157585Y-51391920D01*
X53951176Y-51319455D01*
X53784503Y-51210915D01*
X53620258Y-51057468D01*
X53481724Y-50884823D01*
X53392185Y-50718691D01*
X53383370Y-50692475D01*
X53359594Y-50571080D01*
X54494137Y-50571080D01*
X54501940Y-50621801D01*
X54550550Y-50682186D01*
X54616448Y-50661139D01*
X54681846Y-50582494D01*
X54725958Y-50474312D01*
X54713626Y-50389516D01*
X54649133Y-50350005D01*
X54636255Y-50349334D01*
X54570004Y-50385732D01*
X54516835Y-50471407D01*
X54494137Y-50571080D01*
X53359594Y-50571080D01*
X53348862Y-50516292D01*
X53353993Y-50368673D01*
X53395925Y-50267188D01*
X53458009Y-50230375D01*
X53574575Y-50190500D01*
X53613888Y-50116983D01*
X53575022Y-50012825D01*
X53539645Y-49965935D01*
X53454456Y-49803474D01*
X53423086Y-49598497D01*
X53442069Y-49370836D01*
X53507937Y-49140320D01*
X53617225Y-48926779D01*
X53749421Y-48765898D01*
X53848410Y-48665663D01*
X53916491Y-48586425D01*
X53937334Y-48550174D01*
X53962999Y-48494292D01*
X54007542Y-48436921D01*
X54056592Y-48337290D01*
X54070878Y-48177211D01*
X54070062Y-48142109D01*
X54069393Y-48030264D01*
X54084763Y-47947119D01*
X54127981Y-47868526D01*
X54210857Y-47770339D01*
X54296187Y-47679748D01*
X54405702Y-47560209D01*
X54487749Y-47461655D01*
X54528096Y-47401459D01*
X54530000Y-47394326D01*
X54492747Y-47317641D01*
X54390440Y-47276007D01*
X54237256Y-47274630D01*
X54212885Y-47277896D01*
X54095587Y-47291548D01*
X54039424Y-47281851D01*
X54022621Y-47242619D01*
X54022000Y-47223646D01*
X54055977Y-47141506D01*
X54144363Y-47038244D01*
X54266842Y-46932545D01*
X54403097Y-46843094D01*
X54472645Y-46809204D01*
X54571505Y-46774947D01*
X54675752Y-46756496D01*
X54794362Y-46756047D01*
X54936308Y-46775794D01*
G36*
X53712622Y-47493948D02*
X53749522Y-47519233D01*
X53772925Y-47559603D01*
X53773474Y-47623712D01*
X53748295Y-47728600D01*
X53694515Y-47891311D01*
X53679690Y-47933372D01*
X53619774Y-48115413D01*
X53550089Y-48348521D01*
X53474068Y-48618956D01*
X53395147Y-48912977D01*
X53316757Y-49216845D01*
X53242333Y-49516820D01*
X53175308Y-49799161D01*
X53119115Y-50050129D01*
X53077190Y-50255984D01*
X53052964Y-50402986D01*
X53048334Y-50459843D01*
X53013000Y-50473638D01*
X52970462Y-50476334D01*
X52896789Y-50441315D01*
X52844312Y-50370374D01*
X52806020Y-50244454D01*
X52772229Y-50056627D01*
X52745110Y-49829623D01*
X52726838Y-49586170D01*
X52719585Y-49348996D01*
X52725523Y-49140830D01*
X52726066Y-49133418D01*
X52750968Y-48929449D01*
X52791714Y-48721192D01*
X52839774Y-48551741D01*
X52842889Y-48543255D01*
X52953062Y-48286911D01*
X53080989Y-48051295D01*
X53218832Y-47845258D01*
X53358755Y-47677653D01*
X53492918Y-47557331D01*
X53613487Y-47493146D01*
X53712622Y-47493948D01*
X53712622Y-47493948D01*
G37*
X53712622Y-47493948D02*
X53749522Y-47519233D01*
X53772925Y-47559603D01*
X53773474Y-47623712D01*
X53748295Y-47728600D01*
X53694515Y-47891311D01*
X53679690Y-47933372D01*
X53619774Y-48115413D01*
X53550089Y-48348521D01*
X53474068Y-48618956D01*
X53395147Y-48912977D01*
X53316757Y-49216845D01*
X53242333Y-49516820D01*
X53175308Y-49799161D01*
X53119115Y-50050129D01*
X53077190Y-50255984D01*
X53052964Y-50402986D01*
X53048334Y-50459843D01*
X53013000Y-50473638D01*
X52970462Y-50476334D01*
X52896789Y-50441315D01*
X52844312Y-50370374D01*
X52806020Y-50244454D01*
X52772229Y-50056627D01*
X52745110Y-49829623D01*
X52726838Y-49586170D01*
X52719585Y-49348996D01*
X52725523Y-49140830D01*
X52726066Y-49133418D01*
X52750968Y-48929449D01*
X52791714Y-48721192D01*
X52839774Y-48551741D01*
X52842889Y-48543255D01*
X52953062Y-48286911D01*
X53080989Y-48051295D01*
X53218832Y-47845258D01*
X53358755Y-47677653D01*
X53492918Y-47557331D01*
X53613487Y-47493146D01*
X53712622Y-47493948D01*
G36*
X57632505Y-47615382D02*
X57764415Y-47661540D01*
X57902801Y-47721350D01*
X58079797Y-47820731D01*
X58196330Y-47919843D01*
X58244523Y-48010523D01*
X58233626Y-48064208D01*
X58169470Y-48097176D01*
X58056331Y-48101261D01*
X57924048Y-48078494D01*
X57810834Y-48035442D01*
X57664266Y-47942657D01*
X57550742Y-47841535D01*
X57477683Y-47744357D01*
X57452512Y-47663402D01*
X57482649Y-47610949D01*
X57546250Y-47597700D01*
X57632505Y-47615382D01*
X57632505Y-47615382D01*
G37*
X57632505Y-47615382D02*
X57764415Y-47661540D01*
X57902801Y-47721350D01*
X58079797Y-47820731D01*
X58196330Y-47919843D01*
X58244523Y-48010523D01*
X58233626Y-48064208D01*
X58169470Y-48097176D01*
X58056331Y-48101261D01*
X57924048Y-48078494D01*
X57810834Y-48035442D01*
X57664266Y-47942657D01*
X57550742Y-47841535D01*
X57477683Y-47744357D01*
X57452512Y-47663402D01*
X57482649Y-47610949D01*
X57546250Y-47597700D01*
X57632505Y-47615382D01*
G36*
X90061618Y-32567392D02*
X90291411Y-32631572D01*
X90446642Y-32723701D01*
X90608014Y-32864671D01*
X90752855Y-33029974D01*
X90858490Y-33195105D01*
X90893050Y-33281831D01*
X90921687Y-33455056D01*
X90932378Y-33687407D01*
X90925463Y-33955339D01*
X90901281Y-34235308D01*
X90876773Y-34410712D01*
X90848052Y-34664804D01*
X90857973Y-34844066D01*
X90907383Y-34949434D01*
X90997129Y-34981842D01*
X91128059Y-34942223D01*
X91275503Y-34850344D01*
X91571115Y-34673777D01*
X91853264Y-34579795D01*
X92118381Y-34567516D01*
X92362896Y-34636054D01*
X92583242Y-34784525D01*
X92775848Y-35012047D01*
X92909763Y-35255185D01*
X93019234Y-35584071D01*
X93048844Y-35920321D01*
X92998134Y-36268134D01*
X92866649Y-36631706D01*
X92731950Y-36888231D01*
X92632240Y-37084293D01*
X92569805Y-37262328D01*
X92547952Y-37407252D01*
X92569989Y-37503981D01*
X92592101Y-37525970D01*
X92657353Y-37541662D01*
X92786409Y-37554248D01*
X92958421Y-37562140D01*
X93091586Y-37564019D01*
X93532006Y-37564667D01*
X93695365Y-37741617D01*
X93809339Y-37884985D01*
X93921617Y-38057514D01*
X93974233Y-38154367D01*
X94035789Y-38293980D01*
X94070145Y-38420002D01*
X94083955Y-38567064D01*
X94084596Y-38728834D01*
X94059257Y-39060435D01*
X93997267Y-39391646D01*
X93904865Y-39701339D01*
X93788289Y-39968386D01*
X93661070Y-40163055D01*
X93556224Y-40278357D01*
X93481017Y-40327649D01*
X93418980Y-40315931D01*
X93358803Y-40254833D01*
X93282550Y-40136164D01*
X93233863Y-40032316D01*
X93200656Y-39940450D01*
X93147853Y-39794061D01*
X93084523Y-39618295D01*
X93053873Y-39533167D01*
X92894962Y-39143152D01*
X92683453Y-38704983D01*
X92426330Y-38230660D01*
X92130576Y-37732182D01*
X91803175Y-37221549D01*
X91451109Y-36710762D01*
X91253562Y-36439589D01*
X90978244Y-36100615D01*
X90651722Y-35757778D01*
X90267436Y-35405166D01*
X89818827Y-35036873D01*
X89299335Y-34646987D01*
X89126389Y-34523302D01*
X88908617Y-34365389D01*
X88753578Y-34240985D01*
X88652278Y-34138606D01*
X88595726Y-34046772D01*
X88574932Y-33953998D01*
X88580902Y-33848803D01*
X88583705Y-33830278D01*
X88638936Y-33627607D01*
X88737435Y-33395841D01*
X88863577Y-33166718D01*
X89001740Y-32971973D01*
X89012505Y-32959224D01*
X89233779Y-32760712D01*
X89493581Y-32626369D01*
X89775123Y-32560495D01*
X90061618Y-32567392D01*
X90061618Y-32567392D01*
G37*
X90061618Y-32567392D02*
X90291411Y-32631572D01*
X90446642Y-32723701D01*
X90608014Y-32864671D01*
X90752855Y-33029974D01*
X90858490Y-33195105D01*
X90893050Y-33281831D01*
X90921687Y-33455056D01*
X90932378Y-33687407D01*
X90925463Y-33955339D01*
X90901281Y-34235308D01*
X90876773Y-34410712D01*
X90848052Y-34664804D01*
X90857973Y-34844066D01*
X90907383Y-34949434D01*
X90997129Y-34981842D01*
X91128059Y-34942223D01*
X91275503Y-34850344D01*
X91571115Y-34673777D01*
X91853264Y-34579795D01*
X92118381Y-34567516D01*
X92362896Y-34636054D01*
X92583242Y-34784525D01*
X92775848Y-35012047D01*
X92909763Y-35255185D01*
X93019234Y-35584071D01*
X93048844Y-35920321D01*
X92998134Y-36268134D01*
X92866649Y-36631706D01*
X92731950Y-36888231D01*
X92632240Y-37084293D01*
X92569805Y-37262328D01*
X92547952Y-37407252D01*
X92569989Y-37503981D01*
X92592101Y-37525970D01*
X92657353Y-37541662D01*
X92786409Y-37554248D01*
X92958421Y-37562140D01*
X93091586Y-37564019D01*
X93532006Y-37564667D01*
X93695365Y-37741617D01*
X93809339Y-37884985D01*
X93921617Y-38057514D01*
X93974233Y-38154367D01*
X94035789Y-38293980D01*
X94070145Y-38420002D01*
X94083955Y-38567064D01*
X94084596Y-38728834D01*
X94059257Y-39060435D01*
X93997267Y-39391646D01*
X93904865Y-39701339D01*
X93788289Y-39968386D01*
X93661070Y-40163055D01*
X93556224Y-40278357D01*
X93481017Y-40327649D01*
X93418980Y-40315931D01*
X93358803Y-40254833D01*
X93282550Y-40136164D01*
X93233863Y-40032316D01*
X93200656Y-39940450D01*
X93147853Y-39794061D01*
X93084523Y-39618295D01*
X93053873Y-39533167D01*
X92894962Y-39143152D01*
X92683453Y-38704983D01*
X92426330Y-38230660D01*
X92130576Y-37732182D01*
X91803175Y-37221549D01*
X91451109Y-36710762D01*
X91253562Y-36439589D01*
X90978244Y-36100615D01*
X90651722Y-35757778D01*
X90267436Y-35405166D01*
X89818827Y-35036873D01*
X89299335Y-34646987D01*
X89126389Y-34523302D01*
X88908617Y-34365389D01*
X88753578Y-34240985D01*
X88652278Y-34138606D01*
X88595726Y-34046772D01*
X88574932Y-33953998D01*
X88580902Y-33848803D01*
X88583705Y-33830278D01*
X88638936Y-33627607D01*
X88737435Y-33395841D01*
X88863577Y-33166718D01*
X89001740Y-32971973D01*
X89012505Y-32959224D01*
X89233779Y-32760712D01*
X89493581Y-32626369D01*
X89775123Y-32560495D01*
X90061618Y-32567392D01*
G36*
X73819176Y-31708968D02*
X74046249Y-31798791D01*
X74245594Y-31956177D01*
X74425538Y-32187268D01*
X74555134Y-32417345D01*
X74648232Y-32658592D01*
X74679914Y-32880681D01*
X74649042Y-33069080D01*
X74611912Y-33142913D01*
X74550394Y-33211959D01*
X74438461Y-33315693D01*
X74293719Y-33438390D01*
X74177995Y-33530480D01*
X73883149Y-33775603D01*
X73554244Y-34078312D01*
X73203470Y-34425273D01*
X72843012Y-34803151D01*
X72485059Y-35198611D01*
X72141799Y-35598318D01*
X71825418Y-35988937D01*
X71548105Y-36357134D01*
X71400114Y-36569834D01*
X71270091Y-36773900D01*
X71118175Y-37027968D01*
X70959465Y-37305878D01*
X70809058Y-37581475D01*
X70740349Y-37712834D01*
X70569210Y-38040282D01*
X70429687Y-38294370D01*
X70319243Y-38479207D01*
X70235341Y-38598905D01*
X70175446Y-38657576D01*
X70152609Y-38665334D01*
X70105053Y-38635716D01*
X70029458Y-38561465D01*
X69999830Y-38527750D01*
X69817243Y-38248970D01*
X69689889Y-37914860D01*
X69620828Y-37536773D01*
X69613119Y-37126060D01*
X69614782Y-37099000D01*
X69653922Y-36744669D01*
X69720420Y-36467342D01*
X69816150Y-36263284D01*
X69942986Y-36128760D01*
X70102801Y-36060034D01*
X70139062Y-36053832D01*
X70346466Y-36053384D01*
X70568808Y-36095971D01*
X70766021Y-36172416D01*
X70831873Y-36212520D01*
X70961402Y-36282710D01*
X71051203Y-36279248D01*
X71103669Y-36201930D01*
X71107283Y-36188834D01*
X71119475Y-36107815D01*
X71112539Y-36017110D01*
X71082102Y-35902617D01*
X71023790Y-35750233D01*
X70933232Y-35545855D01*
X70857865Y-35384500D01*
X70764578Y-35184095D01*
X70702230Y-35036416D01*
X70664602Y-34918110D01*
X70645478Y-34805825D01*
X70638640Y-34676207D01*
X70637834Y-34558022D01*
X70641535Y-34366762D01*
X70657599Y-34225668D01*
X70693462Y-34100385D01*
X70756560Y-33956556D01*
X70777195Y-33914216D01*
X70942316Y-33640343D01*
X71126486Y-33448363D01*
X71327804Y-33338702D01*
X71544371Y-33311783D01*
X71774286Y-33368031D01*
X72015650Y-33507871D01*
X72140412Y-33609610D01*
X72304036Y-33745899D01*
X72429788Y-33823962D01*
X72521564Y-33839758D01*
X72583260Y-33789243D01*
X72618773Y-33668377D01*
X72631998Y-33473116D01*
X72626832Y-33199419D01*
X72622676Y-33109289D01*
X72614500Y-32765083D01*
X72630263Y-32489098D01*
X72672757Y-32267574D01*
X72744770Y-32086750D01*
X72849094Y-31932865D01*
X72864944Y-31914384D01*
X73002295Y-31795453D01*
X73174423Y-31721178D01*
X73398675Y-31685691D01*
X73556051Y-31680570D01*
X73819176Y-31708968D01*
X73819176Y-31708968D01*
G37*
X73819176Y-31708968D02*
X74046249Y-31798791D01*
X74245594Y-31956177D01*
X74425538Y-32187268D01*
X74555134Y-32417345D01*
X74648232Y-32658592D01*
X74679914Y-32880681D01*
X74649042Y-33069080D01*
X74611912Y-33142913D01*
X74550394Y-33211959D01*
X74438461Y-33315693D01*
X74293719Y-33438390D01*
X74177995Y-33530480D01*
X73883149Y-33775603D01*
X73554244Y-34078312D01*
X73203470Y-34425273D01*
X72843012Y-34803151D01*
X72485059Y-35198611D01*
X72141799Y-35598318D01*
X71825418Y-35988937D01*
X71548105Y-36357134D01*
X71400114Y-36569834D01*
X71270091Y-36773900D01*
X71118175Y-37027968D01*
X70959465Y-37305878D01*
X70809058Y-37581475D01*
X70740349Y-37712834D01*
X70569210Y-38040282D01*
X70429687Y-38294370D01*
X70319243Y-38479207D01*
X70235341Y-38598905D01*
X70175446Y-38657576D01*
X70152609Y-38665334D01*
X70105053Y-38635716D01*
X70029458Y-38561465D01*
X69999830Y-38527750D01*
X69817243Y-38248970D01*
X69689889Y-37914860D01*
X69620828Y-37536773D01*
X69613119Y-37126060D01*
X69614782Y-37099000D01*
X69653922Y-36744669D01*
X69720420Y-36467342D01*
X69816150Y-36263284D01*
X69942986Y-36128760D01*
X70102801Y-36060034D01*
X70139062Y-36053832D01*
X70346466Y-36053384D01*
X70568808Y-36095971D01*
X70766021Y-36172416D01*
X70831873Y-36212520D01*
X70961402Y-36282710D01*
X71051203Y-36279248D01*
X71103669Y-36201930D01*
X71107283Y-36188834D01*
X71119475Y-36107815D01*
X71112539Y-36017110D01*
X71082102Y-35902617D01*
X71023790Y-35750233D01*
X70933232Y-35545855D01*
X70857865Y-35384500D01*
X70764578Y-35184095D01*
X70702230Y-35036416D01*
X70664602Y-34918110D01*
X70645478Y-34805825D01*
X70638640Y-34676207D01*
X70637834Y-34558022D01*
X70641535Y-34366762D01*
X70657599Y-34225668D01*
X70693462Y-34100385D01*
X70756560Y-33956556D01*
X70777195Y-33914216D01*
X70942316Y-33640343D01*
X71126486Y-33448363D01*
X71327804Y-33338702D01*
X71544371Y-33311783D01*
X71774286Y-33368031D01*
X72015650Y-33507871D01*
X72140412Y-33609610D01*
X72304036Y-33745899D01*
X72429788Y-33823962D01*
X72521564Y-33839758D01*
X72583260Y-33789243D01*
X72618773Y-33668377D01*
X72631998Y-33473116D01*
X72626832Y-33199419D01*
X72622676Y-33109289D01*
X72614500Y-32765083D01*
X72630263Y-32489098D01*
X72672757Y-32267574D01*
X72744770Y-32086750D01*
X72849094Y-31932865D01*
X72864944Y-31914384D01*
X73002295Y-31795453D01*
X73174423Y-31721178D01*
X73398675Y-31685691D01*
X73556051Y-31680570D01*
X73819176Y-31708968D01*
D12*
X72680000Y-70709000D03*
X72680000Y-72741000D03*
X80300000Y-71725000D03*
D13*
X84328000Y-72136000D03*
D14*
X84328000Y-69596000D03*
X86868000Y-72136000D03*
X86868000Y-69596000D03*
X89408000Y-72136000D03*
X89408000Y-69596000D03*
M02*
