<?xml version="1.0" encoding="UTF-8" standalone="no"?>
<!-- Created with Inkscape (http://www.inkscape.org/) -->

<svg
   xmlns:dc="http://purl.org/dc/elements/1.1/"
   xmlns:cc="http://creativecommons.org/ns#"
   xmlns:rdf="http://www.w3.org/1999/02/22-rdf-syntax-ns#"
   xmlns:svg="http://www.w3.org/2000/svg"
   xmlns="http://www.w3.org/2000/svg"
   xmlns:sodipodi="http://sodipodi.sourceforge.net/DTD/sodipodi-0.dtd"
   xmlns:inkscape="http://www.inkscape.org/namespaces/inkscape"
   width="50.0mm"
   height="50.0mm"
   viewBox="0 0 50.0 50.0"
   version="1.1"
   id="svg8"
   inkscape:version="0.92.1 r15371"
   sodipodi:docname="okotta.svg">
  <sodipodi:namedview
     id="base"
     pagecolor="#ffffff"
     bordercolor="#666666"
     borderopacity="1.0"
     inkscape:pageopacity="0.0"
     inkscape:pageshadow="2"
     inkscape:zoom="2.8284271"
     inkscape:cx="41.203514"
     inkscape:cy="113.95495"
     inkscape:document-units="mm"
     inkscape:current-layer="g25"
     showgrid="true"
     inkscape:window-width="1920"
     inkscape:window-height="1016"
     inkscape:window-x="1080"
     inkscape:window-y="322"
     inkscape:window-maximized="1"
     borderlayer="true"
     gridtolerance="1"
     guidetolerance="1"
     objecttolerance="1">
    <inkscape:grid
       id="grid11"
       units="mm"
       type="xygrid"
       empspacing="1"
       spacingy="2.54"
       spacingx="2.54" />
    <inkscape:grid
       spacingx="2.54"
       spacingy="2.54"
       empspacing="1"
       type="xygrid"
       units="mm"
       id="grid50" />
    <inkscape:grid
       id="grid82"
       units="mm"
       type="xygrid"
       empspacing="1"
       spacingy="2.54"
       spacingx="2.54" />
  </sodipodi:namedview>
  <defs
     id="defs2" />
  <metadata
     id="metadata5">
    <rdf:RDF>
      <cc:Work
         rdf:about="">
        <dc:format>image/svg+xml</dc:format>
        <dc:type
           rdf:resource="http://purl.org/dc/dcmitype/StillImage" />
        <dc:title />
      </cc:Work>
    </rdf:RDF>
  </metadata>
  <g
     style="display:inline"
     id="g17"
     inkscape:groupmode="layer"
     inkscape:label="[fixed] BG">
    <rect
       id="rect15"
       style="fill:#ffffff;fill-opacity:1;stroke:none"
       height="100"
       width="100"
       y="1.0228862"
       x="5.4979496" />
  </g>
  <g
     id="g19"
     inkscape:groupmode="layer"
     inkscape:label="Edge.Cuts"
     style="display:inline">
    <path
       style="fill:none;stroke:#000000;stroke-width:0.08967062;stroke-opacity:1"
       d="M7.1707101 49.671657L7.1451979 49.410965L7.0690248 49.155003L6.9427364 48.905134L6.7668781 48.662716L6.6711941 48.52616L6.5728791 48.34713L6.4834941 48.148864L6.4145981 47.954596L6.3455851 47.688466L6.3320511 47.577756L6.3338411 47.466047L6.3873881 47.191934L6.5142628 46.770723L6.6039108 46.456427L6.6761238 46.145162L6.7235358 45.872867L6.7387798 45.675478L6.6919198 43.702723L6.6778408 42.641435L6.6944988 42.289087L6.7356438 42.018126L6.8077938 41.800445L6.9174653 41.607934L7.0711757 41.412489L7.2754422 41.185999L7.4161892 41.022256L7.5412651 40.840697L7.6629964 40.608877L7.7937095 40.294352L7.9457309 39.864675L8.131387 39.287402L8.652909 37.560283L9.0850658 36.132922L9.4690232 34.932869L9.82501 33.911617L10.173255 33.020655L10.533986 32.211475L10.927434 31.435567L11.373825 30.644423L11.89339 29.789532L12.113977 29.419262L12.29478 29.084506L12.417131 28.822042L12.462361 28.668648L12.480611 28.556152L12.529171 28.405037L12.600711 28.235077L12.687921 28.066044L12.777011 27.901769L12.829711 27.768876L12.838711 27.656981L12.796741 27.555703L12.696492 27.45466L12.530663 27.343469L11.973077 27.049118L11.321541 26.702515L10.769472 26.378765L10.573508 26.262875L10.395675 26.174625L10.255557 26.122665L10.172737 26.115565L10.121517 26.171925L10.086187 26.297726L10.066177 26.496368L10.060877 26.771254L10.046867 27.274521L9.999836 27.64985L9.964752 27.785536L9.922391 27.884436L9.873078 27.944946L9.81714 27.965476L9.71393 27.926576L9.5765001 27.817459L9.4139817 27.649782L9.2354669 27.435154L9.0500483 27.185182L8.866818 26.911473L8.6948684 26.625635L8.5432919 26.339274L8.2531006 25.727668L7.9922541 25.137398L7.7602358 24.565133L7.556529 24.007547L7.380617 23.46131L7.231983 22.923095L7.1101104 22.389573L7.0144824 21.857415L6.9445824 21.323294L6.8998934 20.783882L6.8798994 20.235849L6.8840794 19.675867L6.9119244 19.100609L6.9629134 18.506745L7.0365304 17.890948L7.1322584 17.249889L7.3373008 16.16792L7.6081998 14.986866L7.909566 13.850067L8.2060102 12.900862L8.3655292 12.438216L8.4758659 12.084502L8.5338579 11.819321L8.5363379 11.622274L8.515782 11.542926L8.480157 11.472962L8.3621367 11.350987L8.1791203 11.235949L7.9279449 11.10745L7.4065519 10.834315L7.0414161 10.618351L6.9374583 10.533407L6.8422547 10.429594L6.7573794 10.310153L6.6844063 10.178326L6.6249096 10.037354L6.5804631 9.8904766L6.5526409 9.7409361L6.5430171 9.5919732L6.532892 9.4714996L6.502254 9.3788025L6.4507087 9.3131235L6.3778621 9.2737043L6.2966946 9.2352072L6.1977864 9.1691449L5.9967631 8.9913746L5.8779757 8.8411456L5.8404207 8.7576227L5.8148535 8.6534561L5.7919685 8.3380773L5.7938931 7.8047805L5.8107325 7.268536L5.8576882 6.8602758L5.9556066 6.4642539L6.1253341 5.9647241L6.2811409 5.5584644L6.4495059 5.1702976L6.6311579 4.7994349L6.8268257 4.4450876L7.0372381 4.1064668L7.263124 3.7827838L7.5052121 3.4732497L7.7642313 3.1770758L8.0409104 2.8934732L8.3359782 2.6216531L8.6501635 2.3608267L8.9841952 2.1102053L9.3388021 1.869L9.714713 1.636422L10.112657 1.4116825L10.533362 1.1939928L11.092733 0.93297389L11.61169 0.7265433L12.098014 0.57339843L12.559485 0.47223667L13.003885 0.42175547L13.438995 0.42065247L13.872595 0.46762447L14.312467 0.56136917L14.612494 0.59167057L14.906776 0.59394957L15.195661 0.57354877L15.479494 0.53581217L16.033388 0.42970573L16.571227 0.31837876L16.834991 0.27411646L17.095779 0.24457966L17.353938 0.23511166L17.609812 0.25105666L17.863749 0.29775786L18.116094 0.38055876L18.367193 0.50480296L18.617393 0.67583403L18.801685 0.82549418L18.952389 0.93441967L19.095931 1.00541807L19.258739 1.04129707L19.467243 1.04486707L19.74787 1.01892907L20.631206 0.88977066L21.398445 0.78840488L22.163325 0.71903048L22.934496 0.68176828L23.72061 0.67673928L24.530315 0.70406408L25.372263 0.76386368L26.255102 0.85625888L27.187483 0.98137059L28.197839 1.15324787L29.215594 1.37066457L30.228133 1.62958877L31.222844 1.92598847L32.187115 2.25583157L33.108332 2.61508607L33.973882 2.99971997L34.771152 3.40570127L35.209449 3.62329717L35.373748 3.68002417L35.51093 3.70243817L35.628082 3.69084117L35.73229 3.64553417L35.83064 3.56681917L35.93022 3.45499747L36.124476 3.24118137L36.339398 3.05705587L36.571748 2.90253877L36.818287 2.77754797L37.075777 2.68200097L37.34098 2.61581597L37.610657 2.57891097L37.88157 2.57120097L38.15048 2.59260797L38.41415 2.64304897L38.66934 2.72243997L38.912814 2.83070027L39.141331 2.96774707L39.351655 3.13349827L39.540546 3.32787167L39.704766 3.55078517L39.989179 3.98274067L40.092379 4.11119357L40.183539 4.19020157L40.273139 4.22644357L40.371659 4.22659907L40.489562 4.19734607L40.63733 4.14536407L40.883239 4.07920207L41.195778 4.03215007L41.554898 4.00417807L41.940548 3.99525807L42.332678 4.00535407L42.711239 4.03443807L43.05618 4.08247907L43.347451 4.14944707L43.646638 4.24775107L43.950123 4.36628547L44.256528 4.50430877L44.564476 4.66107997L44.87259 4.83585797L45.179493 5.02790157L45.483809 5.23646977L45.784161 5.46082157L46.32677 5.90479637L46.77907 6.33476837L47.218805 6.83150427L47.723721 7.47577077L48.042943 7.92052297L48.316406 8.35406487L48.548918 8.78865307L48.745287 9.23654377L48.910321 9.70999357L49.048826 10.22125897L49.16561 10.78259597L49.26548 11.40626097L49.31238 11.83974297L49.33051 12.26765197L49.3203 12.68664197L49.28219 13.09336897L49.21662 13.48448697L49.12402 13.85665197L49.004824 14.20651897L48.85947 14.53074297L48.718804 14.77499297L48.649924 14.85806297L48.573444 14.92069297L48.482944 14.96707297L48.372006 15.00139297L48.063124 15.05061297L47.834977 15.08479297L47.760887 15.10859297L47.706697 15.14291297L47.667347 15.19229297L47.637767 15.26125297L47.587627 15.47607897L47.546157 15.63250197L47.486137 15.77246297L47.406587 15.89687697L47.306515 16.00665997L47.184939 16.10271997L47.040874 16.18597997L46.873334 16.25734997L46.681336 16.31774997L46.265884 16.41528997L45.861388 16.47982997L45.464048 16.51119997L45.070061 16.50919997L44.675627 16.47368997L44.276944 16.40446997L43.87021 16.30134997L43.451625 16.16415597L42.904302 15.97203697L42.594022 15.88958697L42.503442 15.88598697L42.442922 15.90559697L42.402732 15.94701697L42.373132 16.00884697L42.288372 16.33558097L42.173727 16.88950097L42.095237 17.25260097L41.991086 17.65706597L41.723179 18.53760597L41.404791 19.42614297L41.070712 20.21769897L40.934475 20.53431397L40.813921 20.85963797L40.722121 21.15542297L40.672161 21.38341697L40.593461 21.86377497L40.49246 22.30794297L40.367951 22.71863897L40.218728 23.09858497L40.043585 23.45049897L39.841317 23.77710097L39.61072 24.08111097L39.350586 24.36524897L39.128139 24.57853897L38.916512 24.76125597L38.709458 24.91699697L38.500732 25.04935697L38.284089 25.16193397L38.053284 25.25832397L37.80207 25.34212397L37.524202 25.41692397L37.072449 25.54538097L36.906076 25.61831097L36.76318 25.70941097L36.631614 25.82796197L36.499233 25.98323997L36.183447 26.44108397L35.843605 26.92050397L35.445424 27.41647297L35.039683 27.86907697L34.677158 28.21840397L34.581408 28.31330397L34.502998 28.41542797L34.450018 28.51250797L34.430558 28.59228797L34.498388 28.74629997L34.683073 29.04550697L34.956408 29.44677197L35.290186 29.90695997L35.904348 30.75983897L36.459192 31.59708197L36.965437 32.43973197L37.433801 33.30882997L37.875003 34.22542197L38.299761 35.21054797L38.718794 36.28525197L39.142821 37.47057697L39.905231 39.64829597L40.186941 40.41457997L40.418581 41.00541197L40.612349 41.45049097L40.78044 41.77951397L40.935052 42.02217997L41.088379 42.20818797L41.49769 42.66835797L41.626361 42.84996097L41.714021 43.02361397L41.767901 43.20759297L41.795241 43.42017497L41.799241 44.00425897L41.800641 44.38410097L41.817971 44.77951697L41.848291 45.14372697L41.888641 45.42995297L41.936091 45.72384897L41.951371 45.96543597L41.934361 46.18828397L41.884941 46.42596097L41.831911 46.68612297L41.830311 46.93592297L41.888961 47.26607997L42.016831 47.76731397L42.15079 48.28959597L42.20849 48.63248497L42.21179 48.77587597L42.19965 48.92148097L42.13394 49.28208497L42.05667 49.62785697L42.02239 49.73678397L41.98487 49.81229397L41.93951 49.86130397L41.8817 49.89073397L41.710331 49.91851397L36.379035 49.80679597L31.778325 49.74323597L27.698952 49.72001597L23.93167 49.72931597L20.267232 49.76326597L16.496389 49.81405597L7.7984999 49.93482197L7.4846051 49.93482197L7.3143217 49.92762197L7.2199087 49.89364197L7.1942837 49.86086197L7.1793817 49.81447197L7.1707617 49.67167797L7.1707137 49.67170197"
       id="path219"
       inkscape:connector-curvature="0"
       sodipodi:nodetypes="ccscsccssccccccsccsccsccsssccsssccccsccccccsccccssccscccsccccccscc" />
  </g>
  <g
     id="g21"
     inkscape:groupmode="layer"
     inkscape:label="B.Cu-disabled"
     style="display:none" />
  <g
     id="g23"
     inkscape:groupmode="layer"
     inkscape:label="B.Mask"
     style="display:inline">
    <path
       style="fill:#000000;stroke-width:0.08885606"
       d="m 26.746955,20.133558 c -0.463872,-0.0365 -0.982963,-0.11038 -1.153543,-0.164185 -0.170579,-0.05381 -0.438335,-0.09783 -0.595031,-0.09783 -0.632811,0 -1.69973,-1.515632 -1.784068,-2.534381 -0.0511,-0.617322 0.184562,-1.668134 0.528943,-2.358494 0.256519,-0.514227 1.156462,-1.599243 1.326457,-1.599243 2.668579,-1.231286 4.51087,0.187137 4.646286,0.328754 0.406422,0.435118 0.672528,1.102964 0.780308,1.958321 0.171421,1.360448 -0.218307,2.844454 -0.964817,3.673772 -0.389642,0.432874 -1.273569,0.893758 -1.674798,0.873252 -0.146485,-0.0075 -0.64587,-0.04347 -1.109737,-0.07997 z M 14.451057,18.614995 c -0.327203,-0.01444 -0.682392,-0.09479 -0.973878,-0.130636 -0.460657,-0.05664 -0.583955,-0.115738 -0.94262,-0.45181 -0.226949,-0.212653 -0.545459,-0.636247 -0.707791,-0.94132 -0.248148,-0.466347 -0.301264,-0.671219 -0.333516,-1.286533 -0.03208,-0.611975 0,-0.85234 0.193279,-1.467397 0.259056,-0.822585 0.591233,-1.440795 1.07617,-2.002837 1.921968,-1.345784 1.51103,-0.953748 2.941184,-0.970491 1.148534,0.413763 0.581085,-0.07525 1.117145,0.335156 0.520558,0.398534 0.528681,0.184567 0.781515,0.452695 0.450251,0.47749 0.794421,1.569767 0.797634,2.531545 0.0022,0.666541 -0.22216,1.735782 -0.489545,2.33263 -0.276706,0.617649 -0.906682,1.267757 -1.462048,1.508769 -0.421062,0.182728 -1.33166,0.119615 -1.997529,0.09023 z"
       id="path223"
       inkscape:connector-curvature="0"
       sodipodi:nodetypes="cccsccccscccsccccccsssacc" />
    <path
       style="display:inline;fill:#000000;stroke-width:0.08929438"
       d="m 42.217918,11.724749 c 0.224631,-0.224621 0.59441,-0.996551 0.671904,-1.402584 C 42.960122,9.953649 42.735451,9.337266 42.424121,9.044704 42.233068,8.865161 42.099263,8.828922 41.600399,8.821625 40.854771,8.810715 40.79583,8.671384 41.30374,8.12037 41.763541,7.621557 41.920619,7.130869 41.77554,6.646649 41.576589,5.982568 40.972958,5.481797 40.371441,5.481797 c -0.13049,0 -0.475099,0.106734 -0.765778,0.237186 -0.326218,0.146396 -0.56034,0.205364 -0.611648,0.154055 -0.05131,-0.05131 0.0044,-0.300039 0.145767,-0.649809 0.338087,-0.837025 0.13716,-1.509711 -0.548058,-1.834867 -0.911336,-0.432459 -1.994199,-0.137087 -2.404211,0.655796 -0.169698,0.328162 -0.08445,0.442801 0.777161,1.045177 0.950095,0.664231 1.639525,1.323423 2.371672,2.267645 0.978662,1.262152 1.597877,2.323739 1.983793,3.401072 0.195932,0.54695 0.37828,1.030114 0.40522,1.073697 0.0832,0.134578 0.297553,0.08801 0.492559,-0.107 z M 11.656539,6.664948 c 0.191831,-0.282394 0.49469,-0.68802 0.673029,-0.90139 0.418085,-0.50022 0.422131,-0.701778 0.0156,-0.778042 -0.409933,-0.0769 -0.927196,0.179306 -1.152585,0.570902 -0.262579,0.456192 -0.243604,1.621973 0.0264,1.621973 0.04881,0 0.24572,-0.231049 0.437551,-0.513443 z m 2.60319,-2.764692 c 1.028385,-0.813284 1.151094,-1.007352 0.824098,-1.30328 -0.08774,-0.0794 -0.31086,-0.207607 -0.495825,-0.284888 -1.409961,-0.05448 -2.474934,1.28756 -1.397743,2.366061 0.04721,0 0.52848,-0.350052 1.06947,-0.777893 z M 16.434325,2.413699 C 16.73698,2.248713 17.255959,2.001537 17.587624,1.864416 18.326831,1.5588 18.409499,1.472289 18.220346,1.202242 17.880332,0.7168 16.891753,0.520071 16.3135,0.822773 15.967761,1.00376 15.600538,1.616506 15.600538,2.012424 c 0,0.266241 0.141959,0.701247 0.228844,0.701247 0.03007,0 0.302289,-0.134988 0.604943,-0.299972 z"
       id="path221-3-5"
       inkscape:connector-curvature="0"
       sodipodi:nodetypes="cccsscccccccccsccsccccsscccccccccssc" />
  </g>
  <g
     id="g25"
     inkscape:groupmode="layer"
     inkscape:label="B.Silk"
     style="display:inline">
    <text
       xml:space="preserve"
       style="font-style:normal;font-weight:normal;font-size:10.58333302px;line-height:1.25;font-family:sans-serif;letter-spacing:0px;word-spacing:0px;fill:#000000;fill-opacity:1;stroke:none;stroke-width:0.26458332"
       x="62.955338"
       y="35.12645"
       id="text1254"><tspan
         sodipodi:role="line"
         id="tspan1252"
         x="62.955338"
         y="44.490219"
         style="stroke-width:0.26458332" /></text>
    <text
       xml:space="preserve"
       style="font-style:normal;font-weight:normal;font-size:2.20928264px;line-height:1.25;font-family:sans-serif;letter-spacing:0px;word-spacing:0px;fill:#000000;fill-opacity:1;stroke:none;stroke-width:0.05523206"
       x="-36.635166"
       y="15.956296"
       id="text1258"
       transform="matrix(-1.0974962,-0.43780413,-0.28699523,0.79667911,0,0)"><tspan
         sodipodi:role="line"
         id="tspan1256"
         x="-36.635166"
         y="17.910994"
         style="font-style:normal;font-variant:normal;font-weight:bold;font-stretch:normal;line-height:1.25;font-family:GN-KMBFont-UB-NewstyleKanaA;-inkscape-font-specification:'GN-KMBFont-UB-NewstyleKanaA Bold';stroke-width:0.05523206" /><tspan
         sodipodi:role="line"
         x="-36.635166"
         y="20.672596"
         style="font-style:normal;font-variant:normal;font-weight:bold;font-stretch:normal;line-height:1.25;font-family:GN-KMBFont-UB-NewstyleKanaA;-inkscape-font-specification:'GN-KMBFont-UB-NewstyleKanaA Bold';stroke-width:0.05523206"
         id="tspan1264">これは俺の法的に異なる</tspan><tspan
         sodipodi:role="line"
         x="-36.635166"
         y="23.532112"
         style="font-style:normal;font-variant:normal;font-weight:bold;font-stretch:normal;line-height:1.25;font-family:GN-KMBFont-UB-NewstyleKanaA;-inkscape-font-specification:'GN-KMBFont-UB-NewstyleKanaA Bold';stroke-width:0.05523206"
         id="tspan1268">キャラクター,ボプコだ</tspan><tspan
         sodipodi:role="line"
         x="-36.635166"
         y="26.391626"
         style="font-style:normal;font-variant:normal;font-weight:bold;font-stretch:normal;line-height:1.25;font-family:GN-KMBFont-UB-NewstyleKanaA;-inkscape-font-specification:'GN-KMBFont-UB-NewstyleKanaA Bold';stroke-width:0.05523206"
         id="tspan1270" /><tspan
         sodipodi:role="line"
         x="-36.635166"
         y="29.153231"
         style="font-style:normal;font-variant:normal;font-weight:bold;font-stretch:normal;line-height:1.25;font-family:GN-KMBFont-UB-NewstyleKanaA;-inkscape-font-specification:'GN-KMBFont-UB-NewstyleKanaA Bold';stroke-width:0.05523206"
         id="tspan1260" /></text>
    <text
       xml:space="preserve"
       style="font-style:normal;font-weight:normal;font-size:2.89756584px;line-height:1.25;font-family:sans-serif;letter-spacing:0px;word-spacing:0px;fill:#000000;fill-opacity:1;stroke:none;stroke-width:0.07243913"
       x="-45.872158"
       y="43.877277"
       id="text1274"
       transform="scale(-0.89918986,1.1121122)"><tspan
         sodipodi:role="line"
         id="tspan1272"
         x="-45.872158"
         y="43.877277"
         style="font-style:normal;font-variant:normal;font-weight:normal;font-stretch:normal;font-family:GN-KMBFont-UB-OldstyleKana;-inkscape-font-specification:GN-KMBFont-UB-OldstyleKana;stroke-width:0.07243913">fuck you 株式会社竹書房</tspan></text>
    <text
       xml:space="preserve"
       style="font-style:normal;font-weight:normal;font-size:2.20928264px;line-height:1.25;font-family:sans-serif;letter-spacing:0px;word-spacing:0px;display:inline;fill:#000000;fill-opacity:1;stroke:none;stroke-width:0.05523206"
       x="-33.244232"
       y="7.0190125"
       id="text1258-3"
       transform="matrix(-1.1623806,-0.21223066,-0.123858,0.83768909,0,0)"><tspan
         sodipodi:role="line"
         id="tspan1256-5"
         x="-33.244232"
         y="7.0190125"
         style="font-style:normal;font-variant:normal;font-weight:bold;font-stretch:normal;line-height:1.25;font-family:GN-KMBFont-UB-NewstyleKanaA;-inkscape-font-specification:'GN-KMBFont-UB-NewstyleKanaA Bold';stroke-width:0.05523206">これはポプコじゃない</tspan><tspan
         sodipodi:role="line"
         x="-33.244232"
         y="9.8785276"
         style="font-style:normal;font-variant:normal;font-weight:bold;font-stretch:normal;line-height:1.25;font-family:GN-KMBFont-UB-NewstyleKanaA;-inkscape-font-specification:'GN-KMBFont-UB-NewstyleKanaA Bold';stroke-width:0.05523206"
         id="tspan1268-3" /><tspan
         sodipodi:role="line"
         x="-33.244232"
         y="12.640131"
         style="font-style:normal;font-variant:normal;font-weight:bold;font-stretch:normal;line-height:1.25;font-family:GN-KMBFont-UB-NewstyleKanaA;-inkscape-font-specification:'GN-KMBFont-UB-NewstyleKanaA Bold';stroke-width:0.05523206"
         id="tspan1270-4" /><tspan
         sodipodi:role="line"
         x="-33.244232"
         y="15.401734"
         style="font-style:normal;font-variant:normal;font-weight:bold;font-stretch:normal;line-height:1.25;font-family:GN-KMBFont-UB-NewstyleKanaA;-inkscape-font-specification:'GN-KMBFont-UB-NewstyleKanaA Bold';stroke-width:0.05523206"
         id="tspan1260-1" /></text>
    <path
       style="fill:#000000;stroke-width:0.02889142"
       d="m 10.435614,45.623224 c -9.91268318,0.852508 -4.9563416,0.426254 0,0 z m 0.0221,-0.03611 c -0.03262,-0.06288 -0.194668,-0.255875 -0.424519,-0.5056 -0.4593386,-0.499051 -0.6569746,-0.811184 -0.9421136,-1.487908 -0.02678,-0.06356 -0.136302,-0.206574 -0.243378,-0.317806 -0.317341,-0.329656 -0.603067,-0.693555 -0.661724,-0.842769 -0.204925,-0.52129 -0.133741,-0.831325 0.360738,-1.571158 0.06958,-0.104108 0.126514,-0.21841 0.126514,-0.254005 0,-0.05692 0.121483,-0.356388 0.205054,-0.505479 0.04787,-0.0854 0.248668,-0.705274 0.315028,-0.972508 0.03354,-0.135068 0.07254,-0.27158 0.08668,-0.30336 0.01413,-0.03178 0.05182,-0.117531 0.08375,-0.190557 0.04151,-0.09494 0.105757,-0.168133 0.225486,-0.256872 0.09209,-0.06825 0.212939,-0.166009 0.268555,-0.217234 0.2648496,-0.243936 0.4270216,-0.292006 0.6789476,-0.201247 0.06356,0.0229 0.119263,0.04183 0.123783,0.04207 0.0045,2.21e-4 0.0045,-0.28234 0,-0.627954 -0.0045,-0.345614 0.0031,-0.907913 0.01692,-1.249554 0.01863,-0.460371 0.01586,-0.680996 -0.01069,-0.852297 -0.04113,-0.265273 -0.05145,-0.919123 -0.02053,-1.300114 0.03929,-0.484098 0.0747,-0.765935 0.109861,-0.874325 0.189646,-0.584635 0.31542,-0.738767 0.686834,-0.841691 0.538376,-0.134908 0.916751,0.233315 1.023689,0.661479 0.07075,0.295504 0.07771,0.411613 0.09181,1.531245 0.0172,1.365945 0.03831,2.006728 0.08139,2.470217 0.0192,0.206574 0.03098,0.638862 0.02617,0.96064 -0.0048,0.321778 6.83e-4,0.585052 0.01217,0.585052 0.0115,0 0.04143,-0.01839 0.06651,-0.04086 0.07985,-0.07152 0.398562,-0.161384 0.572377,-0.161384 0.197786,0 0.439439,0.08129 0.584103,0.196477 0.05641,0.04492 0.167197,0.167579 0.246182,0.272574 l 0.14361,0.1909 0.101967,-0.04403 c 0.376595,-0.162614 0.721869,-0.145754 1.026493,0.05012 0.581339,0.373809 0.726216,0.806337 0.575283,1.717497 -0.07944,0.479586 -0.09819,0.634254 -0.106786,0.881188 -0.0071,0.205192 -0.02342,0.27646 -0.09897,0.433371 -0.10685,0.221928 -0.174567,0.435839 -0.32892,1.039033 -0.06288,0.245718 -0.140965,0.531743 -0.173527,0.635612 -0.03256,0.103869 -0.09053,0.299362 -0.128827,0.434429 -0.117191,0.413364 -0.191603,0.63562 -0.218337,0.652143 -0.01403,0.0087 -0.02552,0.04436 -0.02552,0.07931 0,0.08017 -0.193001,0.381719 -0.400945,0.626442 -0.08776,0.103287 -0.162982,0.192727 -0.16715,0.198755 -0.0042,0.006 -0.873922,0.01253 -1.932785,0.01445 -1.897744,0.0034 -1.925635,0.0027 -1.955184,-0.0543 z m 3.495581,-0.128719 c 0.266348,-0.222554 0.544768,-0.584012 0.612985,-0.795806 0.02047,-0.06356 0.04958,-0.131164 0.06468,-0.150229 0.0247,-0.03118 0.10269,-0.286089 0.210376,-0.687623 0.02131,-0.07945 0.05977,-0.215963 0.08548,-0.30336 0.04281,-0.145576 0.221334,-0.811331 0.263402,-0.982308 0.04643,-0.188717 0.226117,-0.71416 0.261546,-0.764828 0.02315,-0.03312 0.03881,-0.123886 0.03736,-0.216686 -0.0019,-0.123138 -0.0078,-0.143162 -0.02562,-0.08747 -0.09207,0.287431 -0.673738,1.477779 -0.915764,1.874036 -0.100596,0.164699 -0.1829,0.310962 -0.1829,0.325029 0,0.01406 -0.0195,0.02557 -0.04334,0.02557 -0.05596,0 -0.05679,-0.117714 -0.002,-0.288914 0.06704,-0.209639 0.113963,-0.385788 0.119281,-0.447817 0.01027,-0.11974 0.07154,-0.528556 0.112595,-0.751177 0.06345,-0.344104 0.05926,-0.376603 -0.06827,-0.529308 -0.0621,-0.07436 -0.147931,-0.219703 -0.190734,-0.32299 -0.180663,-0.435953 -0.316352,-0.674562 -0.396777,-0.697737 -0.136646,-0.03937 -0.329397,-0.02603 -0.375749,0.02601 -0.09485,0.106497 -0.223947,0.421723 -0.223947,0.546834 0,0.107978 -0.0083,0.124891 -0.06124,0.124891 -0.06047,0 -0.06105,-0.0059 -0.04679,-0.469485 0.0079,-0.258217 0.02933,-0.506967 0.04754,-0.552778 l 0.03309,-0.08329 -0.123534,0.01738 c -0.06794,0.0096 -0.159125,0.02577 -0.202626,0.03603 -0.110375,0.02603 -0.13088,-0.04661 -0.04603,-0.163067 0.09143,-0.12548 0.422655,-0.373815 0.498588,-0.373815 0.12652,0 0.318176,0.169945 0.509583,0.451854 0.132839,0.195649 0.147935,0.208055 0.293005,0.240796 0.08412,0.01899 0.254016,0.06622 0.377543,0.104956 0.167623,0.05257 0.238596,0.06294 0.279792,0.04089 0.08217,-0.04397 0.496416,-0.03559 0.55822,0.0113 0.02827,0.02145 0.07475,0.08699 0.103274,0.145634 l 0.05187,0.106634 0.04841,-0.271004 c 0.02662,-0.149051 0.04841,-0.333512 0.04841,-0.409912 0,-0.126554 -0.01092,-0.148893 -0.122776,-0.251138 -0.141962,-0.129766 -0.165429,-0.136361 -0.16805,-0.04722 -0.003,0.101251 -0.100903,0.378561 -0.138053,0.390945 -0.06279,0.02093 -0.06523,-0.07196 -0.006,-0.22784 0.07592,-0.199736 0.07497,-0.315933 -0.0034,-0.415541 -0.06022,-0.07656 -0.07059,-0.07909 -0.266682,-0.06506 -0.182163,0.01303 -0.224204,0.0054 -0.392382,-0.0713 -0.103596,-0.04725 -0.210866,-0.106025 -0.238376,-0.130618 -0.03452,-0.03086 -0.06138,-0.03582 -0.08667,-0.01601 -0.106776,0.08362 -0.173592,0.06576 -0.343921,-0.09194 -0.121068,-0.112088 -0.183518,-0.150834 -0.225437,-0.139872 -0.04071,0.01065 -0.0805,-0.01159 -0.133574,-0.07467 -0.09267,-0.110137 -0.184895,-0.114561 -0.344924,-0.01655 -0.162904,0.09977 -0.187611,0.109914 -0.210709,0.08649 -0.01123,-0.01139 0.03158,-0.06481 0.09514,-0.118717 l 0.115566,-0.09801 -0.0891,0.02508 c -0.049,0.01379 -0.168064,0.03424 -0.264584,0.04545 -0.241466,0.02802 -0.310026,0.09996 -0.282944,0.296872 0.01551,0.112773 0.0098,0.14945 -0.0283,0.181055 -0.03481,0.02889 -0.06077,0.03142 -0.09578,0.0093 -0.08172,-0.05155 -0.152037,-0.802114 -0.143018,-1.526493 0.0042,-0.333696 -0.0086,-0.827739 -0.02824,-1.097874 -0.03762,-0.51633 -0.09256,-2.14367 -0.09557,-2.831361 -0.0011,-0.253284 -0.01099,-0.381683 -0.02642,-0.343493 -0.03536,0.0875 -0.09202,0.09952 -0.24795,0.0526 -0.181928,-0.05475 -0.578699,-0.05597 -0.599472,-0.0018 -0.01176,0.03065 0.01185,0.03673 0.105252,0.02709 0.176893,-0.01826 0.517902,0.02766 0.532531,0.07172 0.0098,0.02953 -0.05227,0.03355 -0.300999,0.01946 -0.287998,-0.01631 -0.430983,-0.04901 -0.47485,-0.108618 -0.02825,-0.03839 -0.02792,-0.254739 7.33e-4,-0.482946 0.01486,-0.118359 0.02256,-0.219656 0.01712,-0.225105 -0.01356,-0.01356 -0.09184,0.268363 -0.118784,0.42775 -0.01209,0.07151 -0.02464,1.410623 -0.0279,2.975816 -0.0064,3.08207 -0.0136,3.239828 -0.148329,3.259193 -0.08337,0.01198 -0.106177,-0.06972 -0.08071,-0.289155 0.01515,-0.130542 0.01172,-0.169707 -0.01351,-0.154114 -0.01861,0.0115 -0.08449,-0.01262 -0.146403,-0.05359 -0.06192,-0.04097 -0.217505,-0.118011 -0.345754,-0.171193 l -0.233178,-0.09669 -0.2054606,0.05106 c -0.113004,0.02808 -0.217494,0.06309 -0.232199,0.0778 -0.01471,0.0147 -0.05913,0.148791 -0.09872,0.29797 -0.03959,0.149178 -0.08267,0.297235 -0.09573,0.329015 -0.07667,0.186564 -0.08982,0.225217 -0.08,0.235042 0.006,0.006 0.03449,-0.01519 0.06334,-0.04707 0.04934,-0.05452 0.130172,-0.07942 0.130172,-0.04011 0,0.0098 -0.039,0.06228 -0.08667,0.116571 -0.0552,0.06287 -0.08525,0.127203 -0.08274,0.177163 0.0031,0.06197 0.0065,0.06562 0.01594,0.0174 0.0119,-0.06055 0.116162,-0.126747 0.199609,-0.126747 0.06882,0 0.214451,0.08217 0.398219,0.224684 0.1327756,0.102972 0.2179686,0.143258 0.3900336,0.184438 0.240908,0.05766 0.538492,0.07013 0.567141,0.02378 0.01,-0.01615 0.03025,-0.02188 0.04504,-0.01274 0.04264,0.02635 0.03146,-0.01467 -0.02668,-0.09789 -0.07156,-0.102445 -0.09685,-0.21777 -0.07421,-0.338442 0.02558,-0.136384 0.07,-0.125211 0.07,0.01761 0,0.0948 0.06417,0.287479 0.09573,0.287479 0.0042,0 0.09419,-0.08451 0.200044,-0.187794 0.213708,-0.208517 0.294542,-0.232059 0.457188,-0.133147 0.08971,0.05456 0.296408,0.305907 0.353358,0.429699 0.01835,0.0399 0.04794,0.06013 0.07583,0.05187 0.187517,-0.05558 0.327391,-0.07814 0.348267,-0.05618 0.07307,0.07686 0.145684,0.436618 0.147284,0.729757 0.0014,0.260168 -0.06172,0.858704 -0.103257,0.978739 -0.031,0.0896 -0.07209,0.02297 -0.07209,-0.116893 0,-0.179866 -0.157574,-0.963275 -0.205324,-1.020811 -0.01954,-0.02354 -0.08942,-0.03962 -0.172212,-0.03962 -0.145906,0 -0.180991,-0.02611 -0.438331,-0.326166 -0.08232,-0.09599 -0.184071,-0.08289 -0.151991,0.01957 0.05018,0.160254 0.04846,0.200832 -0.01309,0.310361 -0.08071,0.143609 -0.0827,0.115747 0.09754,1.368579 0.108679,0.755439 0.111938,0.798306 0.06432,0.845921 -0.03979,0.03979 -0.04576,0.03722 -0.05884,-0.02523 -0.008,-0.03823 -0.02106,-0.12802 -0.02902,-0.199526 -0.04069,-0.365713 -0.109867,-0.866739 -0.135064,-0.978279 -0.02634,-0.116575 -0.117542,-0.231609 -0.185876,-0.234432 -0.01589,-6.49e-4 -0.185569,-0.07759 -0.377063,-0.170959 -0.373416,-0.182074 -0.389993,-0.196079 -0.781653,-0.660398 -0.2349256,-0.27851 -0.2562416,-0.296138 -0.3581096,-0.296138 -0.180158,0 -0.285897,0.03174 -0.304866,0.0915 -0.0232,0.07311 0.0093,0.108652 0.246253,0.269062 0.237194,0.160588 0.297847,0.256613 0.167108,0.264563 -0.03582,0.0022 -0.180919,0.02068 -0.322436,0.04112 l -0.257304,0.03716 -0.06653,-0.08343 c -0.03659,-0.04589 -0.07175,-0.103396 -0.07813,-0.127797 -0.0064,-0.0244 -0.0058,0.0011 0.0014,0.05676 0.0071,0.05562 0.02403,0.114485 0.03751,0.130819 0.03751,0.04543 0.06312,0.450253 0.03468,0.548129 -0.01906,0.06559 -0.04225,0.08667 -0.09534,0.08667 -0.06851,0 -0.07053,-0.0068 -0.08648,-0.288914 -0.01847,-0.326847 -0.09862,-0.584168 -0.151693,-0.486992 -0.01611,0.02949 -0.03755,0.06012 -0.04765,0.06807 -0.02929,0.02304 -0.185982,0.290168 -0.262681,0.447818 -0.130471,0.268172 -0.06648,0.667447 0.137069,0.855197 0.04469,0.04122 0.165762,0.124701 0.269049,0.185506 0.103287,0.06081 0.233349,0.144048 0.289028,0.184983 0.133996,0.09851 0.20221,0.140632 0.285987,0.176578 0.123714,0.05308 0.406955,0.320338 0.5932446,0.559766 0.220605,0.283531 0.467952,0.825992 0.37663,0.825992 -0.0084,0 -0.104046,-0.04389 -0.212579,-0.09752 -0.108533,-0.05364 -0.242564,-0.112452 -0.2978466,-0.130697 -0.05528,-0.01825 -0.128637,-0.05937 -0.163009,-0.0914 -0.03437,-0.03202 -0.06249,-0.04546 -0.06249,-0.02986 0,0.08542 0.2764526,0.446104 0.6973106,0.909765 0.07366,0.08115 0.220441,0.254808 0.326178,0.385903 l 0.19225,0.238354 h 1.412004 1.412004 z M 10.371082,43.023 c -0.02325,-0.03575 -0.05931,-0.116932 -0.08012,-0.180397 -0.02081,-0.06347 -0.10079,-0.256673 -0.177729,-0.429349 -0.1281676,-0.28765 -0.1398896,-0.332696 -0.1398896,-0.537577 0,-0.122991 0.01377,-0.263131 0.03061,-0.311423 0.02359,-0.06766 0.02061,-0.111733 -0.01297,-0.192106 -0.04147,-0.09926 -0.04083,-0.104302 0.01335,-0.104302 0.06202,0 0.07535,0.02634 0.168125,0.332252 0.121888,0.401918 0.182834,0.684149 0.15397,0.713013 -0.01824,0.01824 -0.0052,0.116218 0.03696,0.278721 0.08774,0.337817 0.11266,0.496174 0.07808,0.496174 -0.01546,0 -0.04713,-0.02925 -0.07039,-0.06501 z m 1.43703,-0.924525 c -0.01969,-0.60168 -0.02977,-0.790383 -0.04977,-0.931749 -0.01423,-0.100544 0.07451,-0.06573 0.09562,0.03752 0.01072,0.05242 0.02904,0.419701 0.0407,0.816183 0.01857,0.631141 0.01581,0.720877 -0.02215,0.720877 -0.03663,0 -0.04663,-0.09985 -0.0644,-0.642834 z m -3.2747726,-0.02167 c 0,-0.03973 0.0066,-0.05598 0.01457,-0.03611 0.008,0.01986 0.008,0.05237 0,0.07223 -0.008,0.01986 -0.01457,0.0036 -0.01457,-0.03611 z m 1.064421,-2.369097 c 0,-0.03178 0.01294,-0.05778 0.02874,-0.05778 0.01581,0 0.05625,-0.05851 0.08986,-0.130012 0.06124,-0.130282 0.112532,-0.169135 0.112532,-0.08524 0,0.09074 -0.156376,0.330816 -0.215477,0.330816 -0.0086,0 -0.01565,-0.026 -0.01565,-0.05778 z m 1.5312456,-0.270159 c 0,-0.04959 0.281423,-0.423235 0.318774,-0.423235 0.05696,0 0.02401,0.07039 -0.12346,0.263762 -0.15058,0.197449 -0.195314,0.233974 -0.195314,0.159473 z m 0.333477,-0.558216 c 0.0094,-0.06083 0.02596,-0.220954 0.03682,-0.355835 0.0166,-0.206252 0.0282,-0.24686 0.07295,-0.255428 0.04985,-0.0095 0.05191,0.0075 0.03262,0.270623 -0.02517,0.343426 -0.04666,0.429504 -0.110277,0.44176 -0.04166,0.008 -0.04657,-0.0074 -0.03211,-0.10112 z m -0.03012,-1.508003 c -0.154249,-0.03353 -0.09225,-0.06712 0.144457,-0.07827 0.127122,-0.006 0.275236,-0.02381 0.329142,-0.03961 0.09777,-0.02866 0.147566,-0.01982 0.147566,0.0262 0,0.05312 -0.475606,0.123317 -0.621165,0.09168 z M 11.27346,37.20717 c 0,-0.05081 0.155918,-0.07962 0.447817,-0.08276 0.27084,-0.0029 0.325345,0.04686 0.08033,0.07336 -0.444419,0.04806 -0.528151,0.04955 -0.528151,0.0094 z m -0.104975,-0.105931 c -0.02219,-0.03591 0.03558,-0.07634 0.142126,-0.09948 0.04427,-0.0096 0.09627,-0.0397 0.115566,-0.06686 0.06708,-0.09443 0.157331,-0.122877 0.265622,-0.08372 0.119132,0.04308 0.102138,0.09407 -0.02439,0.07319 -0.04982,-0.0082 -0.116591,-0.0036 -0.148371,0.0102 -0.03887,0.01692 0.01314,0.02419 0.158903,0.02223 0.221427,-0.003 0.346697,0.01992 0.346697,0.06339 0,0.01341 -0.139762,0.03033 -0.310583,0.03759 -0.170821,0.0073 -0.359406,0.02656 -0.41908,0.04288 -0.07276,0.0199 -0.114422,0.02009 -0.126489,5.63e-4 z m 0.285546,-2.006404 c -0.105814,-0.0427 0.05207,-0.111656 0.181348,-0.07921 0.05824,0.01462 0.06629,0.02641 0.0398,0.05833 -0.03241,0.03905 -0.148864,0.05004 -0.221148,0.02088 z m 0.166126,-0.154659 c -0.207377,-0.01125 -0.260344,-0.02184 -0.216686,-0.04334 0.06795,-0.03345 0.49069,-0.03854 0.522935,-0.0063 0.04869,0.04868 -0.04471,0.06382 -0.306249,0.04963 z m -0.372216,-0.133647 c 0.02617,-0.03152 0.09418,-0.05063 0.312173,-0.0877 0.127013,-0.0216 0.493426,0.04315 0.493377,0.08719 -2.6e-5,0.02384 -0.12001,0.03349 -0.416482,0.03349 -0.308718,0 -0.409363,-0.0085 -0.389068,-0.03297 z m 0.169976,-0.922107 c 0,-0.03497 0.02687,-0.04302 0.120543,-0.03611 0.172378,0.0127 0.182394,0.08111 0.01188,0.08111 -0.100618,0 -0.13242,-0.01081 -0.13242,-0.045 z m 3.349816,8.134597 c 0.0368,-0.135067 0.09969,-0.32077 0.139749,-0.412674 0.06918,-0.158703 0.0709,-0.175193 0.03418,-0.32826 -0.03227,-0.134515 -0.04251,-0.150755 -0.06195,-0.09822 -0.02459,0.06648 -0.225959,1.053876 -0.225959,1.107986 0,0.08037 0.05271,-0.04395 0.113976,-0.268833 z m 0.739319,-2.512114 c -0.126813,-0.182991 -0.336063,-0.322643 -0.538182,-0.359181 -0.07151,-0.01293 -0.165902,0.0013 -0.30336,0.04563 -0.170156,0.05491 -0.187048,0.06598 -0.114684,0.07513 0.07994,0.01011 0.417795,0.08482 0.659743,0.145897 0.121116,0.03057 0.244302,0.102371 0.309455,0.180367 0.07777,0.0931 0.06839,0.02956 -0.01297,-0.08784 z m -1.686316,-0.598462 c -0.111059,-0.204895 -0.398167,-0.307271 -0.682977,-0.243533 -0.2165,0.04845 -0.267934,0.114635 -0.07465,0.09606 0.168067,-0.01615 0.413762,0.01534 0.39218,0.05026 -0.0083,0.01339 0.0078,0.01838 0.03565,0.01109 0.06232,-0.0163 0.24374,0.05669 0.295279,0.118794 0.04866,0.05864 0.07203,0.03653 0.03453,-0.03267 z m -2.967632,-0.08445 c 0.01672,-0.08912 0.0045,-0.125337 -0.08723,-0.258518 -0.109523,-0.159023 -0.210995,-0.226385 -0.38805,-0.257606 -0.0815,-0.01437 -0.117934,-0.0038 -0.187795,0.05435 l -0.08667,0.07218 0.133338,10e-4 c 0.128169,9.9e-4 0.285588,0.08165 0.285588,0.146311 0,0.01403 0.05845,0.08134 0.129896,0.149583 0.07144,0.06824 0.129948,0.140322 0.130011,0.160185 2.73e-4,0.07952 0.05269,0.02958 0.07091,-0.06753 z m 0.439694,-5.214381 c 0.02776,-0.02776 0.411779,-0.02396 0.688505,0.0068 l 0.08667,0.0096 -0.0017,-0.276842 c -0.0011,-0.181951 -0.01961,-0.333651 -0.05387,-0.44258 -0.04661,-0.148191 -0.06557,-0.172268 -0.179102,-0.227425 -0.126244,-0.06133 -0.127883,-0.06138 -0.286098,-0.0076 -0.08752,0.02975 -0.170604,0.06815 -0.184633,0.08534 -0.04459,0.05464 -0.115598,0.39847 -0.133243,0.645195 -0.0164,0.229388 -0.0028,0.273789 0.06351,0.207463 z m 3.11091,12.013609 c -12.5580796,0.852508 -6.2790396,0.426254 0,0 z"
       id="path117"
       inkscape:connector-curvature="0"
       sodipodi:nodetypes="cccscsscsccccccccsscscccsscscssccssccccsscsscsccscccccccsssccscsccsssscccssssscccccssccsccccccscccccccscccsccscscsccccscccccccsscscscccscsscscsscscccccssssscssccccssscscccsscccsccsscsccsscscsccccccsccsscssscsssccssssccssscssssscscsccccsccsssccscccccccsccccsscssscscssscssssccsssccsccscccssccccccccccscccccsccccscsccc" />
    <path
       style="display:inline;fill:#000000;stroke-width:0.02953234"
       d="m 37.858504,46.639276 c 10.357364,0.852508 5.178683,0.426254 0,0 z m -0.02309,-0.03611 c 0.03408,-0.06288 0.2034,-0.255875 0.443562,-0.5056 0.479945,-0.499051 0.686447,-0.811184 0.984377,-1.487908 0.02798,-0.06356 0.142417,-0.206574 0.254296,-0.317806 0.331577,-0.329656 0.630121,-0.693555 0.691409,-0.842769 0.214118,-0.52129 0.139741,-0.831325 -0.37692,-1.571158 -0.0727,-0.104108 -0.13219,-0.21841 -0.13219,-0.254005 0,-0.05692 -0.126933,-0.356388 -0.214253,-0.505479 -0.05002,-0.0854 -0.259823,-0.705274 -0.32916,-0.972508 -0.03504,-0.135068 -0.07579,-0.27158 -0.09057,-0.30336 -0.01476,-0.03178 -0.05414,-0.117531 -0.08751,-0.190557 -0.04337,-0.09494 -0.110501,-0.168133 -0.235601,-0.256872 -0.09622,-0.06825 -0.222492,-0.166009 -0.280603,-0.217234 -0.276731,-0.243936 -0.446178,-0.292006 -0.709405,-0.201247 -0.06641,0.0229 -0.124613,0.04183 -0.129336,0.04207 -0.0047,2.21e-4 -0.0047,-0.28234 0,-0.627954 0.0047,-0.345614 -0.0032,-0.907913 -0.01768,-1.249554 -0.01947,-0.460371 -0.01657,-0.680996 0.01117,-0.852297 0.04298,-0.265273 0.05376,-0.919123 0.02145,-1.300114 -0.04105,-0.484098 -0.07805,-0.765935 -0.114789,-0.874325 -0.198153,-0.584635 -0.32957,-0.738767 -0.717645,-0.841691 -0.562528,-0.134908 -0.957877,0.233315 -1.069612,0.661479 -0.07392,0.295504 -0.0812,0.411613 -0.09593,1.531245 -0.01797,1.365945 -0.04003,2.006728 -0.08504,2.470217 -0.02006,0.206574 -0.03237,0.638862 -0.02734,0.96064 0.005,0.321778 -7.19e-4,0.585052 -0.01272,0.585052 -0.01202,0 -0.04329,-0.01839 -0.06949,-0.04086 -0.08343,-0.07152 -0.416441,-0.161384 -0.598054,-0.161384 -0.206658,0 -0.459152,0.08129 -0.610306,0.196477 -0.05894,0.04492 -0.174697,0.167579 -0.257225,0.272574 l -0.150053,0.1909 -0.106541,-0.04403 c -0.393488,-0.162614 -0.754251,-0.145754 -1.07254,0.05012 -0.607418,0.373809 -0.758794,0.806337 -0.60109,1.717497 0.083,0.479586 0.102595,0.634254 0.111576,0.881188 0.0074,0.205192 0.02447,0.27646 0.10341,0.433371 0.111643,0.221928 0.182398,0.435839 0.343675,1.039033 0.0657,0.245718 0.147289,0.531743 0.181312,0.635612 0.03402,0.103869 0.09459,0.299362 0.134606,0.434429 0.122448,0.413364 0.200198,0.63562 0.228131,0.652143 0.01466,0.0087 0.02667,0.04436 0.02667,0.07931 0,0.08017 0.201659,0.381719 0.418931,0.626442 0.0917,0.103287 0.170293,0.192727 0.174648,0.198755 0.0044,0.006 0.913126,0.01253 2.019489,0.01445 1.982877,0.0034 2.012019,0.0027 2.042894,-0.0543 z m -3.652393,-0.128719 c -0.278297,-0.222554 -0.569207,-0.584012 -0.640484,-0.795806 -0.02139,-0.06356 -0.0518,-0.131164 -0.06758,-0.150229 -0.02581,-0.03118 -0.107295,-0.286089 -0.219812,-0.687623 -0.02227,-0.07945 -0.06245,-0.215963 -0.08931,-0.30336 -0.04473,-0.145576 -0.231263,-0.811331 -0.275218,-0.982308 -0.04851,-0.188717 -0.23626,-0.71416 -0.273279,-0.764828 -0.02419,-0.03312 -0.04055,-0.123886 -0.03904,-0.216686 0.002,-0.123138 0.0082,-0.143162 0.02677,-0.08747 0.0962,0.287431 0.703961,1.477779 0.956844,1.874036 0.105108,0.164699 0.191104,0.310962 0.191104,0.325029 0,0.01406 0.02038,0.02557 0.04528,0.02557 0.05847,0 0.05934,-0.117714 0.0021,-0.288914 -0.07005,-0.209639 -0.119075,-0.385788 -0.124632,-0.447817 -0.01073,-0.11974 -0.07475,-0.528556 -0.117646,-0.751177 -0.0663,-0.344103 -0.06192,-0.376603 0.07133,-0.529308 0.06489,-0.07436 0.154569,-0.219704 0.199291,-0.322991 0.188769,-0.435952 0.330544,-0.674561 0.414577,-0.697737 0.142776,-0.03937 0.344173,-0.02603 0.392605,0.02601 0.09911,0.106497 0.233993,0.421723 0.233993,0.546834 0,0.107978 0.0087,0.124891 0.06399,0.124891 0.06318,0 0.06379,-0.0059 0.04889,-0.469485 -0.0083,-0.258217 -0.03064,-0.506967 -0.04967,-0.552778 l -0.03457,-0.08329 0.129076,0.01738 c 0.07099,0.0096 0.166264,0.02577 0.211716,0.03603 0.115326,0.02603 0.136751,-0.04661 0.04809,-0.163067 -0.09553,-0.12548 -0.441616,-0.373815 -0.520955,-0.373815 -0.132196,0 -0.332449,0.169946 -0.532443,0.451855 -0.138797,0.195648 -0.15457,0.208054 -0.306148,0.240796 -0.08789,0.01899 -0.265412,0.06622 -0.394479,0.104956 -0.175143,0.05257 -0.2493,0.06294 -0.292344,0.04089 -0.08586,-0.04397 -0.518685,-0.03559 -0.583262,0.0113 -0.02954,0.02145 -0.0781,0.08699 -0.107906,0.145634 l -0.0542,0.106634 -0.05058,-0.271004 c -0.02781,-0.149051 -0.05058,-0.333512 -0.05058,-0.409913 0,-0.126553 0.01141,-0.148892 0.128284,-0.251138 0.148331,-0.129765 0.17285,-0.13636 0.175589,-0.04722 0.0031,0.101251 0.105429,0.378562 0.144246,0.390946 0.06561,0.02093 0.06816,-0.07196 0.0063,-0.22784 -0.07933,-0.199737 -0.07833,-0.315934 0.0036,-0.415542 0.06292,-0.07656 0.07376,-0.07909 0.278645,-0.06506 0.190335,0.01303 0.234262,0.0054 0.409984,-0.0713 0.108243,-0.04725 0.220325,-0.106024 0.24907,-0.130617 0.03607,-0.03086 0.06413,-0.03582 0.09056,-0.01601 0.111566,0.08362 0.181379,0.06576 0.359349,-0.09194 0.126499,-0.112089 0.19175,-0.150835 0.23555,-0.139872 0.04254,0.01065 0.08411,-0.01159 0.139566,-0.07467 0.09683,-0.110138 0.193189,-0.114561 0.360397,-0.01655 0.170212,0.09977 0.196027,0.109914 0.220162,0.08649 0.01173,-0.01139 -0.033,-0.06481 -0.09941,-0.118717 l -0.120751,-0.09801 0.0931,0.02508 c 0.0512,0.01379 0.175604,0.03424 0.276454,0.04545 0.252298,0.02802 0.323933,0.09996 0.295636,0.296872 -0.0162,0.112772 -0.01024,0.14945 0.02957,0.181055 0.03637,0.02889 0.0635,0.03142 0.100077,0.0093 0.08539,-0.05155 0.158857,-0.802114 0.149433,-1.526494 -0.0044,-0.333696 0.009,-0.827739 0.02951,-1.097874 0.03931,-0.51633 0.09671,-2.14367 0.09986,-2.831361 0.0012,-0.253284 0.01148,-0.381683 0.02761,-0.343493 0.03695,0.0875 0.09615,0.09952 0.259073,0.0526 0.190089,-0.05475 0.604659,-0.05597 0.626364,-0.0018 0.01229,0.03065 -0.01238,0.03673 -0.109974,0.02709 -0.184828,-0.01826 -0.541135,0.02766 -0.55642,0.07172 -0.01024,0.02953 0.05461,0.03355 0.314502,0.01946 0.300917,-0.01631 0.450317,-0.04901 0.496151,-0.108618 0.02952,-0.03839 0.02917,-0.254739 -7.74e-4,-0.482946 -0.01553,-0.118359 -0.02357,-0.219656 -0.01789,-0.225105 0.01417,-0.01356 0.09596,0.268363 0.124113,0.42775 0.01263,0.07151 0.02575,1.410623 0.02915,2.975816 0.0067,3.082071 0.01421,3.239828 0.154983,3.259193 0.08711,0.01198 0.110941,-0.06972 0.08433,-0.289154 -0.01583,-0.130542 -0.01225,-0.169708 0.01412,-0.154114 0.01944,0.0115 0.08828,-0.01262 0.152971,-0.05359 0.0647,-0.04097 0.227262,-0.118011 0.361264,-0.171193 l 0.243638,-0.09669 0.214679,0.05106 c 0.118073,0.02808 0.227249,0.06309 0.242614,0.0778 0.01537,0.0147 0.06178,0.148791 0.103148,0.29797 0.04137,0.149178 0.08638,0.297235 0.100025,0.329015 0.08011,0.186564 0.09385,0.225217 0.08359,0.235042 -0.0063,0.006 -0.03604,-0.01519 -0.06618,-0.04707 -0.05155,-0.05452 -0.13601,-0.07942 -0.13601,-0.04011 0,0.0098 0.04075,0.06228 0.09056,0.116571 0.05768,0.06287 0.08907,0.127203 0.08645,0.177163 -0.0032,0.06197 -0.0068,0.06562 -0.01666,0.0174 -0.01243,-0.06055 -0.121374,-0.126747 -0.208563,-0.126747 -0.07191,0 -0.224071,0.08217 -0.416084,0.224684 -0.138731,0.102972 -0.227746,0.143258 -0.40753,0.184438 -0.251715,0.05766 -0.562649,0.07013 -0.592583,0.02378 -0.01045,-0.01615 -0.03161,-0.02188 -0.04706,-0.01274 -0.04455,0.02635 -0.03287,-0.01467 0.02788,-0.09789 0.07477,-0.102445 0.101194,-0.21777 0.07754,-0.338442 -0.02673,-0.136384 -0.07314,-0.125211 -0.07314,0.01761 0,0.0948 -0.06705,0.287479 -0.100025,0.287479 -0.0044,0 -0.09842,-0.08451 -0.209018,-0.187793 -0.223296,-0.208517 -0.307756,-0.23206 -0.477698,-0.133147 -0.09373,0.05456 -0.309705,0.305907 -0.36921,0.429698 -0.01917,0.0399 -0.05009,0.06013 -0.07923,0.05187 -0.195928,-0.05558 -0.342076,-0.07814 -0.36389,-0.05618 -0.07635,0.07686 -0.152218,0.436618 -0.15389,0.729757 -0.0015,0.260168 0.06449,0.858704 0.107888,0.978739 0.03239,0.0896 0.07532,0.02297 0.07532,-0.116892 0,-0.179867 0.164644,-0.963276 0.214536,-1.020812 0.02042,-0.02354 0.09343,-0.03962 0.179937,-0.03962 0.152452,0 0.189111,-0.02611 0.457994,-0.326166 0.08601,-0.09599 0.192329,-0.08289 0.158809,0.01957 -0.05243,0.160254 -0.05063,0.200832 0.01368,0.310361 0.08433,0.143609 0.08641,0.115747 -0.101915,1.36858 -0.113555,0.755438 -0.11696,0.798305 -0.06721,0.84592 0.04158,0.03979 0.04781,0.03722 0.06148,-0.02523 0.0084,-0.03823 0.02201,-0.12802 0.03032,-0.199526 0.04252,-0.365714 0.114796,-0.86674 0.141124,-0.97828 0.02752,-0.116575 0.122815,-0.231609 0.194214,-0.234432 0.0166,-6.62e-4 0.193894,-0.07759 0.393978,-0.170959 0.390167,-0.182074 0.407488,-0.196079 0.816718,-0.660398 0.245465,-0.27851 0.267737,-0.296138 0.374175,-0.296138 0.188239,0 0.298722,0.03174 0.318542,0.0915 0.02424,0.07311 -0.0097,0.108652 -0.2573,0.269062 -0.247835,0.160588 -0.311208,0.256613 -0.174604,0.264563 0.03743,0.0022 0.189035,0.02068 0.3369,0.04112 l 0.268847,0.03716 0.06951,-0.08343 c 0.03823,-0.04589 0.07497,-0.103396 0.08164,-0.127797 0.0067,-0.0244 0.0061,0.0011 -0.0015,0.05676 -0.0074,0.05562 -0.02511,0.114485 -0.03919,0.130819 -0.03919,0.04543 -0.06595,0.450253 -0.03623,0.548129 0.01991,0.06559 0.04415,0.08667 0.09962,0.08667 0.07158,0 0.07369,-0.0068 0.09036,-0.288914 0.0193,-0.326847 0.103044,-0.584168 0.158498,-0.486992 0.01683,0.02949 0.03923,0.06012 0.04979,0.06807 0.0306,0.02304 0.194325,0.290168 0.274464,0.447818 0.136324,0.268172 0.06946,0.667447 -0.143217,0.855197 -0.04669,0.04122 -0.173198,0.124701 -0.281119,0.185506 -0.10792,0.06081 -0.243817,0.144048 -0.301994,0.184983 -0.140007,0.09851 -0.211281,0.140632 -0.298816,0.176578 -0.129264,0.05308 -0.425211,0.320338 -0.619858,0.559766 -0.230501,0.283531 -0.488944,0.825992 -0.393525,0.825992 0.0088,0 0.108713,-0.04389 0.222115,-0.09752 0.113402,-0.05364 0.253445,-0.112452 0.311208,-0.130697 0.05776,-0.01825 0.134408,-0.05937 0.170322,-0.0914 0.03591,-0.03202 0.06529,-0.04546 0.06529,-0.02986 0,0.08542 -0.288855,0.446104 -0.728592,0.909765 -0.07697,0.08115 -0.23033,0.254808 -0.340811,0.385903 l -0.200953,0.238354 h -1.475346 -1.475346 z m 3.742911,-2.435395 c 0.02429,-0.03575 0.06197,-0.116932 0.08371,-0.180397 0.02174,-0.06347 0.105311,-0.256673 0.185702,-0.429349 0.133918,-0.28765 0.146165,-0.332696 0.146165,-0.537577 0,-0.122991 -0.01439,-0.263131 -0.03198,-0.311423 -0.02465,-0.06766 -0.02153,-0.111733 0.01355,-0.192106 0.04333,-0.09926 0.04266,-0.104302 -0.01395,-0.104302 -0.0648,0 -0.07873,0.02634 -0.175667,0.332252 -0.127356,0.401918 -0.191036,0.684149 -0.160877,0.713013 0.01906,0.01824 0.0054,0.116218 -0.03862,0.278721 -0.09168,0.337817 -0.117714,0.496174 -0.08158,0.496174 0.01615,0 0.04924,-0.02925 0.07355,-0.06501 z m -1.501495,-0.924525 c 0.02057,-0.60168 0.0311,-0.790383 0.052,-0.931749 0.01487,-0.100544 -0.07785,-0.06573 -0.09991,0.03752 -0.0112,0.05242 -0.03034,0.419701 -0.04253,0.816183 -0.0194,0.631141 -0.01652,0.720877 0.02314,0.720877 0.03827,0 0.04872,-0.09985 0.06729,-0.642834 z m 3.421679,-0.02167 c 0,-0.03973 -0.0069,-0.05598 -0.01522,-0.03611 -0.0084,0.01986 -0.0084,0.05237 0,0.07223 0.0084,0.01986 0.01522,0.0036 0.01522,-0.03611 z M 38.733944,40.72376 c 0,-0.03178 -0.01352,-0.05778 -0.03003,-0.05778 -0.01652,0 -0.05877,-0.05851 -0.09389,-0.130012 -0.06399,-0.130282 -0.117581,-0.169135 -0.117581,-0.08524 0,0.09074 0.163391,0.330816 0.225144,0.330816 0.009,0 0.01635,-0.026 0.01635,-0.05778 z m -1.599938,-0.270159 c 0,-0.04959 -0.294047,-0.423235 -0.333074,-0.423235 -0.05951,0 -0.02509,0.07039 0.128999,0.263762 0.157335,0.197449 0.204075,0.233974 0.204075,0.159473 z M 36.78557,39.895385 c -0.0098,-0.06083 -0.02713,-0.220954 -0.03847,-0.355835 -0.01734,-0.206252 -0.02946,-0.24686 -0.07622,-0.255428 -0.05209,-0.0095 -0.05424,0.0075 -0.03408,0.270623 0.0263,0.343426 0.04875,0.429504 0.115224,0.44176 0.04353,0.008 0.04866,-0.0074 0.03355,-0.10112 z m 0.03147,-1.508003 c 0.161169,-0.03353 0.09639,-0.06712 -0.150937,-0.07827 -0.132825,-0.006 -0.287583,-0.02381 -0.343908,-0.03961 -0.102156,-0.02866 -0.154185,-0.01982 -0.154185,0.0262 0,0.05312 0.496941,0.123317 0.64903,0.09168 z m 0.166031,-0.16416 c 0,-0.05081 -0.162912,-0.07962 -0.467906,-0.08276 -0.28299,-0.0029 -0.33994,0.04686 -0.08393,0.07336 0.464355,0.04806 0.551842,0.04955 0.551842,0.0094 z m 0.109684,-0.105931 c 0.02319,-0.03591 -0.03718,-0.07634 -0.148501,-0.09948 -0.04626,-0.0096 -0.100589,-0.0397 -0.120751,-0.06686 -0.07009,-0.09443 -0.164388,-0.122877 -0.277537,-0.08372 -0.124477,0.04308 -0.10672,0.09407 0.02548,0.07319 0.05206,-0.0082 0.121821,-0.0036 0.155027,0.0102 0.04061,0.01692 -0.01373,0.02419 -0.166032,0.02223 -0.23136,-0.003 -0.362249,0.01992 -0.362249,0.06339 0,0.01341 0.146031,0.03033 0.324515,0.03759 0.178484,0.0073 0.375529,0.02656 0.43788,0.04288 0.07602,0.0199 0.119555,0.02009 0.132163,5.56e-4 z m -0.298354,-2.006404 c 0.110561,-0.0427 -0.05441,-0.111656 -0.189483,-0.07921 -0.06085,0.01462 -0.06926,0.02641 -0.04159,0.05833 0.03386,0.03905 0.155542,0.05004 0.231069,0.02088 z m -0.173578,-0.154659 c 0.216679,-0.01125 0.272023,-0.02184 0.226406,-0.04334 -0.071,-0.03345 -0.512702,-0.03854 -0.546394,-0.0063 -0.05087,0.04868 0.04672,0.06382 0.319988,0.04963 z m 0.388913,-0.133647 c -0.02734,-0.03152 -0.0984,-0.05063 -0.326177,-0.0877 -0.132711,-0.0216 -0.515561,0.04315 -0.51551,0.08719 2.7e-5,0.02384 0.125394,0.03349 0.435166,0.03349 0.322567,0 0.427727,-0.0085 0.406521,-0.03297 z m -0.177601,-0.922107 c 0,-0.03497 -0.02808,-0.04302 -0.125951,-0.03611 -0.18011,0.0127 -0.190576,0.08111 -0.01241,0.08111 0.105131,0 0.13836,-0.01081 0.13836,-0.045 z m -3.500088,8.134597 c -0.03845,-0.135067 -0.104162,-0.32077 -0.146018,-0.412674 -0.07228,-0.158703 -0.07408,-0.175193 -0.03571,-0.32826 0.03372,-0.134515 0.04442,-0.150755 0.06473,-0.09822 0.02569,0.06648 0.236096,1.053876 0.236096,1.107986 0,0.08037 -0.05507,-0.04395 -0.119089,-0.268833 z m -0.772485,-2.512114 c 0.132502,-0.182991 0.351139,-0.322643 0.562325,-0.359181 0.07472,-0.01293 0.173344,0.0013 0.316968,0.04563 0.17779,0.05491 0.195439,0.06598 0.119829,0.07513 -0.08353,0.01011 -0.436537,0.08482 -0.689339,0.145897 -0.126549,0.03057 -0.255261,0.102371 -0.323337,0.180367 -0.08126,0.0931 -0.07146,0.02956 0.01355,-0.08784 z m 1.761964,-0.598462 c 0.116041,-0.204895 0.416029,-0.307271 0.713615,-0.243533 0.226212,0.04845 0.279954,0.114635 0.078,0.09606 -0.175607,-0.01615 -0.432323,0.01534 -0.409773,0.05026 0.0087,0.01339 -0.0082,0.01838 -0.03725,0.01109 -0.06512,-0.0163 -0.254675,0.05669 -0.308526,0.118794 -0.05084,0.05864 -0.07526,0.03653 -0.03608,-0.03267 z m 3.100759,-0.08445 c -0.01747,-0.08912 -0.0047,-0.125337 0.09114,-0.258518 0.114436,-0.159023 0.22046,-0.226385 0.405457,-0.257606 0.08516,-0.01437 0.123225,-0.0038 0.19622,0.05435 l 0.09056,0.07218 -0.13932,10e-4 c -0.133918,9.79e-4 -0.298399,0.08165 -0.298399,0.146311 0,0.01403 -0.06107,0.08134 -0.135723,0.149583 -0.07465,0.06824 -0.135778,0.140322 -0.135843,0.160185 -2.77e-4,0.07952 -0.05505,0.02958 -0.07409,-0.06753 z m -0.459418,-5.214381 c -0.02901,-0.02776 -0.430252,-0.02396 -0.719391,0.0068 l -0.09056,0.0096 0.0018,-0.276842 c 0.0011,-0.181951 0.0205,-0.333651 0.0563,-0.44258 0.0487,-0.148191 0.06851,-0.172268 0.187136,-0.227425 0.131908,-0.06133 0.13362,-0.06138 0.298933,-0.0076 0.09145,0.02975 0.178257,0.06815 0.192915,0.08534 0.04659,0.05464 0.120784,0.39847 0.139221,0.645195 0.01713,0.229388 0.0029,0.273789 -0.06636,0.207463 z m -3.250465,12.013609 c 13.121433,0.852508 6.560717,0.426254 0,0 z"
       id="path117-5"
       inkscape:connector-curvature="0"
       sodipodi:nodetypes="cccscsscsccccccccsscscccsscscssccssccccsscsscsccscccccccsssccscsccsssscccssssscccccssccsccccccscccccccscccsccscscsccccscccccccsscscscccscsscscsscscccccssssscssccccssscscccsscccsccsscsccsscscsccccccsccsscssscsssccssssccssscssssscscsccccsccsssccscccccccsccccsscssscscssscssssccsssccsccscccssccccccccccscccccsccccscsccc" />
    <path
       style="display:inline;fill:#000000;stroke-width:0.12962289"
       d="m 18.923523,26.897833 c 0.200844,-0.104266 0.355285,-0.831782 0.521228,-2.455371 0.111028,-1.086283 0.218662,-1.640508 0.329808,-1.698209 0.111138,-0.0577 0.134642,0.0129 0.072,0.216336 -0.05124,0.166067 -0.06481,0.401725 -0.03037,0.523617 0.0459,0.162464 0.106705,0.08336 0.227777,-0.296305 0.122807,-0.385048 0.237245,-0.531614 0.44613,-0.571269 0.154532,-0.02934 0.308103,-0.045 0.341267,-0.03481 0.03317,0.01019 0.06858,0.430902 0.07869,0.934917 0.01012,0.504012 0.05975,0.859656 0.110293,0.790315 0.08069,-0.110698 0.08518,-1.132863 0.008,-1.833337 -0.04251,-0.38616 0.294722,-0.199407 0.547335,0.303102 0.121329,0.241351 0.253662,0.722203 0.294074,1.068555 0.04274,0.36628 0.108142,0.532452 0.156335,0.3972 0.04562,-0.127878 0.01706,-0.511993 -0.06337,-0.853554 -0.145248,-0.616872 -0.144329,-0.621032 0.137535,-0.622643 0.181411,-0.0011 0.345982,0.102469 0.456301,0.286853 0.0949,0.158662 0.191647,0.227801 0.214994,0.15365 0.02334,-0.07415 -0.0029,-0.186371 -0.05836,-0.249372 -0.05667,-0.06439 -0.0049,-0.305886 0.118401,-0.551519 0.163464,-0.325841 0.180425,-0.495903 0.06671,-0.668684 -0.138993,-0.211175 -0.148258,-0.198547 -0.104533,0.142499 0.09641,0.752011 -0.787154,0.869169 -1.599446,0.21208 -0.121638,-0.0984 -0.221961,-0.06996 -0.324014,0.0918 -0.229666,0.364046 -1.395595,0.451983 -1.91094,0.144128 -0.35363,-0.211247 -0.399507,-0.305514 -0.3368,-0.69203 l 0.0726,-0.447469 -0.379018,0.258266 c -0.290262,0.197785 -0.397123,0.369748 -0.456327,0.734331 -0.221475,1.363819 -0.05757,1.955357 0.440715,1.590483 0.212786,-0.155819 0.229945,-0.148115 0.283518,0.127284 0.03136,0.161225 0.0097,0.75157 -0.04808,1.311873 -0.131826,1.277721 0.0075,1.884541 0.387475,1.68729 z m -0.273454,-0.500037 c -0.02381,-0.13718 5.85e-4,-0.630588 0.05421,-1.096464 0.173954,-1.511272 -0.0402,-2.166494 -0.551495,-1.687347 -0.16667,0.156193 -0.193108,0.127559 -0.217422,-0.235461 -0.01522,-0.2273 0.03727,-0.727257 0.116641,-1.111011 l 0.144316,-0.697737 0.16862,0.422851 c 0.129155,0.323882 0.27646,0.455987 0.62935,0.564419 l 0.460729,0.141566 -0.158594,1.469161 c -0.232548,2.154234 -0.309492,2.569646 -0.467002,2.521249 -0.07483,-0.02299 -0.155543,-0.154045 -0.179353,-0.291226 z m -1.305521,-4.415121 c 0.01597,-0.217718 -0.0095,-0.468427 -0.05676,-0.557133 -0.05719,-0.107523 -0.09548,-0.02934 -0.114836,0.234561 -0.01597,0.217716 0.0095,0.468425 0.05676,0.557133 0.05719,0.107522 0.09548,0.02934 0.114837,-0.234561 z m 0.696738,-0.669363 c 0.04362,-0.138556 0.278992,-0.349307 0.52304,-0.468335 0.305541,-0.14902 0.364699,-0.212873 0.189963,-0.205037 -0.13957,0.0062 -0.275762,0.0047 -0.302648,-0.0037 -0.074,-0.02274 -0.651625,0.575731 -0.698077,0.72327 -0.02236,0.07101 0.01539,0.146351 0.08388,0.167396 0.06849,0.02105 0.160223,-0.07511 0.203846,-0.213655 z m 6.003874,1.708364 c 0.06151,-0.17099 0.05748,-0.445449 -0.009,-0.609917 -0.06647,-0.164468 -0.10435,-0.208195 -0.08419,-0.09717 0.02016,0.111029 0.02419,0.385491 0.009,0.609917 -0.02544,0.375159 -0.01864,0.382991 0.08419,0.09717 z m -0.446186,-0.709023 c 0.07556,-0.238146 -0.310013,-1.002181 -0.537613,-1.06538 -0.07626,-0.02115 -0.05521,0.05134 0.04679,0.161148 0.101999,0.109809 0.238387,0.40791 0.303085,0.662452 0.08253,0.324664 0.138557,0.396831 0.187733,0.241781 z m -5.270579,-2.128144 c 0.246412,-0.06689 0.5742,-0.08316 0.728421,-0.03617 0.154223,0.04698 0.297826,0.03009 0.319129,-0.03757 0.02131,-0.06766 -0.03169,-0.143331 -0.11778,-0.16815 -0.277752,-0.08005 -1.363167,0.100156 -1.405093,0.23332 -0.04955,0.157382 -0.07145,0.156987 0.475323,0.0085 z m 3.087099,0.82279 c 0.02131,-0.06766 -0.01731,-0.140242 -0.0858,-0.161286 -0.06849,-0.02105 -0.141961,0.0171 -0.163262,0.08476 -0.02131,0.06766 0.01731,0.140242 0.0858,0.161286 0.06849,0.02105 0.141961,-0.0171 0.163263,-0.08476 z M 20.205127,20.40525 c 0.16334,0.01802 0.31078,-0.01105 0.327648,-0.06463 0.01686,-0.05358 -0.117759,-0.113998 -0.299169,-0.134273 -0.181411,-0.02028 -0.345235,0.01204 -0.364055,0.07182 -0.01882,0.05977 -0.01783,0.105449 0.0022,0.101497 0.02,-0.004 0.17005,0.0075 0.333387,0.02559 z m 1.950434,0.420441 c 0.02064,-0.06553 -0.04654,-0.144992 -0.149278,-0.176559 -0.102738,-0.03157 -0.193646,-0.03564 -0.202018,-0.009 -0.0083,0.02659 0.05881,0.106045 0.149278,0.17656 0.09047,0.07051 0.181384,0.07458 0.202018,0.009 z m 2.193268,0.408303 C 24.13264,21.013013 23.760516,20.799185 23.423596,20.702342 L 22.86,20.540347 l 0.602655,0.285584 c 0.331459,0.157075 0.701371,0.384591 0.822025,0.505595 0.120656,0.121 0.265814,0.231735 0.322578,0.246067 0.05677,0.01433 -0.05953,-0.140283 -0.258431,-0.343594 z m -2.61639,-0.799569 c 0.02063,-0.0655 0.217604,-0.154333 0.437741,-0.197406 0.240222,-0.047 0.322414,-0.104383 0.205574,-0.143525 -0.107058,-0.03591 -0.369857,0.03274 -0.583978,0.152469 -0.21412,0.119728 -0.323501,0.237908 -0.243072,0.262621 0.08043,0.02472 0.16311,-0.0086 0.183734,-0.07415 z m -0.749535,-0.222108 c 0.0406,-0.128946 -0.468586,-0.62385 -0.581528,-0.565217 -0.05062,0.02628 0.05293,0.185093 0.230127,0.352907 0.177198,0.167817 0.335329,0.263358 0.3514,0.212314 z m 0.532098,-0.388652 c 0.04261,-0.135325 0.05598,-0.252647 0.02972,-0.260715 -0.02626,-0.008 -0.111909,0.08705 -0.190336,0.211363 -0.07843,0.124316 -0.09181,0.241638 -0.02973,0.260712 0.06208,0.01908 0.147733,-0.07604 0.190339,-0.211362 z"
       id="path2552"
       inkscape:connector-curvature="0"
       sodipodi:nodetypes="cscccccsscscsccccscccsccsccccccccsscccccscsssccsccssssssscssscccsccccscscssssscsssccssscsccccccccsccccsssccsssscss" />
  </g>
  <g
     id="g27"
     inkscape:groupmode="layer"
     inkscape:label="F.Cu"
     style="display:inline">
    <path
       style="display:inline;fill:#000000;stroke-width:0.08929438"
       d="m 6.9316369,21.063663 c -49.9951319,22.164057 -24.9975659,11.082028 0,0 z M 31.95503,29.30117 c 1.71234,-1.104942 2.8132,-2.095368 3.5736,-3.21512 0.49227,-0.724883 1.35058,-2.528648 1.66853,-3.506431 0.71188,-2.189211 0.83917,-3.449217 0.8365,-8.280005 -0.002,-3.186518 0.0183,-3.817335 0.12107,-3.817335 0.0677,0 0.14371,0.09041 0.16881,0.200913 0.0251,0.110501 0.0915,0.381732 0.14755,0.602737 0.0623,0.24566 0.11765,1.622476 0.14242,3.542683 l 0.0405,3.140861 0.33771,0.234038 c 0.40182,0.27846 0.79897,0.755499 1.06798,1.282821 0.10763,0.210948 0.24337,0.367643 0.30168,0.348209 0.28925,-0.09641 1.06647,-2.641328 1.22836,-4.022091 0.0529,-0.451443 0.12897,-0.945466 0.16896,-1.097832 0.0904,-0.344334 -0.13535,-1.873024 -0.31886,-2.15939 C 41.36794,12.442995 41.14547,11.86035 40.94552,11.260459 40.74555,10.660568 40.52024,10.049335 40.44482,9.9021611 40.152,9.3306721 39.31963,8.1122609 38.67186,7.3068909 37.93065,6.3853499 37.42569,5.9525069 35.87037,4.9054479 31.43402,1.9188789 24.79334,0.6530719 19.4402,1.7736379 c -1.02587,0.214743 -1.474759,0.380268 -2.589537,0.954872 -1.292161,0.6660339 -2.175264,1.3095199 -2.40051,1.749166 -0.09423,0.183928 -0.591879,0.759043 -1.105866,1.278035 -1.643972,1.659958 -3.174219,3.9241072 -3.964633,5.8660601 -0.510942,1.255314 -0.7314831,1.943205 -1.1020811,3.43758 -0.794889,3.205244 -0.905659,5.683407 -0.351105,7.855369 0.266089,1.042183 1.1821951,3.194076 1.3597851,3.194076 0.05428,0 0.0628,-0.274446 0.02277,-0.733312 -0.04848,-0.555851 -0.136093,-0.885391 -0.36201,-1.36174 -0.7896821,-1.665093 -0.9750761,-2.98146 -0.7211581,-5.120609 0.07758,-0.65356 0.182821,-1.266344 0.233879,-1.361739 0.07707,-0.143987 0.189858,-0.17345 0.6640831,-0.17345 0.46668,0 0.579824,-0.02861 0.618078,-0.156265 0.02576,-0.08595 0.168739,-0.671392 0.317745,-1.300992 0.724971,-3.063341 1.490375,-5.016329 3.138445,-8.0079451 0.404129,-0.733584 0.602578,-1.034681 1.014152,-1.538718 0.460662,-0.564142 0.659412,-0.383055 0.316764,0.288597 -0.351954,0.689891 -0.244702,0.691323 0.935868,0.0125 0.687476,-0.395297 0.97755,-0.623721 1.268827,-0.999153 0.412192,-0.531278 0.449303,-0.620641 0.257748,-0.620641 -0.214565,0 -0.635659,0.41592 -0.80797,0.798052 -0.17866,0.396185 -0.404352,0.48383 -0.404352,0.157021 0,-0.364708 0.480707,-1.002369 0.905141,-1.200674 0.536321,-0.250581 1.406917,-0.329779 1.481737,-0.134794 0.0303,0.07893 0.20418,0.292619 0.38642,0.474855 0.37306,0.373066 0.608,0.935383 0.45481,1.088573 -0.0672,0.06721 -0.14196,0.0087 -0.2552,-0.200002 -0.24573,-0.452783 -0.65248,-0.893736 -0.824377,-0.893736 -0.08505,0 -0.335926,0.178738 -0.557518,0.397197 -0.296615,0.292424 -0.46548,0.569184 -0.640202,1.049209 -0.248408,0.682493 -0.308218,1.232425 -0.134032,1.232425 0.05634,0 0.421729,-0.241094 0.811999,-0.535766 0.390261,-0.294672 0.77995,-0.535767 0.86597,-0.535767 0.19314,0 0.33259,0.159955 0.75166,0.862148 0.33453,0.56055 1.49762,1.7348002 2.1944,2.2154622 l 0.38392,0.2648369 0.86033,-0.3009239 c 1.12932,-0.395014 2.23062,-0.9506469 3.00147,-1.5143216 0.34273,-0.2506176 0.69625,-0.4556686 0.78559,-0.4556686 0.18284,0 0.40757,0.222111 1.10679,1.0938563 0.2659,0.3315049 0.53888,0.6027369 0.60663,0.6027369 0.20207,0 0.74776,-0.7101749 0.93953,-1.2227376 0.20262,-0.5415596 0.39876,-1.6685756 0.32419,-1.8628836 -0.10401,-0.271058 -0.74981,-0.06796 -1.23884,0.389608 -0.19711,0.184431 -0.26826,0.207994 -0.35717,0.118278 -0.17139,-0.172932 0.52715,-0.788064 0.97306,-0.856881 0.18954,-0.02925 0.47394,-0.09431 0.632,-0.144577 0.23619,-0.07511 0.33164,-0.06116 0.53577,0.07829 0.13661,0.09333 0.41429,0.273637 0.61707,0.400692 0.52236,0.327306 0.93673,1.225033 0.56544,1.225033 -0.0452,0 -0.16163,-0.155676 -0.25869,-0.345946 -0.19478,-0.381784 -0.68881,-0.84475 -0.81695,-0.765561 -0.045,0.02778 -0.0817,0.226918 -0.0817,0.442524 0,0.339745 0.0387,0.419955 0.29021,0.601603 0.15961,0.115277 0.76334,0.565036 1.34162,0.9994646 0.57827,0.4344276 1.07704,0.7642416 1.10836,0.7329186 0.0313,-0.03132 0.0103,-0.159467 -0.0469,-0.284766 -0.25278,-0.5548156 0.004,-0.9426792 0.34029,-0.5147046 0.59952,0.7621666 1.06529,2.2965965 1.3012,4.2867015 0.19576,1.651248 0.27601,6.09247 0.13547,7.496318 -0.29454,2.942171 -1.03991,5.271766 -2.63204,8.22621 -0.37258,0.691391 -0.67742,1.284428 -0.67742,1.317858 0,0.09961 0.21038,-0.0095 0.99585,-0.516314 z M 46.29095,15.697811 c 0.25533,-0.07046 0.49151,-0.172223 0.52484,-0.226155 0.0333,-0.05393 -0.1109,-0.431647 -0.32051,-0.839366 -0.58704,-1.141844 -0.39326,-1.27792 0.81495,-0.572285 0.33078,0.193175 0.64407,0.351227 0.69623,0.351227 0.14758,0 0.35806,-0.588472 0.4931,-1.378579 0.14277,-0.835353 0.0347,-1.960882 -0.29194,-3.0414929 -0.66563,-2.2018542 -2.9976,-4.5616892 -5.13509,-5.1964542 -0.62431,-0.185401 -1.87974,-0.174275 -2.36517,0.02096 -0.39294,0.158034 -0.37552,0.304549 0.0366,0.307585 0.30657,0.0023 1.00851,0.530618 1.24813,0.939488 0.34567,0.589821 0.37906,1.166532 0.10253,1.770532 l -0.22741,0.4967446 0.28872,0.09529 c 0.29775,0.09827 0.8501,0.6135846 1.02606,0.9572506 0.0549,0.107274 0.0995,0.468914 0.099,0.8036479 -0.001,0.809772 -0.28832,1.447496 -0.90005,1.998824 l -0.45267,0.407978 0.10668,0.752848 c 0.24161,1.705227 0.17494,1.527199 0.68636,1.833099 1.12458,0.672634 2.36105,0.852355 3.56969,0.51886 z M 9.75411,9.9018671 c 0.260561,-0.442007 0.602476,-1.0178449 0.759813,-1.2796396 0.256419,-0.426673 0.280196,-0.5238156 0.229442,-0.9375896 -0.205109,-1.672194 -0.165436,-2.039896 0.27683,-2.565495 0.266463,-0.316675 0.569904,-0.483585 1.030894,-0.56705 l 0.334855,-0.06063 V 3.8398468 c 0,-0.8036129 0.237674,-1.3133799 0.795694,-1.7065919 0.323325,-0.227833 0.462473,-0.267798 0.930733,-0.267309 0.302823,3.73e-4 0.661081,0.03482 0.796139,0.07665 0.210039,0.06508 0.245559,0.05085 0.245559,-0.09835 0,-0.427558 -0.688468,-0.675808 -1.872931,-0.675346 -0.97763,3.7e-4 -1.592084,0.173266 -2.681082,0.754371 -1.9696001,1.051002 -3.4087571,2.729279 -3.9651231,4.623941 -0.155899,0.530925 -0.194992,1.9275606 -0.05635,2.0132496 0.04734,0.02926 0.32437,-0.0085 0.615631,-0.08402 1.197723,-0.3103606 1.265614,-0.07469 0.314584,1.0920076 -0.234237,0.287356 -0.235255,0.294373 -0.06892,0.4782959 0.317593,0.35117 1.145906,0.704152 1.5850551,0.675464 0.221183,-0.01445 0.318915,-0.124409 0.729171,-0.8203359 z m 4.505623,-6.0016133 c -54.880529,33.6063292 -27.440264,16.8031642 0,0 z"
       id="path221-35"
       inkscape:connector-curvature="0"
       sodipodi:nodetypes="cccsccsccccccccccssscccccsccccsccscscsscscccccsccscscccccscsccccccccsccsccscccccsccsccscccccccccsssccccccscscscccccsssccccssccccccc" />
  </g>
  <g
     id="g29"
     inkscape:groupmode="layer"
     inkscape:label="F.Mask"
     style="display:inline">
    <path
       style="fill:#000000;stroke-width:0.08885606"
       d="m 26.746955,20.133558 c -0.463872,-0.0365 -0.982963,-0.110381 -1.153543,-0.164185 -0.170579,-0.05381 -0.438335,-0.09783 -0.595031,-0.09783 -0.632811,0 -1.69973,-1.515632 -1.784068,-2.534381 -0.0511,-0.617322 0.184562,-1.668134 0.528943,-2.358494 0.256519,-0.514227 1.156462,-1.599243 1.326457,-1.599243 2.668579,-1.231286 4.51087,0.187137 4.646286,0.328754 0.406422,0.435118 0.672528,1.102964 0.780308,1.958321 0.171421,1.360448 -0.218307,2.844454 -0.964817,3.673772 -0.389642,0.432874 -1.273569,0.893758 -1.674798,0.873252 -0.146485,-0.0075 -0.64587,-0.04347 -1.109737,-0.07997 z M 14.451057,18.614995 c -0.327203,-0.01444 -0.682392,-0.09479 -0.973878,-0.130636 -0.460657,-0.05664 -0.583955,-0.115738 -0.94262,-0.45181 -0.226949,-0.212653 -0.545459,-0.636247 -0.707791,-0.94132 -0.248148,-0.466347 -0.301264,-0.671219 -0.333516,-1.286533 -0.03208,-0.611975 0,-0.85234 0.193279,-1.467397 0.259056,-0.822585 0.591233,-1.440795 1.07617,-2.002837 1.921968,-1.345784 1.51103,-0.953748 2.941184,-0.970491 1.148534,0.413763 0.581085,-0.07525 1.117145,0.335156 0.520558,0.398534 0.528681,0.184567 0.781515,0.452695 0.450251,0.47749 0.704019,1.661112 0.739169,2.543238 0.03066,0.769388 -0.198774,1.665624 -0.466159,2.262472 -0.276706,0.617649 -0.965147,1.314529 -1.520513,1.555541 -0.421062,0.182728 -1.238116,0.131308 -1.903985,0.101923 z"
       id="path223-5"
       inkscape:connector-curvature="0"
       sodipodi:nodetypes="cccsccccsccccccccccsssacccc" />
    <path
       style="fill:#000000;stroke-width:0.08929438"
       d="m 42.217918,11.724749 c 0.224631,-0.224621 0.59441,-0.996551 0.671904,-1.402584 C 42.960122,9.953649 42.735451,9.337266 42.424121,9.044704 42.233068,8.865161 42.099263,8.828922 41.600399,8.821625 40.854771,8.810715 40.79583,8.671384 41.30374,8.12037 41.763541,7.621557 41.920619,7.130869 41.77554,6.646649 41.576589,5.982568 40.972958,5.481797 40.371441,5.481797 c -0.13049,0 -0.475099,0.106734 -0.765778,0.237186 -0.326218,0.146396 -0.56034,0.205364 -0.611648,0.154055 -0.05131,-0.05131 0.0044,-0.300039 0.145767,-0.649809 0.338087,-0.837025 0.13716,-1.509711 -0.548058,-1.834867 -0.911336,-0.432459 -1.9942,-0.137087 -2.404212,0.655796 -0.169698,0.328162 -0.08445,0.442801 0.777161,1.045177 0.950096,0.664231 1.639526,1.323423 2.371673,2.267645 0.978662,1.262152 1.597877,2.323739 1.983793,3.401072 0.195932,0.54695 0.37828,1.030114 0.40522,1.073697 0.0832,0.134578 0.297553,0.08801 0.492559,-0.107 z M 11.656539,6.664948 c 0.191831,-0.282394 0.49469,-0.68802 0.673029,-0.90139 0.418085,-0.50022 0.422131,-0.701778 0.0156,-0.778042 -0.409933,-0.0769 -0.927196,0.179306 -1.152585,0.570902 -0.262579,0.456192 -0.243604,1.621973 0.0264,1.621973 0.04881,0 0.24572,-0.231049 0.437551,-0.513443 z m 2.60319,-2.764692 c 1.028385,-0.813284 1.151094,-1.007352 0.824098,-1.30328 -0.08774,-0.0794 -0.31086,-0.207607 -0.495825,-0.284888 -1.275491,-0.469583 -2.474934,1.28756 -1.397743,2.366061 0.04721,0 0.52848,-0.350052 1.06947,-0.777893 z M 16.434325,2.413699 C 16.73698,2.248713 17.255959,2.001537 17.587624,1.864416 18.326831,1.5588 18.409499,1.472289 18.220346,1.202242 17.880332,0.7168 16.891753,0.520071 16.3135,0.822773 15.967761,1.00376 15.600538,1.616506 15.600538,2.012424 c 0,0.266241 0.141959,0.701247 0.228844,0.701247 0.03007,0 0.302289,-0.134988 0.604943,-0.299972 z"
       id="path221-3"
       inkscape:connector-curvature="0"
       sodipodi:nodetypes="cccsscccccccccsccsccccsscccccccccssc" />
  </g>
  <g
     id="g31"
     inkscape:groupmode="layer"
     inkscape:label="F.Silk"
     style="display:inline">
    <path
       style="fill:#000000;stroke-width:0.08929438"
       d="m 7.1334225,49.320742 c -0.05727,-0.2481 -0.222834,-0.599694 -0.367928,-0.781325 -0.145094,-0.181639 -0.314887,-0.523018 -0.377331,-0.758605 -0.118048,-0.445403 -0.114405,-0.468657 0.298243,-1.907368 0.08299,-0.28937 0.08228,-0.476454 -0.0032,-0.848302 -0.07344,-0.319434 -0.08525,-0.654077 -0.03575,-1.012823 0.04068,-0.294663 0.03995,-0.756761 -0.0016,-1.026882 -0.120182,-0.781092 -0.02308,-1.159523 0.435363,-1.696596 0.545285,-0.63882 0.648206,-0.871132 1.186776,-2.678829 0.863994,-2.899976 1.5444172,-4.940681 1.9839155,-5.950135 0.474251,-1.089261 0.569332,-1.270016 1.320931,-2.511187 0.275321,-0.454663 0.590334,-0.977035 0.700023,-1.16083 0.109699,-0.183793 0.200109,-0.429882 0.200914,-0.546865 8.73e-4,-0.116986 0.08466,-0.3473 0.186338,-0.511815 0.101671,-0.164516 0.158962,-0.341035 0.127298,-0.392266 -0.03166,-0.05123 -0.344667,-0.237723 -0.695558,-0.41443 -0.3509,-0.17671 -0.884665,-0.477079 -1.186159,-0.667487 -0.301485,-0.190408 -0.59405,-0.346197 -0.650135,-0.346197 -0.06545,0 -0.102309,0.199889 -0.102948,0.55809 -0.0013,0.763084 -0.08944,1.233831 -0.2418173,1.292309 -0.208854,0.08014 -0.8879302,-0.66993 -1.2671542,-1.399638 -1.062879,-2.045209 -1.549542,-3.607487 -1.712012,-5.495894 -0.195868,-2.276478 0.23487,-5.084228 1.269827,-8.277424 0.371858,-1.147316 0.387439,-1.372875 0.101311,-1.467311 -0.476903,-0.157404 -1.10757,-0.517427 -1.394438,-0.796029 -0.266142,-0.258477 -0.326505,-0.381686 -0.326505,-0.6664587 0,-0.2141212 -0.0557,-0.3939286 -0.143897,-0.4644965 -0.662047,-0.5297326 -0.659752,-0.5245623 -0.659752,-1.4877232 0,-0.7172658 0.04646,-1.0425478 0.233728,-1.6364921 0.604487,-1.917192 1.589796,-3.2422933 3.231679,-4.3461712 1.8635655,-1.25291603 3.4289575,-1.72236403 4.7943225,-1.43777203 1.105205,0.230366 1.252924,0.221558 1.76234,-0.105068 0.431078,-0.276399 0.521337,-0.299096 1.182713,-0.297437 0.805159,0.0021 1.134834,0.123496 1.739259,0.64086 0.422683,0.36180103 0.281268,0.35808003 2.548532,0.06704 2.161774,-0.277495 5.272673,-0.06394 7.902554,0.54248703 1.713514,0.395122 4.238,1.319367 5.502598,2.0145693 0.349826,0.1923153 0.693539,0.3496649 0.763804,0.3496649 0.07027,0 0.266232,-0.1440593 0.43548,-0.3201305 0.457285,-0.4757248 0.99141,-0.7565327 1.54831,-0.8140087 1.003261,-0.103546 1.851118,0.3042101 2.305074,1.1085654 0.146518,0.2596213 0.301861,0.4939535 0.345189,0.5207373 0.0433,0.026781 0.28789,-0.013396 0.543451,-0.089292 0.73733,-0.2189617 1.97857,-0.1825471 2.818149,0.082678 2.22309,0.7022759 4.645062,3.1574341 5.375841,5.4495303 0.503481,1.5791507 0.57073,3.1305057 0.188629,4.3518397 -0.252039,0.805667 -0.47707,1.055368 -1.004678,1.114839 -0.40132,0.04524 -0.41715,0.05833 -0.47344,0.391484 -0.0831,0.491625 -0.4313,0.749266 -1.262812,0.93426 -0.973798,0.21665 -1.980109,0.138527 -3.00632,-0.23339 -0.510101,-0.184871 -0.818851,-0.25506 -0.875001,-0.198918 -0.0477,0.04772 -0.167327,0.481249 -0.265829,0.96341 -0.187079,0.915775 -0.83992,2.827635 -1.202928,3.522846 -0.116232,0.222596 -0.253402,0.706089 -0.304832,1.074429 -0.0514,0.368338 -0.154559,0.855403 -0.229201,1.082364 -0.151148,0.45963 -0.662352,1.349562 -0.961241,1.673385 -0.419058,0.454018 -1.2231,0.913033 -1.904667,1.087349 -0.374893,0.09588 -0.740151,0.222905 -0.811686,0.282276 -0.07154,0.05937 -0.302591,0.370969 -0.513443,0.692442 -0.402486,0.613625 -1.122688,1.471211 -1.52913,1.820815 -0.330361,0.284165 -0.267533,0.458409 0.552323,1.531806 1.586413,2.077008 2.69068,4.155749 3.605054,6.786369 0.624337,1.796185 1.718201,4.81112 1.814272,5.000482 0.0498,0.09822 0.286099,0.387287 0.52506,0.642358 0.238969,0.255069 0.47602,0.573014 0.526791,0.706535 0.0508,0.133525 0.0862,0.648105 0.0787,1.143532 -0.007,0.495419 0.0364,1.093185 0.0975,1.328359 0.0881,0.339321 0.0884,0.534345 0.0011,0.944632 -0.0987,0.464939 -0.0898,0.588105 0.0882,1.222547 0.15085,0.537609 0.1881,0.859261 0.156512,1.351473 -0.0469,0.7308 -0.155882,0.920303 -0.529241,0.920303 -0.237609,0 -0.251301,-0.01646 -0.15843,-0.189947 0.0559,-0.104482 0.12138,-0.496253 0.1455,-0.870625 0.0364,-0.565677 0.008,-0.778727 -0.167511,-1.261089 -0.24947,-0.685062 -0.247359,-0.684583 -1.43792,-0.328189 -0.431274,0.129109 -1.104757,0.29011 -1.496626,0.357783 -1.020922,0.176308 -1.349309,0.56774 -0.861103,1.026377 0.185367,0.174143 0.304253,0.194151 1.153523,0.194151 0.520766,0 1.010412,0.02437 1.088096,0.05418 0.195511,0.07507 0.17711,0.272767 -0.03044,0.327043 -0.108363,0.02832 -0.182452,0.138914 -0.200911,0.299858 -0.04464,0.389382 -0.3056,0.38196 -0.470795,-0.01336 -0.170489,-0.408048 -0.364463,-0.365707 -0.35547,0.07761 l 0.0066,0.326255 H 23.011632 7.2375755 l -0.104117,-0.45107 z m 0.615971,-1.208072 c 0.134459,-0.143118 0.216476,-0.336931 0.216476,-0.511513 0,-0.264996 0.02558,-0.286594 0.446471,-0.377061 0.24556,-0.05277 0.587112,-0.156596 0.759003,-0.230687 0.171892,-0.07412 0.4330782,-0.173379 0.5804142,-0.220641 0.4279773,-0.137256 0.3333003,-0.334201 -0.2232362,-0.464357 -0.270117,-0.06321 -0.805927,-0.216848 -1.190697,-0.341511 -0.384768,-0.124661 -0.753528,-0.205955 -0.819454,-0.18065 -0.202885,0.07789 -0.505084,0.875263 -0.556089,1.467308 -0.0454,0.527084 -0.03258,0.578964 0.204073,0.825971 0.138879,0.144962 0.278178,0.263575 0.309539,0.263575 0.03137,0 0.154435,-0.103693 0.2735,-0.230434 z M 38.586181,45.26564 c 1.077595,-0.284186 2.117979,-0.707255 2.338509,-0.950942 0.119359,-0.131886 0.164151,-0.325699 0.16637,-0.719748 l 0.003,-0.539245 -0.506259,-0.459285 -0.506269,-0.459277 -0.641634,-1.785887 c -0.352872,-0.982242 -0.858054,-2.414437 -1.122598,-3.18266 -0.555955,-1.614437 -1.184327,-3.0496 -1.890611,-4.318071 -0.929045,-1.668537 -1.981335,-3.105065 -2.387725,-3.259572 -0.109598,-0.04168 -0.491582,-0.03844 -0.85534,0.0072 -0.671745,0.08434 -0.821364,0.154096 -2.35839,1.099439 -0.734822,0.451948 -0.922696,0.489302 -1.124224,0.223515 -0.146935,-0.193776 -0.175107,-0.200697 -0.302468,-0.07431 -0.07724,0.07665 -0.180704,0.38939 -0.229915,0.694962 -0.134477,0.835015 -0.469884,1.505781 -1.0486,2.09704 -0.746252,0.762424 -1.66119,1.18159 -3.322164,1.522013 -0.886657,0.181721 -0.939064,0.204833 -0.964763,0.425419 -0.01495,0.128296 0.11569,0.971621 0.290305,1.874064 0.348034,1.798672 0.559483,3.444661 0.47185,3.673034 -0.03084,0.08034 -0.228924,0.190227 -0.440178,0.244139 -1.137466,0.29029 -1.095462,0.260384 -1.126126,0.801579 -0.04361,0.769847 0.0048,0.752266 -1.891836,0.68617 -1.982228,-0.06905 -3.122293,-0.199144 -3.30206,-0.376748 -0.141086,-0.139383 -0.09311,-0.35469 1.19241,-5.351846 0.359212,-1.396357 0.456391,-1.900113 0.38059,-1.972813 -0.05599,-0.0537 -0.362982,-0.188788 -0.682209,-0.300201 -0.926109,-0.323223 -1.612336,-0.72579 -2.147727,-1.259933 -0.414709,-0.41375 -0.529775,-0.600604 -0.687325,-1.116182 -0.104073,-0.340582 -0.211512,-0.92061 -0.238738,-1.288947 -0.05619,-0.759978 0.01396,-0.67351 -1.301636,-1.60447 -0.41745,-0.295402 -0.846001,-0.53743 -0.952323,-0.537845 -0.28543,-0.0011 -0.791131,0.631833 -1.481422,1.854171 -1.024099,1.813414 -1.607217,3.261659 -2.3990625,5.958337 -0.245157,0.834901 -0.642929,2.140926 -0.883925,2.902278 -0.421907,1.332831 -0.455196,1.40085 -0.895917,1.830533 l -0.457732,0.446257 0.04453,0.516641 c 0.0245,0.284147 0.109304,0.61549 0.188474,0.736304 0.272053,0.415224 1.987094,1.113361 2.7350425,1.113361 0.311869,0 0.350882,-0.02681 0.422693,-0.290205 0.04353,-0.159618 0.06158,-0.436793 0.04014,-0.615969 -0.04303,-0.359711 0.496093,-2.673612 0.96437,-4.138959 0.372922,-1.166934 0.668396,-1.905212 1.422308,-3.55373 0.341436,-0.746601 0.669449,-1.568418 0.72891,-1.826257 0.121958,-0.528818 0.256034,-0.618839 0.256034,-0.171905 0,0.414615 -0.326934,1.316109 -1.023796,2.823064 -0.697362,1.508027 -1.230083,3.068593 -1.737723,5.090528 -0.413994,1.64891 -0.400618,1.797296 0.187957,2.085017 0.952959,0.465844 5.006361,1.028504 9.449229,1.311654 4.062975,0.258955 11.029089,0.25809 12.27798,-0.0019 0.560937,-0.1166 1.269933,-0.503312 1.503259,-0.819923 0.301225,-0.408742 0.225816,-0.848603 -0.593826,-3.463573 -1.07933,-3.443298 -1.368769,-4.273767 -1.624062,-4.65953 -0.386313,-0.583763 -0.211395,-0.844491 0.243586,-0.363087 0.324762,0.343635 0.569626,0.988973 1.651661,4.353105 0.926984,2.882061 0.962636,3.034773 0.999366,4.28022 0.0058,0.192937 0.128566,0.378452 0.466278,0.703971 l 0.458552,0.441976 0.67995,-0.04986 c 0.373972,-0.02747 1.078328,-0.154924 1.565232,-0.283339 z M 22.198902,42.189502 c 0.147014,-0.09313 0.108894,-0.859036 -0.175901,-3.534844 -0.209297,-1.966497 -0.204537,-3.108611 0.01313,-3.15014 0.300718,-0.05736 0.529355,0.956776 0.796908,3.534714 0.09841,0.948193 0.178929,1.741797 0.178929,1.763565 0,0.09535 0.606968,0.02786 0.760769,-0.08462 0.16057,-0.117407 0.16382,-0.172324 0.05943,-1.004565 -0.06075,-0.484198 -0.269982,-1.684015 -0.465001,-2.666254 -0.195011,-0.982234 -0.354714,-1.853335 -0.354883,-1.935771 -8.73e-4,-0.254468 0.242604,-0.410615 0.734045,-0.471429 2.47474,-0.306245 3.904522,-1.039998 4.494114,-2.306352 0.231604,-0.497449 0.28193,-0.867344 0.118003,-0.867344 -0.110646,0 -3.062851,1.513247 -4.542826,2.328577 -1.361479,0.750046 -1.843062,0.923912 -2.234395,0.806667 -0.173088,-0.05186 -1.318324,-0.795528 -2.544961,-1.652593 -1.226636,-0.85707 -2.346986,-1.627603 -2.489671,-1.712301 l -0.259417,-0.153998 0.05136,0.497652 c 0.06721,0.651224 0.319764,1.206013 0.730661,1.605068 0.395003,0.38363 1.522345,0.978837 2.147763,1.13397 0.245558,0.06091 0.557481,0.152172 0.693165,0.202808 0.253881,0.09475 0.390431,0.392544 0.308869,0.673624 -0.116637,0.401974 -1.485457,5.657837 -1.581269,6.071621 -0.05983,0.258411 -0.08691,0.52682 -0.06019,0.596488 0.05683,0.148103 0.425873,0.208335 1.889541,0.308387 1.52222,0.10405 1.593334,0.104749 1.73182,0.01712 z m 0.420273,-9.272006 c 0.884157,-1.109787 1.051709,-1.363604 0.960406,-1.454907 -0.121904,-0.121909 -2.728738,-0.205414 -2.889262,-0.09255 -0.114021,0.08016 -0.05562,0.243779 0.392556,1.099862 0.590932,1.128789 0.656714,1.228924 0.807327,1.228924 0.05856,0 0.386609,-0.351597 0.728973,-0.781326 z m 1.992496,-2.534229 c 0.200628,-0.251976 0.364778,-0.489464 0.364778,-0.527751 0,-0.03829 -0.331506,-0.09282 -0.73668,-0.121187 -0.405173,-0.02836 -1.610932,-0.118745 -2.679464,-0.200851 -1.068532,-0.08211 -1.971736,-0.120338 -2.007106,-0.08496 -0.06677,0.06677 0.393378,0.988078 0.565099,1.131472 0.08268,0.06904 2.031046,0.200842 3.6674,0.2481 0.453527,0.0131 0.467278,0.0057 0.825973,-0.444821 z m 7.343357,-1.082093 c 1.712337,-1.104942 2.813195,-2.095368 3.573604,-3.21512 0.492266,-0.724883 1.350579,-2.528648 1.668521,-3.506431 0.711883,-2.189211 0.839171,-3.449218 0.836502,-8.280005 -0.0016,-3.186519 0.01826,-3.817335 0.121073,-3.817335 0.06775,0 0.143711,0.09041 0.168812,0.200912 0.02508,0.110502 0.09149,0.381733 0.147547,0.602737 0.06231,0.245661 0.117655,1.622477 0.142418,3.542683 l 0.0405,3.140861 0.337711,0.234038 c 0.401825,0.27846 0.79897,0.755499 1.067983,1.282821 0.107622,0.210948 0.243371,0.367643 0.30168,0.348209 0.289251,-0.09641 1.06647,-2.641327 1.22836,-4.022091 0.0529,-0.451442 0.128971,-0.945466 0.16896,-1.097831 0.0904,-0.344334 -0.13535,-1.873025 -0.31886,-2.15939 -0.0719,-0.112234 -0.29437,-0.694879 -0.494328,-1.294769 C 40.745549,10.660571 40.52024,10.049338 40.444818,9.9021643 40.151991,9.3306738 39.319627,8.1122622 38.671859,7.306892 37.930644,6.3853517 37.425692,5.9525079 35.870363,4.9054495 31.434022,1.9188803 24.793333,0.65307427 19.440197,1.7736393 c -1.025867,0.214743 -1.474759,0.380268 -2.589537,0.954872 -1.292161,0.6660341 -2.175264,1.30952 -2.40051,1.7491663 -0.09423,0.1839272 -0.591879,0.7590424 -1.105866,1.2780353 -1.643972,1.659958 -3.174219,3.9241069 -3.9646345,5.8660611 -0.510942,1.255314 -0.731483,1.943205 -1.102081,3.437581 -0.794889,3.205243 -0.905659,5.683407 -0.351105,7.855369 0.266089,1.042183 1.182195,3.194076 1.359785,3.194076 0.05428,0 0.0628,-0.274446 0.02277,-0.733312 -0.04848,-0.555851 -0.136093,-0.885391 -0.362009,-1.36174 -0.789683,-1.665093 -0.975077,-2.98146 -0.721159,-5.12061 0.07758,-0.65356 0.182821,-1.266343 0.233879,-1.361739 0.07707,-0.143987 0.189858,-0.173449 0.664083,-0.173449 0.4666802,0 0.5798242,-0.02861 0.6180782,-0.156265 0.02576,-0.08595 0.16874,-0.671393 0.3177463,-1.300993 0.724971,-3.06334 1.490375,-5.016328 3.138445,-8.0079466 0.404129,-0.7335843 0.602578,-1.0346809 1.014152,-1.538718 0.460662,-0.5641417 0.659412,-0.3830547 0.316764,0.2885967 -0.351954,0.6898917 -0.244702,0.6913231 0.935868,0.012501 0.687476,-0.395297 0.97755,-0.6237218 1.268827,-0.9991534 0.412192,-0.5312775 0.449303,-0.6206411 0.257748,-0.6206411 -0.214565,0 -0.635659,0.41592 -0.80797,0.7980519 -0.17866,0.3961852 -0.404352,0.48383 -0.404352,0.1570212 0,-0.3647083 0.480707,-1.0023695 0.905141,-1.2006742 0.536321,-0.250581 1.406913,-0.3297793 1.481741,-0.1347933 0.0303,0.078934 0.204173,0.2926181 0.386414,0.4748546 0.373063,0.3730657 0.608006,0.9353825 0.454812,1.0885731 -0.06722,0.067213 -0.141961,0.00865 -0.255195,-0.2000017 C 18.506296,5.5655781 18.09955,5.1246254 17.92765,5.1246254 c -0.08505,0 -0.335926,0.1787382 -0.557518,0.3971972 -0.296615,0.2924241 -0.46548,0.5691839 -0.640202,1.0492087 -0.248408,0.6824927 -0.308218,1.2324249 -0.134032,1.2324249 0.05634,0 0.421729,-0.2410941 0.811999,-0.5357662 0.390261,-0.2946714 0.779951,-0.5357664 0.865968,-0.5357664 0.193143,0 0.332595,0.1599544 0.751662,0.862148 0.334532,0.5605497 1.497618,1.7348001 2.1944,2.2154631 l 0.383921,0.2648373 0.860325,-0.3009243 c 1.129324,-0.3950148 2.230627,-0.950648 3.001479,-1.5143229 0.34273,-0.2506181 0.696247,-0.4556681 0.785585,-0.4556681 0.182839,0 0.407575,0.2221108 1.106787,1.0938563 0.2659,0.3315049 0.538882,0.602737 0.60663,0.602737 0.202073,0 0.74776,-0.7101748 0.939536,-1.2227378 C 29.106809,7.7357517 29.302944,6.608736 29.228374,6.4144283 29.124365,6.1433701 28.47857,6.3464723 27.989541,6.804036 27.792432,6.9884673 27.721273,7.01203 27.632363,6.9223146 27.46098,6.7493824 28.15952,6.1342499 28.60543,6.0654334 c 0.189536,-0.029246 0.473939,-0.094309 0.631999,-0.1445768 0.236184,-0.075115 0.331639,-0.061164 0.535766,0.078285 0.136612,0.093326 0.414291,0.2736369 0.617069,0.4006911 0.522363,0.3273063 0.936734,1.2250335 0.565448,1.2250335 -0.04522,0 -0.161632,-0.155676 -0.258695,-0.3459461 -0.194778,-0.381784 -0.688807,-0.84475 -0.816946,-0.7655613 -0.04495,0.027778 -0.08173,0.2269188 -0.08173,0.4425249 0,0.3397443 0.03869,0.4199543 0.290206,0.6016027 0.159615,0.1152771 0.763344,0.5650354 1.341622,0.9994649 0.578269,0.4344283 1.077033,0.7642415 1.10836,0.7329193 0.03132,-0.031325 0.01029,-0.1594672 -0.04685,-0.2847665 -0.252783,-0.5548159 0.0037,-0.9426803 0.340283,-0.5147051 0.599522,0.7621672 1.065292,2.296598 1.301208,4.286703 0.195752,1.651248 0.276008,6.09247 0.135469,7.496318 -0.294539,2.942171 -1.039913,5.271766 -2.632042,8.226212 -0.372582,0.691391 -0.677423,1.284428 -0.677423,1.317858 0,0.09961 0.210386,-0.0095 0.995855,-0.516314 z m -3.496099,-0.391443 c 0.911741,-0.158726 1.775637,-0.412697 2.321654,-0.682527 0.376233,-0.185928 0.439249,-0.273111 0.989355,-1.368902 1.283329,-2.556308 1.849474,-4.803438 2.036188,-8.082029 0.150863,-2.648947 -0.250603,-7.451542 -0.677921,-8.109788 -0.151159,-0.232838 -0.347276,-0.409719 -1.052853,-0.9495809 -1.620532,-1.239924 -2.308644,-1.7348642 -2.41194,-1.7348642 -0.065,0 -0.190089,0.188286 -0.277973,0.4184113 -0.08788,0.230125 -0.33413,0.6730206 -0.547205,0.984209 -0.213074,0.3111894 -0.366589,0.599481 -0.341148,0.6406508 0.02545,0.04116 0.229396,0.09995 0.45323,0.130631 0.935948,0.128287 2.170487,1.015972 2.657571,1.910905 0.43273,0.795061 0.653385,2.003188 0.384698,2.106292 -0.161686,0.06204 -0.266616,-0.07163 -0.408906,-0.520906 -0.33464,-1.05661 -1.003044,-1.820198 -2.008569,-2.294607 -0.570137,-0.268992 -0.695676,-0.294147 -1.428711,-0.286287 -1.30468,0.01398 -2.294223,0.497297 -2.998604,1.464573 -0.214646,0.29475 -0.442721,0.535909 -0.506843,0.535909 -0.220888,0 -0.216021,-0.262065 0.01418,-0.76492 0.246096,-0.537548 0.246283,-0.536273 -0.149969,-1.034863 -0.519641,-0.65385 -0.07727,-0.968835 0.46934,-0.334185 l 0.330791,0.384081 0.462964,-0.339845 c 0.254623,-0.186914 0.732222,-0.453445 1.061327,-0.592291 0.329103,-0.138846 0.609586,-0.286094 0.623291,-0.327217 0.04426,-0.1327757 -1.132413,-1.5447749 -1.28732,-1.5447749 -0.08242,0 -0.44024,0.2007465 -0.795158,0.4461031 -0.354918,0.245356 -0.839894,0.5303086 -1.077721,0.633228 -0.950699,0.4114078 -2.55264,0.9744408 -2.772483,0.9744408 -0.475127,0 -2.385472,-1.6960733 -2.94184,-2.6118613 -0.171552,-0.2823943 -0.365179,-0.5134438 -0.430275,-0.5134438 -0.130824,0 -1.387178,0.9557166 -1.385964,1.0543096 0,0.034021 0.241648,0.1369637 0.536051,0.2287444 1.401147,0.4368086 2.392644,1.7122281 2.618184,3.3679181 0.08974,0.658756 -0.277652,0.712625 -0.467858,0.06861 C 19.263269,11.538706 18.815485,10.771279 18.433331,10.426024 18.237982,10.249542 17.820093,9.9843862 17.504686,9.8367884 16.969207,9.5862063 16.876179,9.5708332 16.100524,9.6047583 c -1.311583,0.05736 -1.890692,0.3999927 -3.003657,1.7771057 -0.186091,0.230256 -0.244926,0.258443 -0.328719,0.157482 -0.07833,-0.09438 -0.05046,-0.251345 0.119824,-0.675145 0.212119,-0.527858 0.215226,-0.562333 0.07073,-0.782871 -0.08314,-0.1268806 -0.191393,-0.2172827 -0.240577,-0.2008907 -0.120002,0.04 -0.884622,1.8302317 -1.324182,3.1003627 -0.195134,0.563832 -0.558465,1.849671 -0.807409,2.857419 -0.248944,1.007747 -0.497218,1.887205 -0.551713,1.954353 -0.071,0.08747 -0.2313003,0.108438 -0.5654405,0.07396 -0.302894,-0.03126 -0.495923,-0.01145 -0.550696,0.05651 -0.203341,0.252285 -0.37142,2.306273 -0.274589,3.355645 0.131191,1.421743 0.837795,2.979828 1.7490095,3.856633 0.670903,0.645577 0.806517,0.734191 2.350004,1.535592 3.568239,1.852679 7.301298,2.527395 13.304863,2.404729 0.90857,-0.01857 1.993497,-0.09321 2.410949,-0.165891 z m -9.420557,-6.052797 c -0.380885,-0.17001 -0.729803,-0.571871 -0.88948,-1.024434 -0.183275,-0.51948 -0.176078,-0.724185 0.02547,-0.724185 0.116985,0 0.223905,0.156569 0.379503,0.5557 0.317967,0.815682 0.911007,1.150657 1.534318,0.866654 0.324059,-0.147647 0.460732,-0.432448 0.511192,-1.065177 0.03302,-0.413999 0.08189,-0.580414 0.1705,-0.580414 0.06832,0 0.152211,0.06027 0.186428,0.133941 0.529542,1.13991 0.748555,1.36372 1.32671,1.355741 0.651795,-0.0091 1.04586,-0.434973 1.163558,-1.257781 0.04726,-0.330415 0.09334,-0.410489 0.23621,-0.410489 0.377948,0 0.225746,0.991734 -0.232263,1.513381 -0.550089,0.626522 -1.478178,0.745597 -2.102106,0.269705 l -0.31746,-0.242135 -0.254989,0.279187 c -0.140255,0.153552 -0.360151,0.319165 -0.488673,0.368027 -0.324334,0.123312 -0.929072,0.105049 -1.248923,-0.03773 z m 8.795497,-2.687337 c 0,-0.02517 0.231049,-0.147907 0.513442,-0.272735 0.543366,-0.240191 1.004562,-0.616107 1.004562,-0.818812 0,-0.294602 -0.618551,-1.184334 -0.823366,-1.184334 -0.04158,0 -0.159444,0.142108 -0.261926,0.315794 -0.242516,0.411043 -0.579646,0.57715 -1.171373,0.57715 -0.95037,0 -1.699844,-0.428407 -1.813997,-1.036893 -0.03122,-0.166388 -0.105671,-0.302523 -0.165445,-0.302523 -0.178187,0 -0.914991,0.524412 -1.070693,0.762051 -0.130335,0.198916 -0.131209,0.246358 -0.009,0.482899 0.07461,0.144272 0.336755,0.435504 0.582556,0.647183 0.486663,0.419106 0.539062,0.518816 0.27266,0.518816 -0.274169,0 -1.033252,-0.829286 -1.352292,-1.477354 -0.177659,-0.360862 -0.30568,-0.775047 -0.329925,-1.067322 -0.0514,-0.619831 0.185635,-1.674911 0.532017,-2.368075 0.258052,-0.516314 1.16322,-1.605738 1.334201,-1.605738 0.04383,0 0.08027,0.170775 0.081,0.3795 0.0016,0.487252 0.147738,0.768512 0.535757,1.031785 0.292752,0.198636 0.37484,0.209203 1.38276,0.178009 0.874066,-0.02705 1.13735,-0.06784 1.428709,-0.221315 0.479253,-0.252454 0.68729,-0.49956 0.751109,-0.892144 0.06812,-0.41911 0.201367,-0.458427 0.493932,-0.145744 0.40878,0.436883 0.676431,1.107443 0.784834,1.966274 0.08665,0.68646 0.07883,0.919316 -0.05368,1.597588 -0.282722,1.447257 -0.821864,2.265355 -1.797612,2.727703 -0.492922,0.233569 -0.848296,0.320804 -0.848296,0.208237 z m -8.155578,-0.617406 c -0.06808,-0.177441 0.184384,-0.378768 0.313317,-0.249842 0.123298,0.123301 0.03092,0.377255 -0.137228,0.377255 -0.06996,0 -0.149193,-0.05734 -0.176089,-0.127413 z m -3.899164,-0.937196 c 0,-0.0453 0.137469,-0.127737 0.305477,-0.183186 0.168015,-0.05546 0.469384,-0.219548 0.669708,-0.364663 0.303537,-0.219877 0.364231,-0.314675 0.364231,-0.568872 0,-0.316274 -0.487851,-1.077915 -0.690433,-1.077915 -0.0555,0 -0.195305,0.140053 -0.310664,0.31123 -0.268607,0.398583 -0.54357,0.53411 -1.086962,0.53575 -0.916644,0.0028 -1.662305,-0.430925 -1.662305,-0.96683 0,-0.347554 -0.11035,-0.411142 -0.428238,-0.246757 -0.235004,0.121525 -0.911177,0.794646 -0.911177,0.907064 0,0.168697 0.320371,0.606749 0.666716,0.91161 0.388663,0.342119 0.508934,0.557057 0.3117,0.557057 -0.202716,0 -0.971211,-0.836813 -1.251639,-1.362901 -0.249587,-0.468241 -0.303013,-0.673946 -0.335453,-1.291759 -0.03225,-0.61446 0,-0.855802 0.194403,-1.473356 0.260562,-0.825927 0.594665,-1.446649 1.082417,-2.010972 0.44182,-0.511183 0.550626,-0.490838 0.600648,0.112304 0.07456,0.898998 0.628596,1.175919 2.057691,1.028473 1.107242,-0.114237 1.64616,-0.461686 1.755036,-1.131502 0.06581,-0.404892 0.200261,-0.461876 0.454563,-0.192657 0.301743,0.319444 0.537498,0.839041 0.674966,1.487616 0.433516,2.045316 -0.359302,4.209551 -1.790977,4.889003 -0.476511,0.226144 -0.669708,0.264012 -0.669708,0.131263 z m 22.263402,6.005399 c 0.153032,-0.07914 0.50487,-0.360055 0.78187,-0.624262 0.592087,-0.56476 1.007687,-1.384063 1.147551,-2.262233 0.0796,-0.499991 0.0667,-0.672234 -0.0937,-1.250121 -0.102351,-0.368628 -0.285779,-0.851052 -0.407612,-1.072057 -0.238148,-0.431997 -0.687773,-0.848208 -0.824804,-0.763516 -0.04626,0.02859 -0.109447,0.282391 -0.140433,0.564011 -0.175463,1.594948 -0.862592,4.176239 -1.383493,5.197284 -0.09478,0.185774 -0.143904,0.366306 -0.109177,0.401182 0.09099,0.09137 0.704344,-0.02197 1.029837,-0.190288 z m 8.248412,-8.922579 c 0.255338,-0.07046 0.491519,-0.172224 0.524848,-0.226155 0.0333,-0.05393 -0.1109,-0.431647 -0.320511,-0.839367 -0.587039,-1.141843 -0.393258,-1.277919 0.814951,-0.572284 0.330772,0.193174 0.64407,0.351226 0.69623,0.351226 0.147579,0 0.358061,-0.588472 0.493101,-1.378578 0.14277,-0.835354 0.0347,-1.960883 -0.291941,-3.0414938 C 47.541988,7.7893076 45.21002,5.4294724 43.07253,4.7947069 42.448219,4.6093067 41.19279,4.6204322 40.707359,4.8156649 c -0.392941,0.1580343 -0.37552,0.3045489 0.0366,0.3075855 0.30657,0.00225 1.00851,0.5306182 1.248129,0.9394878 0.345663,0.5898211 0.379061,1.1665315 0.102532,1.7705322 l -0.22741,0.4967451 0.288719,0.095291 c 0.297751,0.098265 0.850101,0.6135844 1.026052,0.9572509 0.0549,0.1072742 0.0995,0.4689149 0.099,0.8036496 -0.0011,0.809772 -0.288319,1.447496 -0.900049,1.998824 l -0.452663,0.407978 0.106672,0.752848 c 0.24161,1.705227 0.17494,1.527199 0.686369,1.833099 1.12458,0.672634 2.361041,0.852355 3.569682,0.51886 z m -4.073023,-3.973066 c 0.224631,-0.224621 0.59441,-0.996551 0.671902,-1.402584 C 42.96012,9.9536482 42.735449,9.3372648 42.424119,9.0447034 42.233068,8.8651595 42.099261,8.8289211 41.600399,8.8216252 40.854769,8.8107162 40.79583,8.6713827 41.30374,8.1203691 41.763539,7.6215567 41.920619,7.1308676 41.77554,6.6466484 41.576589,5.9825678 40.972958,5.481797 40.371439,5.481797 c -0.13049,0 -0.475099,0.1067334 -0.765776,0.2371854 -0.326218,0.1463961 -0.56034,0.2053646 -0.611648,0.1540553 -0.05131,-0.051306 0.0044,-0.3000402 0.145765,-0.6498093 0.338087,-0.837025 0.137162,-1.5097101 -0.548056,-1.8348661 -0.911336,-0.4324596 -1.994201,-0.137087 -2.404213,0.655796 -0.169696,0.3281611 -0.08445,0.4427995 0.777163,1.0451769 0.950093,0.6642301 1.639525,1.3234228 2.37167,2.2676443 0.978664,1.2621527 1.597877,2.3237388 1.983795,3.4010725 0.19593,0.54695 0.37828,1.030114 0.40522,1.073697 0.0832,0.134578 0.297551,0.08801 0.492559,-0.107 z M 9.7541057,9.9018703 C 10.014668,9.4598627 10.356583,8.8840243 10.51392,8.6222297 10.770339,8.1955563 10.794116,8.0984132 10.743362,7.684639 10.538253,6.0124453 10.577926,5.6447435 11.020192,5.119144 11.286655,4.8024695 11.590096,4.6355597 12.051086,4.5520943 l 0.334855,-0.060628 V 3.83985 c 0,-0.8036124 0.237674,-1.3133797 0.795694,-1.7065917 0.323325,-0.227833 0.462473,-0.267798 0.930733,-0.267309 0.302823,3.73e-4 0.661081,0.03482 0.796139,0.07665 0.210039,0.06508 0.245559,0.05085 0.245559,-0.09835 0,-0.427558 -0.688468,-0.675808 -1.872931,-0.675346 -0.97763,3.704e-4 -1.592084,0.173266 -2.681082,0.754371 -1.9696015,1.0510021 -3.4087585,2.7292791 -3.9651245,4.6239407 -0.155899,0.5309249 -0.194992,1.9275616 -0.05635,2.0132504 0.04734,0.029256 0.32437,-0.00854 0.615631,-0.084023 1.197723,-0.310361 1.265614,-0.074689 0.314584,1.0920082 -0.234237,0.2873565 -0.235255,0.2943736 -0.06892,0.4782964 0.317593,0.351171 1.145906,0.704153 1.585055,0.675464 0.221183,-0.01445 0.318915,-0.124408 0.7291712,-0.8203357 z M 14.37016,9.2401908 C 14.651143,9.0510023 15.143379,8.8251971 15.464016,8.7384032 L 16.04701,8.5805949 v -0.604505 c 0,-0.6512581 -0.05389,-0.8869939 -0.20277,-0.8869939 -0.144183,0 -1.867197,0.9749888 -2.107239,1.1924083 -0.219753,0.1990355 -0.636955,0.8064907 -0.636375,0.9265602 0,0.037808 0.08225,0.2031082 0.182375,0.3673306 0.174973,0.2869991 0.189689,0.2929641 0.379171,0.1536806 0.108421,-0.07969 0.427014,-0.2996967 0.707988,-0.4888849 z m -2.71362,-2.575243 c 0.191831,-0.2823935 0.49469,-0.6880204 0.673029,-0.9013913 0.418085,-0.5002186 0.422131,-0.7017763 0.0156,-0.7780414 -0.409933,-0.076901 -0.927196,0.1793063 -1.152585,0.5709018 -0.262579,0.4561919 -0.243604,1.6219741 0.0264,1.6219741 0.04881,0 0.24572,-0.2310495 0.437551,-0.5134432 z m 2.60319,-2.7646919 c 1.028385,-0.8132836 1.151094,-1.0073516 0.824098,-1.3032796 -0.08774,-0.0794 -0.31086,-0.207607 -0.495825,-0.284888 -0.929501,-0.388372 -1.99439,0.5835 -1.800898,1.6435991 0.06469,0.3544782 0.270045,0.7224604 0.403155,0.7224604 0.04721,0 0.52848,-0.3500514 1.06947,-0.7778919 z m 2.174595,-1.4865566 c 0.302655,-0.164986 0.821634,-0.412162 1.153299,-0.549283 0.739207,-0.305616 0.821875,-0.392127 0.632722,-0.662174 C 17.880332,0.71680027 16.891753,0.52007127 16.3135,0.82277327 15.967761,1.0037603 15.600539,1.6165063 15.600539,2.0124243 c 0,0.266241 0.141959,0.701247 0.228843,0.701247 0.03007,0 0.302289,-0.134988 0.604943,-0.299972 z"
       id="path221"
       inkscape:connector-curvature="0"
       sodipodi:nodetypes="cccccccsscccccsccsccsccccscscsssccsssscccsccscccsscccsccccccscccscccccsccccccscccccccccccscsccccccscccccccccccsscccsscccccccscccccsccscccccscccccscccccccccsccccccccccsccccsssscsccscsccccscccccsccsssccsccsccsccsccccccccccssscccccsccccsccscscsscscccccsccscscccccscsccccccccsccsccscccccsccsccccssccccccsscscccccscsccscsccccccsccccccscccscsscccscccscscsccccccscsscscscccscccsccsccccccsccscsccssccscscscccccsccscsccccscccccssccsccsccccccccccsssccccccscscccsscccccccccscccscccccsssccccsscccccscccssccccsccccsssc" />
  </g>
  <g
     id="g33"
     inkscape:groupmode="layer"
     inkscape:label="Drill"
     style="display:none" />
</svg>
