G04 #@! TF.FileFunction,Legend,Bot*
%FSLAX46Y46*%
G04 Gerber Fmt 4.6, Leading zero omitted, Abs format (unit mm)*
G04 Created by KiCad (PCBNEW 4.0.5+dfsg1-4) date Mon Sep 23 08:09:59 2019*
%MOMM*%
%LPD*%
G01*
G04 APERTURE LIST*
%ADD10C,0.100000*%
%ADD11C,0.300000*%
G04 APERTURE END LIST*
D10*
D11*
X179518571Y-123881428D02*
X180590000Y-123881428D01*
X180804286Y-123810000D01*
X180947143Y-123667143D01*
X181018571Y-123452857D01*
X181018571Y-123310000D01*
X181018571Y-125310000D02*
X181018571Y-124595714D01*
X179518571Y-124595714D01*
X180875714Y-126667143D02*
X180947143Y-126595714D01*
X181018571Y-126381428D01*
X181018571Y-126238571D01*
X180947143Y-126024286D01*
X180804286Y-125881428D01*
X180661429Y-125810000D01*
X180375714Y-125738571D01*
X180161429Y-125738571D01*
X179875714Y-125810000D01*
X179732857Y-125881428D01*
X179590000Y-126024286D01*
X179518571Y-126238571D01*
X179518571Y-126381428D01*
X179590000Y-126595714D01*
X179661429Y-126667143D01*
X179518571Y-127738571D02*
X180590000Y-127738571D01*
X180804286Y-127667143D01*
X180947143Y-127524286D01*
X181018571Y-127310000D01*
X181018571Y-127167143D01*
X181018571Y-129167143D02*
X181018571Y-128452857D01*
X179518571Y-128452857D01*
X180875714Y-130524286D02*
X180947143Y-130452857D01*
X181018571Y-130238571D01*
X181018571Y-130095714D01*
X180947143Y-129881429D01*
X180804286Y-129738571D01*
X180661429Y-129667143D01*
X180375714Y-129595714D01*
X180161429Y-129595714D01*
X179875714Y-129667143D01*
X179732857Y-129738571D01*
X179590000Y-129881429D01*
X179518571Y-130095714D01*
X179518571Y-130238571D01*
X179590000Y-130452857D01*
X179661429Y-130524286D01*
X179518571Y-131595714D02*
X180590000Y-131595714D01*
X180804286Y-131524286D01*
X180947143Y-131381429D01*
X181018571Y-131167143D01*
X181018571Y-131024286D01*
X181018571Y-133024286D02*
X181018571Y-132310000D01*
X179518571Y-132310000D01*
X180875714Y-134381429D02*
X180947143Y-134310000D01*
X181018571Y-134095714D01*
X181018571Y-133952857D01*
X180947143Y-133738572D01*
X180804286Y-133595714D01*
X180661429Y-133524286D01*
X180375714Y-133452857D01*
X180161429Y-133452857D01*
X179875714Y-133524286D01*
X179732857Y-133595714D01*
X179590000Y-133738572D01*
X179518571Y-133952857D01*
X179518571Y-134095714D01*
X179590000Y-134310000D01*
X179661429Y-134381429D01*
X179518571Y-135452857D02*
X180590000Y-135452857D01*
X180804286Y-135381429D01*
X180947143Y-135238572D01*
X181018571Y-135024286D01*
X181018571Y-134881429D01*
X181018571Y-136881429D02*
X181018571Y-136167143D01*
X179518571Y-136167143D01*
X180875714Y-138238572D02*
X180947143Y-138167143D01*
X181018571Y-137952857D01*
X181018571Y-137810000D01*
X180947143Y-137595715D01*
X180804286Y-137452857D01*
X180661429Y-137381429D01*
X180375714Y-137310000D01*
X180161429Y-137310000D01*
X179875714Y-137381429D01*
X179732857Y-137452857D01*
X179590000Y-137595715D01*
X179518571Y-137810000D01*
X179518571Y-137952857D01*
X179590000Y-138167143D01*
X179661429Y-138238572D01*
M02*
