G04 #@! TF.FileFunction,Soldermask,Top*
%FSLAX46Y46*%
G04 Gerber Fmt 4.6, Leading zero omitted, Abs format (unit mm)*
G04 Created by KiCad (PCBNEW 4.0.5+dfsg1-4) date Mon Sep 23 08:09:59 2019*
%MOMM*%
%LPD*%
G01*
G04 APERTURE LIST*
%ADD10C,0.100000*%
%ADD11R,1.198880X1.198880*%
%ADD12R,1.200000X0.750000*%
%ADD13R,1.500000X1.250000*%
%ADD14R,0.750000X1.200000*%
%ADD15R,1.727200X1.727200*%
%ADD16O,1.727200X1.727200*%
%ADD17R,1.727200X2.032000*%
%ADD18O,1.727200X2.032000*%
%ADD19R,0.900000X1.200000*%
%ADD20R,1.200000X0.900000*%
%ADD21R,0.450000X0.350000*%
%ADD22R,0.350000X0.450000*%
%ADD23R,0.810000X0.210000*%
%ADD24R,0.210000X0.810000*%
%ADD25R,2.310000X2.310000*%
%ADD26R,2.100000X0.250000*%
%ADD27R,1.000000X0.750000*%
%ADD28R,1.000000X2.000000*%
G04 APERTURE END LIST*
D10*
D11*
X151369020Y-71100000D03*
X149270980Y-71100000D03*
X124369020Y-80100000D03*
X122270980Y-80100000D03*
D12*
X133370000Y-115100000D03*
X135270000Y-115100000D03*
D13*
X148820000Y-120100000D03*
X146320000Y-120100000D03*
D12*
X148220000Y-118100000D03*
X146320000Y-118100000D03*
D14*
X160820000Y-131150000D03*
X160820000Y-133050000D03*
D12*
X135270000Y-117100000D03*
X133370000Y-117100000D03*
D11*
X118369020Y-56100000D03*
X116270980Y-56100000D03*
X124369020Y-56100000D03*
X122270980Y-56100000D03*
X130369020Y-56100000D03*
X128270980Y-56100000D03*
X136369020Y-56100000D03*
X134270980Y-56100000D03*
X142369020Y-56100000D03*
X140270980Y-56100000D03*
X148369020Y-56100000D03*
X146270980Y-56100000D03*
X154369020Y-56100000D03*
X152270980Y-56100000D03*
X160369020Y-56100000D03*
X158270980Y-56100000D03*
X121369020Y-83100000D03*
X119270980Y-83100000D03*
X127369020Y-83100000D03*
X125270980Y-83100000D03*
X133369020Y-83100000D03*
X131270980Y-83100000D03*
X139369020Y-83100000D03*
X137270980Y-83100000D03*
X145369020Y-83100000D03*
X143270980Y-83100000D03*
X151369020Y-83100000D03*
X149270980Y-83100000D03*
X157369020Y-83100000D03*
X155270980Y-83100000D03*
X163369020Y-83100000D03*
X161270980Y-83100000D03*
X121369020Y-59100000D03*
X119270980Y-59100000D03*
X127369020Y-59100000D03*
X125270980Y-59100000D03*
X133369020Y-59100000D03*
X131270980Y-59100000D03*
X139369020Y-59100000D03*
X137270980Y-59100000D03*
X145369020Y-59100000D03*
X143270980Y-59100000D03*
X151369020Y-59100000D03*
X149270980Y-59100000D03*
X157369020Y-59100000D03*
X155270980Y-59100000D03*
X163369020Y-59100000D03*
X161270980Y-59100000D03*
X118369020Y-86100000D03*
X116270980Y-86100000D03*
X124369020Y-86100000D03*
X122270980Y-86100000D03*
X130369020Y-86100000D03*
X128270980Y-86100000D03*
X136369020Y-86100000D03*
X134270980Y-86100000D03*
X142369020Y-86100000D03*
X140270980Y-86100000D03*
X148369020Y-86100000D03*
X146270980Y-86100000D03*
X154369020Y-86100000D03*
X152270980Y-86100000D03*
X160369020Y-86100000D03*
X158270980Y-86100000D03*
X118369020Y-62100000D03*
X116270980Y-62100000D03*
X124369020Y-62100000D03*
X122270980Y-62100000D03*
X130369020Y-62100000D03*
X128270980Y-62100000D03*
X136369020Y-62100000D03*
X134270980Y-62100000D03*
X142369020Y-62100000D03*
X140270980Y-62100000D03*
X148369020Y-62100000D03*
X146270980Y-62100000D03*
X154369020Y-62100000D03*
X152270980Y-62100000D03*
X160369020Y-62100000D03*
X158270980Y-62100000D03*
X121369020Y-89100000D03*
X119270980Y-89100000D03*
X127369020Y-89100000D03*
X125270980Y-89100000D03*
X133369020Y-89100000D03*
X131270980Y-89100000D03*
X139369020Y-89100000D03*
X137270980Y-89100000D03*
X145369020Y-89100000D03*
X143270980Y-89100000D03*
X151369020Y-89100000D03*
X149270980Y-89100000D03*
X157369020Y-89100000D03*
X155270980Y-89100000D03*
X163369020Y-89100000D03*
X161270980Y-89100000D03*
X121369020Y-65100000D03*
X119270980Y-65100000D03*
X127369020Y-65100000D03*
X125270980Y-65100000D03*
X133369020Y-65100000D03*
X131270980Y-65100000D03*
X139369020Y-65100000D03*
X137270980Y-65100000D03*
X145369020Y-65100000D03*
X143270980Y-65100000D03*
X151369020Y-65100000D03*
X149270980Y-65100000D03*
X157369020Y-65100000D03*
X155270980Y-65100000D03*
X163369020Y-65100000D03*
X161270980Y-65100000D03*
X118369020Y-92100000D03*
X116270980Y-92100000D03*
X124369020Y-92100000D03*
X122270980Y-92100000D03*
X130369020Y-92100000D03*
X128270980Y-92100000D03*
X136369020Y-92100000D03*
X134270980Y-92100000D03*
X142369020Y-92100000D03*
X140270980Y-92100000D03*
X148369020Y-92100000D03*
X146270980Y-92100000D03*
X154369020Y-92100000D03*
X152270980Y-92100000D03*
X160369020Y-92100000D03*
X158270980Y-92100000D03*
X118369020Y-68100000D03*
X116270980Y-68100000D03*
X124369020Y-68100000D03*
X122270980Y-68100000D03*
X130369020Y-68100000D03*
X128270980Y-68100000D03*
X136369020Y-68100000D03*
X134270980Y-68100000D03*
X142369020Y-68100000D03*
X140270980Y-68100000D03*
X148369020Y-68100000D03*
X146270980Y-68100000D03*
X154369020Y-68100000D03*
X152270980Y-68100000D03*
X160369020Y-68100000D03*
X158270980Y-68100000D03*
X121369020Y-95100000D03*
X119270980Y-95100000D03*
X127369020Y-95100000D03*
X125270980Y-95100000D03*
X133369020Y-95100000D03*
X131270980Y-95100000D03*
X139369020Y-95100000D03*
X137270980Y-95100000D03*
X145369020Y-95100000D03*
X143270980Y-95100000D03*
X151369020Y-95100000D03*
X149270980Y-95100000D03*
X157369020Y-95100000D03*
X155270980Y-95100000D03*
X163369020Y-95100000D03*
X161270980Y-95100000D03*
X121369020Y-71100000D03*
X119270980Y-71100000D03*
X127369020Y-71100000D03*
X125270980Y-71100000D03*
X133369020Y-71100000D03*
X131270980Y-71100000D03*
X139369020Y-71100000D03*
X137270980Y-71100000D03*
X145369020Y-71100000D03*
X143270980Y-71100000D03*
X157369020Y-71100000D03*
X155270980Y-71100000D03*
X163369020Y-71100000D03*
X161270980Y-71100000D03*
X118369020Y-98100000D03*
X116270980Y-98100000D03*
X124369020Y-98100000D03*
X122270980Y-98100000D03*
X130369020Y-98100000D03*
X128270980Y-98100000D03*
X136369020Y-98100000D03*
X134270980Y-98100000D03*
X142369020Y-98100000D03*
X140270980Y-98100000D03*
X148369020Y-98100000D03*
X146270980Y-98100000D03*
X154369020Y-98100000D03*
X152270980Y-98100000D03*
X160369020Y-98100000D03*
X158270980Y-98100000D03*
X118369020Y-74100000D03*
X116270980Y-74100000D03*
X124369020Y-74100000D03*
X122270980Y-74100000D03*
X130369020Y-74100000D03*
X128270980Y-74100000D03*
X136369020Y-74100000D03*
X134270980Y-74100000D03*
X142369020Y-74100000D03*
X140270980Y-74100000D03*
X148369020Y-74100000D03*
X146270980Y-74100000D03*
X154369020Y-74100000D03*
X152270980Y-74100000D03*
X160369020Y-74100000D03*
X158270980Y-74100000D03*
X121369020Y-101100000D03*
X119270980Y-101100000D03*
X127369020Y-101100000D03*
X125270980Y-101100000D03*
X133369020Y-101100000D03*
X131270980Y-101100000D03*
X139369020Y-101100000D03*
X137270980Y-101100000D03*
X145369020Y-101100000D03*
X143270980Y-101100000D03*
X151369020Y-101100000D03*
X149270980Y-101100000D03*
X157369020Y-101100000D03*
X155270980Y-101100000D03*
X163369020Y-101100000D03*
X161270980Y-101100000D03*
X121369020Y-77100000D03*
X119270980Y-77100000D03*
X127369020Y-77100000D03*
X125270980Y-77100000D03*
X133369020Y-77100000D03*
X131270980Y-77100000D03*
X139369020Y-77100000D03*
X137270980Y-77100000D03*
X145369020Y-77100000D03*
X143270980Y-77100000D03*
X151369020Y-77100000D03*
X149270980Y-77100000D03*
X157369020Y-77100000D03*
X155270980Y-77100000D03*
X163369020Y-77100000D03*
X161270980Y-77100000D03*
X118369020Y-104100000D03*
X116270980Y-104100000D03*
X124369020Y-104100000D03*
X122270980Y-104100000D03*
X130369020Y-104100000D03*
X128270980Y-104100000D03*
X136369020Y-104100000D03*
X134270980Y-104100000D03*
X142369020Y-104100000D03*
X140270980Y-104100000D03*
X148369020Y-104100000D03*
X146270980Y-104100000D03*
X154369020Y-104100000D03*
X152270980Y-104100000D03*
X160369020Y-104100000D03*
X158270980Y-104100000D03*
X118369020Y-80100000D03*
X116270980Y-80100000D03*
X130369020Y-80100000D03*
X128270980Y-80100000D03*
X136369020Y-80100000D03*
X134270980Y-80100000D03*
X142369020Y-80100000D03*
X140270980Y-80100000D03*
X148369020Y-80100000D03*
X146270980Y-80100000D03*
X154369020Y-80100000D03*
X152270980Y-80100000D03*
X160369020Y-80100000D03*
X158270980Y-80100000D03*
X121369020Y-107100000D03*
X119270980Y-107100000D03*
X127369020Y-107100000D03*
X125270980Y-107100000D03*
X133369020Y-107100000D03*
X131270980Y-107100000D03*
X139369020Y-107100000D03*
X137270980Y-107100000D03*
X145369020Y-107100000D03*
X143270980Y-107100000D03*
X151369020Y-107100000D03*
X149270980Y-107100000D03*
X157369020Y-107100000D03*
X155270980Y-107100000D03*
X163369020Y-107100000D03*
X161270980Y-107100000D03*
D15*
X160780000Y-128100000D03*
D16*
X160780000Y-125560000D03*
X163320000Y-128100000D03*
X163320000Y-125560000D03*
X165860000Y-128100000D03*
X165860000Y-125560000D03*
D17*
X134860000Y-125600000D03*
D18*
X132320000Y-125600000D03*
X129780000Y-125600000D03*
D17*
X122860000Y-125600000D03*
D18*
X120320000Y-125600000D03*
X117780000Y-125600000D03*
D19*
X148320000Y-133200000D03*
X148320000Y-131000000D03*
X150820000Y-133200000D03*
X150820000Y-131000000D03*
X153320000Y-133200000D03*
X153320000Y-131000000D03*
X145820000Y-131000000D03*
X145820000Y-133200000D03*
D20*
X148420000Y-116100000D03*
X146220000Y-116100000D03*
D19*
X125320000Y-131000000D03*
X125320000Y-133200000D03*
X122820000Y-131000000D03*
X122820000Y-133200000D03*
D20*
X125920000Y-116100000D03*
X123720000Y-116100000D03*
D19*
X132820000Y-131000000D03*
X132820000Y-133200000D03*
D17*
X165940000Y-136600000D03*
D18*
X163400000Y-136600000D03*
X160860000Y-136600000D03*
X158320000Y-136600000D03*
X155780000Y-136600000D03*
X153240000Y-136600000D03*
X150700000Y-136600000D03*
X148160000Y-136600000D03*
X145620000Y-136600000D03*
X143080000Y-136600000D03*
X140540000Y-136600000D03*
X138000000Y-136600000D03*
X135460000Y-136600000D03*
X132920000Y-136600000D03*
X130380000Y-136600000D03*
X127840000Y-136600000D03*
X125300000Y-136600000D03*
X122760000Y-136600000D03*
X120220000Y-136600000D03*
X117680000Y-136600000D03*
D21*
X120095672Y-116750316D03*
X120095672Y-116250316D03*
X120095672Y-117250316D03*
X120095672Y-115750316D03*
X118575672Y-117250316D03*
X118575672Y-116750316D03*
X118575672Y-116250316D03*
X118575672Y-115750316D03*
D22*
X119585672Y-117260316D03*
X119085672Y-117260316D03*
X119085672Y-115740316D03*
X119585672Y-115740316D03*
D23*
X142756520Y-118571390D03*
X142756520Y-118171390D03*
X142756520Y-117771390D03*
X142756520Y-117371390D03*
X142756520Y-116971390D03*
X142756520Y-116571390D03*
X142756520Y-116171390D03*
D24*
X141956520Y-115371390D03*
X141556520Y-115371390D03*
X141156520Y-115371390D03*
X140756520Y-115371390D03*
X140356520Y-115371390D03*
X139956520Y-115371390D03*
X139556520Y-115371390D03*
D23*
X138756520Y-116171390D03*
X138756520Y-116571390D03*
X138756520Y-116971390D03*
X138756520Y-117371390D03*
X138756520Y-117771390D03*
X138756520Y-118171390D03*
X138756520Y-118571390D03*
D24*
X139556520Y-119371390D03*
X139956520Y-119371390D03*
X140356520Y-119371390D03*
X140756520Y-119371390D03*
X141156520Y-119371390D03*
X141556520Y-119371390D03*
X141956520Y-119371390D03*
D25*
X140756520Y-117371390D03*
D26*
X161000000Y-116000000D03*
D27*
X162500000Y-116500000D03*
D26*
X161000000Y-117000000D03*
D27*
X159500000Y-116500000D03*
D28*
X161000000Y-116500000D03*
M02*
