M48
;DRILL file {KiCad 4.0.5+dfsg1-4} date Mon Sep 23 08:10:01 2019
;FORMAT={3:3/ absolute / metric / suppress leading zeros}
FMAT,2
METRIC,TZ
T1C0.400
T2C1.016
%
G90
G05
M71
T1
X114060Y-138050
X114300Y-131940
X114350Y-111090
X114350Y-120510
X115460Y-58560
X116271Y-56100
X116271Y-62100
X116271Y-68100
X116271Y-74100
X116271Y-80100
X116271Y-86100
X116271Y-92100
X116271Y-98100
X116271Y-104100
X116880Y-65070
X117020Y-71120
X117240Y-77160
X119271Y-59100
X119271Y-65100
X119271Y-71100
X119271Y-77100
X119271Y-83100
X119271Y-89100
X119271Y-95100
X119271Y-101100
X119271Y-107100
X119490Y-114710
X119700Y-130230
X120260Y-54520
X120260Y-121870
X120990Y-121270
X121369Y-107100
X121550Y-115470
X121720Y-129310
X122271Y-56100
X122271Y-62100
X122271Y-68100
X122271Y-74100
X122271Y-80100
X122271Y-86100
X122271Y-92100
X122271Y-98100
X122271Y-104100
X123260Y-83150
X123850Y-121590
X123950Y-141090
X124600Y-126810
X125271Y-59100
X125271Y-65100
X125271Y-71100
X125271Y-77100
X125271Y-83100
X125271Y-89100
X125271Y-95100
X125271Y-101100
X125271Y-107100
X126301Y-127790
X127369Y-107100
X127930Y-119700
X128271Y-56100
X128271Y-62100
X128271Y-68100
X128271Y-74100
X128271Y-80100
X128271Y-86100
X128271Y-92100
X128271Y-98100
X128271Y-104100
X128760Y-134420
X128950Y-141090
X130434Y-131024
X131271Y-59100
X131271Y-65100
X131271Y-71100
X131271Y-77100
X131271Y-83100
X131271Y-89100
X131271Y-95100
X131271Y-101100
X131271Y-107100
X131410Y-119240
X131680Y-134610
X132180Y-119910
X132820Y-131000
X133369Y-107100
X133370Y-115100
X133370Y-117100
X133850Y-113450
X134150Y-134290
X134271Y-56100
X134271Y-62100
X134271Y-68100
X134271Y-74100
X134271Y-80100
X134271Y-86100
X134271Y-92100
X134271Y-98100
X134271Y-104100
X135170Y-127480
X136440Y-134330
X137271Y-59100
X137271Y-65100
X137271Y-71100
X137271Y-77100
X137271Y-83100
X137271Y-89100
X137271Y-95100
X137271Y-101100
X137271Y-107100
X138950Y-140590
X139250Y-112010
X139369Y-107100
X140271Y-56100
X140271Y-62100
X140271Y-68100
X140271Y-74100
X140271Y-80100
X140271Y-86100
X140271Y-92100
X140271Y-98100
X140271Y-104100
X140630Y-133570
X140757Y-117371
X141355Y-108550
X141755Y-109450
X141950Y-130590
X142155Y-110380
X142431Y-127594
X142555Y-111156
X143271Y-59100
X143271Y-65100
X143271Y-71100
X143271Y-77100
X143271Y-83100
X143271Y-89100
X143271Y-95100
X143271Y-101100
X143271Y-107100
X143507Y-118863
X143990Y-69130
X144080Y-130230
X144250Y-133880
X144530Y-117980
X145810Y-126990
X146170Y-128740
X146271Y-56100
X146271Y-62100
X146271Y-68100
X146271Y-74100
X146271Y-80100
X146271Y-86100
X146271Y-92100
X146271Y-98100
X146271Y-104100
X146320Y-120100
X147405Y-121101
X148220Y-118100
X148320Y-133200
X148420Y-116100
X148820Y-120100
X148950Y-141190
X149271Y-59100
X149271Y-65100
X149271Y-71100
X149271Y-77100
X149271Y-83100
X149271Y-89100
X149271Y-95100
X149271Y-101100
X149271Y-107100
X151100Y-114280
X151170Y-113340
X151369Y-112211
X152271Y-56100
X152271Y-62100
X152271Y-68100
X152271Y-74100
X152271Y-80100
X152271Y-86100
X152271Y-92100
X152271Y-98100
X152271Y-104100
X155271Y-59100
X155271Y-65100
X155271Y-71100
X155271Y-77100
X155271Y-83100
X155271Y-89100
X155271Y-95100
X155271Y-101100
X155271Y-107100
X155950Y-110590
X156950Y-125590
X156950Y-133590
X157450Y-140990
X157950Y-128590
X158271Y-56100
X158271Y-62100
X158271Y-68100
X158271Y-74100
X158271Y-80100
X158271Y-86100
X158271Y-92100
X158271Y-98100
X158271Y-104100
X161271Y-59100
X161271Y-65100
X161271Y-71100
X161271Y-77100
X161271Y-83100
X161271Y-89100
X161271Y-95100
X161271Y-101100
X161271Y-107100
X164950Y-131590
X165910Y-105940
X167160Y-87110
X167600Y-116180
X170450Y-140590
X172830Y-65530
X174800Y-104120
X175620Y-71580
X177060Y-131990
X177360Y-123110
X178600Y-83310
T2
X117680Y-136600
X117780Y-125600
X120220Y-136600
X120320Y-125600
X122760Y-136600
X122860Y-125600
X125300Y-136600
X127840Y-136600
X129780Y-125600
X130380Y-136600
X132320Y-125600
X132920Y-136600
X134860Y-125600
X135460Y-136600
X138000Y-136600
X140540Y-136600
X143080Y-136600
X145620Y-136600
X148160Y-136600
X150700Y-136600
X153240Y-136600
X155780Y-136600
X158320Y-136600
X160780Y-125560
X160780Y-128100
X160860Y-136600
X163320Y-125560
X163320Y-128100
X163400Y-136600
X165860Y-125560
X165860Y-128100
X165940Y-136600
T0
M30
